G04 EAGLE Gerber RS-274X export*
G75*
%MOMM*%
%FSLAX34Y34*%
%LPD*%
%INTop Silkscreen*%
%IPPOS*%
%AMOC8*
5,1,8,0,0,1.08239X$1,22.5*%
G01*
%ADD10C,0.152400*%
%ADD11C,0.101600*%
%ADD12C,0.076200*%
%ADD13C,0.254000*%
%ADD14C,0.050800*%
%ADD15C,0.203200*%
%ADD16C,0.127000*%
%ADD17C,0.200000*%


D10*
X560578Y451612D02*
X560578Y457035D01*
X560578Y454324D02*
X544308Y454324D01*
X544308Y457035D02*
X544308Y451612D01*
X560578Y462526D02*
X560578Y473373D01*
X560578Y462526D02*
X549731Y473373D01*
X547020Y473373D01*
X544308Y470661D01*
X544308Y465238D01*
X547020Y462526D01*
X544308Y487033D02*
X547020Y489745D01*
X544308Y487033D02*
X544308Y481610D01*
X547020Y478898D01*
X557866Y478898D01*
X560578Y481610D01*
X560578Y487033D01*
X557866Y489745D01*
D11*
X143427Y328432D02*
X141478Y326483D01*
X143427Y328432D02*
X147325Y328432D01*
X149274Y326483D01*
X149274Y324534D01*
X147325Y322585D01*
X145376Y322585D01*
X147325Y322585D02*
X149274Y320636D01*
X149274Y318687D01*
X147325Y316738D01*
X143427Y316738D01*
X141478Y318687D01*
X153172Y318687D02*
X153172Y326483D01*
X155121Y328432D01*
X159019Y328432D01*
X160968Y326483D01*
X160968Y318687D01*
X159019Y316738D01*
X155121Y316738D01*
X153172Y318687D01*
X160968Y326483D01*
X164866Y326483D02*
X164866Y318687D01*
X164866Y326483D02*
X166815Y328432D01*
X170713Y328432D01*
X172662Y326483D01*
X172662Y318687D01*
X170713Y316738D01*
X166815Y316738D01*
X164866Y318687D01*
X172662Y326483D01*
X190203Y328432D02*
X194101Y328432D01*
X190203Y328432D02*
X188254Y326483D01*
X188254Y318687D01*
X190203Y316738D01*
X194101Y316738D01*
X196050Y318687D01*
X196050Y326483D01*
X194101Y328432D01*
X199948Y328432D02*
X199948Y316738D01*
X199948Y322585D02*
X201897Y324534D01*
X205795Y324534D01*
X207744Y322585D01*
X207744Y316738D01*
X211642Y316738D02*
X211642Y324534D01*
X213591Y324534D01*
X215540Y322585D01*
X215540Y316738D01*
X215540Y322585D02*
X217489Y324534D01*
X219438Y322585D01*
X219438Y316738D01*
D12*
X455934Y266327D02*
X457502Y264759D01*
X455934Y266327D02*
X452799Y266327D01*
X451231Y264759D01*
X451231Y258489D01*
X452799Y256921D01*
X455934Y256921D01*
X457502Y258489D01*
X460586Y258489D02*
X460586Y266327D01*
X460586Y258489D02*
X462154Y256921D01*
X465289Y256921D01*
X466857Y258489D01*
X466857Y266327D01*
X469941Y256921D02*
X473077Y256921D01*
X471509Y256921D02*
X471509Y266327D01*
X469941Y266327D02*
X473077Y266327D01*
X451231Y251087D02*
X451231Y241681D01*
X454366Y247952D02*
X451231Y251087D01*
X454366Y247952D02*
X457502Y251087D01*
X457502Y241681D01*
X460586Y243249D02*
X462154Y241681D01*
X463722Y241681D01*
X465289Y243249D01*
X465289Y251087D01*
X463722Y251087D02*
X466857Y251087D01*
X469941Y246384D02*
X476212Y246384D01*
X479297Y249519D02*
X480864Y251087D01*
X484000Y251087D01*
X485567Y249519D01*
X485567Y247952D01*
X484000Y246384D01*
X482432Y246384D01*
X484000Y246384D02*
X485567Y244816D01*
X485567Y243249D01*
X484000Y241681D01*
X480864Y241681D01*
X479297Y243249D01*
X488652Y251087D02*
X494922Y251087D01*
X488652Y251087D02*
X488652Y246384D01*
X491787Y247952D01*
X493355Y247952D01*
X494922Y246384D01*
X494922Y243249D01*
X493355Y241681D01*
X490219Y241681D01*
X488652Y243249D01*
X498007Y249519D02*
X499575Y251087D01*
X502710Y251087D01*
X504278Y249519D01*
X504278Y247952D01*
X502710Y246384D01*
X501142Y246384D01*
X502710Y246384D02*
X504278Y244816D01*
X504278Y243249D01*
X502710Y241681D01*
X499575Y241681D01*
X498007Y243249D01*
X510497Y249519D02*
X513633Y251087D01*
X510497Y249519D02*
X507362Y246384D01*
X507362Y243249D01*
X508930Y241681D01*
X512065Y241681D01*
X513633Y243249D01*
X513633Y244816D01*
X512065Y246384D01*
X507362Y246384D01*
X516717Y241681D02*
X516717Y251087D01*
X522988Y241681D01*
X522988Y251087D01*
D10*
X462459Y363570D02*
X459747Y366282D01*
X454324Y366282D01*
X451612Y363570D01*
X451612Y360859D01*
X454324Y358147D01*
X459747Y358147D01*
X462459Y355435D01*
X462459Y352724D01*
X459747Y350012D01*
X454324Y350012D01*
X451612Y352724D01*
X467984Y363570D02*
X467984Y366282D01*
X467984Y363570D02*
X473407Y358147D01*
X478830Y363570D01*
X478830Y366282D01*
X473407Y358147D02*
X473407Y350012D01*
X484355Y350012D02*
X484355Y366282D01*
X495202Y350012D01*
X495202Y366282D01*
X506150Y366282D02*
X506150Y350012D01*
X500727Y366282D02*
X511573Y366282D01*
X517098Y366282D02*
X517098Y350012D01*
X517098Y358147D02*
X527945Y358147D01*
X527945Y366282D02*
X527945Y350012D01*
X552553Y366282D02*
X557976Y366282D01*
X552553Y366282D02*
X549841Y363570D01*
X549841Y352724D01*
X552553Y350012D01*
X557976Y350012D01*
X560688Y352724D01*
X560688Y363570D01*
X557976Y366282D01*
X566213Y366282D02*
X566213Y352724D01*
X568925Y350012D01*
X574348Y350012D01*
X577060Y352724D01*
X577060Y366282D01*
X588008Y366282D02*
X588008Y350012D01*
X582585Y366282D02*
X593431Y366282D01*
X97797Y486932D02*
X92374Y486932D01*
X89662Y484220D01*
X89662Y473374D01*
X92374Y470662D01*
X97797Y470662D01*
X100509Y473374D01*
X100509Y484220D01*
X97797Y486932D01*
X106034Y486932D02*
X106034Y470662D01*
X116880Y470662D02*
X106034Y486932D01*
X116880Y486932D02*
X116880Y470662D01*
X97797Y461532D02*
X92374Y461532D01*
X89662Y458820D01*
X89662Y447974D01*
X92374Y445262D01*
X97797Y445262D01*
X100509Y447974D01*
X100509Y458820D01*
X97797Y461532D01*
X106034Y461532D02*
X106034Y445262D01*
X106034Y461532D02*
X116880Y461532D01*
X111457Y453397D02*
X106034Y453397D01*
X122405Y445262D02*
X122405Y461532D01*
X133252Y461532D01*
X127828Y453397D02*
X122405Y453397D01*
X95085Y436132D02*
X95085Y419862D01*
X89662Y436132D02*
X100509Y436132D01*
X106034Y436132D02*
X116880Y436132D01*
X106034Y436132D02*
X106034Y419862D01*
X116880Y419862D01*
X111457Y427997D02*
X106034Y427997D01*
X130540Y436132D02*
X133252Y433420D01*
X130540Y436132D02*
X125117Y436132D01*
X122405Y433420D01*
X122405Y430709D01*
X125117Y427997D01*
X130540Y427997D01*
X133252Y425285D01*
X133252Y422574D01*
X130540Y419862D01*
X125117Y419862D01*
X122405Y422574D01*
X144200Y419862D02*
X144200Y436132D01*
X138777Y436132D02*
X149623Y436132D01*
D11*
X46404Y334103D02*
X44455Y336052D01*
X40557Y336052D01*
X38608Y334103D01*
X38608Y326307D01*
X40557Y324358D01*
X44455Y324358D01*
X46404Y326307D01*
X46404Y330205D01*
X42506Y330205D01*
X50302Y324358D02*
X50302Y336052D01*
X58098Y324358D01*
X58098Y336052D01*
X61996Y336052D02*
X61996Y324358D01*
X67843Y324358D01*
X69792Y326307D01*
X69792Y334103D01*
X67843Y336052D01*
X61996Y336052D01*
X38608Y230554D02*
X38608Y222758D01*
X38608Y230554D02*
X42506Y234452D01*
X46404Y230554D01*
X46404Y222758D01*
X46404Y228605D02*
X38608Y228605D01*
X50302Y222758D02*
X50302Y234452D01*
X58098Y222758D01*
X58098Y234452D01*
X61996Y230554D02*
X61996Y222758D01*
X61996Y230554D02*
X65894Y234452D01*
X69792Y230554D01*
X69792Y222758D01*
X69792Y228605D02*
X61996Y228605D01*
X73690Y234452D02*
X73690Y222758D01*
X81486Y222758D01*
X87333Y234452D02*
X91231Y234452D01*
X87333Y234452D02*
X85384Y232503D01*
X85384Y224707D01*
X87333Y222758D01*
X91231Y222758D01*
X93180Y224707D01*
X93180Y232503D01*
X91231Y234452D01*
X102925Y234452D02*
X104874Y232503D01*
X102925Y234452D02*
X99027Y234452D01*
X97078Y232503D01*
X97078Y224707D01*
X99027Y222758D01*
X102925Y222758D01*
X104874Y224707D01*
X104874Y228605D01*
X100976Y228605D01*
X120466Y230554D02*
X120466Y222758D01*
X120466Y230554D02*
X124364Y234452D01*
X128262Y230554D01*
X128262Y222758D01*
X128262Y228605D02*
X120466Y228605D01*
X132160Y224707D02*
X132160Y232503D01*
X134109Y234452D01*
X138007Y234452D01*
X139956Y232503D01*
X139956Y224707D01*
X138007Y222758D01*
X134109Y222758D01*
X132160Y224707D01*
X139956Y232503D01*
X38608Y248158D02*
X38608Y259852D01*
X38608Y248158D02*
X46404Y248158D01*
X50302Y248158D02*
X50302Y255954D01*
X54200Y259852D01*
X58098Y255954D01*
X58098Y248158D01*
X58098Y254005D02*
X50302Y254005D01*
X61996Y259852D02*
X61996Y248158D01*
X67843Y248158D01*
X69792Y250107D01*
X69792Y257903D01*
X67843Y259852D01*
X61996Y259852D01*
X73690Y259852D02*
X73690Y248158D01*
X79537Y248158D01*
X81486Y250107D01*
X81486Y257903D01*
X79537Y259852D01*
X73690Y259852D01*
X85384Y259852D02*
X93180Y259852D01*
X85384Y259852D02*
X85384Y248158D01*
X93180Y248158D01*
X89282Y254005D02*
X85384Y254005D01*
X97078Y248158D02*
X97078Y259852D01*
X102925Y259852D01*
X104874Y257903D01*
X104874Y254005D01*
X102925Y252056D01*
X97078Y252056D01*
X100976Y252056D02*
X104874Y248158D01*
X46404Y285252D02*
X38608Y285252D01*
X38608Y279405D01*
X42506Y281354D01*
X44455Y281354D01*
X46404Y279405D01*
X46404Y275507D01*
X44455Y273558D01*
X40557Y273558D01*
X38608Y275507D01*
X50302Y277456D02*
X50302Y285252D01*
X50302Y277456D02*
X54200Y273558D01*
X58098Y277456D01*
X58098Y285252D01*
X61996Y285252D02*
X61996Y273558D01*
X67843Y273558D01*
X69792Y275507D01*
X69792Y283303D01*
X67843Y285252D01*
X61996Y285252D01*
X79537Y285252D02*
X81486Y283303D01*
X79537Y285252D02*
X75639Y285252D01*
X73690Y283303D01*
X73690Y275507D01*
X75639Y273558D01*
X79537Y273558D01*
X81486Y275507D01*
X38608Y298958D02*
X38608Y310652D01*
X44455Y310652D01*
X46404Y308703D01*
X46404Y304805D01*
X44455Y302856D01*
X38608Y302856D01*
X42506Y302856D02*
X46404Y298958D01*
X58098Y308703D02*
X56149Y310652D01*
X52251Y310652D01*
X50302Y308703D01*
X50302Y300907D01*
X52251Y298958D01*
X56149Y298958D01*
X58098Y300907D01*
X58098Y304805D01*
X54200Y304805D01*
X61996Y298958D02*
X61996Y310652D01*
X67843Y310652D01*
X69792Y308703D01*
X69792Y306754D01*
X67843Y304805D01*
X69792Y302856D01*
X69792Y300907D01*
X67843Y298958D01*
X61996Y298958D01*
X61996Y304805D02*
X67843Y304805D01*
X85384Y310652D02*
X85384Y298958D01*
X93180Y298958D01*
X97078Y310652D02*
X104874Y310652D01*
X97078Y310652D02*
X97078Y298958D01*
X104874Y298958D01*
X100976Y304805D02*
X97078Y304805D01*
X108772Y310652D02*
X108772Y298958D01*
X114619Y298958D01*
X116568Y300907D01*
X116568Y308703D01*
X114619Y310652D01*
X108772Y310652D01*
D10*
X330962Y381762D02*
X330962Y392609D01*
X336385Y398032D01*
X341809Y392609D01*
X341809Y381762D01*
X341809Y389897D02*
X330962Y389897D01*
X347334Y395320D02*
X350045Y398032D01*
X355469Y398032D01*
X358180Y395320D01*
X358180Y392609D01*
X355469Y389897D01*
X352757Y389897D01*
X355469Y389897D02*
X358180Y387185D01*
X358180Y384474D01*
X355469Y381762D01*
X350045Y381762D01*
X347334Y384474D01*
D11*
X465997Y128954D02*
X464048Y127005D01*
X464048Y123107D01*
X465997Y121158D01*
X473793Y121158D01*
X475742Y123107D01*
X475742Y127005D01*
X473793Y128954D01*
X469895Y128954D01*
X469895Y125056D01*
X475742Y132852D02*
X464048Y132852D01*
X475742Y140648D01*
X464048Y140648D01*
X464048Y144546D02*
X475742Y144546D01*
X475742Y150393D01*
X473793Y152342D01*
X465997Y152342D01*
X464048Y150393D01*
X464048Y144546D01*
X438648Y128954D02*
X438648Y121158D01*
X444495Y121158D01*
X442546Y125056D01*
X442546Y127005D01*
X444495Y128954D01*
X448393Y128954D01*
X450342Y127005D01*
X450342Y123107D01*
X448393Y121158D01*
X446444Y144546D02*
X438648Y144546D01*
X446444Y144546D02*
X450342Y148444D01*
X446444Y152342D01*
X438648Y152342D01*
X438648Y156240D02*
X450342Y156240D01*
X450342Y162087D01*
X448393Y164036D01*
X440597Y164036D01*
X438648Y162087D01*
X438648Y156240D01*
X438648Y173781D02*
X440597Y175730D01*
X438648Y173781D02*
X438648Y169883D01*
X440597Y167934D01*
X448393Y167934D01*
X450342Y169883D01*
X450342Y173781D01*
X448393Y175730D01*
X424942Y121158D02*
X413248Y121158D01*
X424942Y121158D02*
X424942Y127005D01*
X422993Y128954D01*
X415197Y128954D01*
X413248Y127005D01*
X413248Y121158D01*
X417146Y132852D02*
X413248Y136750D01*
X424942Y136750D01*
X424942Y132852D02*
X424942Y140648D01*
X417146Y144546D02*
X413248Y148444D01*
X424942Y148444D01*
X424942Y144546D02*
X424942Y152342D01*
X399542Y121158D02*
X387848Y121158D01*
X399542Y121158D02*
X399542Y127005D01*
X397593Y128954D01*
X389797Y128954D01*
X387848Y127005D01*
X387848Y121158D01*
X391746Y132852D02*
X387848Y136750D01*
X399542Y136750D01*
X399542Y132852D02*
X399542Y140648D01*
X397593Y144546D02*
X389797Y144546D01*
X387848Y146495D01*
X387848Y150393D01*
X389797Y152342D01*
X397593Y152342D01*
X399542Y150393D01*
X399542Y146495D01*
X397593Y144546D01*
X389797Y152342D01*
X374142Y121158D02*
X362448Y121158D01*
X374142Y121158D02*
X374142Y127005D01*
X372193Y128954D01*
X364397Y128954D01*
X362448Y127005D01*
X362448Y121158D01*
X364397Y132852D02*
X362448Y134801D01*
X362448Y138699D01*
X364397Y140648D01*
X366346Y140648D01*
X368295Y138699D01*
X370244Y140648D01*
X372193Y140648D01*
X374142Y138699D01*
X374142Y134801D01*
X372193Y132852D01*
X370244Y132852D01*
X368295Y134801D01*
X366346Y132852D01*
X364397Y132852D01*
X368295Y134801D02*
X368295Y138699D01*
X348742Y121158D02*
X337048Y121158D01*
X348742Y121158D02*
X348742Y127005D01*
X346793Y128954D01*
X338997Y128954D01*
X337048Y127005D01*
X337048Y121158D01*
X337048Y132852D02*
X337048Y140648D01*
X338997Y140648D01*
X346793Y132852D01*
X348742Y132852D01*
X323342Y121158D02*
X311648Y121158D01*
X323342Y121158D02*
X323342Y127005D01*
X321393Y128954D01*
X313597Y128954D01*
X311648Y127005D01*
X311648Y121158D01*
X313597Y136750D02*
X311648Y140648D01*
X313597Y136750D02*
X317495Y132852D01*
X321393Y132852D01*
X323342Y134801D01*
X323342Y138699D01*
X321393Y140648D01*
X319444Y140648D01*
X317495Y138699D01*
X317495Y132852D01*
X297942Y121158D02*
X286248Y121158D01*
X297942Y121158D02*
X297942Y127005D01*
X295993Y128954D01*
X288197Y128954D01*
X286248Y127005D01*
X286248Y121158D01*
X286248Y132852D02*
X286248Y140648D01*
X286248Y132852D02*
X292095Y132852D01*
X290146Y136750D01*
X290146Y138699D01*
X292095Y140648D01*
X295993Y140648D01*
X297942Y138699D01*
X297942Y134801D01*
X295993Y132852D01*
X272542Y121158D02*
X260848Y121158D01*
X272542Y121158D02*
X272542Y127005D01*
X270593Y128954D01*
X262797Y128954D01*
X260848Y127005D01*
X260848Y121158D01*
X260848Y138699D02*
X272542Y138699D01*
X266695Y132852D02*
X260848Y138699D01*
X266695Y140648D02*
X266695Y132852D01*
X247142Y121158D02*
X235448Y121158D01*
X247142Y121158D02*
X247142Y127005D01*
X245193Y128954D01*
X237397Y128954D01*
X235448Y127005D01*
X235448Y121158D01*
X237397Y132852D02*
X235448Y134801D01*
X235448Y138699D01*
X237397Y140648D01*
X239346Y140648D01*
X241295Y138699D01*
X241295Y136750D01*
X241295Y138699D02*
X243244Y140648D01*
X245193Y140648D01*
X247142Y138699D01*
X247142Y134801D01*
X245193Y132852D01*
D12*
X582313Y506603D02*
X582313Y513975D01*
X582313Y506603D02*
X585999Y506603D01*
X587228Y507832D01*
X587228Y512747D01*
X585999Y513975D01*
X582313Y513975D01*
X589797Y511518D02*
X589797Y506603D01*
X589797Y511518D02*
X592254Y513975D01*
X594712Y511518D01*
X594712Y506603D01*
X594712Y510289D02*
X589797Y510289D01*
X585999Y488575D02*
X587228Y487347D01*
X585999Y488575D02*
X583541Y488575D01*
X582313Y487347D01*
X582313Y482432D01*
X583541Y481203D01*
X585999Y481203D01*
X587228Y482432D01*
X589797Y481203D02*
X589797Y488575D01*
X589797Y481203D02*
X594712Y481203D01*
X578515Y463175D02*
X579743Y461947D01*
X578515Y463175D02*
X576057Y463175D01*
X574829Y461947D01*
X574829Y457032D01*
X576057Y455803D01*
X578515Y455803D01*
X579743Y457032D01*
X579743Y459489D01*
X577286Y459489D01*
X582313Y455803D02*
X582313Y463175D01*
X587228Y455803D01*
X587228Y463175D01*
X589797Y463175D02*
X589797Y455803D01*
X593483Y455803D01*
X594712Y457032D01*
X594712Y461947D01*
X593483Y463175D01*
X589797Y463175D01*
X557347Y437775D02*
X556118Y436547D01*
X557347Y437775D02*
X559804Y437775D01*
X561033Y436547D01*
X561033Y435318D01*
X559804Y434089D01*
X558576Y434089D01*
X559804Y434089D02*
X561033Y432860D01*
X561033Y431632D01*
X559804Y430403D01*
X557347Y430403D01*
X556118Y431632D01*
X563602Y431632D02*
X563602Y430403D01*
X563602Y431632D02*
X564831Y431632D01*
X564831Y430403D01*
X563602Y430403D01*
X567344Y436547D02*
X568573Y437775D01*
X571031Y437775D01*
X572259Y436547D01*
X572259Y435318D01*
X571031Y434089D01*
X569802Y434089D01*
X571031Y434089D02*
X572259Y432860D01*
X572259Y431632D01*
X571031Y430403D01*
X568573Y430403D01*
X567344Y431632D01*
X574829Y432860D02*
X574829Y437775D01*
X574829Y432860D02*
X577286Y430403D01*
X579743Y432860D01*
X579743Y437775D01*
X582313Y437775D02*
X582313Y430403D01*
X585999Y430403D01*
X587228Y431632D01*
X587228Y436547D01*
X585999Y437775D01*
X582313Y437775D01*
X593483Y437775D02*
X594712Y436547D01*
X593483Y437775D02*
X591026Y437775D01*
X589797Y436547D01*
X589797Y431632D01*
X591026Y430403D01*
X593483Y430403D01*
X594712Y431632D01*
D10*
X37935Y137682D02*
X32512Y132259D01*
X37935Y137682D02*
X37935Y121412D01*
X32512Y121412D02*
X43359Y121412D01*
X48884Y124124D02*
X48884Y134970D01*
X51595Y137682D01*
X57019Y137682D01*
X59730Y134970D01*
X59730Y124124D01*
X57019Y121412D01*
X51595Y121412D01*
X48884Y124124D01*
X59730Y134970D01*
X65255Y134970D02*
X65255Y124124D01*
X65255Y134970D02*
X67967Y137682D01*
X73390Y137682D01*
X76102Y134970D01*
X76102Y124124D01*
X73390Y121412D01*
X67967Y121412D01*
X65255Y124124D01*
X76102Y134970D01*
X81627Y134970D02*
X81627Y124124D01*
X81627Y134970D02*
X84338Y137682D01*
X89762Y137682D01*
X92473Y134970D01*
X92473Y124124D01*
X89762Y121412D01*
X84338Y121412D01*
X81627Y124124D01*
X92473Y134970D01*
X114370Y132259D02*
X114370Y124124D01*
X117081Y121412D01*
X125216Y121412D01*
X125216Y132259D01*
X130741Y137682D02*
X130741Y121412D01*
X130741Y137682D02*
X141588Y137682D01*
X136165Y129547D02*
X130741Y129547D01*
D11*
X39878Y469138D02*
X39878Y476934D01*
X43776Y480832D01*
X47674Y476934D01*
X47674Y469138D01*
X47674Y474985D02*
X39878Y474985D01*
X51572Y469138D02*
X59368Y469138D01*
X51572Y469138D02*
X59368Y476934D01*
X59368Y478883D01*
X57419Y480832D01*
X53521Y480832D01*
X51572Y478883D01*
X39878Y419784D02*
X39878Y411988D01*
X39878Y419784D02*
X43776Y423682D01*
X47674Y419784D01*
X47674Y411988D01*
X47674Y417835D02*
X39878Y417835D01*
X51572Y419784D02*
X55470Y423682D01*
X55470Y411988D01*
X51572Y411988D02*
X59368Y411988D01*
X46404Y448403D02*
X44455Y450352D01*
X40557Y450352D01*
X38608Y448403D01*
X38608Y440607D01*
X40557Y438658D01*
X44455Y438658D01*
X46404Y440607D01*
X46404Y444505D01*
X42506Y444505D01*
X50302Y438658D02*
X50302Y450352D01*
X58098Y438658D01*
X58098Y450352D01*
X61996Y450352D02*
X61996Y438658D01*
X67843Y438658D01*
X69792Y440607D01*
X69792Y448403D01*
X67843Y450352D01*
X61996Y450352D01*
X446278Y226832D02*
X446278Y215138D01*
X452125Y215138D01*
X454074Y217087D01*
X454074Y224883D01*
X452125Y226832D01*
X446278Y226832D01*
X457972Y217087D02*
X459921Y215138D01*
X463819Y215138D01*
X465768Y217087D01*
X465768Y224883D01*
X463819Y226832D01*
X459921Y226832D01*
X457972Y224883D01*
X457972Y222934D01*
X459921Y220985D01*
X465768Y220985D01*
X585968Y170776D02*
X589866Y166878D01*
X585968Y170776D02*
X597662Y170776D01*
X597662Y166878D02*
X597662Y174674D01*
X595713Y178572D02*
X587917Y178572D01*
X585968Y180521D01*
X585968Y184419D01*
X587917Y186368D01*
X595713Y186368D01*
X597662Y184419D01*
X597662Y180521D01*
X595713Y178572D01*
X587917Y186368D01*
X589866Y201960D02*
X595713Y201960D01*
X597662Y203909D01*
X597662Y209756D01*
X589866Y209756D01*
X585968Y213654D02*
X597662Y213654D01*
X585968Y213654D02*
X585968Y221450D01*
X591815Y217552D02*
X591815Y213654D01*
X532716Y166878D02*
X528818Y170776D01*
X540512Y170776D01*
X540512Y166878D02*
X540512Y174674D01*
X538563Y178572D02*
X530767Y178572D01*
X528818Y180521D01*
X528818Y184419D01*
X530767Y186368D01*
X538563Y186368D01*
X540512Y184419D01*
X540512Y180521D01*
X538563Y178572D01*
X530767Y186368D01*
X532716Y201960D02*
X538563Y201960D01*
X540512Y203909D01*
X540512Y209756D01*
X532716Y209756D01*
X528818Y213654D02*
X540512Y213654D01*
X528818Y213654D02*
X528818Y221450D01*
X534665Y217552D02*
X534665Y213654D01*
X95758Y311658D02*
X95758Y323352D01*
X95758Y311658D02*
X101605Y311658D01*
X103554Y313607D01*
X103554Y321403D01*
X101605Y323352D01*
X95758Y323352D01*
X107452Y319454D02*
X111350Y323352D01*
X111350Y311658D01*
X107452Y311658D02*
X115248Y311658D01*
X119146Y311658D02*
X126942Y311658D01*
X119146Y311658D02*
X126942Y319454D01*
X126942Y321403D01*
X124993Y323352D01*
X121095Y323352D01*
X119146Y321403D01*
D10*
X535947Y417082D02*
X538659Y414370D01*
X535947Y417082D02*
X530524Y417082D01*
X527812Y414370D01*
X527812Y411659D01*
X530524Y408947D01*
X535947Y408947D01*
X538659Y406235D01*
X538659Y403524D01*
X535947Y400812D01*
X530524Y400812D01*
X527812Y403524D01*
X544184Y417082D02*
X555030Y417082D01*
X544184Y417082D02*
X544184Y400812D01*
X555030Y400812D01*
X549607Y408947D02*
X544184Y408947D01*
X560555Y400812D02*
X560555Y417082D01*
X571402Y400812D01*
X571402Y417082D01*
X585062Y417082D02*
X587773Y414370D01*
X585062Y417082D02*
X579638Y417082D01*
X576927Y414370D01*
X576927Y411659D01*
X579638Y408947D01*
X585062Y408947D01*
X587773Y406235D01*
X587773Y403524D01*
X585062Y400812D01*
X579638Y400812D01*
X576927Y403524D01*
X596010Y417082D02*
X601433Y417082D01*
X596010Y417082D02*
X593298Y414370D01*
X593298Y403524D01*
X596010Y400812D01*
X601433Y400812D01*
X604145Y403524D01*
X604145Y414370D01*
X601433Y417082D01*
X609670Y417082D02*
X609670Y400812D01*
X609670Y417082D02*
X617805Y417082D01*
X620516Y414370D01*
X620516Y408947D01*
X617805Y406235D01*
X609670Y406235D01*
X615093Y406235D02*
X620516Y400812D01*
X316276Y227852D02*
X316276Y211582D01*
X316276Y217005D02*
X327122Y227852D01*
X318987Y219717D02*
X327122Y211582D01*
X332647Y211582D02*
X332647Y227852D01*
X343494Y211582D01*
X343494Y227852D01*
X351730Y227852D02*
X357154Y227852D01*
X351730Y227852D02*
X349019Y225140D01*
X349019Y214294D01*
X351730Y211582D01*
X357154Y211582D01*
X359865Y214294D01*
X359865Y225140D01*
X357154Y227852D01*
X365390Y227852D02*
X365390Y211582D01*
X365390Y227852D02*
X373525Y227852D01*
X376237Y225140D01*
X376237Y222429D01*
X373525Y219717D01*
X376237Y217005D01*
X376237Y214294D01*
X373525Y211582D01*
X365390Y211582D01*
X365390Y219717D02*
X373525Y219717D01*
X135897Y173482D02*
X127762Y173482D01*
X135897Y173482D02*
X138609Y176194D01*
X135897Y178905D01*
X130474Y178905D01*
X127762Y181617D01*
X130474Y184329D01*
X138609Y184329D01*
X144134Y184329D02*
X144134Y176194D01*
X146845Y173482D01*
X149557Y176194D01*
X152269Y173482D01*
X154980Y176194D01*
X154980Y184329D01*
X160505Y184329D02*
X163217Y184329D01*
X163217Y173482D01*
X165928Y173482D02*
X160505Y173482D01*
X163217Y189752D02*
X163217Y192464D01*
X174131Y187040D02*
X174131Y176194D01*
X176843Y173482D01*
X176843Y184329D02*
X171420Y184329D01*
X185046Y184329D02*
X193180Y184329D01*
X185046Y184329D02*
X182334Y181617D01*
X182334Y176194D01*
X185046Y173482D01*
X193180Y173482D01*
X198705Y173482D02*
X198705Y189752D01*
X201417Y184329D02*
X198705Y181617D01*
X201417Y184329D02*
X206840Y184329D01*
X209552Y181617D01*
X209552Y173482D01*
X217789Y173482D02*
X223212Y173482D01*
X225924Y176194D01*
X225924Y181617D01*
X223212Y184329D01*
X217789Y184329D01*
X215077Y181617D01*
X215077Y176194D01*
X217789Y173482D01*
X234160Y176194D02*
X234160Y187040D01*
X234160Y176194D02*
X236872Y173482D01*
X236872Y184329D02*
X231449Y184329D01*
X242363Y184329D02*
X242363Y173482D01*
X242363Y178905D02*
X247786Y184329D01*
X250498Y184329D01*
X258718Y173482D02*
X264141Y173482D01*
X266853Y176194D01*
X266853Y181617D01*
X264141Y184329D01*
X258718Y184329D01*
X256006Y181617D01*
X256006Y176194D01*
X258718Y173482D01*
X272377Y173482D02*
X272377Y184329D01*
X280512Y184329D01*
X283224Y181617D01*
X283224Y173482D01*
X288749Y181617D02*
X299596Y181617D01*
X307832Y184329D02*
X313256Y184329D01*
X315967Y181617D01*
X315967Y173482D01*
X307832Y173482D01*
X305121Y176194D01*
X307832Y178905D01*
X315967Y178905D01*
X321492Y173482D02*
X321492Y184329D01*
X326915Y184329D02*
X321492Y178905D01*
X326915Y184329D02*
X329627Y184329D01*
X345982Y189752D02*
X345982Y173482D01*
X337847Y173482D01*
X335135Y176194D01*
X335135Y181617D01*
X337847Y184329D01*
X345982Y184329D01*
X351507Y184329D02*
X351507Y176194D01*
X354218Y173482D01*
X362353Y173482D01*
X362353Y184329D01*
X367878Y184329D02*
X370590Y184329D01*
X370590Y173482D01*
X367878Y173482D02*
X373302Y173482D01*
X370590Y189752D02*
X370590Y192464D01*
X378793Y184329D02*
X378793Y173482D01*
X378793Y184329D02*
X386928Y184329D01*
X389639Y181617D01*
X389639Y173482D01*
X397876Y173482D02*
X403299Y173482D01*
X406011Y176194D01*
X406011Y181617D01*
X403299Y184329D01*
X397876Y184329D01*
X395164Y181617D01*
X395164Y176194D01*
X397876Y173482D01*
X411536Y181617D02*
X422382Y181617D01*
X427907Y184329D02*
X427907Y176194D01*
X430619Y173482D01*
X438754Y173482D01*
X438754Y184329D01*
X444279Y184329D02*
X444279Y173482D01*
X444279Y184329D02*
X452414Y184329D01*
X455125Y181617D01*
X455125Y173482D01*
X463362Y173482D02*
X468785Y173482D01*
X471497Y176194D01*
X471497Y181617D01*
X468785Y184329D01*
X463362Y184329D01*
X460650Y181617D01*
X460650Y176194D01*
X463362Y173482D01*
X477022Y181617D02*
X487869Y181617D01*
X493394Y173482D02*
X501529Y173482D01*
X504240Y176194D01*
X501529Y178905D01*
X496105Y178905D01*
X493394Y181617D01*
X496105Y184329D01*
X504240Y184329D01*
X509765Y189752D02*
X509765Y173482D01*
X509765Y181617D02*
X512477Y184329D01*
X517900Y184329D01*
X520612Y181617D01*
X520612Y173482D01*
X526137Y184329D02*
X528848Y184329D01*
X528848Y173482D01*
X526137Y173482D02*
X531560Y173482D01*
X528848Y189752D02*
X528848Y192464D01*
X539763Y173482D02*
X545186Y173482D01*
X539763Y173482D02*
X537051Y176194D01*
X537051Y181617D01*
X539763Y184329D01*
X545186Y184329D01*
X547898Y181617D01*
X547898Y178905D01*
X537051Y178905D01*
X553423Y189752D02*
X556134Y189752D01*
X556134Y173482D01*
X553423Y173482D02*
X558846Y173482D01*
X575184Y173482D02*
X575184Y189752D01*
X575184Y173482D02*
X567049Y173482D01*
X564337Y176194D01*
X564337Y181617D01*
X567049Y184329D01*
X575184Y184329D01*
X580709Y181617D02*
X591555Y181617D01*
X597080Y184329D02*
X602503Y173482D01*
X607927Y184329D01*
X613452Y184329D02*
X618875Y189752D01*
X618875Y173482D01*
X613452Y173482D02*
X624298Y173482D01*
X127762Y163082D02*
X127762Y146812D01*
X135897Y146812D01*
X138609Y149524D01*
X138609Y160370D01*
X135897Y163082D01*
X127762Y163082D01*
X144134Y163082D02*
X154980Y163082D01*
X144134Y163082D02*
X144134Y146812D01*
X154980Y146812D01*
X149557Y154947D02*
X144134Y154947D01*
X168640Y163082D02*
X171352Y160370D01*
X168640Y163082D02*
X163217Y163082D01*
X160505Y160370D01*
X160505Y149524D01*
X163217Y146812D01*
X168640Y146812D01*
X171352Y149524D01*
X193248Y146812D02*
X204095Y146812D01*
X193248Y146812D02*
X204095Y157659D01*
X204095Y160370D01*
X201383Y163082D01*
X195960Y163082D01*
X193248Y160370D01*
X209620Y160370D02*
X209620Y149524D01*
X209620Y160370D02*
X212331Y163082D01*
X217755Y163082D01*
X220466Y160370D01*
X220466Y149524D01*
X217755Y146812D01*
X212331Y146812D01*
X209620Y149524D01*
X220466Y160370D01*
X225991Y146812D02*
X236838Y146812D01*
X225991Y146812D02*
X236838Y157659D01*
X236838Y160370D01*
X234126Y163082D01*
X228703Y163082D01*
X225991Y160370D01*
X242363Y160370D02*
X245075Y163082D01*
X250498Y163082D01*
X253210Y160370D01*
X253210Y157659D01*
X250498Y154947D01*
X247786Y154947D01*
X250498Y154947D02*
X253210Y152235D01*
X253210Y149524D01*
X250498Y146812D01*
X245075Y146812D01*
X242363Y149524D01*
D11*
X50126Y176032D02*
X46228Y172134D01*
X50126Y176032D02*
X50126Y164338D01*
X46228Y164338D02*
X54024Y164338D01*
X69616Y164338D02*
X69616Y176032D01*
X73514Y172134D01*
X77412Y176032D01*
X77412Y164338D01*
X560568Y116078D02*
X572262Y116078D01*
X572262Y121925D01*
X570313Y123874D01*
X562517Y123874D01*
X560568Y121925D01*
X560568Y116078D01*
X570313Y127772D02*
X572262Y129721D01*
X572262Y133619D01*
X570313Y135568D01*
X562517Y135568D01*
X560568Y133619D01*
X560568Y129721D01*
X562517Y127772D01*
X564466Y127772D01*
X566415Y129721D01*
X566415Y135568D01*
D13*
X12700Y330200D02*
X6350Y330200D01*
X6350Y254000D01*
X12700Y254000D01*
D12*
X6731Y394081D02*
X6731Y403487D01*
X13002Y394081D01*
X13002Y403487D01*
X16086Y403487D02*
X16086Y394081D01*
X16086Y397216D02*
X22357Y403487D01*
X17654Y398784D02*
X22357Y394081D01*
X25441Y394081D02*
X25441Y403487D01*
X25441Y397216D02*
X31712Y403487D01*
X27009Y398784D02*
X31712Y394081D01*
X34797Y400352D02*
X36364Y400352D01*
X36364Y398784D01*
X34797Y398784D01*
X34797Y400352D01*
X34797Y395649D02*
X36364Y395649D01*
X36364Y394081D01*
X34797Y394081D01*
X34797Y395649D01*
X48829Y394081D02*
X48829Y403487D01*
X53532Y403487D01*
X55100Y401919D01*
X55100Y400352D01*
X53532Y398784D01*
X55100Y397216D01*
X55100Y395649D01*
X53532Y394081D01*
X48829Y394081D01*
X48829Y398784D02*
X53532Y398784D01*
X58185Y400352D02*
X61320Y403487D01*
X61320Y394081D01*
X58185Y394081D02*
X64455Y394081D01*
X67540Y401919D02*
X69107Y403487D01*
X72243Y403487D01*
X73810Y401919D01*
X73810Y400352D01*
X72243Y398784D01*
X70675Y398784D01*
X72243Y398784D02*
X73810Y397216D01*
X73810Y395649D01*
X72243Y394081D01*
X69107Y394081D01*
X67540Y395649D01*
X76895Y394081D02*
X76895Y400352D01*
X80030Y403487D01*
X83166Y400352D01*
X83166Y394081D01*
X83166Y398784D02*
X76895Y398784D01*
X86250Y394081D02*
X86250Y403487D01*
X90953Y403487D01*
X92521Y401919D01*
X92521Y398784D01*
X90953Y397216D01*
X86250Y397216D01*
X28916Y47887D02*
X25781Y44752D01*
X28916Y47887D02*
X28916Y38481D01*
X25781Y38481D02*
X32052Y38481D01*
X35136Y44752D02*
X38272Y47887D01*
X38272Y38481D01*
X41407Y38481D02*
X35136Y38481D01*
X44491Y46319D02*
X46059Y47887D01*
X49194Y47887D01*
X50762Y46319D01*
X50762Y44752D01*
X49194Y43184D01*
X50762Y41616D01*
X50762Y40049D01*
X49194Y38481D01*
X46059Y38481D01*
X44491Y40049D01*
X44491Y41616D01*
X46059Y43184D01*
X44491Y44752D01*
X44491Y46319D01*
X46059Y43184D02*
X49194Y43184D01*
X53847Y40049D02*
X55414Y38481D01*
X58550Y38481D01*
X60117Y40049D01*
X60117Y46319D01*
X58550Y47887D01*
X55414Y47887D01*
X53847Y46319D01*
X53847Y44752D01*
X55414Y43184D01*
X60117Y43184D01*
X63202Y43184D02*
X69472Y43184D01*
X72557Y44752D02*
X75692Y47887D01*
X75692Y38481D01*
X72557Y38481D02*
X78828Y38481D01*
X81912Y47887D02*
X88183Y47887D01*
X88183Y46319D01*
X81912Y40049D01*
X81912Y38481D01*
X95970Y38481D02*
X95970Y47887D01*
X91267Y43184D01*
X97538Y43184D01*
X100623Y47887D02*
X106893Y47887D01*
X100623Y47887D02*
X100623Y43184D01*
X103758Y44752D01*
X105326Y44752D01*
X106893Y43184D01*
X106893Y40049D01*
X105326Y38481D01*
X102190Y38481D01*
X100623Y40049D01*
X109978Y43184D02*
X116248Y43184D01*
X119333Y38481D02*
X119333Y47887D01*
X125604Y38481D01*
X125604Y47887D01*
X128688Y47887D02*
X128688Y38481D01*
X133391Y38481D01*
X134959Y40049D01*
X134959Y46319D01*
X133391Y47887D01*
X128688Y47887D01*
D14*
X298704Y241554D02*
X298704Y247147D01*
X301500Y247147D01*
X302433Y246215D01*
X302433Y244350D01*
X301500Y243418D01*
X298704Y243418D01*
X306181Y241554D02*
X306181Y247147D01*
X304317Y247147D02*
X308046Y247147D01*
X309930Y247147D02*
X309930Y243418D01*
X311794Y241554D01*
X313659Y243418D01*
X313659Y247147D01*
X315543Y246215D02*
X315543Y242486D01*
X315543Y246215D02*
X316475Y247147D01*
X318340Y247147D01*
X319272Y246215D01*
X319272Y242486D01*
X318340Y241554D01*
X316475Y241554D01*
X315543Y242486D01*
X319272Y246215D01*
X321156Y242486D02*
X322089Y241554D01*
X323953Y241554D01*
X324885Y242486D01*
X324885Y246215D01*
X323953Y247147D01*
X322089Y247147D01*
X321156Y246215D01*
X321156Y245283D01*
X322089Y244350D01*
X324885Y244350D01*
X326769Y245283D02*
X326769Y241554D01*
X326769Y245283D02*
X328634Y247147D01*
X330498Y245283D01*
X330498Y241554D01*
X330498Y244350D02*
X326769Y244350D01*
X332383Y244350D02*
X336111Y244350D01*
X340792Y241554D02*
X340792Y247147D01*
X337996Y244350D01*
X341724Y244350D01*
X343609Y241554D02*
X347337Y241554D01*
X343609Y241554D02*
X347337Y245283D01*
X347337Y246215D01*
X346405Y247147D01*
X344541Y247147D01*
X343609Y246215D01*
X349222Y241554D02*
X352950Y241554D01*
X349222Y241554D02*
X352950Y245283D01*
X352950Y246215D01*
X352018Y247147D01*
X350154Y247147D01*
X349222Y246215D01*
X354835Y247147D02*
X358563Y247147D01*
X354835Y247147D02*
X354835Y244350D01*
X356699Y245283D01*
X357631Y245283D01*
X358563Y244350D01*
X358563Y242486D01*
X357631Y241554D01*
X355767Y241554D01*
X354835Y242486D01*
X360448Y241554D02*
X360448Y247147D01*
X364177Y247147D01*
X362312Y244350D02*
X360448Y244350D01*
X366061Y244350D02*
X369790Y244350D01*
X371674Y241554D02*
X371674Y247147D01*
X374471Y247147D01*
X375403Y246215D01*
X375403Y245283D01*
X374471Y244350D01*
X375403Y243418D01*
X375403Y242486D01*
X374471Y241554D01*
X371674Y241554D01*
X371674Y244350D02*
X374471Y244350D01*
X377287Y245283D02*
X379152Y247147D01*
X379152Y241554D01*
X381016Y241554D02*
X377287Y241554D01*
X382900Y242486D02*
X382900Y246215D01*
X383833Y247147D01*
X385697Y247147D01*
X386629Y246215D01*
X386629Y242486D01*
X385697Y241554D01*
X383833Y241554D01*
X382900Y242486D01*
X386629Y246215D01*
X388514Y246215D02*
X389446Y247147D01*
X391310Y247147D01*
X392242Y246215D01*
X392242Y245283D01*
X391310Y244350D01*
X390378Y244350D01*
X391310Y244350D02*
X392242Y243418D01*
X392242Y242486D01*
X391310Y241554D01*
X389446Y241554D01*
X388514Y242486D01*
X394127Y244350D02*
X397855Y244350D01*
X399740Y241554D02*
X399740Y247147D01*
X403468Y241554D01*
X403468Y247147D01*
X405353Y247147D02*
X405353Y241554D01*
X408149Y241554D01*
X409081Y242486D01*
X409081Y246215D01*
X408149Y247147D01*
X405353Y247147D01*
D12*
X235252Y78069D02*
X233684Y79637D01*
X230549Y79637D01*
X228981Y78069D01*
X228981Y76502D01*
X230549Y74934D01*
X233684Y74934D01*
X235252Y73366D01*
X235252Y71799D01*
X233684Y70231D01*
X230549Y70231D01*
X228981Y71799D01*
X238336Y70231D02*
X238336Y76502D01*
X241472Y79637D01*
X244607Y76502D01*
X244607Y70231D01*
X244607Y74934D02*
X238336Y74934D01*
X247691Y70231D02*
X247691Y79637D01*
X250827Y76502D01*
X253962Y79637D01*
X253962Y70231D01*
X260182Y70231D02*
X260182Y79637D01*
X257047Y79637D02*
X263317Y79637D01*
X266402Y79637D02*
X272672Y79637D01*
X266402Y79637D02*
X266402Y70231D01*
X272672Y70231D01*
X269537Y74934D02*
X266402Y74934D01*
X280460Y79637D02*
X282028Y78069D01*
X280460Y79637D02*
X277325Y79637D01*
X275757Y78069D01*
X275757Y71799D01*
X277325Y70231D01*
X280460Y70231D01*
X282028Y71799D01*
X299170Y79637D02*
X300738Y78069D01*
X299170Y79637D02*
X296035Y79637D01*
X294467Y78069D01*
X294467Y71799D01*
X296035Y70231D01*
X299170Y70231D01*
X300738Y71799D01*
X303823Y70231D02*
X303823Y76502D01*
X306958Y79637D01*
X310093Y76502D01*
X310093Y70231D01*
X310093Y74934D02*
X303823Y74934D01*
X313178Y70231D02*
X313178Y79637D01*
X317881Y79637D01*
X319448Y78069D01*
X319448Y76502D01*
X317881Y74934D01*
X319448Y73366D01*
X319448Y71799D01*
X317881Y70231D01*
X313178Y70231D01*
X313178Y74934D02*
X317881Y74934D01*
X322533Y79637D02*
X322533Y70231D01*
X328804Y70231D01*
X331888Y79637D02*
X338159Y79637D01*
X331888Y79637D02*
X331888Y70231D01*
X338159Y70231D01*
X335023Y74934D02*
X331888Y74934D01*
X341243Y76502D02*
X342811Y76502D01*
X342811Y74934D01*
X341243Y74934D01*
X341243Y76502D01*
X341243Y71799D02*
X342811Y71799D01*
X342811Y70231D01*
X341243Y70231D01*
X341243Y71799D01*
X355276Y70231D02*
X358411Y70231D01*
X356844Y70231D02*
X356844Y79637D01*
X358411Y79637D02*
X355276Y79637D01*
X361513Y79637D02*
X361513Y70231D01*
X366216Y70231D01*
X367784Y71799D01*
X367784Y78069D01*
X366216Y79637D01*
X361513Y79637D01*
X375571Y79637D02*
X377139Y78069D01*
X375571Y79637D02*
X372436Y79637D01*
X370868Y78069D01*
X370868Y76502D01*
X372436Y74934D01*
X375571Y74934D01*
X377139Y73366D01*
X377139Y71799D01*
X375571Y70231D01*
X372436Y70231D01*
X370868Y71799D01*
X384926Y79637D02*
X386494Y78069D01*
X384926Y79637D02*
X381791Y79637D01*
X380223Y78069D01*
X380223Y76502D01*
X381791Y74934D01*
X384926Y74934D01*
X386494Y73366D01*
X386494Y71799D01*
X384926Y70231D01*
X381791Y70231D01*
X380223Y71799D01*
X389578Y74934D02*
X395849Y74934D01*
X398934Y76502D02*
X402069Y79637D01*
X402069Y70231D01*
X398934Y70231D02*
X405204Y70231D01*
X408289Y71799D02*
X408289Y78069D01*
X409856Y79637D01*
X412992Y79637D01*
X414559Y78069D01*
X414559Y71799D01*
X412992Y70231D01*
X409856Y70231D01*
X408289Y71799D01*
X414559Y78069D01*
X417644Y74934D02*
X423915Y74934D01*
X426999Y79637D02*
X426999Y70231D01*
X431702Y70231D01*
X433270Y71799D01*
X433270Y78069D01*
X431702Y79637D01*
X426999Y79637D01*
X436354Y74934D02*
X442625Y74934D01*
X445710Y71799D02*
X445710Y78069D01*
X447277Y79637D01*
X450413Y79637D01*
X451980Y78069D01*
X451980Y71799D01*
X450413Y70231D01*
X447277Y70231D01*
X445710Y71799D01*
X451980Y78069D01*
X455065Y78069D02*
X456632Y79637D01*
X459768Y79637D01*
X461335Y78069D01*
X461335Y76502D01*
X459768Y74934D01*
X458200Y74934D01*
X459768Y74934D02*
X461335Y73366D01*
X461335Y71799D01*
X459768Y70231D01*
X456632Y70231D01*
X455065Y71799D01*
X464420Y71799D02*
X464420Y70231D01*
X464420Y71799D02*
X465988Y71799D01*
X465988Y70231D01*
X464420Y70231D01*
X469097Y71799D02*
X469097Y78069D01*
X470665Y79637D01*
X473800Y79637D01*
X475368Y78069D01*
X475368Y71799D01*
X473800Y70231D01*
X470665Y70231D01*
X469097Y71799D01*
X475368Y78069D01*
X478453Y78069D02*
X478453Y71799D01*
X478453Y78069D02*
X480020Y79637D01*
X483156Y79637D01*
X484723Y78069D01*
X484723Y71799D01*
X483156Y70231D01*
X480020Y70231D01*
X478453Y71799D01*
X484723Y78069D01*
X19352Y357469D02*
X17784Y359037D01*
X14649Y359037D01*
X13081Y357469D01*
X13081Y355902D01*
X14649Y354334D01*
X17784Y354334D01*
X19352Y352766D01*
X19352Y351199D01*
X17784Y349631D01*
X14649Y349631D01*
X13081Y351199D01*
X22436Y349631D02*
X22436Y355902D01*
X25572Y359037D01*
X28707Y355902D01*
X28707Y349631D01*
X28707Y354334D02*
X22436Y354334D01*
X31791Y349631D02*
X31791Y359037D01*
X34927Y355902D01*
X38062Y359037D01*
X38062Y349631D01*
X44282Y349631D02*
X44282Y359037D01*
X41147Y359037D02*
X47417Y359037D01*
X50502Y359037D02*
X56772Y359037D01*
X50502Y359037D02*
X50502Y349631D01*
X56772Y349631D01*
X53637Y354334D02*
X50502Y354334D01*
X64560Y359037D02*
X66128Y357469D01*
X64560Y359037D02*
X61425Y359037D01*
X59857Y357469D01*
X59857Y351199D01*
X61425Y349631D01*
X64560Y349631D01*
X66128Y351199D01*
X83270Y359037D02*
X84838Y357469D01*
X83270Y359037D02*
X80135Y359037D01*
X78567Y357469D01*
X78567Y351199D01*
X80135Y349631D01*
X83270Y349631D01*
X84838Y351199D01*
X87923Y349631D02*
X87923Y355902D01*
X91058Y359037D01*
X94193Y355902D01*
X94193Y349631D01*
X94193Y354334D02*
X87923Y354334D01*
X97278Y349631D02*
X97278Y359037D01*
X101981Y359037D01*
X103548Y357469D01*
X103548Y355902D01*
X101981Y354334D01*
X103548Y352766D01*
X103548Y351199D01*
X101981Y349631D01*
X97278Y349631D01*
X97278Y354334D02*
X101981Y354334D01*
X106633Y359037D02*
X106633Y349631D01*
X112904Y349631D01*
X115988Y359037D02*
X122259Y359037D01*
X115988Y359037D02*
X115988Y349631D01*
X122259Y349631D01*
X119123Y354334D02*
X115988Y354334D01*
X125343Y355902D02*
X126911Y355902D01*
X126911Y354334D01*
X125343Y354334D01*
X125343Y355902D01*
X125343Y351199D02*
X126911Y351199D01*
X126911Y349631D01*
X125343Y349631D01*
X125343Y351199D01*
X139376Y349631D02*
X142511Y349631D01*
X140944Y349631D02*
X140944Y359037D01*
X142511Y359037D02*
X139376Y359037D01*
X145613Y359037D02*
X145613Y349631D01*
X150316Y349631D01*
X151884Y351199D01*
X151884Y357469D01*
X150316Y359037D01*
X145613Y359037D01*
X159671Y359037D02*
X161239Y357469D01*
X159671Y359037D02*
X156536Y359037D01*
X154968Y357469D01*
X154968Y355902D01*
X156536Y354334D01*
X159671Y354334D01*
X161239Y352766D01*
X161239Y351199D01*
X159671Y349631D01*
X156536Y349631D01*
X154968Y351199D01*
X169026Y359037D02*
X170594Y357469D01*
X169026Y359037D02*
X165891Y359037D01*
X164323Y357469D01*
X164323Y355902D01*
X165891Y354334D01*
X169026Y354334D01*
X170594Y352766D01*
X170594Y351199D01*
X169026Y349631D01*
X165891Y349631D01*
X164323Y351199D01*
X173678Y354334D02*
X179949Y354334D01*
X183034Y351199D02*
X183034Y357469D01*
X184601Y359037D01*
X187737Y359037D01*
X189304Y357469D01*
X189304Y351199D01*
X187737Y349631D01*
X184601Y349631D01*
X183034Y351199D01*
X189304Y357469D01*
X192389Y359037D02*
X198659Y359037D01*
X192389Y359037D02*
X192389Y354334D01*
X195524Y355902D01*
X197092Y355902D01*
X198659Y354334D01*
X198659Y351199D01*
X197092Y349631D01*
X193956Y349631D01*
X192389Y351199D01*
X201744Y354334D02*
X208015Y354334D01*
X211099Y359037D02*
X211099Y349631D01*
X215802Y349631D01*
X217370Y351199D01*
X217370Y357469D01*
X215802Y359037D01*
X211099Y359037D01*
X220454Y354334D02*
X226725Y354334D01*
X229810Y351199D02*
X229810Y357469D01*
X231377Y359037D01*
X234513Y359037D01*
X236080Y357469D01*
X236080Y351199D01*
X234513Y349631D01*
X231377Y349631D01*
X229810Y351199D01*
X236080Y357469D01*
X239165Y357469D02*
X240732Y359037D01*
X243868Y359037D01*
X245435Y357469D01*
X245435Y355902D01*
X243868Y354334D01*
X242300Y354334D01*
X243868Y354334D02*
X245435Y352766D01*
X245435Y351199D01*
X243868Y349631D01*
X240732Y349631D01*
X239165Y351199D01*
X248520Y351199D02*
X248520Y349631D01*
X248520Y351199D02*
X250088Y351199D01*
X250088Y349631D01*
X248520Y349631D01*
X253197Y351199D02*
X253197Y357469D01*
X254765Y359037D01*
X257900Y359037D01*
X259468Y357469D01*
X259468Y351199D01*
X257900Y349631D01*
X254765Y349631D01*
X253197Y351199D01*
X259468Y357469D01*
X262553Y357469D02*
X262553Y351199D01*
X262553Y357469D02*
X264120Y359037D01*
X267256Y359037D01*
X268823Y357469D01*
X268823Y351199D01*
X267256Y349631D01*
X264120Y349631D01*
X262553Y351199D01*
X268823Y357469D01*
D14*
X76454Y202697D02*
X76454Y197104D01*
X76454Y202697D02*
X79250Y202697D01*
X80183Y201765D01*
X80183Y199900D01*
X79250Y198968D01*
X76454Y198968D01*
X82067Y200833D02*
X83931Y202697D01*
X83931Y197104D01*
X82067Y197104D02*
X85796Y197104D01*
X87680Y197104D02*
X87680Y198036D01*
X88612Y198036D01*
X88612Y197104D01*
X87680Y197104D01*
X90487Y198036D02*
X90487Y201765D01*
X91419Y202697D01*
X93283Y202697D01*
X94215Y201765D01*
X94215Y198036D01*
X93283Y197104D01*
X91419Y197104D01*
X90487Y198036D01*
X94215Y201765D01*
X96100Y201765D02*
X96100Y198036D01*
X96100Y201765D02*
X97032Y202697D01*
X98896Y202697D01*
X99828Y201765D01*
X99828Y198036D01*
X98896Y197104D01*
X97032Y197104D01*
X96100Y198036D01*
X99828Y201765D01*
X101713Y202697D02*
X101713Y197104D01*
X103577Y200833D02*
X101713Y202697D01*
X103577Y200833D02*
X105441Y202697D01*
X105441Y197104D01*
X107326Y197104D02*
X107326Y202697D01*
X107326Y199900D02*
X111055Y199900D01*
X111055Y197104D02*
X111055Y202697D01*
X115735Y202697D02*
X116668Y201765D01*
X115735Y202697D02*
X113871Y202697D01*
X112939Y201765D01*
X112939Y198036D01*
X113871Y197104D01*
X115735Y197104D01*
X116668Y198036D01*
X120416Y197104D02*
X120416Y202697D01*
X118552Y202697D02*
X122281Y202697D01*
X124165Y199900D02*
X127894Y199900D01*
X129778Y197104D02*
X129778Y202697D01*
X133507Y197104D01*
X133507Y202697D01*
X135391Y202697D02*
X135391Y197104D01*
X138188Y197104D01*
X139120Y198036D01*
X139120Y201765D01*
X138188Y202697D01*
X135391Y202697D01*
X127254Y292354D02*
X127254Y297947D01*
X130050Y297947D01*
X130983Y297015D01*
X130983Y295150D01*
X130050Y294218D01*
X127254Y294218D01*
X129118Y294218D02*
X130983Y292354D01*
X132867Y292354D02*
X132867Y297947D01*
X134731Y296083D01*
X136596Y297947D01*
X136596Y292354D01*
X141277Y297947D02*
X142209Y297015D01*
X141277Y297947D02*
X139412Y297947D01*
X138480Y297015D01*
X138480Y293286D01*
X139412Y292354D01*
X141277Y292354D01*
X142209Y293286D01*
X144093Y292354D02*
X144093Y297947D01*
X147822Y297947D01*
X145958Y295150D02*
X144093Y295150D01*
X149706Y293286D02*
X149706Y297015D01*
X150639Y297947D01*
X152503Y297947D01*
X153435Y297015D01*
X153435Y293286D01*
X152503Y292354D01*
X150639Y292354D01*
X149706Y293286D01*
X153435Y297015D01*
X157184Y297015D02*
X159048Y297947D01*
X157184Y297015D02*
X155319Y295150D01*
X155319Y293286D01*
X156252Y292354D01*
X158116Y292354D01*
X159048Y293286D01*
X159048Y294218D01*
X158116Y295150D01*
X155319Y295150D01*
X160933Y293286D02*
X160933Y297015D01*
X161865Y297947D01*
X163729Y297947D01*
X164661Y297015D01*
X164661Y293286D01*
X163729Y292354D01*
X161865Y292354D01*
X160933Y293286D01*
X164661Y297015D01*
X166546Y297015D02*
X167478Y297947D01*
X169342Y297947D01*
X170274Y297015D01*
X170274Y296083D01*
X169342Y295150D01*
X168410Y295150D01*
X169342Y295150D02*
X170274Y294218D01*
X170274Y293286D01*
X169342Y292354D01*
X167478Y292354D01*
X166546Y293286D01*
X172159Y292354D02*
X172159Y297947D01*
X175887Y297947D01*
X174023Y295150D02*
X172159Y295150D01*
X179636Y292354D02*
X179636Y297947D01*
X177772Y297947D02*
X181500Y297947D01*
X183385Y297015D02*
X184317Y297947D01*
X186181Y297947D01*
X187113Y297015D01*
X187113Y296083D01*
X186181Y295150D01*
X185249Y295150D01*
X186181Y295150D02*
X187113Y294218D01*
X187113Y293286D01*
X186181Y292354D01*
X184317Y292354D01*
X183385Y293286D01*
X188998Y293286D02*
X188998Y297015D01*
X189930Y297947D01*
X191794Y297947D01*
X192727Y297015D01*
X192727Y293286D01*
X191794Y292354D01*
X189930Y292354D01*
X188998Y293286D01*
X192727Y297015D01*
X194611Y297015D02*
X194611Y293286D01*
X194611Y297015D02*
X195543Y297947D01*
X197408Y297947D01*
X198340Y297015D01*
X198340Y293286D01*
X197408Y292354D01*
X195543Y292354D01*
X194611Y293286D01*
X198340Y297015D01*
X200224Y297947D02*
X200224Y292354D01*
X200224Y297947D02*
X203021Y297947D01*
X203953Y297015D01*
X203953Y295150D01*
X203021Y294218D01*
X200224Y294218D01*
X202088Y294218D02*
X203953Y292354D01*
X208634Y297947D02*
X209566Y297015D01*
X208634Y297947D02*
X206769Y297947D01*
X205837Y297015D01*
X205837Y293286D01*
X206769Y292354D01*
X208634Y292354D01*
X209566Y293286D01*
X213315Y292354D02*
X213315Y297947D01*
X215179Y297947D02*
X211450Y297947D01*
X217064Y295150D02*
X220792Y295150D01*
X222677Y292354D02*
X222677Y297947D01*
X226405Y292354D01*
X226405Y297947D01*
X228290Y297947D02*
X228290Y292354D01*
X231086Y292354D01*
X232018Y293286D01*
X232018Y297015D01*
X231086Y297947D01*
X228290Y297947D01*
D10*
X389375Y471175D02*
X390815Y472616D01*
X389375Y471175D02*
X389375Y468294D01*
X390815Y466853D01*
X396577Y466853D01*
X398018Y468294D01*
X398018Y471175D01*
X396577Y472616D01*
X393696Y472616D01*
X393696Y469735D01*
X389375Y476209D02*
X398018Y476209D01*
X398018Y481971D02*
X389375Y476209D01*
X389375Y481971D02*
X398018Y481971D01*
X398018Y485564D02*
X389375Y485564D01*
X398018Y485564D02*
X398018Y489886D01*
X396577Y491326D01*
X390815Y491326D01*
X389375Y489886D01*
X389375Y485564D01*
X365415Y472616D02*
X363975Y471175D01*
X363975Y468294D01*
X365415Y466853D01*
X371177Y466853D01*
X372618Y468294D01*
X372618Y471175D01*
X371177Y472616D01*
X368296Y472616D01*
X368296Y469735D01*
X363975Y476209D02*
X372618Y476209D01*
X372618Y481971D02*
X363975Y476209D01*
X363975Y481971D02*
X372618Y481971D01*
X372618Y485564D02*
X363975Y485564D01*
X372618Y485564D02*
X372618Y489886D01*
X371177Y491326D01*
X365415Y491326D01*
X363975Y489886D01*
X363975Y485564D01*
X419096Y472616D02*
X419096Y466853D01*
X416215Y469735D02*
X421977Y469735D01*
X414775Y476209D02*
X414775Y481971D01*
X414775Y476209D02*
X419096Y476209D01*
X417656Y479090D01*
X417656Y480530D01*
X419096Y481971D01*
X421977Y481971D01*
X423418Y480530D01*
X423418Y477649D01*
X421977Y476209D01*
X420537Y485564D02*
X414775Y485564D01*
X420537Y485564D02*
X423418Y488445D01*
X420537Y491326D01*
X414775Y491326D01*
X465575Y466853D02*
X474218Y466853D01*
X465575Y466853D02*
X465575Y471175D01*
X467015Y472616D01*
X469896Y472616D01*
X471337Y471175D01*
X471337Y466853D01*
X471337Y469735D02*
X474218Y472616D01*
X465575Y480530D02*
X467015Y481971D01*
X465575Y480530D02*
X465575Y477649D01*
X467015Y476209D01*
X468456Y476209D01*
X469896Y477649D01*
X469896Y480530D01*
X471337Y481971D01*
X472777Y481971D01*
X474218Y480530D01*
X474218Y477649D01*
X472777Y476209D01*
X474218Y488445D02*
X465575Y488445D01*
X465575Y485564D02*
X465575Y491326D01*
X344337Y469972D02*
X338575Y469972D01*
X344337Y469972D02*
X347218Y472853D01*
X344337Y475734D01*
X338575Y475734D01*
X347218Y479327D02*
X347218Y482208D01*
X347218Y480768D02*
X338575Y480768D01*
X338575Y482208D02*
X338575Y479327D01*
X338575Y485564D02*
X347218Y485564D01*
X347218Y491326D02*
X338575Y485564D01*
X338575Y491326D02*
X347218Y491326D01*
X444496Y458583D02*
X444496Y452821D01*
X441615Y455702D02*
X447377Y455702D01*
X441615Y462176D02*
X440175Y463616D01*
X440175Y466498D01*
X441615Y467938D01*
X443056Y467938D01*
X444496Y466498D01*
X444496Y465057D01*
X444496Y466498D02*
X445937Y467938D01*
X447377Y467938D01*
X448818Y466498D01*
X448818Y463616D01*
X447377Y462176D01*
X447377Y471531D02*
X448818Y471531D01*
X447377Y471531D02*
X447377Y472972D01*
X448818Y472972D01*
X448818Y471531D01*
X441615Y476209D02*
X440175Y477649D01*
X440175Y480530D01*
X441615Y481971D01*
X443056Y481971D01*
X444496Y480530D01*
X444496Y479090D01*
X444496Y480530D02*
X445937Y481971D01*
X447377Y481971D01*
X448818Y480530D01*
X448818Y477649D01*
X447377Y476209D01*
X445937Y485564D02*
X440175Y485564D01*
X445937Y485564D02*
X448818Y488445D01*
X445937Y491326D01*
X440175Y491326D01*
X294977Y485564D02*
X289215Y485564D01*
X287775Y487004D01*
X287775Y489886D01*
X289215Y491326D01*
X294977Y491326D01*
X296418Y489886D01*
X296418Y487004D01*
X294977Y485564D01*
X289215Y491326D01*
X265256Y485564D02*
X262375Y488445D01*
X271018Y488445D01*
X271018Y485564D02*
X271018Y491326D01*
X245618Y491326D02*
X245618Y485564D01*
X239856Y491326D01*
X238415Y491326D01*
X236975Y489886D01*
X236975Y487004D01*
X238415Y485564D01*
X213015Y485564D02*
X211575Y487004D01*
X211575Y489886D01*
X213015Y491326D01*
X214456Y491326D01*
X215896Y489886D01*
X215896Y488445D01*
X215896Y489886D02*
X217337Y491326D01*
X218777Y491326D01*
X220218Y489886D01*
X220218Y487004D01*
X218777Y485564D01*
X194818Y489886D02*
X186175Y489886D01*
X190496Y485564D01*
X190496Y491326D01*
X160775Y491326D02*
X160775Y485564D01*
X165096Y485564D01*
X163656Y488445D01*
X163656Y489886D01*
X165096Y491326D01*
X167977Y491326D01*
X169418Y489886D01*
X169418Y487004D01*
X167977Y485564D01*
X189992Y475281D02*
X189992Y469519D01*
X189992Y475281D02*
X192873Y478162D01*
X195754Y475281D01*
X195754Y469519D01*
X195754Y473841D02*
X189992Y473841D01*
X199347Y475281D02*
X199347Y469519D01*
X199347Y475281D02*
X203669Y475281D01*
X205109Y473841D01*
X205109Y469519D01*
X210143Y475281D02*
X213024Y475281D01*
X214465Y473841D01*
X214465Y469519D01*
X210143Y469519D01*
X208702Y470960D01*
X210143Y472400D01*
X214465Y472400D01*
X218058Y478162D02*
X219498Y478162D01*
X219498Y469519D01*
X218058Y469519D02*
X220939Y469519D01*
X225735Y469519D02*
X228616Y469519D01*
X230057Y470960D01*
X230057Y473841D01*
X228616Y475281D01*
X225735Y475281D01*
X224294Y473841D01*
X224294Y470960D01*
X225735Y469519D01*
X236531Y466638D02*
X237971Y466638D01*
X239412Y468078D01*
X239412Y475281D01*
X235090Y475281D01*
X233650Y473841D01*
X233650Y470960D01*
X235090Y469519D01*
X239412Y469519D01*
X252360Y469519D02*
X255241Y469519D01*
X253800Y469519D02*
X253800Y478162D01*
X252360Y478162D02*
X255241Y478162D01*
X258597Y475281D02*
X258597Y469519D01*
X258597Y475281D02*
X262918Y475281D01*
X264359Y473841D01*
X264359Y469519D01*
X530515Y44624D02*
X529075Y43184D01*
X529075Y40303D01*
X530515Y38862D01*
X536277Y38862D01*
X537718Y40303D01*
X537718Y43184D01*
X536277Y44624D01*
X533396Y44624D01*
X533396Y41743D01*
X529075Y48217D02*
X537718Y48217D01*
X537718Y53979D02*
X529075Y48217D01*
X529075Y53979D02*
X537718Y53979D01*
X537718Y57572D02*
X529075Y57572D01*
X537718Y57572D02*
X537718Y61894D01*
X536277Y63335D01*
X530515Y63335D01*
X529075Y61894D01*
X529075Y57572D01*
X506556Y38862D02*
X503675Y41743D01*
X512318Y41743D01*
X512318Y38862D02*
X512318Y44624D01*
X505115Y48217D02*
X503675Y49658D01*
X503675Y52539D01*
X505115Y53979D01*
X506556Y53979D01*
X507996Y52539D01*
X507996Y51098D01*
X507996Y52539D02*
X509437Y53979D01*
X510877Y53979D01*
X512318Y52539D01*
X512318Y49658D01*
X510877Y48217D01*
X481156Y38862D02*
X478275Y41743D01*
X486918Y41743D01*
X486918Y38862D02*
X486918Y44624D01*
X486918Y48217D02*
X486918Y53979D01*
X486918Y48217D02*
X481156Y53979D01*
X479715Y53979D01*
X478275Y52539D01*
X478275Y49658D01*
X479715Y48217D01*
X455756Y38862D02*
X452875Y41743D01*
X461518Y41743D01*
X461518Y38862D02*
X461518Y44624D01*
X455756Y48217D02*
X452875Y51098D01*
X461518Y51098D01*
X461518Y48217D02*
X461518Y53979D01*
X557356Y38862D02*
X563118Y38862D01*
X557356Y38862D02*
X554475Y41743D01*
X557356Y44624D01*
X563118Y44624D01*
X558796Y44624D02*
X558796Y38862D01*
X554475Y48217D02*
X563118Y48217D01*
X554475Y48217D02*
X554475Y52539D01*
X555915Y53979D01*
X558796Y53979D01*
X560237Y52539D01*
X560237Y48217D01*
X560237Y51098D02*
X563118Y53979D01*
X554475Y57572D02*
X554475Y63335D01*
X554475Y57572D02*
X563118Y57572D01*
X563118Y63335D01*
X558796Y60454D02*
X558796Y57572D01*
X554475Y66928D02*
X563118Y66928D01*
X554475Y66928D02*
X554475Y72690D01*
X558796Y69809D02*
X558796Y66928D01*
X430356Y38862D02*
X427475Y41743D01*
X436118Y41743D01*
X436118Y38862D02*
X436118Y44624D01*
X434677Y48217D02*
X428915Y48217D01*
X427475Y49658D01*
X427475Y52539D01*
X428915Y53979D01*
X434677Y53979D01*
X436118Y52539D01*
X436118Y49658D01*
X434677Y48217D01*
X428915Y53979D01*
X410718Y40303D02*
X409277Y38862D01*
X410718Y40303D02*
X410718Y43184D01*
X409277Y44624D01*
X403515Y44624D01*
X402075Y43184D01*
X402075Y40303D01*
X403515Y38862D01*
X404956Y38862D01*
X406396Y40303D01*
X406396Y44624D01*
X378115Y38862D02*
X376675Y40303D01*
X376675Y43184D01*
X378115Y44624D01*
X379556Y44624D01*
X380996Y43184D01*
X382437Y44624D01*
X383877Y44624D01*
X385318Y43184D01*
X385318Y40303D01*
X383877Y38862D01*
X382437Y38862D01*
X380996Y40303D01*
X379556Y38862D01*
X378115Y38862D01*
X380996Y40303D02*
X380996Y43184D01*
X338575Y44624D02*
X338575Y38862D01*
X338575Y44624D02*
X340015Y44624D01*
X345777Y38862D01*
X347218Y38862D01*
X314615Y41743D02*
X313175Y44624D01*
X314615Y41743D02*
X317496Y38862D01*
X320377Y38862D01*
X321818Y40303D01*
X321818Y43184D01*
X320377Y44624D01*
X318937Y44624D01*
X317496Y43184D01*
X317496Y38862D01*
X287775Y38862D02*
X287775Y44624D01*
X287775Y38862D02*
X292096Y38862D01*
X290656Y41743D01*
X290656Y43184D01*
X292096Y44624D01*
X294977Y44624D01*
X296418Y43184D01*
X296418Y40303D01*
X294977Y38862D01*
X271018Y43184D02*
X262375Y43184D01*
X266696Y38862D01*
X266696Y44624D01*
X238415Y38862D02*
X236975Y40303D01*
X236975Y43184D01*
X238415Y44624D01*
X239856Y44624D01*
X241296Y43184D01*
X241296Y41743D01*
X241296Y43184D02*
X242737Y44624D01*
X244177Y44624D01*
X245618Y43184D01*
X245618Y40303D01*
X244177Y38862D01*
X220218Y38862D02*
X220218Y44624D01*
X220218Y38862D02*
X214456Y44624D01*
X213015Y44624D01*
X211575Y43184D01*
X211575Y40303D01*
X213015Y38862D01*
X194818Y41743D02*
X186175Y41743D01*
X186175Y38862D02*
X186175Y44624D01*
X186175Y48217D02*
X194818Y53979D01*
X194818Y48217D02*
X186175Y53979D01*
X169418Y38862D02*
X160775Y38862D01*
X160775Y43184D01*
X162215Y44624D01*
X165096Y44624D01*
X166537Y43184D01*
X166537Y38862D01*
X166537Y41743D02*
X169418Y44624D01*
X169418Y53979D02*
X160775Y48217D01*
X160775Y53979D02*
X169418Y48217D01*
X579875Y43184D02*
X581315Y44624D01*
X579875Y43184D02*
X579875Y40303D01*
X581315Y38862D01*
X582756Y38862D01*
X584196Y40303D01*
X584196Y43184D01*
X585637Y44624D01*
X587077Y44624D01*
X588518Y43184D01*
X588518Y40303D01*
X587077Y38862D01*
X588518Y48217D02*
X579875Y48217D01*
X588518Y48217D02*
X588518Y52539D01*
X587077Y53979D01*
X581315Y53979D01*
X579875Y52539D01*
X579875Y48217D01*
X582756Y57572D02*
X588518Y57572D01*
X582756Y57572D02*
X579875Y60454D01*
X582756Y63335D01*
X588518Y63335D01*
X584196Y63335D02*
X584196Y57572D01*
X605275Y43184D02*
X606715Y44624D01*
X605275Y43184D02*
X605275Y40303D01*
X606715Y38862D01*
X608156Y38862D01*
X609596Y40303D01*
X609596Y43184D01*
X611037Y44624D01*
X612477Y44624D01*
X613918Y43184D01*
X613918Y40303D01*
X612477Y38862D01*
X605275Y52539D02*
X606715Y53979D01*
X605275Y52539D02*
X605275Y49658D01*
X606715Y48217D01*
X612477Y48217D01*
X613918Y49658D01*
X613918Y52539D01*
X612477Y53979D01*
X613918Y57572D02*
X605275Y57572D01*
X613918Y57572D02*
X613918Y63335D01*
X499618Y451261D02*
X499618Y454143D01*
X499618Y452702D02*
X490975Y452702D01*
X490975Y451261D02*
X490975Y454143D01*
X490975Y458939D02*
X490975Y461820D01*
X490975Y458939D02*
X492415Y457498D01*
X498177Y457498D01*
X499618Y458939D01*
X499618Y461820D01*
X498177Y463260D01*
X492415Y463260D01*
X490975Y461820D01*
X490975Y466853D02*
X499618Y466853D01*
X490975Y466853D02*
X490975Y471175D01*
X492415Y472616D01*
X495296Y472616D01*
X496737Y471175D01*
X496737Y466853D01*
X496737Y469735D02*
X499618Y472616D01*
X490975Y476209D02*
X490975Y481971D01*
X490975Y476209D02*
X499618Y476209D01*
X499618Y481971D01*
X495296Y479090D02*
X495296Y476209D01*
X490975Y485564D02*
X499618Y485564D01*
X490975Y485564D02*
X490975Y491326D01*
X495296Y488445D02*
X495296Y485564D01*
D15*
X49530Y77470D02*
X36830Y77470D01*
X13970Y64770D02*
X13986Y66110D01*
X14036Y67450D01*
X14118Y68787D01*
X14233Y70123D01*
X14381Y71455D01*
X14561Y72783D01*
X14774Y74106D01*
X15019Y75424D01*
X15297Y76735D01*
X15607Y78039D01*
X15948Y79335D01*
X16321Y80622D01*
X16726Y81900D01*
X17162Y83168D01*
X17629Y84424D01*
X18127Y85668D01*
X18655Y86900D01*
X19213Y88119D01*
X19801Y89323D01*
X20418Y90513D01*
X21065Y91687D01*
X21739Y92845D01*
X22443Y93986D01*
X23173Y95110D01*
X23932Y96215D01*
X24717Y97301D01*
X25528Y98368D01*
X26366Y99414D01*
X27229Y100440D01*
X28117Y101444D01*
X29029Y102426D01*
X29965Y103385D01*
X30924Y104321D01*
X31906Y105233D01*
X32910Y106121D01*
X33936Y106984D01*
X34982Y107822D01*
X36049Y108633D01*
X37135Y109418D01*
X38240Y110177D01*
X39364Y110907D01*
X40505Y111611D01*
X41663Y112285D01*
X42837Y112932D01*
X44027Y113549D01*
X45231Y114137D01*
X46450Y114695D01*
X47682Y115223D01*
X48926Y115721D01*
X50182Y116188D01*
X51450Y116624D01*
X52728Y117029D01*
X54015Y117402D01*
X55311Y117743D01*
X56615Y118053D01*
X57926Y118331D01*
X59244Y118576D01*
X60567Y118789D01*
X61895Y118969D01*
X63227Y119117D01*
X64563Y119232D01*
X65900Y119314D01*
X67240Y119364D01*
X68580Y119380D01*
X69920Y119364D01*
X71260Y119314D01*
X72597Y119232D01*
X73933Y119117D01*
X75265Y118969D01*
X76593Y118789D01*
X77916Y118576D01*
X79234Y118331D01*
X80545Y118053D01*
X81849Y117743D01*
X83145Y117402D01*
X84432Y117029D01*
X85710Y116624D01*
X86978Y116188D01*
X88234Y115721D01*
X89478Y115223D01*
X90710Y114695D01*
X91929Y114137D01*
X93133Y113549D01*
X94323Y112932D01*
X95497Y112285D01*
X96655Y111611D01*
X97796Y110907D01*
X98920Y110177D01*
X100025Y109418D01*
X101111Y108633D01*
X102178Y107822D01*
X103224Y106984D01*
X104250Y106121D01*
X105254Y105233D01*
X106236Y104321D01*
X107195Y103385D01*
X108131Y102426D01*
X109043Y101444D01*
X109931Y100440D01*
X110794Y99414D01*
X111632Y98368D01*
X112443Y97301D01*
X113228Y96215D01*
X113987Y95110D01*
X114717Y93986D01*
X115421Y92845D01*
X116095Y91687D01*
X116742Y90513D01*
X117359Y89323D01*
X117947Y88119D01*
X118505Y86900D01*
X119033Y85668D01*
X119531Y84424D01*
X119998Y83168D01*
X120434Y81900D01*
X120839Y80622D01*
X121212Y79335D01*
X121553Y78039D01*
X121863Y76735D01*
X122141Y75424D01*
X122386Y74106D01*
X122599Y72783D01*
X122779Y71455D01*
X122927Y70123D01*
X123042Y68787D01*
X123124Y67450D01*
X123174Y66110D01*
X123190Y64770D01*
X123174Y63430D01*
X123124Y62090D01*
X123042Y60753D01*
X122927Y59417D01*
X122779Y58085D01*
X122599Y56757D01*
X122386Y55434D01*
X122141Y54116D01*
X121863Y52805D01*
X121553Y51501D01*
X121212Y50205D01*
X120839Y48918D01*
X120434Y47640D01*
X119998Y46372D01*
X119531Y45116D01*
X119033Y43872D01*
X118505Y42640D01*
X117947Y41421D01*
X117359Y40217D01*
X116742Y39027D01*
X116095Y37853D01*
X115421Y36695D01*
X114717Y35554D01*
X113987Y34430D01*
X113228Y33325D01*
X112443Y32239D01*
X111632Y31172D01*
X110794Y30126D01*
X109931Y29100D01*
X109043Y28096D01*
X108131Y27114D01*
X107195Y26155D01*
X106236Y25219D01*
X105254Y24307D01*
X104250Y23419D01*
X103224Y22556D01*
X102178Y21718D01*
X101111Y20907D01*
X100025Y20122D01*
X98920Y19363D01*
X97796Y18633D01*
X96655Y17929D01*
X95497Y17255D01*
X94323Y16608D01*
X93133Y15991D01*
X91929Y15403D01*
X90710Y14845D01*
X89478Y14317D01*
X88234Y13819D01*
X86978Y13352D01*
X85710Y12916D01*
X84432Y12511D01*
X83145Y12138D01*
X81849Y11797D01*
X80545Y11487D01*
X79234Y11209D01*
X77916Y10964D01*
X76593Y10751D01*
X75265Y10571D01*
X73933Y10423D01*
X72597Y10308D01*
X71260Y10226D01*
X69920Y10176D01*
X68580Y10160D01*
X67240Y10176D01*
X65900Y10226D01*
X64563Y10308D01*
X63227Y10423D01*
X61895Y10571D01*
X60567Y10751D01*
X59244Y10964D01*
X57926Y11209D01*
X56615Y11487D01*
X55311Y11797D01*
X54015Y12138D01*
X52728Y12511D01*
X51450Y12916D01*
X50182Y13352D01*
X48926Y13819D01*
X47682Y14317D01*
X46450Y14845D01*
X45231Y15403D01*
X44027Y15991D01*
X42837Y16608D01*
X41663Y17255D01*
X40505Y17929D01*
X39364Y18633D01*
X38240Y19363D01*
X37135Y20122D01*
X36049Y20907D01*
X34982Y21718D01*
X33936Y22556D01*
X32910Y23419D01*
X31906Y24307D01*
X30924Y25219D01*
X29965Y26155D01*
X29029Y27114D01*
X28117Y28096D01*
X27229Y29100D01*
X26366Y30126D01*
X25528Y31172D01*
X24717Y32239D01*
X23932Y33325D01*
X23173Y34430D01*
X22443Y35554D01*
X21739Y36695D01*
X21065Y37853D01*
X20418Y39027D01*
X19801Y40217D01*
X19213Y41421D01*
X18655Y42640D01*
X18127Y43872D01*
X17629Y45116D01*
X17162Y46372D01*
X16726Y47640D01*
X16321Y48918D01*
X15948Y50205D01*
X15607Y51501D01*
X15297Y52805D01*
X15019Y54116D01*
X14774Y55434D01*
X14561Y56757D01*
X14381Y58085D01*
X14233Y59417D01*
X14118Y60753D01*
X14036Y62090D01*
X13986Y63430D01*
X13970Y64770D01*
X88200Y79740D02*
X98360Y79740D01*
X93280Y84820D02*
X93280Y74660D01*
X293600Y233560D02*
X293600Y271520D01*
X293600Y302520D02*
X293600Y354320D01*
X293600Y233560D02*
X392200Y233560D01*
X392200Y302520D02*
X392200Y354320D01*
X392200Y271520D02*
X392200Y233560D01*
X392200Y354320D02*
X293600Y354320D01*
D16*
X312900Y287020D02*
X312909Y287756D01*
X312936Y288492D01*
X312981Y289227D01*
X313044Y289961D01*
X313126Y290692D01*
X313225Y291422D01*
X313342Y292149D01*
X313476Y292873D01*
X313629Y293593D01*
X313799Y294309D01*
X313987Y295021D01*
X314192Y295729D01*
X314414Y296430D01*
X314654Y297127D01*
X314910Y297817D01*
X315184Y298501D01*
X315474Y299177D01*
X315780Y299847D01*
X316103Y300508D01*
X316442Y301162D01*
X316797Y301807D01*
X317168Y302443D01*
X317554Y303070D01*
X317956Y303687D01*
X318372Y304294D01*
X318804Y304891D01*
X319250Y305477D01*
X319710Y306052D01*
X320184Y306615D01*
X320671Y307167D01*
X321173Y307706D01*
X321687Y308233D01*
X322214Y308747D01*
X322753Y309249D01*
X323305Y309736D01*
X323868Y310210D01*
X324443Y310670D01*
X325029Y311116D01*
X325626Y311548D01*
X326233Y311964D01*
X326850Y312366D01*
X327477Y312752D01*
X328113Y313123D01*
X328758Y313478D01*
X329412Y313817D01*
X330073Y314140D01*
X330743Y314446D01*
X331419Y314736D01*
X332103Y315010D01*
X332793Y315266D01*
X333490Y315506D01*
X334191Y315728D01*
X334899Y315933D01*
X335611Y316121D01*
X336327Y316291D01*
X337047Y316444D01*
X337771Y316578D01*
X338498Y316695D01*
X339228Y316794D01*
X339959Y316876D01*
X340693Y316939D01*
X341428Y316984D01*
X342164Y317011D01*
X342900Y317020D01*
X343636Y317011D01*
X344372Y316984D01*
X345107Y316939D01*
X345841Y316876D01*
X346572Y316794D01*
X347302Y316695D01*
X348029Y316578D01*
X348753Y316444D01*
X349473Y316291D01*
X350189Y316121D01*
X350901Y315933D01*
X351609Y315728D01*
X352310Y315506D01*
X353007Y315266D01*
X353697Y315010D01*
X354381Y314736D01*
X355057Y314446D01*
X355727Y314140D01*
X356388Y313817D01*
X357042Y313478D01*
X357687Y313123D01*
X358323Y312752D01*
X358950Y312366D01*
X359567Y311964D01*
X360174Y311548D01*
X360771Y311116D01*
X361357Y310670D01*
X361932Y310210D01*
X362495Y309736D01*
X363047Y309249D01*
X363586Y308747D01*
X364113Y308233D01*
X364627Y307706D01*
X365129Y307167D01*
X365616Y306615D01*
X366090Y306052D01*
X366550Y305477D01*
X366996Y304891D01*
X367428Y304294D01*
X367844Y303687D01*
X368246Y303070D01*
X368632Y302443D01*
X369003Y301807D01*
X369358Y301162D01*
X369697Y300508D01*
X370020Y299847D01*
X370326Y299177D01*
X370616Y298501D01*
X370890Y297817D01*
X371146Y297127D01*
X371386Y296430D01*
X371608Y295729D01*
X371813Y295021D01*
X372001Y294309D01*
X372171Y293593D01*
X372324Y292873D01*
X372458Y292149D01*
X372575Y291422D01*
X372674Y290692D01*
X372756Y289961D01*
X372819Y289227D01*
X372864Y288492D01*
X372891Y287756D01*
X372900Y287020D01*
X372891Y286284D01*
X372864Y285548D01*
X372819Y284813D01*
X372756Y284079D01*
X372674Y283348D01*
X372575Y282618D01*
X372458Y281891D01*
X372324Y281167D01*
X372171Y280447D01*
X372001Y279731D01*
X371813Y279019D01*
X371608Y278311D01*
X371386Y277610D01*
X371146Y276913D01*
X370890Y276223D01*
X370616Y275539D01*
X370326Y274863D01*
X370020Y274193D01*
X369697Y273532D01*
X369358Y272878D01*
X369003Y272233D01*
X368632Y271597D01*
X368246Y270970D01*
X367844Y270353D01*
X367428Y269746D01*
X366996Y269149D01*
X366550Y268563D01*
X366090Y267988D01*
X365616Y267425D01*
X365129Y266873D01*
X364627Y266334D01*
X364113Y265807D01*
X363586Y265293D01*
X363047Y264791D01*
X362495Y264304D01*
X361932Y263830D01*
X361357Y263370D01*
X360771Y262924D01*
X360174Y262492D01*
X359567Y262076D01*
X358950Y261674D01*
X358323Y261288D01*
X357687Y260917D01*
X357042Y260562D01*
X356388Y260223D01*
X355727Y259900D01*
X355057Y259594D01*
X354381Y259304D01*
X353697Y259030D01*
X353007Y258774D01*
X352310Y258534D01*
X351609Y258312D01*
X350901Y258107D01*
X350189Y257919D01*
X349473Y257749D01*
X348753Y257596D01*
X348029Y257462D01*
X347302Y257345D01*
X346572Y257246D01*
X345841Y257164D01*
X345107Y257101D01*
X344372Y257056D01*
X343636Y257029D01*
X342900Y257020D01*
X342164Y257029D01*
X341428Y257056D01*
X340693Y257101D01*
X339959Y257164D01*
X339228Y257246D01*
X338498Y257345D01*
X337771Y257462D01*
X337047Y257596D01*
X336327Y257749D01*
X335611Y257919D01*
X334899Y258107D01*
X334191Y258312D01*
X333490Y258534D01*
X332793Y258774D01*
X332103Y259030D01*
X331419Y259304D01*
X330743Y259594D01*
X330073Y259900D01*
X329412Y260223D01*
X328758Y260562D01*
X328113Y260917D01*
X327477Y261288D01*
X326850Y261674D01*
X326233Y262076D01*
X325626Y262492D01*
X325029Y262924D01*
X324443Y263370D01*
X323868Y263830D01*
X323305Y264304D01*
X322753Y264791D01*
X322214Y265293D01*
X321687Y265807D01*
X321173Y266334D01*
X320671Y266873D01*
X320184Y267425D01*
X319710Y267988D01*
X319250Y268563D01*
X318804Y269149D01*
X318372Y269746D01*
X317956Y270353D01*
X317554Y270970D01*
X317168Y271597D01*
X316797Y272233D01*
X316442Y272878D01*
X316103Y273532D01*
X315780Y274193D01*
X315474Y274863D01*
X315184Y275539D01*
X314910Y276223D01*
X314654Y276913D01*
X314414Y277610D01*
X314192Y278311D01*
X313987Y279019D01*
X313799Y279731D01*
X313629Y280447D01*
X313476Y281167D01*
X313342Y281891D01*
X313225Y282618D01*
X313126Y283348D01*
X313044Y284079D01*
X312981Y284813D01*
X312936Y285548D01*
X312909Y286284D01*
X312900Y287020D01*
D15*
X624840Y427990D02*
X624840Y440690D01*
X624840Y427990D02*
X618490Y421640D01*
X605790Y421640D02*
X599440Y427990D01*
X624840Y466090D02*
X618490Y472440D01*
X624840Y466090D02*
X624840Y453390D01*
X618490Y447040D01*
X605790Y447040D02*
X599440Y453390D01*
X599440Y466090D01*
X605790Y472440D01*
X618490Y447040D02*
X624840Y440690D01*
X605790Y447040D02*
X599440Y440690D01*
X599440Y427990D01*
X624840Y504190D02*
X624840Y516890D01*
X624840Y504190D02*
X618490Y497840D01*
X605790Y497840D02*
X599440Y504190D01*
X618490Y497840D02*
X624840Y491490D01*
X624840Y478790D01*
X618490Y472440D01*
X605790Y472440D02*
X599440Y478790D01*
X599440Y491490D01*
X605790Y497840D01*
X605790Y523240D02*
X618490Y523240D01*
X624840Y516890D01*
X605790Y523240D02*
X599440Y516890D01*
X599440Y504190D01*
X605790Y421640D02*
X618490Y421640D01*
D10*
X6350Y406400D02*
X6350Y495300D01*
X6350Y406400D02*
X77470Y406400D01*
X77470Y495300D01*
X6350Y495300D01*
D15*
X387350Y114300D02*
X400050Y114300D01*
X406400Y107950D01*
X406400Y95250D02*
X400050Y88900D01*
X361950Y114300D02*
X355600Y107950D01*
X361950Y114300D02*
X374650Y114300D01*
X381000Y107950D01*
X381000Y95250D02*
X374650Y88900D01*
X361950Y88900D01*
X355600Y95250D01*
X381000Y107950D02*
X387350Y114300D01*
X381000Y95250D02*
X387350Y88900D01*
X400050Y88900D01*
X323850Y114300D02*
X311150Y114300D01*
X323850Y114300D02*
X330200Y107950D01*
X330200Y95250D02*
X323850Y88900D01*
X330200Y107950D02*
X336550Y114300D01*
X349250Y114300D01*
X355600Y107950D01*
X355600Y95250D02*
X349250Y88900D01*
X336550Y88900D01*
X330200Y95250D01*
X285750Y114300D02*
X279400Y107950D01*
X285750Y114300D02*
X298450Y114300D01*
X304800Y107950D01*
X304800Y95250D02*
X298450Y88900D01*
X285750Y88900D01*
X279400Y95250D01*
X304800Y107950D02*
X311150Y114300D01*
X304800Y95250D02*
X311150Y88900D01*
X323850Y88900D01*
X247650Y114300D02*
X234950Y114300D01*
X247650Y114300D02*
X254000Y107950D01*
X254000Y95250D02*
X247650Y88900D01*
X254000Y107950D02*
X260350Y114300D01*
X273050Y114300D01*
X279400Y107950D01*
X279400Y95250D02*
X273050Y88900D01*
X260350Y88900D01*
X254000Y95250D01*
X228600Y95250D02*
X228600Y107950D01*
X234950Y114300D01*
X228600Y95250D02*
X234950Y88900D01*
X247650Y88900D01*
X412750Y114300D02*
X425450Y114300D01*
X431800Y107950D01*
X431800Y95250D02*
X425450Y88900D01*
X406400Y107950D02*
X412750Y114300D01*
X406400Y95250D02*
X412750Y88900D01*
X425450Y88900D01*
X438150Y114300D02*
X450850Y114300D01*
X457200Y107950D01*
X457200Y95250D02*
X450850Y88900D01*
X431800Y107950D02*
X438150Y114300D01*
X431800Y95250D02*
X438150Y88900D01*
X450850Y88900D01*
X463550Y114300D02*
X476250Y114300D01*
X482600Y107950D01*
X482600Y95250D01*
X476250Y88900D01*
X457200Y107950D02*
X463550Y114300D01*
X457200Y95250D02*
X463550Y88900D01*
X476250Y88900D01*
X12700Y298450D02*
X12700Y311150D01*
X19050Y317500D01*
X31750Y317500D02*
X38100Y311150D01*
X19050Y317500D02*
X12700Y323850D01*
X12700Y336550D01*
X19050Y342900D01*
X31750Y342900D02*
X38100Y336550D01*
X38100Y323850D01*
X31750Y317500D01*
X12700Y273050D02*
X19050Y266700D01*
X12700Y273050D02*
X12700Y285750D01*
X19050Y292100D01*
X31750Y292100D02*
X38100Y285750D01*
X38100Y273050D01*
X31750Y266700D01*
X19050Y292100D02*
X12700Y298450D01*
X31750Y292100D02*
X38100Y298450D01*
X38100Y311150D01*
X12700Y234950D02*
X12700Y222250D01*
X12700Y234950D02*
X19050Y241300D01*
X31750Y241300D02*
X38100Y234950D01*
X19050Y241300D02*
X12700Y247650D01*
X12700Y260350D01*
X19050Y266700D01*
X31750Y266700D02*
X38100Y260350D01*
X38100Y247650D01*
X31750Y241300D01*
X31750Y215900D02*
X19050Y215900D01*
X12700Y222250D01*
X31750Y215900D02*
X38100Y222250D01*
X38100Y234950D01*
X31750Y342900D02*
X19050Y342900D01*
D16*
X441700Y229400D02*
X599700Y229400D01*
X441700Y229400D02*
X441700Y255900D01*
X599700Y249400D02*
X599700Y229400D01*
X599700Y249400D02*
X599700Y309400D01*
X599700Y329400D01*
X487200Y329400D01*
X441700Y329400D02*
X441700Y301400D01*
X599700Y249400D02*
X629700Y249400D01*
X629700Y309400D01*
X599700Y309400D01*
D17*
X605700Y241900D02*
X605702Y241963D01*
X605708Y242025D01*
X605718Y242087D01*
X605731Y242149D01*
X605749Y242209D01*
X605770Y242268D01*
X605795Y242326D01*
X605824Y242382D01*
X605856Y242436D01*
X605891Y242488D01*
X605929Y242537D01*
X605971Y242585D01*
X606015Y242629D01*
X606063Y242671D01*
X606112Y242709D01*
X606164Y242744D01*
X606218Y242776D01*
X606274Y242805D01*
X606332Y242830D01*
X606391Y242851D01*
X606451Y242869D01*
X606513Y242882D01*
X606575Y242892D01*
X606637Y242898D01*
X606700Y242900D01*
X606763Y242898D01*
X606825Y242892D01*
X606887Y242882D01*
X606949Y242869D01*
X607009Y242851D01*
X607068Y242830D01*
X607126Y242805D01*
X607182Y242776D01*
X607236Y242744D01*
X607288Y242709D01*
X607337Y242671D01*
X607385Y242629D01*
X607429Y242585D01*
X607471Y242537D01*
X607509Y242488D01*
X607544Y242436D01*
X607576Y242382D01*
X607605Y242326D01*
X607630Y242268D01*
X607651Y242209D01*
X607669Y242149D01*
X607682Y242087D01*
X607692Y242025D01*
X607698Y241963D01*
X607700Y241900D01*
X607698Y241837D01*
X607692Y241775D01*
X607682Y241713D01*
X607669Y241651D01*
X607651Y241591D01*
X607630Y241532D01*
X607605Y241474D01*
X607576Y241418D01*
X607544Y241364D01*
X607509Y241312D01*
X607471Y241263D01*
X607429Y241215D01*
X607385Y241171D01*
X607337Y241129D01*
X607288Y241091D01*
X607236Y241056D01*
X607182Y241024D01*
X607126Y240995D01*
X607068Y240970D01*
X607009Y240949D01*
X606949Y240931D01*
X606887Y240918D01*
X606825Y240908D01*
X606763Y240902D01*
X606700Y240900D01*
X606637Y240902D01*
X606575Y240908D01*
X606513Y240918D01*
X606451Y240931D01*
X606391Y240949D01*
X606332Y240970D01*
X606274Y240995D01*
X606218Y241024D01*
X606164Y241056D01*
X606112Y241091D01*
X606063Y241129D01*
X606015Y241171D01*
X605971Y241215D01*
X605929Y241263D01*
X605891Y241312D01*
X605856Y241364D01*
X605824Y241418D01*
X605795Y241474D01*
X605770Y241532D01*
X605749Y241591D01*
X605731Y241651D01*
X605718Y241713D01*
X605708Y241775D01*
X605702Y241837D01*
X605700Y241900D01*
M02*
