G04 EAGLE Gerber RS-274X export*
G75*
%MOMM*%
%FSLAX34Y34*%
%LPD*%
%INBottom Copper*%
%IPPOS*%
%AMOC8*
5,1,8,0,0,1.08239X$1,22.5*%
G01*
%ADD10C,1.879600*%
%ADD11C,1.930400*%
%ADD12R,1.930400X1.930400*%
%ADD13C,3.000000*%
%ADD14R,1.879600X1.879600*%
%ADD15C,1.209600*%
%ADD16C,1.900000*%
%ADD17C,1.016000*%
%ADD18C,0.812800*%

G36*
X629784Y4080D02*
X629784Y4080D01*
X629903Y4087D01*
X629941Y4100D01*
X629982Y4105D01*
X630092Y4148D01*
X630205Y4185D01*
X630240Y4207D01*
X630277Y4222D01*
X630373Y4291D01*
X630474Y4355D01*
X630502Y4385D01*
X630535Y4408D01*
X630611Y4500D01*
X630692Y4587D01*
X630712Y4622D01*
X630737Y4653D01*
X630788Y4761D01*
X630846Y4865D01*
X630856Y4905D01*
X630873Y4941D01*
X630895Y5058D01*
X630925Y5173D01*
X630929Y5233D01*
X630933Y5253D01*
X630931Y5274D01*
X630935Y5334D01*
X630935Y528066D01*
X630920Y528184D01*
X630913Y528303D01*
X630900Y528341D01*
X630895Y528382D01*
X630852Y528492D01*
X630815Y528605D01*
X630793Y528640D01*
X630778Y528677D01*
X630709Y528773D01*
X630645Y528874D01*
X630615Y528902D01*
X630592Y528935D01*
X630500Y529011D01*
X630413Y529092D01*
X630378Y529112D01*
X630347Y529137D01*
X630239Y529188D01*
X630135Y529246D01*
X630095Y529256D01*
X630059Y529273D01*
X629942Y529295D01*
X629827Y529325D01*
X629767Y529329D01*
X629747Y529333D01*
X629726Y529331D01*
X629666Y529335D01*
X5334Y529335D01*
X5216Y529320D01*
X5097Y529313D01*
X5059Y529300D01*
X5018Y529295D01*
X4908Y529252D01*
X4795Y529215D01*
X4760Y529193D01*
X4723Y529178D01*
X4627Y529109D01*
X4526Y529045D01*
X4498Y529015D01*
X4465Y528992D01*
X4389Y528900D01*
X4308Y528813D01*
X4288Y528778D01*
X4263Y528747D01*
X4212Y528639D01*
X4154Y528535D01*
X4144Y528495D01*
X4127Y528459D01*
X4105Y528342D01*
X4075Y528227D01*
X4071Y528167D01*
X4067Y528147D01*
X4069Y528126D01*
X4065Y528066D01*
X4065Y5334D01*
X4080Y5216D01*
X4087Y5097D01*
X4100Y5059D01*
X4105Y5018D01*
X4148Y4908D01*
X4185Y4795D01*
X4207Y4760D01*
X4222Y4723D01*
X4291Y4627D01*
X4355Y4526D01*
X4385Y4498D01*
X4408Y4465D01*
X4500Y4389D01*
X4587Y4308D01*
X4622Y4288D01*
X4653Y4263D01*
X4761Y4212D01*
X4865Y4154D01*
X4905Y4144D01*
X4941Y4127D01*
X5058Y4105D01*
X5173Y4075D01*
X5233Y4071D01*
X5253Y4067D01*
X5274Y4069D01*
X5334Y4065D01*
X629666Y4065D01*
X629784Y4080D01*
G37*
%LPC*%
G36*
X162624Y12953D02*
X162624Y12953D01*
X158050Y14848D01*
X154548Y18350D01*
X152653Y22924D01*
X152653Y27876D01*
X154548Y32450D01*
X158050Y35952D01*
X162624Y37847D01*
X167576Y37847D01*
X172150Y35952D01*
X175652Y32450D01*
X176627Y30095D01*
X176696Y29975D01*
X176761Y29852D01*
X176775Y29837D01*
X176785Y29819D01*
X176882Y29719D01*
X176975Y29616D01*
X176992Y29605D01*
X177006Y29591D01*
X177124Y29518D01*
X177241Y29442D01*
X177260Y29435D01*
X177277Y29424D01*
X177410Y29384D01*
X177542Y29338D01*
X177562Y29337D01*
X177581Y29331D01*
X177720Y29324D01*
X177859Y29313D01*
X177879Y29317D01*
X177899Y29316D01*
X178035Y29344D01*
X178172Y29368D01*
X178191Y29376D01*
X178210Y29380D01*
X178335Y29441D01*
X178462Y29498D01*
X178478Y29511D01*
X178496Y29520D01*
X178602Y29610D01*
X178710Y29697D01*
X178723Y29713D01*
X178738Y29726D01*
X178818Y29840D01*
X178902Y29951D01*
X178914Y29976D01*
X178921Y29986D01*
X178928Y30005D01*
X178973Y30095D01*
X179948Y32450D01*
X183450Y35952D01*
X188024Y37847D01*
X192976Y37847D01*
X197550Y35952D01*
X201052Y32450D01*
X202027Y30095D01*
X202096Y29975D01*
X202161Y29852D01*
X202175Y29837D01*
X202185Y29819D01*
X202282Y29719D01*
X202375Y29616D01*
X202392Y29605D01*
X202406Y29591D01*
X202524Y29518D01*
X202641Y29442D01*
X202660Y29435D01*
X202677Y29424D01*
X202810Y29384D01*
X202942Y29338D01*
X202962Y29337D01*
X202981Y29331D01*
X203120Y29324D01*
X203259Y29313D01*
X203279Y29317D01*
X203299Y29316D01*
X203435Y29344D01*
X203572Y29368D01*
X203591Y29376D01*
X203610Y29380D01*
X203735Y29441D01*
X203862Y29498D01*
X203878Y29511D01*
X203896Y29520D01*
X204002Y29610D01*
X204110Y29697D01*
X204123Y29713D01*
X204138Y29726D01*
X204218Y29840D01*
X204302Y29951D01*
X204314Y29976D01*
X204321Y29986D01*
X204328Y30005D01*
X204373Y30095D01*
X205348Y32450D01*
X208850Y35952D01*
X213424Y37847D01*
X218376Y37847D01*
X222950Y35952D01*
X226452Y32450D01*
X227427Y30095D01*
X227496Y29975D01*
X227561Y29852D01*
X227575Y29837D01*
X227585Y29819D01*
X227682Y29719D01*
X227775Y29616D01*
X227792Y29605D01*
X227806Y29591D01*
X227924Y29518D01*
X228041Y29442D01*
X228060Y29435D01*
X228077Y29424D01*
X228210Y29384D01*
X228342Y29338D01*
X228362Y29337D01*
X228381Y29331D01*
X228520Y29324D01*
X228659Y29313D01*
X228679Y29317D01*
X228699Y29316D01*
X228835Y29344D01*
X228972Y29368D01*
X228991Y29376D01*
X229010Y29380D01*
X229135Y29441D01*
X229262Y29498D01*
X229278Y29511D01*
X229296Y29520D01*
X229402Y29610D01*
X229510Y29697D01*
X229523Y29713D01*
X229538Y29726D01*
X229618Y29840D01*
X229702Y29951D01*
X229714Y29976D01*
X229721Y29986D01*
X229728Y30005D01*
X229773Y30095D01*
X230748Y32450D01*
X233816Y35518D01*
X233876Y35596D01*
X233944Y35668D01*
X233973Y35721D01*
X234010Y35769D01*
X234050Y35860D01*
X234098Y35947D01*
X234113Y36005D01*
X234137Y36061D01*
X234152Y36159D01*
X234177Y36255D01*
X234183Y36355D01*
X234187Y36375D01*
X234185Y36387D01*
X234187Y36415D01*
X234187Y90585D01*
X234175Y90683D01*
X234172Y90782D01*
X234155Y90840D01*
X234147Y90900D01*
X234111Y90992D01*
X234083Y91087D01*
X234053Y91140D01*
X234030Y91196D01*
X233972Y91276D01*
X233922Y91361D01*
X233856Y91437D01*
X233844Y91453D01*
X233834Y91461D01*
X233816Y91482D01*
X230748Y94550D01*
X228853Y99124D01*
X228853Y104076D01*
X230748Y108650D01*
X234250Y112152D01*
X238824Y114047D01*
X243776Y114047D01*
X248350Y112152D01*
X251852Y108651D01*
X252827Y106295D01*
X252896Y106174D01*
X252961Y106052D01*
X252975Y106037D01*
X252985Y106019D01*
X253082Y105919D01*
X253175Y105816D01*
X253192Y105805D01*
X253206Y105791D01*
X253324Y105718D01*
X253441Y105642D01*
X253460Y105635D01*
X253477Y105624D01*
X253610Y105584D01*
X253742Y105538D01*
X253762Y105537D01*
X253781Y105531D01*
X253920Y105524D01*
X254059Y105513D01*
X254079Y105517D01*
X254099Y105516D01*
X254235Y105544D01*
X254372Y105568D01*
X254391Y105576D01*
X254410Y105580D01*
X254535Y105641D01*
X254662Y105698D01*
X254678Y105711D01*
X254696Y105720D01*
X254802Y105810D01*
X254910Y105897D01*
X254923Y105913D01*
X254938Y105926D01*
X255018Y106040D01*
X255102Y106151D01*
X255114Y106176D01*
X255121Y106186D01*
X255128Y106205D01*
X255173Y106295D01*
X256148Y108650D01*
X259650Y112152D01*
X264224Y114047D01*
X269176Y114047D01*
X273750Y112152D01*
X277252Y108651D01*
X278227Y106295D01*
X278296Y106174D01*
X278361Y106052D01*
X278375Y106037D01*
X278385Y106019D01*
X278482Y105919D01*
X278575Y105816D01*
X278592Y105805D01*
X278606Y105791D01*
X278724Y105718D01*
X278841Y105642D01*
X278860Y105635D01*
X278877Y105624D01*
X279010Y105584D01*
X279142Y105538D01*
X279162Y105537D01*
X279181Y105531D01*
X279320Y105524D01*
X279459Y105513D01*
X279479Y105517D01*
X279499Y105516D01*
X279635Y105544D01*
X279772Y105568D01*
X279791Y105576D01*
X279810Y105580D01*
X279935Y105641D01*
X280062Y105698D01*
X280078Y105711D01*
X280096Y105720D01*
X280202Y105810D01*
X280310Y105897D01*
X280323Y105913D01*
X280338Y105926D01*
X280418Y106040D01*
X280502Y106151D01*
X280514Y106176D01*
X280521Y106186D01*
X280528Y106205D01*
X280573Y106295D01*
X281548Y108650D01*
X285050Y112152D01*
X289624Y114047D01*
X294576Y114047D01*
X299150Y112152D01*
X302652Y108651D01*
X303627Y106295D01*
X303696Y106174D01*
X303761Y106052D01*
X303775Y106037D01*
X303785Y106019D01*
X303882Y105919D01*
X303975Y105816D01*
X303992Y105805D01*
X304006Y105791D01*
X304124Y105718D01*
X304241Y105642D01*
X304260Y105635D01*
X304277Y105624D01*
X304410Y105584D01*
X304542Y105538D01*
X304562Y105537D01*
X304581Y105531D01*
X304720Y105524D01*
X304859Y105513D01*
X304879Y105517D01*
X304899Y105516D01*
X305035Y105544D01*
X305172Y105568D01*
X305191Y105576D01*
X305210Y105580D01*
X305335Y105641D01*
X305462Y105698D01*
X305478Y105711D01*
X305496Y105720D01*
X305602Y105810D01*
X305710Y105897D01*
X305723Y105913D01*
X305738Y105926D01*
X305818Y106040D01*
X305902Y106151D01*
X305914Y106176D01*
X305921Y106186D01*
X305928Y106205D01*
X305973Y106295D01*
X306948Y108650D01*
X310450Y112152D01*
X315024Y114047D01*
X319976Y114047D01*
X324550Y112152D01*
X328052Y108651D01*
X329027Y106295D01*
X329096Y106174D01*
X329161Y106052D01*
X329175Y106037D01*
X329185Y106019D01*
X329282Y105919D01*
X329375Y105816D01*
X329392Y105805D01*
X329406Y105791D01*
X329524Y105718D01*
X329641Y105642D01*
X329660Y105635D01*
X329677Y105624D01*
X329810Y105584D01*
X329942Y105538D01*
X329962Y105537D01*
X329981Y105531D01*
X330120Y105524D01*
X330259Y105513D01*
X330279Y105517D01*
X330299Y105516D01*
X330435Y105544D01*
X330572Y105568D01*
X330591Y105576D01*
X330610Y105580D01*
X330735Y105641D01*
X330862Y105698D01*
X330878Y105711D01*
X330896Y105720D01*
X331002Y105810D01*
X331110Y105897D01*
X331123Y105913D01*
X331138Y105926D01*
X331218Y106040D01*
X331302Y106151D01*
X331314Y106176D01*
X331321Y106186D01*
X331328Y106205D01*
X331373Y106295D01*
X332348Y108650D01*
X335850Y112152D01*
X340424Y114047D01*
X345376Y114047D01*
X349950Y112152D01*
X353452Y108651D01*
X354427Y106295D01*
X354496Y106174D01*
X354561Y106052D01*
X354575Y106037D01*
X354585Y106019D01*
X354682Y105919D01*
X354775Y105816D01*
X354792Y105805D01*
X354806Y105791D01*
X354924Y105718D01*
X355041Y105642D01*
X355060Y105635D01*
X355077Y105624D01*
X355210Y105584D01*
X355342Y105538D01*
X355362Y105537D01*
X355381Y105531D01*
X355520Y105524D01*
X355659Y105513D01*
X355679Y105517D01*
X355699Y105516D01*
X355835Y105544D01*
X355972Y105568D01*
X355991Y105576D01*
X356010Y105580D01*
X356135Y105641D01*
X356262Y105698D01*
X356278Y105711D01*
X356296Y105720D01*
X356402Y105810D01*
X356510Y105897D01*
X356523Y105913D01*
X356538Y105926D01*
X356618Y106040D01*
X356702Y106151D01*
X356714Y106176D01*
X356721Y106186D01*
X356728Y106205D01*
X356773Y106295D01*
X357748Y108650D01*
X361250Y112152D01*
X365824Y114047D01*
X370776Y114047D01*
X375350Y112152D01*
X378852Y108651D01*
X379827Y106295D01*
X379896Y106174D01*
X379961Y106052D01*
X379975Y106037D01*
X379985Y106019D01*
X380082Y105919D01*
X380175Y105816D01*
X380192Y105805D01*
X380206Y105791D01*
X380324Y105718D01*
X380441Y105642D01*
X380460Y105635D01*
X380477Y105624D01*
X380610Y105584D01*
X380742Y105538D01*
X380762Y105537D01*
X380781Y105531D01*
X380920Y105524D01*
X381059Y105513D01*
X381079Y105517D01*
X381099Y105516D01*
X381235Y105544D01*
X381372Y105568D01*
X381391Y105576D01*
X381410Y105580D01*
X381535Y105641D01*
X381662Y105698D01*
X381678Y105711D01*
X381696Y105720D01*
X381802Y105810D01*
X381910Y105897D01*
X381923Y105913D01*
X381938Y105926D01*
X382018Y106040D01*
X382102Y106151D01*
X382114Y106176D01*
X382121Y106186D01*
X382128Y106205D01*
X382173Y106295D01*
X383148Y108650D01*
X386650Y112152D01*
X391224Y114047D01*
X396176Y114047D01*
X400750Y112152D01*
X404252Y108651D01*
X405227Y106295D01*
X405296Y106174D01*
X405361Y106052D01*
X405375Y106037D01*
X405385Y106019D01*
X405482Y105919D01*
X405575Y105816D01*
X405592Y105805D01*
X405606Y105791D01*
X405724Y105718D01*
X405841Y105642D01*
X405860Y105635D01*
X405877Y105624D01*
X406010Y105584D01*
X406142Y105538D01*
X406162Y105537D01*
X406181Y105531D01*
X406320Y105524D01*
X406459Y105513D01*
X406479Y105517D01*
X406499Y105516D01*
X406635Y105544D01*
X406772Y105568D01*
X406791Y105576D01*
X406810Y105580D01*
X406935Y105641D01*
X407062Y105698D01*
X407078Y105711D01*
X407096Y105720D01*
X407202Y105810D01*
X407310Y105897D01*
X407323Y105913D01*
X407338Y105926D01*
X407418Y106040D01*
X407502Y106151D01*
X407514Y106176D01*
X407521Y106186D01*
X407528Y106205D01*
X407573Y106295D01*
X408548Y108650D01*
X412050Y112152D01*
X416624Y114047D01*
X421576Y114047D01*
X426150Y112152D01*
X429652Y108650D01*
X430627Y106295D01*
X430696Y106175D01*
X430761Y106052D01*
X430775Y106037D01*
X430785Y106019D01*
X430882Y105919D01*
X430975Y105816D01*
X430992Y105805D01*
X431006Y105791D01*
X431124Y105718D01*
X431241Y105642D01*
X431260Y105635D01*
X431277Y105624D01*
X431410Y105584D01*
X431542Y105538D01*
X431562Y105537D01*
X431581Y105531D01*
X431720Y105524D01*
X431859Y105513D01*
X431879Y105517D01*
X431899Y105516D01*
X432035Y105544D01*
X432172Y105568D01*
X432191Y105576D01*
X432210Y105580D01*
X432335Y105641D01*
X432462Y105698D01*
X432478Y105711D01*
X432496Y105720D01*
X432602Y105810D01*
X432710Y105897D01*
X432723Y105913D01*
X432738Y105926D01*
X432818Y106040D01*
X432902Y106151D01*
X432914Y106176D01*
X432921Y106186D01*
X432928Y106205D01*
X432973Y106295D01*
X433948Y108650D01*
X437450Y112152D01*
X442024Y114047D01*
X446976Y114047D01*
X451550Y112152D01*
X455052Y108650D01*
X456305Y105625D01*
X456320Y105599D01*
X456329Y105570D01*
X456399Y105461D01*
X456463Y105348D01*
X456484Y105327D01*
X456500Y105302D01*
X456594Y105213D01*
X456684Y105120D01*
X456710Y105104D01*
X456731Y105084D01*
X456845Y105021D01*
X456955Y104954D01*
X456984Y104945D01*
X457010Y104931D01*
X457135Y104898D01*
X457259Y104860D01*
X457289Y104859D01*
X457318Y104851D01*
X457448Y104851D01*
X457577Y104845D01*
X457606Y104851D01*
X457636Y104851D01*
X457761Y104883D01*
X457888Y104909D01*
X457915Y104922D01*
X457944Y104930D01*
X458057Y104992D01*
X458174Y105049D01*
X458197Y105068D01*
X458223Y105083D01*
X458317Y105171D01*
X458416Y105255D01*
X458433Y105280D01*
X458455Y105300D01*
X458524Y105409D01*
X458599Y105515D01*
X458610Y105543D01*
X458626Y105569D01*
X458685Y105718D01*
X458836Y106183D01*
X459689Y107857D01*
X460794Y109378D01*
X462122Y110706D01*
X463643Y111811D01*
X465317Y112664D01*
X467104Y113245D01*
X467361Y113285D01*
X467361Y102870D01*
X467376Y102752D01*
X467383Y102633D01*
X467396Y102595D01*
X467401Y102555D01*
X467444Y102444D01*
X467481Y102331D01*
X467503Y102297D01*
X467518Y102259D01*
X467588Y102163D01*
X467651Y102062D01*
X467681Y102034D01*
X467704Y102002D01*
X467796Y101926D01*
X467883Y101844D01*
X467918Y101825D01*
X467949Y101799D01*
X468057Y101748D01*
X468161Y101691D01*
X468201Y101680D01*
X468237Y101663D01*
X468354Y101641D01*
X468469Y101611D01*
X468530Y101607D01*
X468550Y101603D01*
X468570Y101605D01*
X468630Y101601D01*
X469901Y101601D01*
X469901Y101599D01*
X468630Y101599D01*
X468512Y101584D01*
X468393Y101577D01*
X468355Y101564D01*
X468314Y101559D01*
X468204Y101515D01*
X468091Y101479D01*
X468056Y101457D01*
X468019Y101442D01*
X467923Y101372D01*
X467822Y101309D01*
X467794Y101279D01*
X467761Y101255D01*
X467686Y101164D01*
X467604Y101077D01*
X467584Y101042D01*
X467559Y101010D01*
X467508Y100903D01*
X467450Y100798D01*
X467440Y100759D01*
X467423Y100723D01*
X467401Y100606D01*
X467371Y100491D01*
X467367Y100430D01*
X467363Y100410D01*
X467365Y100390D01*
X467361Y100330D01*
X467361Y89915D01*
X467104Y89955D01*
X465317Y90536D01*
X463643Y91389D01*
X462122Y92494D01*
X460794Y93822D01*
X459689Y95343D01*
X458836Y97017D01*
X458685Y97482D01*
X458672Y97509D01*
X458665Y97538D01*
X458605Y97652D01*
X458550Y97770D01*
X458531Y97793D01*
X458517Y97819D01*
X458430Y97915D01*
X458347Y98015D01*
X458323Y98032D01*
X458303Y98054D01*
X458194Y98126D01*
X458090Y98202D01*
X458062Y98213D01*
X458037Y98229D01*
X457914Y98271D01*
X457794Y98319D01*
X457764Y98323D01*
X457736Y98332D01*
X457607Y98343D01*
X457479Y98359D01*
X457449Y98355D01*
X457419Y98358D01*
X457291Y98335D01*
X457163Y98319D01*
X457135Y98308D01*
X457106Y98303D01*
X456988Y98250D01*
X456867Y98202D01*
X456843Y98185D01*
X456816Y98173D01*
X456715Y98092D01*
X456610Y98016D01*
X456591Y97993D01*
X456567Y97974D01*
X456489Y97870D01*
X456407Y97771D01*
X456394Y97744D01*
X456376Y97720D01*
X456305Y97575D01*
X455052Y94550D01*
X451550Y91048D01*
X446976Y89153D01*
X442024Y89153D01*
X437450Y91048D01*
X433948Y94550D01*
X432973Y96905D01*
X432904Y97025D01*
X432839Y97148D01*
X432825Y97163D01*
X432815Y97181D01*
X432718Y97281D01*
X432625Y97384D01*
X432608Y97395D01*
X432594Y97409D01*
X432475Y97482D01*
X432359Y97558D01*
X432340Y97565D01*
X432323Y97576D01*
X432190Y97616D01*
X432058Y97662D01*
X432038Y97663D01*
X432019Y97669D01*
X431880Y97676D01*
X431741Y97687D01*
X431721Y97683D01*
X431701Y97684D01*
X431565Y97656D01*
X431428Y97632D01*
X431409Y97624D01*
X431390Y97620D01*
X431264Y97559D01*
X431138Y97502D01*
X431122Y97489D01*
X431104Y97480D01*
X430998Y97390D01*
X430890Y97303D01*
X430877Y97287D01*
X430862Y97274D01*
X430782Y97160D01*
X430698Y97049D01*
X430686Y97024D01*
X430679Y97014D01*
X430672Y96995D01*
X430627Y96905D01*
X429652Y94550D01*
X428256Y93154D01*
X428187Y93065D01*
X428112Y92982D01*
X428090Y92940D01*
X428061Y92903D01*
X428017Y92799D01*
X427965Y92700D01*
X427954Y92654D01*
X427935Y92611D01*
X427917Y92500D01*
X427892Y92391D01*
X427893Y92343D01*
X427885Y92297D01*
X427896Y92185D01*
X427898Y92073D01*
X427911Y92027D01*
X427915Y91980D01*
X427953Y91874D01*
X427983Y91766D01*
X428015Y91701D01*
X428023Y91681D01*
X428033Y91666D01*
X428055Y91622D01*
X429900Y88426D01*
X429926Y88391D01*
X429946Y88352D01*
X430044Y88224D01*
X431512Y86551D01*
X431528Y86537D01*
X431569Y86490D01*
X453611Y64448D01*
X454725Y63334D01*
X455968Y62091D01*
X455969Y62090D01*
X457817Y60242D01*
X462097Y52829D01*
X464313Y44559D01*
X464313Y36415D01*
X464325Y36317D01*
X464328Y36218D01*
X464345Y36160D01*
X464353Y36100D01*
X464389Y36008D01*
X464417Y35913D01*
X464447Y35860D01*
X464470Y35804D01*
X464528Y35724D01*
X464578Y35639D01*
X464644Y35563D01*
X464656Y35547D01*
X464666Y35539D01*
X464684Y35518D01*
X467752Y32450D01*
X468727Y30095D01*
X468796Y29975D01*
X468861Y29852D01*
X468875Y29837D01*
X468885Y29819D01*
X468982Y29719D01*
X469075Y29616D01*
X469092Y29605D01*
X469106Y29591D01*
X469224Y29518D01*
X469341Y29442D01*
X469360Y29435D01*
X469377Y29424D01*
X469510Y29384D01*
X469642Y29338D01*
X469662Y29337D01*
X469681Y29331D01*
X469820Y29324D01*
X469959Y29313D01*
X469979Y29317D01*
X469999Y29316D01*
X470135Y29344D01*
X470272Y29368D01*
X470291Y29376D01*
X470310Y29380D01*
X470435Y29441D01*
X470562Y29498D01*
X470578Y29511D01*
X470596Y29520D01*
X470702Y29610D01*
X470810Y29697D01*
X470823Y29713D01*
X470838Y29726D01*
X470918Y29840D01*
X471002Y29951D01*
X471014Y29976D01*
X471021Y29986D01*
X471028Y30005D01*
X471073Y30095D01*
X472048Y32450D01*
X475116Y35518D01*
X475176Y35596D01*
X475244Y35668D01*
X475273Y35721D01*
X475310Y35769D01*
X475350Y35860D01*
X475398Y35947D01*
X475413Y36005D01*
X475437Y36061D01*
X475452Y36159D01*
X475477Y36255D01*
X475483Y36355D01*
X475487Y36375D01*
X475485Y36387D01*
X475487Y36415D01*
X475487Y50909D01*
X477703Y59179D01*
X481983Y66592D01*
X483831Y68440D01*
X485171Y69779D01*
X485171Y69780D01*
X486188Y70797D01*
X486189Y70798D01*
X495442Y80050D01*
X495679Y80288D01*
X496621Y81229D01*
X496633Y81246D01*
X496677Y81290D01*
X497824Y82598D01*
X497849Y82635D01*
X497880Y82666D01*
X497969Y82800D01*
X499705Y85807D01*
X499738Y85886D01*
X499780Y85960D01*
X499824Y86090D01*
X499828Y86100D01*
X499829Y86104D01*
X499832Y86113D01*
X500730Y89466D01*
X500736Y89510D01*
X500750Y89552D01*
X500771Y89711D01*
X500809Y90293D01*
X500885Y91447D01*
X500883Y91468D01*
X500887Y91530D01*
X500887Y139700D01*
X500885Y139722D01*
X500883Y139800D01*
X500674Y142462D01*
X500660Y142530D01*
X500656Y142598D01*
X500616Y142754D01*
X498970Y147818D01*
X498920Y147926D01*
X498876Y148036D01*
X498844Y148087D01*
X498835Y148106D01*
X498822Y148122D01*
X498790Y148172D01*
X495660Y152480D01*
X495579Y152566D01*
X495504Y152658D01*
X495457Y152696D01*
X495443Y152711D01*
X495425Y152722D01*
X495380Y152760D01*
X491072Y155890D01*
X490968Y155947D01*
X490868Y156011D01*
X490811Y156033D01*
X490793Y156043D01*
X490774Y156048D01*
X490718Y156070D01*
X485654Y157716D01*
X485587Y157729D01*
X485521Y157751D01*
X485362Y157774D01*
X482700Y157983D01*
X482678Y157982D01*
X482600Y157987D01*
X255200Y157987D01*
X245406Y161170D01*
X237074Y167223D01*
X231020Y175556D01*
X227837Y185351D01*
X227837Y279400D01*
X227835Y279422D01*
X227833Y279500D01*
X227624Y282162D01*
X227610Y282226D01*
X227608Y282267D01*
X227607Y282269D01*
X227606Y282298D01*
X227566Y282454D01*
X225920Y287518D01*
X225886Y287590D01*
X225868Y287647D01*
X225850Y287675D01*
X225826Y287736D01*
X225794Y287787D01*
X225785Y287806D01*
X225772Y287822D01*
X225740Y287872D01*
X222610Y292180D01*
X222529Y292266D01*
X222454Y292358D01*
X222407Y292396D01*
X222393Y292411D01*
X222375Y292422D01*
X222330Y292460D01*
X218022Y295590D01*
X217918Y295647D01*
X217818Y295711D01*
X217761Y295733D01*
X217743Y295743D01*
X217724Y295748D01*
X217668Y295770D01*
X212604Y297416D01*
X212537Y297429D01*
X212471Y297451D01*
X212312Y297474D01*
X209650Y297683D01*
X209628Y297682D01*
X209550Y297687D01*
X188472Y297687D01*
X188463Y297686D01*
X188454Y297687D01*
X188305Y297666D01*
X188157Y297647D01*
X188148Y297644D01*
X188139Y297643D01*
X187987Y297591D01*
X185767Y296671D01*
X182533Y296671D01*
X179545Y297909D01*
X177259Y300195D01*
X176021Y303183D01*
X176021Y306417D01*
X177259Y309405D01*
X179545Y311691D01*
X182533Y312929D01*
X185767Y312929D01*
X187987Y312009D01*
X187995Y312007D01*
X188004Y312002D01*
X188149Y311965D01*
X188293Y311925D01*
X188303Y311925D01*
X188312Y311923D01*
X188472Y311913D01*
X214700Y311913D01*
X224494Y308730D01*
X232827Y302677D01*
X238880Y294344D01*
X242063Y284550D01*
X242063Y190500D01*
X242065Y190478D01*
X242067Y190400D01*
X242276Y187738D01*
X242290Y187670D01*
X242294Y187602D01*
X242334Y187446D01*
X243980Y182382D01*
X244030Y182274D01*
X244074Y182164D01*
X244106Y182113D01*
X244115Y182094D01*
X244128Y182078D01*
X244160Y182028D01*
X247290Y177720D01*
X247371Y177634D01*
X247446Y177542D01*
X247493Y177504D01*
X247507Y177489D01*
X247525Y177478D01*
X247570Y177440D01*
X251878Y174310D01*
X251982Y174253D01*
X252082Y174189D01*
X252139Y174167D01*
X252157Y174157D01*
X252176Y174152D01*
X252232Y174130D01*
X257296Y172484D01*
X257363Y172471D01*
X257429Y172449D01*
X257588Y172426D01*
X260250Y172217D01*
X260272Y172218D01*
X260350Y172213D01*
X487750Y172213D01*
X497544Y169030D01*
X505877Y162977D01*
X511930Y154644D01*
X515113Y144850D01*
X515113Y87740D01*
X513151Y80416D01*
X509360Y73851D01*
X507858Y72349D01*
X506613Y71105D01*
X506613Y71104D01*
X505501Y69992D01*
X505500Y69992D01*
X495069Y59560D01*
X495056Y59544D01*
X495012Y59499D01*
X493544Y57826D01*
X493520Y57789D01*
X493489Y57758D01*
X493399Y57624D01*
X491178Y53776D01*
X491145Y53697D01*
X491103Y53623D01*
X491059Y53493D01*
X491055Y53483D01*
X491054Y53479D01*
X491051Y53470D01*
X489902Y49179D01*
X489896Y49135D01*
X489882Y49093D01*
X489861Y48933D01*
X489715Y46712D01*
X489717Y46691D01*
X489713Y46629D01*
X489713Y36415D01*
X489725Y36317D01*
X489728Y36218D01*
X489745Y36160D01*
X489753Y36100D01*
X489789Y36008D01*
X489817Y35913D01*
X489847Y35860D01*
X489870Y35804D01*
X489928Y35724D01*
X489978Y35639D01*
X490044Y35563D01*
X490056Y35547D01*
X490066Y35539D01*
X490084Y35518D01*
X493152Y32450D01*
X494127Y30095D01*
X494196Y29975D01*
X494261Y29852D01*
X494275Y29837D01*
X494285Y29819D01*
X494382Y29719D01*
X494475Y29616D01*
X494492Y29605D01*
X494506Y29591D01*
X494625Y29518D01*
X494741Y29442D01*
X494760Y29435D01*
X494777Y29424D01*
X494910Y29384D01*
X495042Y29338D01*
X495062Y29337D01*
X495081Y29331D01*
X495220Y29324D01*
X495359Y29313D01*
X495379Y29317D01*
X495399Y29316D01*
X495535Y29344D01*
X495672Y29368D01*
X495691Y29376D01*
X495710Y29380D01*
X495836Y29441D01*
X495962Y29498D01*
X495978Y29511D01*
X495996Y29520D01*
X496102Y29610D01*
X496210Y29697D01*
X496223Y29713D01*
X496238Y29726D01*
X496318Y29840D01*
X496402Y29951D01*
X496414Y29976D01*
X496421Y29986D01*
X496428Y30005D01*
X496473Y30095D01*
X497448Y32450D01*
X500950Y35952D01*
X505524Y37847D01*
X510476Y37847D01*
X515050Y35952D01*
X518552Y32450D01*
X519805Y29425D01*
X519820Y29399D01*
X519829Y29370D01*
X519899Y29261D01*
X519963Y29148D01*
X519984Y29127D01*
X520000Y29102D01*
X520094Y29013D01*
X520184Y28920D01*
X520210Y28904D01*
X520231Y28884D01*
X520345Y28821D01*
X520455Y28754D01*
X520484Y28745D01*
X520510Y28731D01*
X520635Y28698D01*
X520759Y28660D01*
X520789Y28659D01*
X520818Y28651D01*
X520948Y28651D01*
X521077Y28645D01*
X521106Y28651D01*
X521136Y28651D01*
X521261Y28683D01*
X521388Y28709D01*
X521415Y28722D01*
X521444Y28730D01*
X521557Y28792D01*
X521674Y28849D01*
X521697Y28868D01*
X521723Y28883D01*
X521817Y28971D01*
X521916Y29055D01*
X521933Y29080D01*
X521955Y29100D01*
X522024Y29209D01*
X522099Y29315D01*
X522110Y29343D01*
X522126Y29369D01*
X522185Y29518D01*
X522336Y29983D01*
X523189Y31657D01*
X524294Y33178D01*
X525622Y34506D01*
X527143Y35611D01*
X528817Y36464D01*
X530604Y37045D01*
X530861Y37085D01*
X530861Y26670D01*
X530876Y26552D01*
X530883Y26433D01*
X530896Y26395D01*
X530901Y26355D01*
X530944Y26244D01*
X530981Y26131D01*
X531003Y26097D01*
X531018Y26059D01*
X531088Y25963D01*
X531151Y25862D01*
X531181Y25834D01*
X531204Y25802D01*
X531296Y25726D01*
X531383Y25644D01*
X531418Y25625D01*
X531449Y25599D01*
X531557Y25548D01*
X531661Y25491D01*
X531701Y25480D01*
X531737Y25463D01*
X531854Y25441D01*
X531969Y25411D01*
X532030Y25407D01*
X532050Y25403D01*
X532070Y25405D01*
X532130Y25401D01*
X534670Y25401D01*
X534788Y25416D01*
X534907Y25423D01*
X534945Y25436D01*
X534985Y25441D01*
X535096Y25485D01*
X535209Y25521D01*
X535244Y25543D01*
X535281Y25558D01*
X535377Y25628D01*
X535478Y25691D01*
X535506Y25721D01*
X535539Y25745D01*
X535614Y25836D01*
X535696Y25923D01*
X535716Y25958D01*
X535741Y25990D01*
X535792Y26097D01*
X535850Y26202D01*
X535860Y26241D01*
X535877Y26277D01*
X535899Y26394D01*
X535929Y26509D01*
X535933Y26570D01*
X535937Y26590D01*
X535935Y26610D01*
X535939Y26670D01*
X535939Y37085D01*
X536196Y37045D01*
X537983Y36464D01*
X539657Y35611D01*
X541178Y34506D01*
X542506Y33178D01*
X543611Y31657D01*
X544464Y29983D01*
X544615Y29518D01*
X544628Y29491D01*
X544635Y29462D01*
X544695Y29348D01*
X544750Y29230D01*
X544769Y29207D01*
X544783Y29181D01*
X544870Y29085D01*
X544953Y28985D01*
X544977Y28968D01*
X544997Y28946D01*
X545106Y28874D01*
X545210Y28798D01*
X545238Y28787D01*
X545263Y28771D01*
X545386Y28729D01*
X545506Y28681D01*
X545536Y28677D01*
X545564Y28668D01*
X545693Y28657D01*
X545821Y28641D01*
X545851Y28645D01*
X545881Y28642D01*
X546009Y28665D01*
X546137Y28681D01*
X546165Y28692D01*
X546194Y28697D01*
X546312Y28750D01*
X546433Y28798D01*
X546457Y28815D01*
X546484Y28827D01*
X546585Y28908D01*
X546690Y28984D01*
X546709Y29007D01*
X546733Y29026D01*
X546811Y29130D01*
X546893Y29229D01*
X546906Y29256D01*
X546924Y29280D01*
X546995Y29425D01*
X548248Y32450D01*
X551750Y35952D01*
X556324Y37847D01*
X561276Y37847D01*
X565850Y35952D01*
X569352Y32451D01*
X570327Y30095D01*
X570396Y29974D01*
X570461Y29852D01*
X570475Y29837D01*
X570485Y29819D01*
X570582Y29719D01*
X570675Y29616D01*
X570692Y29605D01*
X570706Y29591D01*
X570824Y29518D01*
X570941Y29442D01*
X570960Y29435D01*
X570977Y29424D01*
X571110Y29384D01*
X571242Y29338D01*
X571262Y29337D01*
X571281Y29331D01*
X571420Y29324D01*
X571559Y29313D01*
X571579Y29317D01*
X571599Y29316D01*
X571735Y29344D01*
X571872Y29368D01*
X571891Y29376D01*
X571910Y29380D01*
X572035Y29441D01*
X572162Y29498D01*
X572178Y29511D01*
X572196Y29520D01*
X572302Y29610D01*
X572410Y29697D01*
X572423Y29713D01*
X572438Y29726D01*
X572518Y29840D01*
X572602Y29951D01*
X572614Y29976D01*
X572621Y29986D01*
X572628Y30005D01*
X572673Y30095D01*
X573648Y32450D01*
X577150Y35952D01*
X581724Y37847D01*
X586676Y37847D01*
X591250Y35952D01*
X594752Y32451D01*
X595727Y30095D01*
X595796Y29974D01*
X595861Y29852D01*
X595875Y29837D01*
X595885Y29819D01*
X595982Y29719D01*
X596075Y29616D01*
X596092Y29605D01*
X596106Y29591D01*
X596224Y29518D01*
X596341Y29442D01*
X596360Y29435D01*
X596377Y29424D01*
X596510Y29384D01*
X596642Y29338D01*
X596662Y29337D01*
X596681Y29331D01*
X596820Y29324D01*
X596959Y29313D01*
X596979Y29317D01*
X596999Y29316D01*
X597135Y29344D01*
X597272Y29368D01*
X597291Y29376D01*
X597310Y29380D01*
X597435Y29441D01*
X597562Y29498D01*
X597578Y29511D01*
X597596Y29520D01*
X597702Y29610D01*
X597810Y29697D01*
X597823Y29713D01*
X597838Y29726D01*
X597918Y29840D01*
X598002Y29951D01*
X598014Y29976D01*
X598021Y29986D01*
X598028Y30005D01*
X598073Y30095D01*
X599048Y32450D01*
X602550Y35952D01*
X607124Y37847D01*
X612076Y37847D01*
X616650Y35952D01*
X620152Y32450D01*
X622047Y27876D01*
X622047Y22924D01*
X620152Y18350D01*
X616650Y14848D01*
X612076Y12953D01*
X607124Y12953D01*
X602550Y14848D01*
X599048Y18350D01*
X598073Y20705D01*
X598004Y20825D01*
X597939Y20948D01*
X597925Y20963D01*
X597915Y20981D01*
X597818Y21081D01*
X597725Y21184D01*
X597708Y21195D01*
X597694Y21209D01*
X597575Y21282D01*
X597459Y21358D01*
X597440Y21365D01*
X597423Y21376D01*
X597290Y21417D01*
X597158Y21462D01*
X597138Y21463D01*
X597119Y21469D01*
X596980Y21476D01*
X596841Y21487D01*
X596821Y21483D01*
X596801Y21484D01*
X596665Y21456D01*
X596528Y21432D01*
X596509Y21424D01*
X596490Y21420D01*
X596364Y21359D01*
X596238Y21302D01*
X596222Y21289D01*
X596204Y21280D01*
X596098Y21190D01*
X595990Y21103D01*
X595977Y21087D01*
X595962Y21074D01*
X595882Y20960D01*
X595798Y20849D01*
X595786Y20824D01*
X595779Y20814D01*
X595772Y20795D01*
X595727Y20705D01*
X594752Y18349D01*
X591250Y14848D01*
X586676Y12953D01*
X581724Y12953D01*
X577150Y14848D01*
X573648Y18350D01*
X572673Y20705D01*
X572604Y20825D01*
X572539Y20948D01*
X572525Y20963D01*
X572515Y20981D01*
X572418Y21081D01*
X572325Y21184D01*
X572308Y21195D01*
X572294Y21209D01*
X572175Y21282D01*
X572059Y21358D01*
X572040Y21365D01*
X572023Y21376D01*
X571890Y21417D01*
X571758Y21462D01*
X571738Y21463D01*
X571719Y21469D01*
X571580Y21476D01*
X571441Y21487D01*
X571421Y21483D01*
X571401Y21484D01*
X571265Y21456D01*
X571128Y21432D01*
X571109Y21424D01*
X571090Y21420D01*
X570964Y21359D01*
X570838Y21302D01*
X570822Y21289D01*
X570804Y21280D01*
X570698Y21190D01*
X570590Y21103D01*
X570577Y21087D01*
X570562Y21074D01*
X570482Y20960D01*
X570398Y20849D01*
X570386Y20824D01*
X570379Y20814D01*
X570372Y20795D01*
X570327Y20705D01*
X569352Y18349D01*
X565850Y14848D01*
X561276Y12953D01*
X556324Y12953D01*
X551750Y14848D01*
X548248Y18350D01*
X546995Y21375D01*
X546980Y21401D01*
X546971Y21430D01*
X546901Y21539D01*
X546837Y21652D01*
X546816Y21673D01*
X546800Y21698D01*
X546706Y21787D01*
X546616Y21880D01*
X546590Y21896D01*
X546569Y21916D01*
X546455Y21979D01*
X546345Y22046D01*
X546316Y22055D01*
X546290Y22069D01*
X546165Y22102D01*
X546041Y22140D01*
X546011Y22141D01*
X545982Y22149D01*
X545852Y22149D01*
X545723Y22155D01*
X545694Y22149D01*
X545664Y22149D01*
X545539Y22117D01*
X545412Y22091D01*
X545385Y22078D01*
X545356Y22070D01*
X545243Y22008D01*
X545126Y21951D01*
X545103Y21932D01*
X545077Y21917D01*
X544983Y21829D01*
X544884Y21745D01*
X544867Y21720D01*
X544845Y21700D01*
X544776Y21591D01*
X544701Y21485D01*
X544690Y21457D01*
X544674Y21431D01*
X544615Y21282D01*
X544464Y20817D01*
X543611Y19143D01*
X542506Y17622D01*
X541178Y16294D01*
X539657Y15189D01*
X537983Y14336D01*
X536196Y13755D01*
X535939Y13715D01*
X535939Y24130D01*
X535924Y24248D01*
X535917Y24367D01*
X535904Y24405D01*
X535899Y24445D01*
X535856Y24556D01*
X535819Y24669D01*
X535797Y24703D01*
X535782Y24741D01*
X535712Y24837D01*
X535649Y24938D01*
X535619Y24966D01*
X535595Y24998D01*
X535504Y25074D01*
X535417Y25156D01*
X535382Y25175D01*
X535351Y25201D01*
X535243Y25252D01*
X535139Y25309D01*
X535099Y25320D01*
X535063Y25337D01*
X534946Y25359D01*
X534831Y25389D01*
X534770Y25393D01*
X534750Y25397D01*
X534730Y25395D01*
X534670Y25399D01*
X532130Y25399D01*
X532012Y25384D01*
X531893Y25377D01*
X531855Y25364D01*
X531814Y25359D01*
X531704Y25315D01*
X531591Y25279D01*
X531556Y25257D01*
X531519Y25242D01*
X531423Y25172D01*
X531322Y25109D01*
X531294Y25079D01*
X531261Y25055D01*
X531186Y24964D01*
X531104Y24877D01*
X531084Y24842D01*
X531059Y24810D01*
X531008Y24703D01*
X530950Y24598D01*
X530940Y24559D01*
X530923Y24523D01*
X530901Y24406D01*
X530871Y24291D01*
X530867Y24230D01*
X530863Y24210D01*
X530865Y24190D01*
X530861Y24130D01*
X530861Y13715D01*
X530604Y13755D01*
X528817Y14336D01*
X527143Y15189D01*
X525622Y16294D01*
X524294Y17622D01*
X523189Y19143D01*
X522336Y20817D01*
X522185Y21282D01*
X522172Y21309D01*
X522165Y21338D01*
X522105Y21452D01*
X522050Y21570D01*
X522031Y21593D01*
X522017Y21619D01*
X521930Y21715D01*
X521847Y21815D01*
X521823Y21832D01*
X521803Y21854D01*
X521694Y21926D01*
X521590Y22002D01*
X521562Y22013D01*
X521537Y22029D01*
X521414Y22071D01*
X521294Y22119D01*
X521264Y22123D01*
X521236Y22132D01*
X521107Y22143D01*
X520979Y22159D01*
X520949Y22155D01*
X520919Y22158D01*
X520791Y22135D01*
X520663Y22119D01*
X520635Y22108D01*
X520606Y22103D01*
X520488Y22050D01*
X520367Y22002D01*
X520343Y21985D01*
X520316Y21973D01*
X520215Y21892D01*
X520110Y21816D01*
X520091Y21793D01*
X520067Y21774D01*
X519989Y21670D01*
X519907Y21571D01*
X519894Y21544D01*
X519876Y21520D01*
X519805Y21375D01*
X518552Y18350D01*
X515050Y14848D01*
X510476Y12953D01*
X505524Y12953D01*
X500950Y14848D01*
X497448Y18350D01*
X496473Y20705D01*
X496404Y20825D01*
X496339Y20948D01*
X496325Y20963D01*
X496315Y20981D01*
X496218Y21081D01*
X496125Y21184D01*
X496108Y21195D01*
X496094Y21209D01*
X495976Y21282D01*
X495859Y21358D01*
X495840Y21365D01*
X495823Y21376D01*
X495690Y21416D01*
X495558Y21462D01*
X495538Y21463D01*
X495519Y21469D01*
X495380Y21476D01*
X495241Y21487D01*
X495221Y21483D01*
X495201Y21484D01*
X495065Y21456D01*
X494928Y21432D01*
X494909Y21424D01*
X494890Y21420D01*
X494765Y21359D01*
X494638Y21302D01*
X494622Y21289D01*
X494604Y21280D01*
X494498Y21190D01*
X494390Y21103D01*
X494377Y21087D01*
X494362Y21074D01*
X494282Y20960D01*
X494198Y20849D01*
X494186Y20824D01*
X494179Y20814D01*
X494172Y20795D01*
X494127Y20705D01*
X493152Y18350D01*
X489650Y14848D01*
X485076Y12953D01*
X480124Y12953D01*
X475550Y14848D01*
X472048Y18350D01*
X471073Y20705D01*
X471004Y20825D01*
X470939Y20948D01*
X470925Y20963D01*
X470915Y20981D01*
X470818Y21081D01*
X470725Y21184D01*
X470708Y21195D01*
X470694Y21209D01*
X470575Y21282D01*
X470459Y21358D01*
X470440Y21365D01*
X470423Y21376D01*
X470290Y21416D01*
X470158Y21462D01*
X470138Y21463D01*
X470119Y21469D01*
X469980Y21476D01*
X469841Y21487D01*
X469821Y21483D01*
X469801Y21484D01*
X469665Y21456D01*
X469528Y21432D01*
X469509Y21424D01*
X469490Y21420D01*
X469364Y21359D01*
X469238Y21302D01*
X469222Y21289D01*
X469204Y21280D01*
X469098Y21190D01*
X468990Y21103D01*
X468977Y21087D01*
X468962Y21074D01*
X468882Y20960D01*
X468798Y20849D01*
X468786Y20824D01*
X468779Y20814D01*
X468772Y20795D01*
X468727Y20705D01*
X467752Y18350D01*
X464250Y14848D01*
X459676Y12953D01*
X454724Y12953D01*
X450150Y14848D01*
X446648Y18350D01*
X445673Y20705D01*
X445604Y20825D01*
X445539Y20948D01*
X445525Y20963D01*
X445515Y20981D01*
X445418Y21081D01*
X445325Y21184D01*
X445308Y21195D01*
X445294Y21209D01*
X445175Y21282D01*
X445059Y21358D01*
X445040Y21365D01*
X445023Y21376D01*
X444890Y21416D01*
X444758Y21462D01*
X444738Y21463D01*
X444719Y21469D01*
X444580Y21476D01*
X444441Y21487D01*
X444421Y21483D01*
X444401Y21484D01*
X444265Y21456D01*
X444128Y21432D01*
X444109Y21424D01*
X444090Y21420D01*
X443964Y21359D01*
X443838Y21302D01*
X443822Y21289D01*
X443804Y21280D01*
X443698Y21190D01*
X443590Y21103D01*
X443577Y21087D01*
X443562Y21074D01*
X443482Y20960D01*
X443398Y20849D01*
X443386Y20824D01*
X443379Y20814D01*
X443372Y20795D01*
X443327Y20705D01*
X442352Y18350D01*
X438850Y14848D01*
X434276Y12953D01*
X429324Y12953D01*
X424750Y14848D01*
X421248Y18350D01*
X420273Y20705D01*
X420204Y20825D01*
X420139Y20948D01*
X420125Y20963D01*
X420115Y20981D01*
X420018Y21081D01*
X419925Y21184D01*
X419908Y21195D01*
X419894Y21209D01*
X419775Y21282D01*
X419659Y21358D01*
X419640Y21365D01*
X419623Y21376D01*
X419490Y21416D01*
X419358Y21462D01*
X419338Y21463D01*
X419319Y21469D01*
X419180Y21476D01*
X419041Y21487D01*
X419021Y21483D01*
X419001Y21484D01*
X418865Y21456D01*
X418728Y21432D01*
X418709Y21424D01*
X418690Y21420D01*
X418564Y21359D01*
X418438Y21302D01*
X418422Y21289D01*
X418404Y21280D01*
X418298Y21190D01*
X418190Y21103D01*
X418177Y21087D01*
X418162Y21074D01*
X418082Y20960D01*
X417998Y20849D01*
X417986Y20824D01*
X417979Y20814D01*
X417972Y20795D01*
X417927Y20705D01*
X416952Y18350D01*
X413450Y14848D01*
X408876Y12953D01*
X403924Y12953D01*
X399350Y14848D01*
X395848Y18350D01*
X394873Y20705D01*
X394804Y20825D01*
X394739Y20948D01*
X394725Y20963D01*
X394715Y20981D01*
X394618Y21081D01*
X394525Y21184D01*
X394508Y21195D01*
X394494Y21209D01*
X394375Y21282D01*
X394259Y21358D01*
X394240Y21365D01*
X394223Y21376D01*
X394090Y21416D01*
X393958Y21462D01*
X393938Y21463D01*
X393919Y21469D01*
X393780Y21476D01*
X393641Y21487D01*
X393621Y21483D01*
X393601Y21484D01*
X393465Y21456D01*
X393328Y21432D01*
X393309Y21424D01*
X393290Y21420D01*
X393164Y21359D01*
X393038Y21302D01*
X393022Y21289D01*
X393004Y21280D01*
X392898Y21190D01*
X392790Y21103D01*
X392777Y21087D01*
X392762Y21074D01*
X392682Y20960D01*
X392598Y20849D01*
X392586Y20824D01*
X392579Y20814D01*
X392572Y20795D01*
X392527Y20705D01*
X391552Y18350D01*
X388050Y14848D01*
X383476Y12953D01*
X378524Y12953D01*
X373950Y14848D01*
X370448Y18350D01*
X368553Y22924D01*
X368553Y27876D01*
X370448Y32450D01*
X373516Y35518D01*
X373576Y35596D01*
X373644Y35668D01*
X373673Y35721D01*
X373710Y35769D01*
X373750Y35860D01*
X373798Y35947D01*
X373813Y36005D01*
X373837Y36061D01*
X373852Y36159D01*
X373877Y36255D01*
X373883Y36355D01*
X373887Y36375D01*
X373885Y36387D01*
X373887Y36415D01*
X373887Y48170D01*
X373885Y48190D01*
X373885Y48253D01*
X373771Y49989D01*
X373762Y50032D01*
X373762Y50076D01*
X373730Y50234D01*
X372832Y53587D01*
X372799Y53667D01*
X372776Y53749D01*
X372716Y53872D01*
X372712Y53882D01*
X372709Y53885D01*
X372705Y53893D01*
X370969Y56900D01*
X370942Y56935D01*
X370923Y56975D01*
X370824Y57102D01*
X369677Y58410D01*
X369662Y58424D01*
X369621Y58471D01*
X366940Y61151D01*
X363149Y67716D01*
X361187Y75040D01*
X361187Y90585D01*
X361175Y90683D01*
X361172Y90782D01*
X361155Y90840D01*
X361147Y90900D01*
X361111Y90992D01*
X361083Y91087D01*
X361053Y91140D01*
X361030Y91196D01*
X360972Y91276D01*
X360922Y91361D01*
X360856Y91437D01*
X360844Y91453D01*
X360834Y91461D01*
X360816Y91482D01*
X357748Y94550D01*
X356773Y96905D01*
X356704Y97025D01*
X356639Y97148D01*
X356625Y97163D01*
X356615Y97181D01*
X356518Y97281D01*
X356425Y97384D01*
X356408Y97395D01*
X356394Y97409D01*
X356275Y97482D01*
X356159Y97558D01*
X356140Y97565D01*
X356123Y97576D01*
X355990Y97617D01*
X355858Y97662D01*
X355838Y97663D01*
X355819Y97669D01*
X355680Y97676D01*
X355541Y97687D01*
X355521Y97683D01*
X355501Y97684D01*
X355365Y97656D01*
X355228Y97632D01*
X355209Y97624D01*
X355190Y97620D01*
X355064Y97559D01*
X354938Y97502D01*
X354922Y97489D01*
X354904Y97480D01*
X354798Y97390D01*
X354690Y97303D01*
X354677Y97287D01*
X354662Y97274D01*
X354582Y97160D01*
X354498Y97049D01*
X354486Y97024D01*
X354479Y97014D01*
X354472Y96995D01*
X354427Y96905D01*
X353452Y94549D01*
X350384Y91482D01*
X350324Y91404D01*
X350256Y91332D01*
X350227Y91279D01*
X350190Y91231D01*
X350150Y91140D01*
X350102Y91053D01*
X350087Y90995D01*
X350063Y90939D01*
X350048Y90841D01*
X350023Y90745D01*
X350017Y90645D01*
X350013Y90625D01*
X350015Y90613D01*
X350013Y90585D01*
X350013Y36415D01*
X350025Y36317D01*
X350028Y36218D01*
X350045Y36160D01*
X350053Y36100D01*
X350089Y36008D01*
X350117Y35913D01*
X350147Y35860D01*
X350170Y35804D01*
X350228Y35724D01*
X350278Y35639D01*
X350344Y35563D01*
X350356Y35547D01*
X350366Y35539D01*
X350384Y35518D01*
X353452Y32450D01*
X355347Y27876D01*
X355347Y22924D01*
X353452Y18350D01*
X349950Y14848D01*
X345376Y12953D01*
X340424Y12953D01*
X335850Y14848D01*
X332348Y18350D01*
X331373Y20705D01*
X331304Y20825D01*
X331239Y20948D01*
X331225Y20963D01*
X331215Y20981D01*
X331118Y21081D01*
X331025Y21184D01*
X331008Y21195D01*
X330994Y21209D01*
X330875Y21282D01*
X330759Y21358D01*
X330740Y21365D01*
X330723Y21376D01*
X330590Y21416D01*
X330458Y21462D01*
X330438Y21463D01*
X330419Y21469D01*
X330280Y21476D01*
X330141Y21487D01*
X330121Y21483D01*
X330101Y21484D01*
X329965Y21456D01*
X329828Y21432D01*
X329809Y21424D01*
X329790Y21420D01*
X329664Y21359D01*
X329538Y21302D01*
X329522Y21289D01*
X329504Y21280D01*
X329398Y21190D01*
X329290Y21103D01*
X329277Y21087D01*
X329262Y21074D01*
X329182Y20960D01*
X329098Y20849D01*
X329086Y20824D01*
X329079Y20814D01*
X329072Y20795D01*
X329027Y20705D01*
X328052Y18350D01*
X324550Y14848D01*
X319976Y12953D01*
X315024Y12953D01*
X310450Y14848D01*
X306948Y18350D01*
X305973Y20705D01*
X305904Y20825D01*
X305839Y20948D01*
X305825Y20963D01*
X305815Y20981D01*
X305718Y21081D01*
X305625Y21184D01*
X305608Y21195D01*
X305594Y21209D01*
X305475Y21282D01*
X305359Y21358D01*
X305340Y21365D01*
X305323Y21376D01*
X305190Y21416D01*
X305058Y21462D01*
X305038Y21463D01*
X305019Y21469D01*
X304880Y21476D01*
X304741Y21487D01*
X304721Y21483D01*
X304701Y21484D01*
X304565Y21456D01*
X304428Y21432D01*
X304409Y21424D01*
X304390Y21420D01*
X304264Y21359D01*
X304138Y21302D01*
X304122Y21289D01*
X304104Y21280D01*
X303998Y21190D01*
X303890Y21103D01*
X303877Y21087D01*
X303862Y21074D01*
X303782Y20960D01*
X303698Y20849D01*
X303686Y20824D01*
X303679Y20814D01*
X303672Y20795D01*
X303627Y20705D01*
X302652Y18350D01*
X299150Y14848D01*
X294576Y12953D01*
X289624Y12953D01*
X285050Y14848D01*
X281548Y18350D01*
X280573Y20705D01*
X280504Y20825D01*
X280439Y20948D01*
X280425Y20963D01*
X280415Y20981D01*
X280318Y21081D01*
X280225Y21184D01*
X280208Y21195D01*
X280194Y21209D01*
X280075Y21282D01*
X279959Y21358D01*
X279940Y21365D01*
X279923Y21376D01*
X279790Y21416D01*
X279658Y21462D01*
X279638Y21463D01*
X279619Y21469D01*
X279480Y21476D01*
X279341Y21487D01*
X279321Y21483D01*
X279301Y21484D01*
X279165Y21456D01*
X279028Y21432D01*
X279009Y21424D01*
X278990Y21420D01*
X278864Y21359D01*
X278738Y21302D01*
X278722Y21289D01*
X278704Y21280D01*
X278598Y21190D01*
X278490Y21103D01*
X278477Y21087D01*
X278462Y21074D01*
X278382Y20960D01*
X278298Y20849D01*
X278286Y20824D01*
X278279Y20814D01*
X278272Y20795D01*
X278227Y20705D01*
X277252Y18350D01*
X273750Y14848D01*
X269176Y12953D01*
X264224Y12953D01*
X259650Y14848D01*
X256148Y18350D01*
X255173Y20705D01*
X255104Y20825D01*
X255039Y20948D01*
X255025Y20963D01*
X255015Y20981D01*
X254918Y21081D01*
X254825Y21184D01*
X254808Y21195D01*
X254794Y21209D01*
X254675Y21282D01*
X254559Y21358D01*
X254540Y21365D01*
X254523Y21376D01*
X254390Y21416D01*
X254258Y21462D01*
X254238Y21463D01*
X254219Y21469D01*
X254080Y21476D01*
X253941Y21487D01*
X253921Y21483D01*
X253901Y21484D01*
X253765Y21456D01*
X253628Y21432D01*
X253609Y21424D01*
X253590Y21420D01*
X253464Y21359D01*
X253338Y21302D01*
X253322Y21289D01*
X253304Y21280D01*
X253198Y21190D01*
X253090Y21103D01*
X253077Y21087D01*
X253062Y21074D01*
X252982Y20960D01*
X252898Y20849D01*
X252886Y20824D01*
X252879Y20814D01*
X252872Y20795D01*
X252827Y20705D01*
X251852Y18350D01*
X248350Y14848D01*
X243776Y12953D01*
X238824Y12953D01*
X234250Y14848D01*
X230748Y18350D01*
X229773Y20705D01*
X229704Y20825D01*
X229639Y20948D01*
X229625Y20963D01*
X229615Y20981D01*
X229518Y21081D01*
X229425Y21184D01*
X229408Y21195D01*
X229394Y21209D01*
X229275Y21282D01*
X229159Y21358D01*
X229140Y21365D01*
X229123Y21376D01*
X228990Y21416D01*
X228858Y21462D01*
X228838Y21463D01*
X228819Y21469D01*
X228680Y21476D01*
X228541Y21487D01*
X228521Y21483D01*
X228501Y21484D01*
X228365Y21456D01*
X228228Y21432D01*
X228209Y21424D01*
X228190Y21420D01*
X228064Y21359D01*
X227938Y21302D01*
X227922Y21289D01*
X227904Y21280D01*
X227798Y21190D01*
X227690Y21103D01*
X227677Y21087D01*
X227662Y21074D01*
X227582Y20960D01*
X227498Y20849D01*
X227486Y20824D01*
X227479Y20814D01*
X227472Y20795D01*
X227427Y20705D01*
X226452Y18350D01*
X222950Y14848D01*
X218376Y12953D01*
X213424Y12953D01*
X208850Y14848D01*
X205348Y18350D01*
X204373Y20705D01*
X204304Y20825D01*
X204239Y20948D01*
X204225Y20963D01*
X204215Y20981D01*
X204118Y21081D01*
X204025Y21184D01*
X204008Y21195D01*
X203994Y21209D01*
X203875Y21282D01*
X203759Y21358D01*
X203740Y21365D01*
X203723Y21376D01*
X203590Y21416D01*
X203458Y21462D01*
X203438Y21463D01*
X203419Y21469D01*
X203280Y21476D01*
X203141Y21487D01*
X203121Y21483D01*
X203101Y21484D01*
X202965Y21456D01*
X202828Y21432D01*
X202809Y21424D01*
X202790Y21420D01*
X202664Y21359D01*
X202538Y21302D01*
X202522Y21289D01*
X202504Y21280D01*
X202398Y21190D01*
X202290Y21103D01*
X202277Y21087D01*
X202262Y21074D01*
X202182Y20960D01*
X202098Y20849D01*
X202086Y20824D01*
X202079Y20814D01*
X202072Y20795D01*
X202027Y20705D01*
X201052Y18350D01*
X197550Y14848D01*
X192976Y12953D01*
X188024Y12953D01*
X183450Y14848D01*
X179948Y18350D01*
X178973Y20705D01*
X178904Y20825D01*
X178839Y20948D01*
X178825Y20963D01*
X178815Y20981D01*
X178718Y21081D01*
X178625Y21184D01*
X178608Y21195D01*
X178594Y21209D01*
X178475Y21282D01*
X178359Y21358D01*
X178340Y21365D01*
X178323Y21376D01*
X178190Y21416D01*
X178058Y21462D01*
X178038Y21463D01*
X178019Y21469D01*
X177880Y21476D01*
X177741Y21487D01*
X177721Y21483D01*
X177701Y21484D01*
X177565Y21456D01*
X177428Y21432D01*
X177409Y21424D01*
X177390Y21420D01*
X177264Y21359D01*
X177138Y21302D01*
X177122Y21289D01*
X177104Y21280D01*
X176998Y21190D01*
X176890Y21103D01*
X176877Y21087D01*
X176862Y21074D01*
X176782Y20960D01*
X176698Y20849D01*
X176686Y20824D01*
X176679Y20814D01*
X176672Y20795D01*
X176627Y20705D01*
X175652Y18350D01*
X172150Y14848D01*
X167576Y12953D01*
X162624Y12953D01*
G37*
%LPD*%
%LPC*%
G36*
X265083Y391921D02*
X265083Y391921D01*
X262863Y392841D01*
X262855Y392843D01*
X262846Y392848D01*
X262701Y392885D01*
X262557Y392925D01*
X262547Y392925D01*
X262538Y392927D01*
X262378Y392937D01*
X236150Y392937D01*
X226356Y396120D01*
X218023Y402173D01*
X211970Y410506D01*
X208787Y420300D01*
X208787Y433828D01*
X208786Y433837D01*
X208787Y433846D01*
X208766Y433995D01*
X208747Y434143D01*
X208744Y434152D01*
X208743Y434161D01*
X208691Y434313D01*
X207771Y436533D01*
X207771Y439767D01*
X208689Y441982D01*
X208702Y442030D01*
X208723Y442075D01*
X208744Y442183D01*
X208773Y442289D01*
X208774Y442339D01*
X208783Y442388D01*
X208776Y442497D01*
X208778Y442607D01*
X208766Y442655D01*
X208763Y442705D01*
X208729Y442809D01*
X208704Y442916D01*
X208681Y442960D01*
X208665Y443007D01*
X208606Y443100D01*
X208555Y443197D01*
X208522Y443234D01*
X208495Y443276D01*
X208415Y443351D01*
X208341Y443433D01*
X208300Y443460D01*
X208263Y443494D01*
X208167Y443547D01*
X208075Y443607D01*
X208028Y443624D01*
X207985Y443648D01*
X207879Y443675D01*
X207775Y443711D01*
X207725Y443715D01*
X207677Y443727D01*
X207516Y443737D01*
X185350Y443737D01*
X175556Y446920D01*
X167224Y452973D01*
X161170Y461306D01*
X157987Y471101D01*
X157987Y496985D01*
X157975Y497083D01*
X157972Y497182D01*
X157955Y497240D01*
X157947Y497300D01*
X157911Y497392D01*
X157883Y497487D01*
X157853Y497540D01*
X157830Y497596D01*
X157772Y497676D01*
X157722Y497761D01*
X157656Y497837D01*
X157644Y497853D01*
X157634Y497861D01*
X157616Y497882D01*
X154548Y500950D01*
X152653Y505524D01*
X152653Y510476D01*
X154548Y515050D01*
X158050Y518552D01*
X162624Y520447D01*
X167576Y520447D01*
X172150Y518552D01*
X175652Y515050D01*
X176627Y512695D01*
X176696Y512575D01*
X176761Y512452D01*
X176775Y512437D01*
X176785Y512419D01*
X176882Y512319D01*
X176975Y512216D01*
X176992Y512205D01*
X177006Y512191D01*
X177125Y512118D01*
X177241Y512042D01*
X177260Y512035D01*
X177277Y512024D01*
X177410Y511984D01*
X177542Y511938D01*
X177562Y511937D01*
X177581Y511931D01*
X177720Y511924D01*
X177859Y511913D01*
X177879Y511917D01*
X177899Y511916D01*
X178035Y511944D01*
X178172Y511968D01*
X178191Y511976D01*
X178210Y511980D01*
X178336Y512041D01*
X178462Y512098D01*
X178478Y512111D01*
X178496Y512120D01*
X178602Y512210D01*
X178710Y512297D01*
X178723Y512313D01*
X178738Y512326D01*
X178818Y512440D01*
X178902Y512551D01*
X178914Y512576D01*
X178921Y512586D01*
X178928Y512605D01*
X178973Y512695D01*
X179948Y515050D01*
X183450Y518552D01*
X188024Y520447D01*
X192976Y520447D01*
X197550Y518552D01*
X201052Y515050D01*
X202027Y512695D01*
X202096Y512575D01*
X202161Y512452D01*
X202175Y512437D01*
X202185Y512419D01*
X202282Y512319D01*
X202375Y512216D01*
X202392Y512205D01*
X202406Y512191D01*
X202525Y512118D01*
X202641Y512042D01*
X202660Y512035D01*
X202677Y512024D01*
X202810Y511984D01*
X202942Y511938D01*
X202962Y511937D01*
X202981Y511931D01*
X203120Y511924D01*
X203259Y511913D01*
X203279Y511917D01*
X203299Y511916D01*
X203435Y511944D01*
X203572Y511968D01*
X203591Y511976D01*
X203610Y511980D01*
X203736Y512041D01*
X203862Y512098D01*
X203878Y512111D01*
X203896Y512120D01*
X204002Y512210D01*
X204110Y512297D01*
X204123Y512313D01*
X204138Y512326D01*
X204218Y512440D01*
X204302Y512551D01*
X204314Y512576D01*
X204321Y512586D01*
X204328Y512605D01*
X204373Y512695D01*
X205348Y515050D01*
X208850Y518552D01*
X213424Y520447D01*
X218376Y520447D01*
X222950Y518552D01*
X226452Y515050D01*
X227427Y512695D01*
X227496Y512575D01*
X227561Y512452D01*
X227575Y512437D01*
X227585Y512419D01*
X227682Y512319D01*
X227775Y512216D01*
X227792Y512205D01*
X227806Y512191D01*
X227925Y512118D01*
X228041Y512042D01*
X228060Y512035D01*
X228077Y512024D01*
X228210Y511984D01*
X228342Y511938D01*
X228362Y511937D01*
X228381Y511931D01*
X228520Y511924D01*
X228659Y511913D01*
X228679Y511917D01*
X228699Y511916D01*
X228835Y511944D01*
X228972Y511968D01*
X228991Y511976D01*
X229010Y511980D01*
X229136Y512041D01*
X229262Y512098D01*
X229278Y512111D01*
X229296Y512120D01*
X229402Y512210D01*
X229510Y512297D01*
X229523Y512313D01*
X229538Y512326D01*
X229618Y512440D01*
X229702Y512551D01*
X229714Y512576D01*
X229721Y512586D01*
X229728Y512605D01*
X229773Y512695D01*
X230748Y515050D01*
X234250Y518552D01*
X238824Y520447D01*
X243776Y520447D01*
X248350Y518552D01*
X251852Y515050D01*
X252827Y512695D01*
X252896Y512575D01*
X252961Y512452D01*
X252975Y512437D01*
X252985Y512419D01*
X253082Y512319D01*
X253175Y512216D01*
X253192Y512205D01*
X253206Y512191D01*
X253325Y512118D01*
X253441Y512042D01*
X253460Y512035D01*
X253477Y512024D01*
X253610Y511984D01*
X253742Y511938D01*
X253762Y511937D01*
X253781Y511931D01*
X253920Y511924D01*
X254059Y511913D01*
X254079Y511917D01*
X254099Y511916D01*
X254235Y511944D01*
X254372Y511968D01*
X254391Y511976D01*
X254410Y511980D01*
X254536Y512041D01*
X254662Y512098D01*
X254678Y512111D01*
X254696Y512120D01*
X254802Y512210D01*
X254910Y512297D01*
X254923Y512313D01*
X254938Y512326D01*
X255018Y512440D01*
X255102Y512551D01*
X255114Y512576D01*
X255121Y512586D01*
X255128Y512605D01*
X255173Y512695D01*
X256148Y515050D01*
X259650Y518552D01*
X264224Y520447D01*
X269176Y520447D01*
X273750Y518552D01*
X277252Y515050D01*
X278227Y512695D01*
X278296Y512575D01*
X278361Y512452D01*
X278375Y512437D01*
X278385Y512419D01*
X278482Y512319D01*
X278575Y512216D01*
X278592Y512205D01*
X278606Y512191D01*
X278725Y512118D01*
X278841Y512042D01*
X278860Y512035D01*
X278877Y512024D01*
X279010Y511984D01*
X279142Y511938D01*
X279162Y511937D01*
X279181Y511931D01*
X279320Y511924D01*
X279459Y511913D01*
X279479Y511917D01*
X279499Y511916D01*
X279635Y511944D01*
X279772Y511968D01*
X279791Y511976D01*
X279810Y511980D01*
X279936Y512041D01*
X280062Y512098D01*
X280078Y512111D01*
X280096Y512120D01*
X280202Y512210D01*
X280310Y512297D01*
X280323Y512313D01*
X280338Y512326D01*
X280418Y512440D01*
X280502Y512551D01*
X280514Y512576D01*
X280521Y512586D01*
X280528Y512605D01*
X280573Y512695D01*
X281548Y515050D01*
X285050Y518552D01*
X289624Y520447D01*
X294576Y520447D01*
X299150Y518552D01*
X302652Y515050D01*
X304547Y510476D01*
X304547Y505524D01*
X302652Y500950D01*
X299150Y497448D01*
X294576Y495553D01*
X289624Y495553D01*
X285050Y497448D01*
X281548Y500950D01*
X280573Y503305D01*
X280504Y503425D01*
X280439Y503548D01*
X280425Y503563D01*
X280415Y503581D01*
X280318Y503681D01*
X280225Y503784D01*
X280208Y503795D01*
X280194Y503809D01*
X280076Y503882D01*
X279959Y503958D01*
X279940Y503965D01*
X279923Y503976D01*
X279790Y504016D01*
X279658Y504062D01*
X279638Y504063D01*
X279619Y504069D01*
X279480Y504076D01*
X279341Y504087D01*
X279321Y504083D01*
X279301Y504084D01*
X279165Y504056D01*
X279028Y504032D01*
X279009Y504024D01*
X278990Y504020D01*
X278865Y503959D01*
X278738Y503902D01*
X278722Y503889D01*
X278704Y503880D01*
X278598Y503790D01*
X278490Y503703D01*
X278477Y503687D01*
X278462Y503674D01*
X278382Y503560D01*
X278298Y503449D01*
X278286Y503424D01*
X278279Y503414D01*
X278272Y503395D01*
X278227Y503305D01*
X277252Y500950D01*
X273750Y497448D01*
X269176Y495553D01*
X264224Y495553D01*
X259650Y497448D01*
X256148Y500950D01*
X255173Y503305D01*
X255104Y503425D01*
X255039Y503548D01*
X255025Y503563D01*
X255015Y503581D01*
X254918Y503681D01*
X254825Y503784D01*
X254808Y503795D01*
X254794Y503809D01*
X254676Y503882D01*
X254559Y503958D01*
X254540Y503965D01*
X254523Y503976D01*
X254390Y504016D01*
X254258Y504062D01*
X254238Y504063D01*
X254219Y504069D01*
X254080Y504076D01*
X253941Y504087D01*
X253921Y504083D01*
X253901Y504084D01*
X253765Y504056D01*
X253628Y504032D01*
X253609Y504024D01*
X253590Y504020D01*
X253465Y503959D01*
X253338Y503902D01*
X253322Y503889D01*
X253304Y503880D01*
X253198Y503790D01*
X253090Y503703D01*
X253077Y503687D01*
X253062Y503674D01*
X252982Y503560D01*
X252898Y503449D01*
X252886Y503424D01*
X252879Y503414D01*
X252872Y503395D01*
X252827Y503305D01*
X251852Y500950D01*
X248350Y497448D01*
X243776Y495553D01*
X238824Y495553D01*
X234250Y497448D01*
X230748Y500950D01*
X229773Y503305D01*
X229704Y503425D01*
X229639Y503548D01*
X229625Y503563D01*
X229615Y503581D01*
X229518Y503681D01*
X229425Y503784D01*
X229408Y503795D01*
X229394Y503809D01*
X229276Y503882D01*
X229159Y503958D01*
X229140Y503965D01*
X229123Y503976D01*
X228990Y504016D01*
X228858Y504062D01*
X228838Y504063D01*
X228819Y504069D01*
X228680Y504076D01*
X228541Y504087D01*
X228521Y504083D01*
X228501Y504084D01*
X228365Y504056D01*
X228228Y504032D01*
X228209Y504024D01*
X228190Y504020D01*
X228065Y503959D01*
X227938Y503902D01*
X227922Y503889D01*
X227904Y503880D01*
X227798Y503790D01*
X227690Y503703D01*
X227677Y503687D01*
X227662Y503674D01*
X227582Y503560D01*
X227498Y503449D01*
X227486Y503424D01*
X227479Y503414D01*
X227472Y503395D01*
X227427Y503305D01*
X226452Y500950D01*
X222950Y497448D01*
X218376Y495553D01*
X213424Y495553D01*
X208850Y497448D01*
X205348Y500950D01*
X204373Y503305D01*
X204304Y503425D01*
X204239Y503548D01*
X204225Y503563D01*
X204215Y503581D01*
X204118Y503681D01*
X204025Y503784D01*
X204008Y503795D01*
X203994Y503809D01*
X203876Y503882D01*
X203759Y503958D01*
X203740Y503965D01*
X203723Y503976D01*
X203590Y504016D01*
X203458Y504062D01*
X203438Y504063D01*
X203419Y504069D01*
X203280Y504076D01*
X203141Y504087D01*
X203121Y504083D01*
X203101Y504084D01*
X202965Y504056D01*
X202828Y504032D01*
X202809Y504024D01*
X202790Y504020D01*
X202665Y503959D01*
X202538Y503902D01*
X202522Y503889D01*
X202504Y503880D01*
X202398Y503790D01*
X202290Y503703D01*
X202277Y503687D01*
X202262Y503674D01*
X202182Y503560D01*
X202098Y503449D01*
X202086Y503424D01*
X202079Y503414D01*
X202072Y503395D01*
X202027Y503305D01*
X201052Y500950D01*
X198634Y498532D01*
X198548Y498421D01*
X198460Y498315D01*
X198452Y498297D01*
X198439Y498280D01*
X198384Y498153D01*
X198325Y498028D01*
X198321Y498007D01*
X198313Y497988D01*
X198291Y497851D01*
X198265Y497715D01*
X198266Y497695D01*
X198263Y497674D01*
X198276Y497536D01*
X198284Y497398D01*
X198291Y497370D01*
X198293Y497358D01*
X198300Y497338D01*
X198324Y497242D01*
X199530Y493532D01*
X199563Y493460D01*
X199565Y493456D01*
X199567Y493452D01*
X199580Y493424D01*
X199624Y493314D01*
X199656Y493263D01*
X199665Y493244D01*
X199678Y493228D01*
X199710Y493178D01*
X202840Y488870D01*
X202921Y488784D01*
X202996Y488692D01*
X203043Y488654D01*
X203057Y488639D01*
X203075Y488628D01*
X203120Y488590D01*
X207428Y485460D01*
X207532Y485403D01*
X207632Y485339D01*
X207689Y485317D01*
X207707Y485307D01*
X207726Y485302D01*
X207782Y485280D01*
X212846Y483634D01*
X212913Y483621D01*
X212979Y483599D01*
X213138Y483576D01*
X215800Y483367D01*
X215822Y483368D01*
X215900Y483363D01*
X522879Y483363D01*
X522900Y483365D01*
X522962Y483365D01*
X525183Y483511D01*
X525227Y483519D01*
X525271Y483520D01*
X525429Y483552D01*
X529720Y484701D01*
X529799Y484734D01*
X529882Y484757D01*
X530005Y484818D01*
X530014Y484822D01*
X530018Y484824D01*
X530026Y484828D01*
X533874Y487049D01*
X533909Y487076D01*
X533948Y487096D01*
X534076Y487194D01*
X535749Y488662D01*
X535763Y488678D01*
X535810Y488719D01*
X554042Y506951D01*
X555135Y508044D01*
X556399Y509308D01*
X556400Y509309D01*
X558248Y511157D01*
X565661Y515437D01*
X573931Y517653D01*
X598424Y517653D01*
X598542Y517668D01*
X598661Y517675D01*
X598699Y517688D01*
X598740Y517693D01*
X598850Y517736D01*
X598963Y517773D01*
X598998Y517795D01*
X599035Y517810D01*
X599131Y517879D01*
X599232Y517943D01*
X599260Y517973D01*
X599293Y517996D01*
X599369Y518088D01*
X599450Y518175D01*
X599470Y518210D01*
X599495Y518241D01*
X599546Y518349D01*
X599604Y518453D01*
X599614Y518493D01*
X599631Y518529D01*
X599653Y518646D01*
X599683Y518761D01*
X599687Y518821D01*
X599691Y518841D01*
X599689Y518862D01*
X599693Y518922D01*
X599693Y521201D01*
X601479Y522987D01*
X622801Y522987D01*
X624587Y521201D01*
X624587Y499879D01*
X622801Y498093D01*
X619774Y498093D01*
X619705Y498085D01*
X619635Y498086D01*
X619547Y498065D01*
X619458Y498053D01*
X619393Y498028D01*
X619325Y498011D01*
X619246Y497969D01*
X619163Y497936D01*
X619106Y497895D01*
X619044Y497863D01*
X618978Y497802D01*
X618905Y497750D01*
X618861Y497696D01*
X618809Y497649D01*
X618760Y497574D01*
X618702Y497505D01*
X618673Y497441D01*
X618634Y497383D01*
X618605Y497298D01*
X618567Y497217D01*
X618554Y497148D01*
X618531Y497082D01*
X618524Y496993D01*
X618507Y496905D01*
X618512Y496835D01*
X618506Y496765D01*
X618521Y496677D01*
X618527Y496587D01*
X618548Y496521D01*
X618560Y496452D01*
X618597Y496370D01*
X618625Y496285D01*
X618662Y496226D01*
X618691Y496162D01*
X618747Y496092D01*
X618795Y496016D01*
X618846Y495968D01*
X618890Y495913D01*
X618961Y495860D01*
X619027Y495798D01*
X619088Y495764D01*
X619144Y495722D01*
X619176Y495706D01*
X622692Y492190D01*
X624587Y487616D01*
X624587Y482664D01*
X622692Y478090D01*
X619190Y474588D01*
X616165Y473335D01*
X616139Y473320D01*
X616110Y473311D01*
X616001Y473241D01*
X615888Y473177D01*
X615867Y473157D01*
X615842Y473141D01*
X615753Y473046D01*
X615660Y472956D01*
X615644Y472931D01*
X615624Y472909D01*
X615561Y472795D01*
X615494Y472685D01*
X615485Y472656D01*
X615471Y472630D01*
X615438Y472505D01*
X615400Y472381D01*
X615399Y472351D01*
X615391Y472322D01*
X615391Y472192D01*
X615385Y472063D01*
X615391Y472034D01*
X615391Y472004D01*
X615423Y471879D01*
X615449Y471752D01*
X615462Y471725D01*
X615470Y471696D01*
X615532Y471583D01*
X615589Y471466D01*
X615608Y471443D01*
X615623Y471417D01*
X615711Y471323D01*
X615795Y471224D01*
X615820Y471207D01*
X615840Y471185D01*
X615949Y471116D01*
X616055Y471041D01*
X616083Y471030D01*
X616108Y471014D01*
X616258Y470955D01*
X616723Y470804D01*
X618397Y469951D01*
X619918Y468846D01*
X621246Y467518D01*
X622351Y465997D01*
X623204Y464323D01*
X623785Y462536D01*
X623825Y462279D01*
X613410Y462279D01*
X613292Y462264D01*
X613173Y462257D01*
X613135Y462244D01*
X613095Y462239D01*
X612984Y462196D01*
X612871Y462159D01*
X612837Y462137D01*
X612799Y462122D01*
X612703Y462052D01*
X612602Y461989D01*
X612574Y461959D01*
X612542Y461935D01*
X612466Y461844D01*
X612384Y461757D01*
X612365Y461722D01*
X612339Y461691D01*
X612288Y461583D01*
X612231Y461479D01*
X612220Y461439D01*
X612203Y461403D01*
X612181Y461286D01*
X612151Y461171D01*
X612147Y461110D01*
X612143Y461090D01*
X612144Y461079D01*
X612143Y461075D01*
X612144Y461063D01*
X612141Y461010D01*
X612141Y458470D01*
X612156Y458352D01*
X612163Y458233D01*
X612176Y458195D01*
X612181Y458154D01*
X612225Y458044D01*
X612261Y457931D01*
X612283Y457896D01*
X612298Y457859D01*
X612368Y457763D01*
X612431Y457662D01*
X612461Y457634D01*
X612485Y457601D01*
X612576Y457526D01*
X612663Y457444D01*
X612698Y457424D01*
X612730Y457399D01*
X612837Y457348D01*
X612942Y457290D01*
X612981Y457280D01*
X613017Y457263D01*
X613134Y457241D01*
X613249Y457211D01*
X613310Y457207D01*
X613330Y457203D01*
X613350Y457205D01*
X613410Y457201D01*
X623825Y457201D01*
X623785Y456944D01*
X623204Y455157D01*
X622351Y453483D01*
X621246Y451962D01*
X619918Y450634D01*
X618397Y449529D01*
X616723Y448676D01*
X616258Y448525D01*
X616231Y448512D01*
X616202Y448505D01*
X616087Y448445D01*
X615970Y448390D01*
X615947Y448371D01*
X615921Y448357D01*
X615825Y448269D01*
X615725Y448187D01*
X615708Y448163D01*
X615686Y448143D01*
X615614Y448034D01*
X615538Y447930D01*
X615527Y447902D01*
X615511Y447877D01*
X615469Y447754D01*
X615421Y447634D01*
X615417Y447604D01*
X615408Y447576D01*
X615397Y447447D01*
X615381Y447319D01*
X615385Y447289D01*
X615382Y447259D01*
X615405Y447131D01*
X615421Y447003D01*
X615432Y446975D01*
X615437Y446946D01*
X615490Y446828D01*
X615538Y446707D01*
X615555Y446683D01*
X615567Y446656D01*
X615648Y446555D01*
X615724Y446450D01*
X615747Y446431D01*
X615766Y446407D01*
X615869Y446330D01*
X615969Y446247D01*
X615996Y446234D01*
X616020Y446216D01*
X616165Y446145D01*
X619190Y444892D01*
X622692Y441390D01*
X624587Y436816D01*
X624587Y431864D01*
X622692Y427290D01*
X619190Y423788D01*
X614616Y421893D01*
X609664Y421893D01*
X605090Y423788D01*
X601588Y427290D01*
X599693Y431864D01*
X599693Y436816D01*
X601588Y441390D01*
X605090Y444892D01*
X608115Y446145D01*
X608141Y446160D01*
X608170Y446169D01*
X608279Y446238D01*
X608392Y446303D01*
X608413Y446324D01*
X608438Y446340D01*
X608527Y446434D01*
X608620Y446524D01*
X608636Y446550D01*
X608656Y446571D01*
X608719Y446685D01*
X608786Y446795D01*
X608795Y446824D01*
X608809Y446850D01*
X608842Y446976D01*
X608880Y447099D01*
X608881Y447129D01*
X608889Y447158D01*
X608889Y447288D01*
X608895Y447417D01*
X608889Y447446D01*
X608889Y447476D01*
X608857Y447602D01*
X608831Y447728D01*
X608818Y447755D01*
X608810Y447784D01*
X608748Y447898D01*
X608691Y448014D01*
X608672Y448037D01*
X608657Y448063D01*
X608569Y448158D01*
X608485Y448256D01*
X608460Y448273D01*
X608440Y448295D01*
X608331Y448364D01*
X608225Y448439D01*
X608197Y448450D01*
X608171Y448466D01*
X608022Y448525D01*
X607557Y448676D01*
X605883Y449529D01*
X604362Y450634D01*
X603034Y451962D01*
X601929Y453483D01*
X601076Y455157D01*
X600495Y456944D01*
X600455Y457201D01*
X610870Y457201D01*
X610988Y457216D01*
X611107Y457223D01*
X611145Y457236D01*
X611185Y457241D01*
X611296Y457284D01*
X611409Y457321D01*
X611443Y457343D01*
X611481Y457358D01*
X611577Y457428D01*
X611678Y457491D01*
X611706Y457521D01*
X611738Y457544D01*
X611814Y457636D01*
X611896Y457723D01*
X611915Y457758D01*
X611941Y457789D01*
X611992Y457897D01*
X612049Y458001D01*
X612060Y458041D01*
X612077Y458077D01*
X612099Y458194D01*
X612129Y458309D01*
X612133Y458370D01*
X612137Y458390D01*
X612135Y458410D01*
X612139Y458470D01*
X612139Y461010D01*
X612124Y461128D01*
X612117Y461247D01*
X612104Y461285D01*
X612099Y461325D01*
X612055Y461436D01*
X612019Y461549D01*
X611997Y461584D01*
X611982Y461621D01*
X611912Y461717D01*
X611849Y461818D01*
X611819Y461846D01*
X611795Y461879D01*
X611704Y461954D01*
X611617Y462036D01*
X611582Y462056D01*
X611550Y462081D01*
X611443Y462132D01*
X611338Y462190D01*
X611299Y462200D01*
X611263Y462217D01*
X611146Y462239D01*
X611031Y462269D01*
X610970Y462273D01*
X610950Y462277D01*
X610930Y462275D01*
X610870Y462279D01*
X600455Y462279D01*
X600495Y462536D01*
X601076Y464323D01*
X601929Y465997D01*
X603034Y467518D01*
X604362Y468846D01*
X605883Y469951D01*
X607557Y470804D01*
X608022Y470955D01*
X608049Y470968D01*
X608078Y470975D01*
X608192Y471035D01*
X608310Y471090D01*
X608333Y471109D01*
X608359Y471123D01*
X608455Y471210D01*
X608555Y471293D01*
X608572Y471317D01*
X608594Y471337D01*
X608666Y471446D01*
X608742Y471550D01*
X608753Y471578D01*
X608769Y471603D01*
X608811Y471726D01*
X608859Y471846D01*
X608863Y471876D01*
X608872Y471904D01*
X608883Y472033D01*
X608899Y472161D01*
X608895Y472191D01*
X608898Y472221D01*
X608875Y472349D01*
X608859Y472477D01*
X608848Y472505D01*
X608843Y472534D01*
X608790Y472652D01*
X608742Y472773D01*
X608725Y472797D01*
X608713Y472824D01*
X608632Y472925D01*
X608556Y473030D01*
X608533Y473049D01*
X608514Y473073D01*
X608410Y473151D01*
X608311Y473233D01*
X608284Y473246D01*
X608260Y473264D01*
X608115Y473335D01*
X605090Y474588D01*
X602022Y477656D01*
X601944Y477716D01*
X601872Y477784D01*
X601819Y477813D01*
X601771Y477850D01*
X601680Y477890D01*
X601593Y477938D01*
X601535Y477953D01*
X601479Y477977D01*
X601381Y477992D01*
X601285Y478017D01*
X601185Y478023D01*
X601165Y478027D01*
X601153Y478025D01*
X601125Y478027D01*
X597261Y478027D01*
X597240Y478025D01*
X597178Y478025D01*
X594957Y477879D01*
X594913Y477871D01*
X594869Y477870D01*
X594711Y477838D01*
X590420Y476689D01*
X590341Y476656D01*
X590258Y476633D01*
X590135Y476572D01*
X590126Y476568D01*
X590122Y476566D01*
X590114Y476562D01*
X586266Y474341D01*
X586231Y474314D01*
X586192Y474294D01*
X586064Y474196D01*
X584391Y472728D01*
X584377Y472712D01*
X584330Y472671D01*
X566098Y454439D01*
X565132Y453473D01*
X563740Y452081D01*
X561892Y450233D01*
X554479Y445953D01*
X546209Y443737D01*
X224284Y443737D01*
X224234Y443731D01*
X224185Y443733D01*
X224077Y443711D01*
X223968Y443697D01*
X223922Y443679D01*
X223873Y443669D01*
X223775Y443621D01*
X223672Y443580D01*
X223632Y443551D01*
X223588Y443529D01*
X223504Y443458D01*
X223415Y443394D01*
X223383Y443355D01*
X223346Y443323D01*
X223282Y443233D01*
X223212Y443149D01*
X223191Y443104D01*
X223163Y443063D01*
X223124Y442960D01*
X223077Y442861D01*
X223067Y442812D01*
X223050Y442766D01*
X223038Y442656D01*
X223017Y442549D01*
X223020Y442499D01*
X223015Y442450D01*
X223030Y442341D01*
X223037Y442231D01*
X223052Y442184D01*
X223059Y442135D01*
X223111Y441982D01*
X224029Y439767D01*
X224029Y436533D01*
X223109Y434313D01*
X223107Y434305D01*
X223102Y434296D01*
X223065Y434151D01*
X223025Y434007D01*
X223025Y433997D01*
X223023Y433988D01*
X223013Y433828D01*
X223013Y425450D01*
X223015Y425428D01*
X223017Y425350D01*
X223226Y422688D01*
X223240Y422620D01*
X223244Y422552D01*
X223284Y422396D01*
X224930Y417332D01*
X224980Y417224D01*
X225024Y417114D01*
X225056Y417063D01*
X225065Y417044D01*
X225078Y417028D01*
X225110Y416978D01*
X228240Y412670D01*
X228321Y412584D01*
X228396Y412492D01*
X228443Y412454D01*
X228457Y412439D01*
X228475Y412428D01*
X228520Y412390D01*
X232828Y409260D01*
X232932Y409203D01*
X233032Y409139D01*
X233089Y409117D01*
X233107Y409107D01*
X233126Y409102D01*
X233182Y409080D01*
X238246Y407434D01*
X238313Y407421D01*
X238379Y407399D01*
X238538Y407376D01*
X241200Y407167D01*
X241222Y407168D01*
X241300Y407163D01*
X262378Y407163D01*
X262387Y407164D01*
X262396Y407163D01*
X262545Y407184D01*
X262693Y407203D01*
X262702Y407206D01*
X262711Y407207D01*
X262863Y407259D01*
X265083Y408179D01*
X268317Y408179D01*
X271305Y406941D01*
X273591Y404655D01*
X274829Y401667D01*
X274829Y398433D01*
X273591Y395445D01*
X271305Y393159D01*
X268317Y391921D01*
X265083Y391921D01*
G37*
%LPD*%
%LPC*%
G36*
X22924Y216153D02*
X22924Y216153D01*
X18350Y218048D01*
X14848Y221550D01*
X12953Y226124D01*
X12953Y231076D01*
X14848Y235650D01*
X18350Y239152D01*
X21375Y240405D01*
X21401Y240420D01*
X21430Y240429D01*
X21539Y240499D01*
X21652Y240563D01*
X21673Y240584D01*
X21698Y240600D01*
X21787Y240694D01*
X21880Y240784D01*
X21896Y240810D01*
X21916Y240831D01*
X21979Y240945D01*
X22046Y241055D01*
X22055Y241084D01*
X22069Y241110D01*
X22102Y241235D01*
X22140Y241359D01*
X22141Y241389D01*
X22149Y241418D01*
X22149Y241548D01*
X22155Y241677D01*
X22149Y241706D01*
X22149Y241736D01*
X22117Y241861D01*
X22091Y241988D01*
X22078Y242015D01*
X22070Y242044D01*
X22008Y242157D01*
X21951Y242274D01*
X21932Y242297D01*
X21917Y242323D01*
X21829Y242417D01*
X21745Y242516D01*
X21720Y242533D01*
X21700Y242555D01*
X21591Y242624D01*
X21485Y242699D01*
X21457Y242710D01*
X21431Y242726D01*
X21282Y242785D01*
X20817Y242936D01*
X19143Y243789D01*
X17622Y244894D01*
X16294Y246222D01*
X15189Y247743D01*
X14336Y249417D01*
X13755Y251204D01*
X13715Y251461D01*
X24130Y251461D01*
X24248Y251476D01*
X24367Y251483D01*
X24405Y251496D01*
X24445Y251501D01*
X24556Y251544D01*
X24669Y251581D01*
X24703Y251603D01*
X24741Y251618D01*
X24837Y251688D01*
X24938Y251751D01*
X24966Y251781D01*
X24998Y251804D01*
X25074Y251896D01*
X25156Y251983D01*
X25175Y252018D01*
X25201Y252049D01*
X25252Y252157D01*
X25309Y252261D01*
X25320Y252301D01*
X25337Y252337D01*
X25359Y252454D01*
X25389Y252569D01*
X25393Y252630D01*
X25397Y252650D01*
X25395Y252670D01*
X25399Y252730D01*
X25399Y255270D01*
X25384Y255388D01*
X25377Y255507D01*
X25364Y255545D01*
X25359Y255585D01*
X25315Y255696D01*
X25279Y255809D01*
X25257Y255844D01*
X25242Y255881D01*
X25172Y255977D01*
X25109Y256078D01*
X25079Y256106D01*
X25055Y256139D01*
X24964Y256214D01*
X24877Y256296D01*
X24842Y256316D01*
X24810Y256341D01*
X24703Y256392D01*
X24598Y256450D01*
X24559Y256460D01*
X24523Y256477D01*
X24406Y256499D01*
X24291Y256529D01*
X24230Y256533D01*
X24210Y256537D01*
X24190Y256535D01*
X24130Y256539D01*
X13715Y256539D01*
X13755Y256796D01*
X14336Y258583D01*
X15189Y260257D01*
X16294Y261778D01*
X17622Y263106D01*
X19143Y264211D01*
X20817Y265064D01*
X21282Y265215D01*
X21309Y265228D01*
X21338Y265235D01*
X21452Y265295D01*
X21570Y265350D01*
X21593Y265369D01*
X21619Y265383D01*
X21715Y265470D01*
X21815Y265553D01*
X21832Y265577D01*
X21854Y265597D01*
X21926Y265706D01*
X22002Y265810D01*
X22013Y265838D01*
X22029Y265863D01*
X22071Y265986D01*
X22119Y266106D01*
X22123Y266136D01*
X22132Y266164D01*
X22143Y266293D01*
X22159Y266421D01*
X22155Y266451D01*
X22158Y266481D01*
X22135Y266609D01*
X22119Y266737D01*
X22108Y266765D01*
X22103Y266794D01*
X22050Y266912D01*
X22002Y267033D01*
X21985Y267057D01*
X21973Y267084D01*
X21892Y267185D01*
X21816Y267290D01*
X21793Y267309D01*
X21774Y267333D01*
X21670Y267411D01*
X21571Y267493D01*
X21544Y267506D01*
X21520Y267524D01*
X21375Y267595D01*
X18350Y268848D01*
X14848Y272350D01*
X12953Y276924D01*
X12953Y281876D01*
X14848Y286450D01*
X18350Y289952D01*
X20705Y290927D01*
X20825Y290996D01*
X20948Y291061D01*
X20963Y291075D01*
X20981Y291085D01*
X21081Y291182D01*
X21184Y291275D01*
X21195Y291292D01*
X21209Y291306D01*
X21282Y291424D01*
X21358Y291541D01*
X21365Y291560D01*
X21376Y291577D01*
X21416Y291710D01*
X21462Y291842D01*
X21463Y291862D01*
X21469Y291881D01*
X21476Y292020D01*
X21487Y292159D01*
X21483Y292179D01*
X21484Y292199D01*
X21456Y292335D01*
X21432Y292472D01*
X21424Y292491D01*
X21420Y292510D01*
X21359Y292635D01*
X21302Y292762D01*
X21289Y292778D01*
X21280Y292796D01*
X21190Y292902D01*
X21103Y293010D01*
X21087Y293023D01*
X21074Y293038D01*
X20960Y293118D01*
X20849Y293202D01*
X20824Y293214D01*
X20814Y293221D01*
X20795Y293228D01*
X20705Y293273D01*
X18350Y294248D01*
X14848Y297750D01*
X12953Y302324D01*
X12953Y307276D01*
X14848Y311850D01*
X18350Y315352D01*
X21375Y316605D01*
X21401Y316620D01*
X21430Y316629D01*
X21539Y316699D01*
X21652Y316763D01*
X21673Y316784D01*
X21698Y316800D01*
X21787Y316894D01*
X21880Y316984D01*
X21896Y317010D01*
X21916Y317031D01*
X21979Y317145D01*
X22046Y317255D01*
X22055Y317284D01*
X22069Y317310D01*
X22102Y317435D01*
X22140Y317559D01*
X22141Y317589D01*
X22149Y317618D01*
X22149Y317748D01*
X22155Y317877D01*
X22149Y317906D01*
X22149Y317936D01*
X22117Y318061D01*
X22091Y318188D01*
X22078Y318215D01*
X22070Y318244D01*
X22008Y318357D01*
X21951Y318474D01*
X21932Y318497D01*
X21917Y318523D01*
X21829Y318617D01*
X21745Y318716D01*
X21720Y318733D01*
X21700Y318755D01*
X21591Y318824D01*
X21485Y318899D01*
X21457Y318910D01*
X21431Y318926D01*
X21282Y318985D01*
X20817Y319136D01*
X19143Y319989D01*
X17622Y321094D01*
X16294Y322422D01*
X15189Y323943D01*
X14336Y325617D01*
X13755Y327404D01*
X13715Y327661D01*
X24130Y327661D01*
X24248Y327676D01*
X24367Y327683D01*
X24405Y327696D01*
X24445Y327701D01*
X24556Y327744D01*
X24669Y327781D01*
X24703Y327803D01*
X24741Y327818D01*
X24837Y327888D01*
X24938Y327951D01*
X24966Y327981D01*
X24998Y328004D01*
X25074Y328096D01*
X25156Y328183D01*
X25175Y328218D01*
X25201Y328249D01*
X25252Y328357D01*
X25309Y328461D01*
X25320Y328501D01*
X25337Y328537D01*
X25359Y328654D01*
X25389Y328769D01*
X25393Y328830D01*
X25397Y328850D01*
X25395Y328870D01*
X25399Y328930D01*
X25399Y330201D01*
X25401Y330201D01*
X25401Y328930D01*
X25416Y328812D01*
X25423Y328693D01*
X25436Y328655D01*
X25441Y328614D01*
X25485Y328504D01*
X25521Y328391D01*
X25543Y328356D01*
X25558Y328319D01*
X25628Y328223D01*
X25691Y328122D01*
X25721Y328094D01*
X25745Y328061D01*
X25836Y327986D01*
X25923Y327904D01*
X25958Y327884D01*
X25990Y327859D01*
X26097Y327808D01*
X26202Y327750D01*
X26241Y327740D01*
X26277Y327723D01*
X26394Y327701D01*
X26509Y327671D01*
X26570Y327667D01*
X26590Y327663D01*
X26610Y327665D01*
X26670Y327661D01*
X37085Y327661D01*
X37045Y327404D01*
X36464Y325617D01*
X35611Y323943D01*
X34506Y322422D01*
X33178Y321094D01*
X31657Y319989D01*
X29983Y319136D01*
X29518Y318985D01*
X29491Y318972D01*
X29462Y318965D01*
X29348Y318905D01*
X29230Y318850D01*
X29207Y318831D01*
X29181Y318817D01*
X29085Y318730D01*
X28985Y318647D01*
X28968Y318623D01*
X28946Y318603D01*
X28874Y318494D01*
X28798Y318390D01*
X28787Y318362D01*
X28771Y318337D01*
X28729Y318214D01*
X28681Y318094D01*
X28677Y318064D01*
X28668Y318036D01*
X28657Y317907D01*
X28641Y317779D01*
X28645Y317749D01*
X28642Y317719D01*
X28665Y317591D01*
X28681Y317463D01*
X28692Y317435D01*
X28697Y317406D01*
X28750Y317288D01*
X28798Y317167D01*
X28815Y317143D01*
X28827Y317116D01*
X28908Y317015D01*
X28984Y316910D01*
X29007Y316891D01*
X29026Y316867D01*
X29130Y316789D01*
X29229Y316707D01*
X29256Y316694D01*
X29280Y316676D01*
X29425Y316605D01*
X32450Y315352D01*
X35952Y311850D01*
X37847Y307276D01*
X37847Y302324D01*
X35952Y297750D01*
X32450Y294248D01*
X30095Y293273D01*
X29975Y293204D01*
X29852Y293139D01*
X29837Y293125D01*
X29819Y293115D01*
X29719Y293018D01*
X29616Y292925D01*
X29605Y292908D01*
X29591Y292894D01*
X29518Y292775D01*
X29442Y292659D01*
X29435Y292640D01*
X29424Y292623D01*
X29384Y292490D01*
X29338Y292358D01*
X29337Y292338D01*
X29331Y292319D01*
X29324Y292180D01*
X29313Y292041D01*
X29317Y292021D01*
X29316Y292001D01*
X29344Y291865D01*
X29368Y291728D01*
X29376Y291709D01*
X29380Y291690D01*
X29441Y291564D01*
X29498Y291438D01*
X29511Y291422D01*
X29520Y291404D01*
X29610Y291298D01*
X29697Y291190D01*
X29713Y291177D01*
X29726Y291162D01*
X29840Y291082D01*
X29951Y290998D01*
X29976Y290986D01*
X29986Y290979D01*
X30005Y290972D01*
X30095Y290927D01*
X32450Y289952D01*
X35952Y286450D01*
X37847Y281876D01*
X37847Y276924D01*
X35952Y272350D01*
X32450Y268848D01*
X29425Y267595D01*
X29399Y267580D01*
X29370Y267571D01*
X29261Y267501D01*
X29148Y267437D01*
X29127Y267416D01*
X29102Y267400D01*
X29013Y267306D01*
X28920Y267216D01*
X28904Y267190D01*
X28884Y267169D01*
X28821Y267055D01*
X28754Y266945D01*
X28745Y266916D01*
X28731Y266890D01*
X28698Y266765D01*
X28660Y266641D01*
X28659Y266611D01*
X28651Y266582D01*
X28651Y266452D01*
X28645Y266323D01*
X28651Y266294D01*
X28651Y266264D01*
X28683Y266139D01*
X28709Y266012D01*
X28722Y265985D01*
X28730Y265956D01*
X28792Y265843D01*
X28849Y265726D01*
X28868Y265703D01*
X28883Y265677D01*
X28971Y265583D01*
X29055Y265484D01*
X29080Y265467D01*
X29100Y265445D01*
X29209Y265376D01*
X29315Y265301D01*
X29343Y265290D01*
X29369Y265274D01*
X29518Y265215D01*
X29983Y265064D01*
X31657Y264211D01*
X33178Y263106D01*
X34506Y261778D01*
X35611Y260257D01*
X36464Y258583D01*
X37045Y256796D01*
X37085Y256539D01*
X26670Y256539D01*
X26552Y256524D01*
X26433Y256517D01*
X26395Y256504D01*
X26355Y256499D01*
X26244Y256456D01*
X26131Y256419D01*
X26097Y256397D01*
X26059Y256382D01*
X25963Y256312D01*
X25862Y256249D01*
X25834Y256219D01*
X25802Y256195D01*
X25726Y256104D01*
X25644Y256017D01*
X25625Y255982D01*
X25599Y255951D01*
X25548Y255843D01*
X25491Y255739D01*
X25480Y255699D01*
X25463Y255663D01*
X25441Y255546D01*
X25411Y255431D01*
X25407Y255370D01*
X25403Y255350D01*
X25405Y255330D01*
X25401Y255270D01*
X25401Y252730D01*
X25416Y252612D01*
X25423Y252493D01*
X25436Y252455D01*
X25441Y252414D01*
X25485Y252304D01*
X25521Y252191D01*
X25543Y252156D01*
X25558Y252119D01*
X25628Y252023D01*
X25691Y251922D01*
X25721Y251894D01*
X25745Y251861D01*
X25836Y251786D01*
X25923Y251704D01*
X25958Y251684D01*
X25990Y251659D01*
X26097Y251608D01*
X26202Y251550D01*
X26241Y251540D01*
X26277Y251523D01*
X26394Y251501D01*
X26509Y251471D01*
X26570Y251467D01*
X26590Y251463D01*
X26610Y251465D01*
X26670Y251461D01*
X37085Y251461D01*
X37045Y251204D01*
X36464Y249417D01*
X35611Y247743D01*
X34506Y246222D01*
X33178Y244894D01*
X31657Y243789D01*
X29983Y242936D01*
X29518Y242785D01*
X29491Y242772D01*
X29462Y242765D01*
X29348Y242705D01*
X29230Y242650D01*
X29207Y242631D01*
X29181Y242617D01*
X29085Y242530D01*
X28985Y242447D01*
X28968Y242423D01*
X28946Y242403D01*
X28874Y242294D01*
X28798Y242190D01*
X28787Y242162D01*
X28771Y242137D01*
X28729Y242014D01*
X28681Y241894D01*
X28677Y241864D01*
X28668Y241836D01*
X28657Y241707D01*
X28641Y241579D01*
X28645Y241549D01*
X28642Y241519D01*
X28665Y241391D01*
X28681Y241263D01*
X28692Y241235D01*
X28697Y241206D01*
X28750Y241088D01*
X28798Y240967D01*
X28815Y240943D01*
X28827Y240916D01*
X28908Y240815D01*
X28984Y240710D01*
X29007Y240691D01*
X29026Y240667D01*
X29130Y240589D01*
X29229Y240507D01*
X29256Y240494D01*
X29280Y240476D01*
X29425Y240405D01*
X32450Y239152D01*
X35518Y236084D01*
X35596Y236024D01*
X35668Y235956D01*
X35721Y235927D01*
X35769Y235890D01*
X35860Y235850D01*
X35947Y235802D01*
X36005Y235787D01*
X36061Y235763D01*
X36159Y235748D01*
X36255Y235723D01*
X36355Y235717D01*
X36375Y235713D01*
X36387Y235715D01*
X36415Y235713D01*
X46629Y235713D01*
X46650Y235715D01*
X46712Y235715D01*
X48933Y235861D01*
X48977Y235869D01*
X49021Y235870D01*
X49179Y235902D01*
X53470Y237051D01*
X53549Y237084D01*
X53632Y237107D01*
X53755Y237168D01*
X53764Y237172D01*
X53768Y237174D01*
X53776Y237178D01*
X57624Y239399D01*
X57659Y239426D01*
X57698Y239446D01*
X57826Y239544D01*
X59499Y241012D01*
X59513Y241028D01*
X59560Y241069D01*
X60739Y242248D01*
X151452Y332961D01*
X152631Y334140D01*
X155658Y337167D01*
X163071Y341447D01*
X171341Y343663D01*
X230779Y343663D01*
X230800Y343665D01*
X230862Y343665D01*
X233083Y343811D01*
X233127Y343819D01*
X233171Y343820D01*
X233329Y343852D01*
X237620Y345001D01*
X237699Y345034D01*
X237782Y345057D01*
X237905Y345118D01*
X237914Y345122D01*
X237918Y345124D01*
X237926Y345128D01*
X241774Y347349D01*
X241809Y347376D01*
X241848Y347396D01*
X241976Y347494D01*
X243649Y348962D01*
X243663Y348978D01*
X243710Y349019D01*
X279631Y384940D01*
X279644Y384956D01*
X279688Y385001D01*
X281156Y386674D01*
X281180Y386711D01*
X281211Y386742D01*
X281301Y386876D01*
X283522Y390724D01*
X283555Y390803D01*
X283597Y390877D01*
X283641Y391007D01*
X283645Y391017D01*
X283646Y391021D01*
X283649Y391030D01*
X284798Y395321D01*
X284804Y395365D01*
X284818Y395407D01*
X284839Y395567D01*
X284985Y397788D01*
X284983Y397809D01*
X284987Y397871D01*
X284987Y414778D01*
X284986Y414787D01*
X284987Y414796D01*
X284966Y414945D01*
X284947Y415093D01*
X284944Y415102D01*
X284943Y415111D01*
X284891Y415263D01*
X283971Y417483D01*
X283971Y420717D01*
X285209Y423705D01*
X287495Y425991D01*
X290483Y427229D01*
X293717Y427229D01*
X296705Y425991D01*
X298991Y423705D01*
X300229Y420717D01*
X300229Y417483D01*
X299309Y415263D01*
X299307Y415255D01*
X299302Y415246D01*
X299265Y415101D01*
X299225Y414957D01*
X299225Y414947D01*
X299223Y414938D01*
X299213Y414778D01*
X299213Y393591D01*
X296997Y385321D01*
X292717Y377908D01*
X290869Y376060D01*
X289438Y374630D01*
X288511Y373703D01*
X288511Y373702D01*
X254948Y340139D01*
X253870Y339061D01*
X252591Y337782D01*
X252590Y337781D01*
X250742Y335933D01*
X243329Y331653D01*
X235059Y329437D01*
X175621Y329437D01*
X175600Y329435D01*
X175538Y329435D01*
X173317Y329289D01*
X173273Y329281D01*
X173229Y329280D01*
X173071Y329248D01*
X168780Y328099D01*
X168701Y328066D01*
X168618Y328043D01*
X168495Y327982D01*
X168486Y327978D01*
X168482Y327976D01*
X168474Y327972D01*
X164626Y325751D01*
X164591Y325724D01*
X164552Y325704D01*
X164424Y325606D01*
X162751Y324138D01*
X162737Y324122D01*
X162690Y324081D01*
X161511Y322902D01*
X70798Y232189D01*
X69619Y231010D01*
X66592Y227983D01*
X59179Y223703D01*
X50909Y221487D01*
X36415Y221487D01*
X36317Y221475D01*
X36218Y221472D01*
X36160Y221455D01*
X36100Y221447D01*
X36008Y221411D01*
X35913Y221383D01*
X35860Y221353D01*
X35804Y221330D01*
X35724Y221272D01*
X35639Y221222D01*
X35563Y221156D01*
X35547Y221144D01*
X35539Y221134D01*
X35518Y221116D01*
X32450Y218048D01*
X27876Y216153D01*
X22924Y216153D01*
G37*
%LPD*%
%LPC*%
G36*
X416624Y495553D02*
X416624Y495553D01*
X412050Y497448D01*
X408548Y500950D01*
X407295Y503975D01*
X407280Y504001D01*
X407271Y504030D01*
X407201Y504139D01*
X407137Y504252D01*
X407116Y504273D01*
X407100Y504298D01*
X407006Y504387D01*
X406916Y504480D01*
X406890Y504496D01*
X406869Y504516D01*
X406755Y504579D01*
X406645Y504646D01*
X406616Y504655D01*
X406590Y504669D01*
X406465Y504702D01*
X406341Y504740D01*
X406311Y504741D01*
X406282Y504749D01*
X406152Y504749D01*
X406023Y504755D01*
X405994Y504749D01*
X405964Y504749D01*
X405839Y504717D01*
X405712Y504691D01*
X405685Y504678D01*
X405656Y504670D01*
X405543Y504608D01*
X405426Y504551D01*
X405403Y504532D01*
X405377Y504517D01*
X405283Y504429D01*
X405184Y504345D01*
X405167Y504320D01*
X405145Y504300D01*
X405076Y504191D01*
X405001Y504085D01*
X404990Y504057D01*
X404974Y504031D01*
X404915Y503882D01*
X404764Y503417D01*
X403911Y501743D01*
X402806Y500222D01*
X401478Y498894D01*
X399957Y497789D01*
X398283Y496936D01*
X396496Y496355D01*
X396239Y496315D01*
X396239Y506730D01*
X396224Y506848D01*
X396217Y506967D01*
X396204Y507005D01*
X396199Y507045D01*
X396156Y507156D01*
X396119Y507269D01*
X396097Y507303D01*
X396082Y507341D01*
X396012Y507437D01*
X395949Y507538D01*
X395919Y507566D01*
X395895Y507598D01*
X395804Y507674D01*
X395717Y507756D01*
X395682Y507775D01*
X395651Y507801D01*
X395543Y507852D01*
X395439Y507909D01*
X395399Y507920D01*
X395363Y507937D01*
X395246Y507959D01*
X395131Y507989D01*
X395070Y507993D01*
X395050Y507997D01*
X395030Y507995D01*
X394970Y507999D01*
X393699Y507999D01*
X393699Y508001D01*
X394970Y508001D01*
X395088Y508016D01*
X395207Y508023D01*
X395245Y508036D01*
X395285Y508041D01*
X395396Y508085D01*
X395509Y508121D01*
X395544Y508143D01*
X395581Y508158D01*
X395677Y508228D01*
X395778Y508291D01*
X395806Y508321D01*
X395839Y508345D01*
X395914Y508436D01*
X395996Y508523D01*
X396016Y508558D01*
X396041Y508590D01*
X396092Y508697D01*
X396150Y508802D01*
X396160Y508841D01*
X396177Y508877D01*
X396199Y508994D01*
X396229Y509109D01*
X396233Y509170D01*
X396237Y509190D01*
X396235Y509210D01*
X396239Y509270D01*
X396239Y519685D01*
X396496Y519645D01*
X398283Y519064D01*
X399957Y518211D01*
X401478Y517106D01*
X402806Y515778D01*
X403911Y514257D01*
X404764Y512583D01*
X404915Y512118D01*
X404928Y512091D01*
X404935Y512062D01*
X404995Y511948D01*
X405050Y511830D01*
X405069Y511807D01*
X405083Y511781D01*
X405170Y511685D01*
X405253Y511585D01*
X405277Y511568D01*
X405297Y511546D01*
X405406Y511474D01*
X405510Y511398D01*
X405538Y511387D01*
X405563Y511371D01*
X405686Y511329D01*
X405806Y511281D01*
X405836Y511277D01*
X405864Y511268D01*
X405993Y511257D01*
X406121Y511241D01*
X406151Y511245D01*
X406181Y511242D01*
X406309Y511265D01*
X406437Y511281D01*
X406465Y511292D01*
X406494Y511297D01*
X406612Y511350D01*
X406733Y511398D01*
X406757Y511415D01*
X406784Y511427D01*
X406885Y511508D01*
X406990Y511584D01*
X407009Y511607D01*
X407033Y511626D01*
X407111Y511730D01*
X407193Y511829D01*
X407206Y511856D01*
X407224Y511880D01*
X407295Y512025D01*
X408548Y515050D01*
X412050Y518552D01*
X416624Y520447D01*
X421576Y520447D01*
X426150Y518552D01*
X429652Y515050D01*
X430627Y512695D01*
X430696Y512575D01*
X430761Y512452D01*
X430775Y512437D01*
X430785Y512419D01*
X430882Y512319D01*
X430975Y512216D01*
X430992Y512205D01*
X431006Y512191D01*
X431125Y512118D01*
X431241Y512042D01*
X431260Y512035D01*
X431277Y512024D01*
X431410Y511983D01*
X431542Y511938D01*
X431562Y511937D01*
X431581Y511931D01*
X431720Y511924D01*
X431859Y511913D01*
X431879Y511917D01*
X431899Y511916D01*
X432035Y511944D01*
X432172Y511968D01*
X432191Y511976D01*
X432210Y511980D01*
X432336Y512041D01*
X432462Y512098D01*
X432478Y512111D01*
X432496Y512120D01*
X432602Y512210D01*
X432710Y512297D01*
X432723Y512313D01*
X432738Y512326D01*
X432818Y512440D01*
X432902Y512551D01*
X432914Y512576D01*
X432921Y512586D01*
X432928Y512605D01*
X432973Y512695D01*
X433948Y515051D01*
X437450Y518552D01*
X442024Y520447D01*
X446976Y520447D01*
X451550Y518552D01*
X455052Y515050D01*
X456027Y512695D01*
X456096Y512575D01*
X456161Y512452D01*
X456175Y512437D01*
X456185Y512419D01*
X456282Y512319D01*
X456375Y512216D01*
X456392Y512205D01*
X456406Y512191D01*
X456525Y512118D01*
X456641Y512042D01*
X456660Y512035D01*
X456677Y512024D01*
X456810Y511983D01*
X456942Y511938D01*
X456962Y511937D01*
X456981Y511931D01*
X457120Y511924D01*
X457259Y511913D01*
X457279Y511917D01*
X457299Y511916D01*
X457435Y511944D01*
X457572Y511968D01*
X457591Y511976D01*
X457610Y511980D01*
X457736Y512041D01*
X457862Y512098D01*
X457878Y512111D01*
X457896Y512120D01*
X458002Y512210D01*
X458110Y512297D01*
X458123Y512313D01*
X458138Y512326D01*
X458218Y512440D01*
X458302Y512551D01*
X458314Y512576D01*
X458321Y512586D01*
X458328Y512605D01*
X458373Y512695D01*
X459348Y515051D01*
X462850Y518552D01*
X467424Y520447D01*
X472376Y520447D01*
X476950Y518552D01*
X480452Y515051D01*
X481427Y512695D01*
X481496Y512574D01*
X481561Y512452D01*
X481575Y512437D01*
X481585Y512419D01*
X481682Y512319D01*
X481775Y512216D01*
X481792Y512205D01*
X481806Y512191D01*
X481924Y512118D01*
X482041Y512042D01*
X482060Y512035D01*
X482077Y512024D01*
X482210Y511984D01*
X482342Y511938D01*
X482362Y511937D01*
X482381Y511931D01*
X482520Y511924D01*
X482659Y511913D01*
X482679Y511917D01*
X482699Y511916D01*
X482835Y511944D01*
X482972Y511968D01*
X482991Y511976D01*
X483010Y511980D01*
X483135Y512041D01*
X483262Y512098D01*
X483278Y512111D01*
X483296Y512120D01*
X483402Y512210D01*
X483510Y512297D01*
X483523Y512313D01*
X483538Y512326D01*
X483618Y512440D01*
X483702Y512551D01*
X483714Y512576D01*
X483721Y512586D01*
X483728Y512605D01*
X483773Y512695D01*
X484748Y515050D01*
X488250Y518552D01*
X492824Y520447D01*
X497776Y520447D01*
X502350Y518552D01*
X505852Y515051D01*
X506827Y512695D01*
X506896Y512574D01*
X506961Y512452D01*
X506975Y512437D01*
X506985Y512419D01*
X507082Y512319D01*
X507175Y512216D01*
X507192Y512205D01*
X507206Y512191D01*
X507324Y512118D01*
X507441Y512042D01*
X507460Y512035D01*
X507477Y512024D01*
X507610Y511984D01*
X507742Y511938D01*
X507762Y511937D01*
X507781Y511931D01*
X507920Y511924D01*
X508059Y511913D01*
X508079Y511917D01*
X508099Y511916D01*
X508235Y511944D01*
X508372Y511968D01*
X508391Y511976D01*
X508410Y511980D01*
X508535Y512041D01*
X508662Y512098D01*
X508678Y512111D01*
X508696Y512120D01*
X508802Y512210D01*
X508910Y512297D01*
X508923Y512313D01*
X508938Y512326D01*
X509018Y512440D01*
X509102Y512551D01*
X509114Y512576D01*
X509121Y512586D01*
X509128Y512605D01*
X509173Y512695D01*
X510148Y515050D01*
X513650Y518552D01*
X518224Y520447D01*
X523176Y520447D01*
X527750Y518552D01*
X531252Y515050D01*
X533147Y510476D01*
X533147Y505524D01*
X531252Y500950D01*
X527750Y497448D01*
X523176Y495553D01*
X518224Y495553D01*
X513650Y497448D01*
X510148Y500950D01*
X509173Y503305D01*
X509104Y503425D01*
X509039Y503548D01*
X509025Y503563D01*
X509015Y503581D01*
X508918Y503681D01*
X508825Y503784D01*
X508808Y503795D01*
X508794Y503809D01*
X508675Y503882D01*
X508559Y503958D01*
X508540Y503965D01*
X508523Y503976D01*
X508390Y504017D01*
X508258Y504062D01*
X508238Y504063D01*
X508219Y504069D01*
X508080Y504076D01*
X507941Y504087D01*
X507921Y504083D01*
X507901Y504084D01*
X507765Y504056D01*
X507628Y504032D01*
X507609Y504024D01*
X507590Y504020D01*
X507464Y503959D01*
X507338Y503902D01*
X507322Y503889D01*
X507304Y503880D01*
X507198Y503790D01*
X507090Y503703D01*
X507077Y503687D01*
X507062Y503674D01*
X506982Y503560D01*
X506898Y503449D01*
X506886Y503424D01*
X506879Y503414D01*
X506872Y503395D01*
X506827Y503305D01*
X505852Y500949D01*
X502350Y497448D01*
X497776Y495553D01*
X492824Y495553D01*
X488250Y497448D01*
X484748Y500950D01*
X483773Y503305D01*
X483704Y503425D01*
X483639Y503548D01*
X483625Y503563D01*
X483615Y503581D01*
X483518Y503681D01*
X483425Y503784D01*
X483408Y503795D01*
X483394Y503809D01*
X483275Y503882D01*
X483159Y503958D01*
X483140Y503965D01*
X483123Y503976D01*
X482990Y504017D01*
X482858Y504062D01*
X482838Y504063D01*
X482819Y504069D01*
X482680Y504076D01*
X482541Y504087D01*
X482521Y504083D01*
X482501Y504084D01*
X482365Y504056D01*
X482228Y504032D01*
X482209Y504024D01*
X482190Y504020D01*
X482064Y503959D01*
X481938Y503902D01*
X481922Y503889D01*
X481904Y503880D01*
X481798Y503790D01*
X481690Y503703D01*
X481677Y503687D01*
X481662Y503674D01*
X481582Y503560D01*
X481498Y503449D01*
X481486Y503424D01*
X481479Y503414D01*
X481472Y503395D01*
X481427Y503305D01*
X480452Y500949D01*
X476950Y497448D01*
X472376Y495553D01*
X467424Y495553D01*
X462850Y497448D01*
X459348Y500949D01*
X458373Y503305D01*
X458304Y503426D01*
X458239Y503548D01*
X458225Y503563D01*
X458215Y503581D01*
X458118Y503681D01*
X458025Y503784D01*
X458008Y503795D01*
X457994Y503809D01*
X457876Y503882D01*
X457759Y503958D01*
X457740Y503965D01*
X457723Y503976D01*
X457590Y504016D01*
X457458Y504062D01*
X457438Y504063D01*
X457419Y504069D01*
X457280Y504076D01*
X457141Y504087D01*
X457121Y504083D01*
X457101Y504084D01*
X456965Y504056D01*
X456828Y504032D01*
X456809Y504024D01*
X456790Y504020D01*
X456665Y503959D01*
X456538Y503902D01*
X456522Y503889D01*
X456504Y503880D01*
X456398Y503790D01*
X456290Y503703D01*
X456277Y503687D01*
X456262Y503674D01*
X456182Y503560D01*
X456098Y503449D01*
X456086Y503424D01*
X456079Y503414D01*
X456072Y503395D01*
X456027Y503305D01*
X455052Y500950D01*
X451550Y497448D01*
X446976Y495553D01*
X442024Y495553D01*
X437450Y497448D01*
X433948Y500949D01*
X432973Y503305D01*
X432904Y503426D01*
X432839Y503548D01*
X432825Y503563D01*
X432815Y503581D01*
X432718Y503681D01*
X432625Y503784D01*
X432608Y503795D01*
X432594Y503809D01*
X432476Y503882D01*
X432359Y503958D01*
X432340Y503965D01*
X432323Y503976D01*
X432190Y504016D01*
X432058Y504062D01*
X432038Y504063D01*
X432019Y504069D01*
X431880Y504076D01*
X431741Y504087D01*
X431721Y504083D01*
X431701Y504084D01*
X431565Y504056D01*
X431428Y504032D01*
X431409Y504024D01*
X431390Y504020D01*
X431265Y503959D01*
X431138Y503902D01*
X431122Y503889D01*
X431104Y503880D01*
X430998Y503790D01*
X430890Y503703D01*
X430877Y503687D01*
X430862Y503674D01*
X430782Y503560D01*
X430698Y503449D01*
X430686Y503424D01*
X430679Y503414D01*
X430672Y503395D01*
X430627Y503305D01*
X429652Y500950D01*
X426150Y497448D01*
X421576Y495553D01*
X416624Y495553D01*
G37*
%LPD*%
%LPC*%
G36*
X315424Y344573D02*
X315424Y344573D01*
X310850Y346468D01*
X307348Y349970D01*
X305453Y354544D01*
X305453Y359496D01*
X307348Y364070D01*
X310850Y367572D01*
X315424Y369467D01*
X320376Y369467D01*
X324950Y367572D01*
X328452Y364070D01*
X329227Y362198D01*
X329296Y362078D01*
X329361Y361955D01*
X329375Y361940D01*
X329385Y361922D01*
X329482Y361822D01*
X329575Y361719D01*
X329592Y361708D01*
X329606Y361694D01*
X329725Y361621D01*
X329841Y361544D01*
X329860Y361538D01*
X329877Y361527D01*
X330010Y361486D01*
X330142Y361441D01*
X330162Y361440D01*
X330181Y361434D01*
X330320Y361427D01*
X330459Y361416D01*
X330479Y361420D01*
X330499Y361419D01*
X330635Y361447D01*
X330772Y361470D01*
X330791Y361479D01*
X330810Y361483D01*
X330936Y361544D01*
X331062Y361601D01*
X331078Y361614D01*
X331096Y361623D01*
X331202Y361713D01*
X331310Y361800D01*
X331323Y361816D01*
X331338Y361829D01*
X331418Y361943D01*
X331502Y362054D01*
X331514Y362079D01*
X331521Y362089D01*
X331528Y362108D01*
X331573Y362198D01*
X332348Y364070D01*
X335850Y367572D01*
X340424Y369467D01*
X345376Y369467D01*
X349950Y367572D01*
X353452Y364070D01*
X354481Y361586D01*
X354496Y361560D01*
X354505Y361531D01*
X354574Y361422D01*
X354639Y361310D01*
X354659Y361288D01*
X354675Y361263D01*
X354770Y361174D01*
X354860Y361081D01*
X354885Y361066D01*
X354907Y361045D01*
X355021Y360983D01*
X355131Y360915D01*
X355159Y360906D01*
X355186Y360892D01*
X355311Y360859D01*
X355435Y360821D01*
X355465Y360820D01*
X355494Y360812D01*
X355623Y360812D01*
X355753Y360806D01*
X355782Y360812D01*
X355812Y360812D01*
X355937Y360844D01*
X356064Y360870D01*
X356091Y360884D01*
X356120Y360891D01*
X356233Y360953D01*
X356350Y361010D01*
X356372Y361030D01*
X356399Y361044D01*
X356493Y361132D01*
X356592Y361217D01*
X356609Y361241D01*
X356631Y361261D01*
X356690Y361354D01*
X356709Y361375D01*
X356735Y361420D01*
X356775Y361477D01*
X356785Y361504D01*
X356801Y361530D01*
X356811Y361554D01*
X357689Y363277D01*
X358794Y364798D01*
X360122Y366126D01*
X361643Y367231D01*
X363317Y368084D01*
X365104Y368665D01*
X365401Y368712D01*
X365401Y358250D01*
X365416Y358132D01*
X365423Y358013D01*
X365435Y357975D01*
X365441Y357935D01*
X365484Y357824D01*
X365521Y357711D01*
X365543Y357677D01*
X365558Y357639D01*
X365627Y357543D01*
X365691Y357442D01*
X365721Y357414D01*
X365744Y357382D01*
X365836Y357306D01*
X365923Y357224D01*
X365958Y357205D01*
X365989Y357179D01*
X366097Y357128D01*
X366201Y357071D01*
X366241Y357061D01*
X366277Y357043D01*
X366384Y357023D01*
X366354Y357019D01*
X366244Y356975D01*
X366131Y356939D01*
X366096Y356917D01*
X366059Y356902D01*
X365962Y356832D01*
X365862Y356769D01*
X365834Y356739D01*
X365801Y356715D01*
X365725Y356624D01*
X365644Y356537D01*
X365624Y356502D01*
X365599Y356470D01*
X365548Y356363D01*
X365490Y356258D01*
X365480Y356219D01*
X365463Y356183D01*
X365441Y356066D01*
X365411Y355950D01*
X365407Y355890D01*
X365403Y355870D01*
X365405Y355850D01*
X365401Y355790D01*
X365401Y345328D01*
X365104Y345375D01*
X363317Y345956D01*
X361643Y346809D01*
X360122Y347914D01*
X358794Y349242D01*
X357689Y350763D01*
X356791Y352526D01*
X356766Y352563D01*
X356725Y352648D01*
X356706Y352671D01*
X356692Y352698D01*
X356619Y352778D01*
X356612Y352789D01*
X356601Y352798D01*
X356523Y352894D01*
X356499Y352911D01*
X356478Y352933D01*
X356370Y353004D01*
X356265Y353081D01*
X356238Y353092D01*
X356213Y353108D01*
X356090Y353150D01*
X355970Y353198D01*
X355940Y353201D01*
X355912Y353211D01*
X355783Y353221D01*
X355654Y353238D01*
X355625Y353234D01*
X355595Y353236D01*
X355467Y353214D01*
X355339Y353198D01*
X355311Y353187D01*
X355282Y353182D01*
X355163Y353129D01*
X355043Y353081D01*
X355019Y353064D01*
X354992Y353051D01*
X354890Y352970D01*
X354786Y352894D01*
X354767Y352872D01*
X354743Y352853D01*
X354665Y352749D01*
X354583Y352650D01*
X354570Y352623D01*
X354552Y352599D01*
X354481Y352454D01*
X353452Y349970D01*
X349950Y346468D01*
X345376Y344573D01*
X340424Y344573D01*
X335850Y346468D01*
X332348Y349970D01*
X331573Y351842D01*
X331504Y351962D01*
X331439Y352085D01*
X331425Y352100D01*
X331415Y352118D01*
X331318Y352218D01*
X331225Y352321D01*
X331208Y352332D01*
X331194Y352346D01*
X331076Y352419D01*
X330959Y352496D01*
X330940Y352502D01*
X330923Y352513D01*
X330790Y352554D01*
X330658Y352599D01*
X330638Y352600D01*
X330619Y352606D01*
X330480Y352613D01*
X330341Y352624D01*
X330321Y352621D01*
X330301Y352621D01*
X330165Y352593D01*
X330028Y352570D01*
X330009Y352561D01*
X329990Y352557D01*
X329865Y352496D01*
X329738Y352439D01*
X329722Y352426D01*
X329704Y352417D01*
X329598Y352327D01*
X329490Y352240D01*
X329477Y352224D01*
X329462Y352211D01*
X329382Y352097D01*
X329298Y351986D01*
X329286Y351961D01*
X329279Y351951D01*
X329272Y351932D01*
X329227Y351842D01*
X328452Y349970D01*
X324950Y346468D01*
X320376Y344573D01*
X315424Y344573D01*
G37*
%LPD*%
%LPC*%
G36*
X295310Y268971D02*
X295310Y268971D01*
X288676Y271719D01*
X283599Y276796D01*
X280851Y283430D01*
X280851Y290610D01*
X283599Y297244D01*
X288676Y302321D01*
X295310Y305069D01*
X302490Y305069D01*
X309124Y302321D01*
X314201Y297244D01*
X316949Y290610D01*
X316949Y283430D01*
X314201Y276796D01*
X309124Y271719D01*
X302490Y268971D01*
X295310Y268971D01*
G37*
%LPD*%
%LPC*%
G36*
X383310Y268971D02*
X383310Y268971D01*
X376676Y271719D01*
X371599Y276796D01*
X368851Y283430D01*
X368851Y290610D01*
X371599Y297244D01*
X376676Y302321D01*
X383310Y305069D01*
X390490Y305069D01*
X397124Y302321D01*
X402201Y297244D01*
X404949Y290610D01*
X404949Y283430D01*
X402201Y276796D01*
X397124Y271719D01*
X390490Y268971D01*
X383310Y268971D01*
G37*
%LPD*%
%LPC*%
G36*
X574204Y257351D02*
X574204Y257351D01*
X569592Y259262D01*
X566062Y262792D01*
X564151Y267404D01*
X564151Y291396D01*
X566062Y296008D01*
X569592Y299538D01*
X574204Y301449D01*
X579196Y301449D01*
X583808Y299538D01*
X587338Y296008D01*
X589249Y291396D01*
X589249Y267404D01*
X587338Y262792D01*
X583808Y259262D01*
X579196Y257351D01*
X574204Y257351D01*
G37*
%LPD*%
%LPC*%
G36*
X437204Y257351D02*
X437204Y257351D01*
X432592Y259262D01*
X429062Y262792D01*
X427151Y267404D01*
X427151Y291396D01*
X429062Y296008D01*
X432592Y299538D01*
X437204Y301449D01*
X442196Y301449D01*
X446808Y299538D01*
X450338Y296008D01*
X452249Y291396D01*
X452249Y267404D01*
X450338Y262792D01*
X446808Y259262D01*
X442196Y257351D01*
X437204Y257351D01*
G37*
%LPD*%
%LPC*%
G36*
X452704Y318851D02*
X452704Y318851D01*
X448092Y320762D01*
X444562Y324292D01*
X442651Y328904D01*
X442651Y333896D01*
X444562Y338508D01*
X448092Y342038D01*
X452704Y343949D01*
X476696Y343949D01*
X481308Y342038D01*
X484838Y338508D01*
X486749Y333896D01*
X486749Y328904D01*
X484838Y324292D01*
X481308Y320762D01*
X476696Y318851D01*
X452704Y318851D01*
G37*
%LPD*%
%LPC*%
G36*
X340424Y495553D02*
X340424Y495553D01*
X335850Y497448D01*
X332348Y500950D01*
X330453Y505524D01*
X330453Y510476D01*
X332348Y515050D01*
X335850Y518552D01*
X340424Y520447D01*
X345376Y520447D01*
X349950Y518552D01*
X353452Y515050D01*
X354705Y512025D01*
X354720Y511999D01*
X354729Y511970D01*
X354799Y511861D01*
X354863Y511748D01*
X354884Y511727D01*
X354900Y511702D01*
X354994Y511613D01*
X355084Y511520D01*
X355110Y511504D01*
X355131Y511484D01*
X355245Y511421D01*
X355355Y511354D01*
X355384Y511345D01*
X355410Y511331D01*
X355535Y511298D01*
X355659Y511260D01*
X355689Y511259D01*
X355718Y511251D01*
X355848Y511251D01*
X355977Y511245D01*
X356006Y511251D01*
X356036Y511251D01*
X356161Y511283D01*
X356288Y511309D01*
X356315Y511322D01*
X356344Y511330D01*
X356457Y511392D01*
X356574Y511449D01*
X356597Y511468D01*
X356623Y511483D01*
X356717Y511571D01*
X356816Y511655D01*
X356833Y511680D01*
X356855Y511700D01*
X356924Y511809D01*
X356999Y511915D01*
X357010Y511943D01*
X357026Y511969D01*
X357085Y512118D01*
X357236Y512583D01*
X358089Y514257D01*
X359194Y515778D01*
X360522Y517106D01*
X362043Y518211D01*
X363717Y519064D01*
X365504Y519645D01*
X365761Y519685D01*
X365761Y509270D01*
X365776Y509152D01*
X365783Y509033D01*
X365796Y508995D01*
X365801Y508955D01*
X365844Y508844D01*
X365881Y508731D01*
X365903Y508697D01*
X365918Y508659D01*
X365988Y508563D01*
X366051Y508462D01*
X366081Y508434D01*
X366104Y508402D01*
X366196Y508326D01*
X366283Y508244D01*
X366318Y508225D01*
X366349Y508199D01*
X366457Y508148D01*
X366561Y508091D01*
X366601Y508080D01*
X366637Y508063D01*
X366754Y508041D01*
X366869Y508011D01*
X366930Y508007D01*
X366950Y508003D01*
X366970Y508005D01*
X367030Y508001D01*
X368301Y508001D01*
X368301Y507999D01*
X367030Y507999D01*
X366912Y507984D01*
X366793Y507977D01*
X366755Y507964D01*
X366714Y507959D01*
X366604Y507915D01*
X366491Y507879D01*
X366456Y507857D01*
X366419Y507842D01*
X366323Y507772D01*
X366222Y507709D01*
X366194Y507679D01*
X366161Y507655D01*
X366086Y507564D01*
X366004Y507477D01*
X365984Y507442D01*
X365959Y507410D01*
X365908Y507303D01*
X365850Y507198D01*
X365840Y507159D01*
X365823Y507123D01*
X365801Y507006D01*
X365771Y506891D01*
X365767Y506830D01*
X365763Y506810D01*
X365765Y506790D01*
X365761Y506730D01*
X365761Y496315D01*
X365504Y496355D01*
X363717Y496936D01*
X362043Y497789D01*
X360522Y498894D01*
X359194Y500222D01*
X358089Y501743D01*
X357236Y503417D01*
X357085Y503882D01*
X357072Y503909D01*
X357065Y503938D01*
X357005Y504052D01*
X356950Y504170D01*
X356931Y504193D01*
X356917Y504219D01*
X356830Y504315D01*
X356747Y504415D01*
X356723Y504432D01*
X356703Y504454D01*
X356594Y504526D01*
X356490Y504602D01*
X356462Y504613D01*
X356437Y504629D01*
X356314Y504671D01*
X356194Y504719D01*
X356164Y504723D01*
X356136Y504732D01*
X356007Y504743D01*
X355879Y504759D01*
X355849Y504755D01*
X355819Y504758D01*
X355691Y504735D01*
X355563Y504719D01*
X355535Y504708D01*
X355506Y504703D01*
X355388Y504650D01*
X355267Y504602D01*
X355243Y504585D01*
X355216Y504573D01*
X355115Y504492D01*
X355010Y504416D01*
X354991Y504393D01*
X354967Y504374D01*
X354889Y504270D01*
X354807Y504171D01*
X354794Y504144D01*
X354776Y504120D01*
X354705Y503975D01*
X353452Y500950D01*
X349950Y497448D01*
X345376Y495553D01*
X340424Y495553D01*
G37*
%LPD*%
%LPC*%
G36*
X82665Y52069D02*
X82665Y52069D01*
X80879Y53855D01*
X80879Y75685D01*
X82665Y77471D01*
X104495Y77471D01*
X106281Y75685D01*
X106281Y53855D01*
X104495Y52069D01*
X82665Y52069D01*
G37*
%LPD*%
%LPC*%
G36*
X29941Y467153D02*
X29941Y467153D01*
X26597Y468538D01*
X24038Y471097D01*
X22653Y474441D01*
X22653Y478059D01*
X24038Y481403D01*
X26597Y483962D01*
X29941Y485347D01*
X33559Y485347D01*
X36903Y483962D01*
X39462Y481403D01*
X40847Y478059D01*
X40847Y474441D01*
X39462Y471097D01*
X36903Y468538D01*
X33559Y467153D01*
X29941Y467153D01*
G37*
%LPD*%
%LPC*%
G36*
X29941Y416353D02*
X29941Y416353D01*
X26597Y417738D01*
X24038Y420297D01*
X22653Y423641D01*
X22653Y427259D01*
X24038Y430603D01*
X26597Y433162D01*
X29941Y434547D01*
X33559Y434547D01*
X36903Y433162D01*
X39462Y430603D01*
X40847Y427259D01*
X40847Y423641D01*
X39462Y420297D01*
X36903Y417738D01*
X33559Y416353D01*
X29941Y416353D01*
G37*
%LPD*%
%LPC*%
G36*
X45829Y67019D02*
X45829Y67019D01*
X45829Y76758D01*
X46435Y76663D01*
X48260Y76069D01*
X49970Y75198D01*
X51523Y74070D01*
X52880Y72713D01*
X54008Y71160D01*
X54879Y69450D01*
X55473Y67625D01*
X55568Y67019D01*
X45829Y67019D01*
G37*
%LPD*%
%LPC*%
G36*
X45829Y62521D02*
X45829Y62521D01*
X55568Y62521D01*
X55473Y61915D01*
X54879Y60090D01*
X54008Y58380D01*
X52880Y56827D01*
X51523Y55470D01*
X49970Y54342D01*
X48260Y53471D01*
X46435Y52877D01*
X45829Y52782D01*
X45829Y62521D01*
G37*
%LPD*%
%LPC*%
G36*
X31592Y67019D02*
X31592Y67019D01*
X31687Y67625D01*
X32281Y69450D01*
X33152Y71160D01*
X34280Y72713D01*
X35637Y74070D01*
X37190Y75198D01*
X38900Y76069D01*
X40725Y76663D01*
X41331Y76758D01*
X41331Y67019D01*
X31592Y67019D01*
G37*
%LPD*%
%LPC*%
G36*
X40725Y52877D02*
X40725Y52877D01*
X38900Y53471D01*
X37190Y54342D01*
X35637Y55470D01*
X34280Y56827D01*
X33152Y58380D01*
X32281Y60090D01*
X31687Y61915D01*
X31592Y62521D01*
X41331Y62521D01*
X41331Y52782D01*
X40725Y52877D01*
G37*
%LPD*%
%LPC*%
G36*
X370399Y359519D02*
X370399Y359519D01*
X370399Y368712D01*
X370696Y368665D01*
X372483Y368084D01*
X374157Y367231D01*
X375678Y366126D01*
X377006Y364798D01*
X378111Y363277D01*
X378964Y361603D01*
X379545Y359816D01*
X379592Y359519D01*
X370399Y359519D01*
G37*
%LPD*%
%LPC*%
G36*
X370399Y354521D02*
X370399Y354521D01*
X379592Y354521D01*
X379545Y354224D01*
X378964Y352437D01*
X378111Y350763D01*
X377006Y349242D01*
X375678Y347914D01*
X374157Y346809D01*
X372483Y345956D01*
X370696Y345375D01*
X370399Y345328D01*
X370399Y354521D01*
G37*
%LPD*%
%LPC*%
G36*
X370839Y510539D02*
X370839Y510539D01*
X370839Y519685D01*
X371096Y519645D01*
X372883Y519064D01*
X374557Y518211D01*
X376078Y517106D01*
X377406Y515778D01*
X378511Y514257D01*
X379364Y512583D01*
X379793Y511263D01*
X379827Y511191D01*
X379851Y511115D01*
X379894Y511048D01*
X379928Y510975D01*
X379979Y510914D01*
X380022Y510847D01*
X380080Y510792D01*
X380131Y510730D01*
X380195Y510683D01*
X380253Y510629D01*
X380324Y510590D01*
X380388Y510543D01*
X380398Y510539D01*
X370839Y510539D01*
G37*
%LPD*%
%LPC*%
G36*
X390904Y496355D02*
X390904Y496355D01*
X389117Y496936D01*
X387443Y497789D01*
X385922Y498894D01*
X384594Y500222D01*
X383489Y501743D01*
X382636Y503417D01*
X382207Y504737D01*
X382173Y504809D01*
X382149Y504885D01*
X382106Y504952D01*
X382072Y505025D01*
X382021Y505086D01*
X381978Y505153D01*
X381920Y505208D01*
X381869Y505270D01*
X381805Y505317D01*
X381747Y505371D01*
X381677Y505410D01*
X381612Y505457D01*
X381602Y505461D01*
X391161Y505461D01*
X391161Y496315D01*
X390904Y496355D01*
G37*
%LPD*%
%LPC*%
G36*
X370839Y505461D02*
X370839Y505461D01*
X380398Y505461D01*
X380389Y505457D01*
X380325Y505411D01*
X380255Y505372D01*
X380197Y505318D01*
X380132Y505271D01*
X380081Y505209D01*
X380023Y505155D01*
X379980Y505087D01*
X379929Y505026D01*
X379895Y504954D01*
X379852Y504887D01*
X379794Y504740D01*
X379793Y504738D01*
X379793Y504737D01*
X379364Y503417D01*
X378511Y501743D01*
X377406Y500222D01*
X376078Y498894D01*
X374557Y497789D01*
X372883Y496936D01*
X371096Y496355D01*
X370839Y496315D01*
X370839Y505461D01*
G37*
%LPD*%
%LPC*%
G36*
X381602Y510539D02*
X381602Y510539D01*
X381611Y510543D01*
X381675Y510589D01*
X381745Y510628D01*
X381803Y510682D01*
X381868Y510729D01*
X381919Y510791D01*
X381977Y510845D01*
X382020Y510913D01*
X382071Y510974D01*
X382105Y511046D01*
X382148Y511113D01*
X382206Y511260D01*
X382207Y511262D01*
X382207Y511263D01*
X382636Y512583D01*
X383489Y514257D01*
X384594Y515778D01*
X385922Y517106D01*
X387443Y518211D01*
X389117Y519064D01*
X390904Y519645D01*
X391161Y519685D01*
X391161Y510539D01*
X381602Y510539D01*
G37*
%LPD*%
%LPC*%
G36*
X27939Y332739D02*
X27939Y332739D01*
X27939Y341885D01*
X28196Y341845D01*
X29983Y341264D01*
X31657Y340411D01*
X33178Y339306D01*
X34506Y337978D01*
X35611Y336457D01*
X36464Y334783D01*
X37045Y332996D01*
X37085Y332739D01*
X27939Y332739D01*
G37*
%LPD*%
%LPC*%
G36*
X472439Y104139D02*
X472439Y104139D01*
X472439Y113285D01*
X472696Y113245D01*
X474483Y112664D01*
X476157Y111811D01*
X477678Y110706D01*
X479006Y109378D01*
X480111Y107857D01*
X480964Y106183D01*
X481545Y104396D01*
X481585Y104139D01*
X472439Y104139D01*
G37*
%LPD*%
%LPC*%
G36*
X13715Y332739D02*
X13715Y332739D01*
X13755Y332996D01*
X14336Y334783D01*
X15189Y336457D01*
X16294Y337978D01*
X17622Y339306D01*
X19143Y340411D01*
X20817Y341264D01*
X22604Y341845D01*
X22861Y341885D01*
X22861Y332739D01*
X13715Y332739D01*
G37*
%LPD*%
%LPC*%
G36*
X472439Y99061D02*
X472439Y99061D01*
X481585Y99061D01*
X481545Y98804D01*
X480964Y97017D01*
X480111Y95343D01*
X479006Y93822D01*
X477678Y92494D01*
X476157Y91389D01*
X474483Y90536D01*
X472696Y89955D01*
X472439Y89915D01*
X472439Y99061D01*
G37*
%LPD*%
%LPC*%
G36*
X33249Y452349D02*
X33249Y452349D01*
X33249Y459309D01*
X34255Y459109D01*
X35818Y458461D01*
X37225Y457521D01*
X38421Y456325D01*
X39361Y454918D01*
X40009Y453355D01*
X40209Y452349D01*
X33249Y452349D01*
G37*
%LPD*%
%LPC*%
G36*
X33249Y449351D02*
X33249Y449351D01*
X40209Y449351D01*
X40009Y448345D01*
X39361Y446782D01*
X38421Y445375D01*
X37225Y444179D01*
X35818Y443239D01*
X34255Y442591D01*
X33249Y442391D01*
X33249Y449351D01*
G37*
%LPD*%
%LPC*%
G36*
X23291Y452349D02*
X23291Y452349D01*
X23491Y453355D01*
X24139Y454918D01*
X25079Y456325D01*
X26275Y457521D01*
X27682Y458461D01*
X29245Y459109D01*
X30251Y459309D01*
X30251Y452349D01*
X23291Y452349D01*
G37*
%LPD*%
%LPC*%
G36*
X29245Y442591D02*
X29245Y442591D01*
X27682Y443239D01*
X26275Y444179D01*
X25079Y445375D01*
X24139Y446782D01*
X23491Y448345D01*
X23291Y449351D01*
X30251Y449351D01*
X30251Y442391D01*
X29245Y442591D01*
G37*
%LPD*%
D10*
X469900Y508000D03*
X444500Y508000D03*
X419100Y508000D03*
X393700Y508000D03*
X368300Y508000D03*
X342900Y508000D03*
X292100Y508000D03*
X266700Y508000D03*
X241300Y508000D03*
X215900Y508000D03*
X190500Y508000D03*
X165100Y508000D03*
X165100Y25400D03*
X190500Y25400D03*
X215900Y25400D03*
X241300Y25400D03*
X266700Y25400D03*
X292100Y25400D03*
X317500Y25400D03*
X342900Y25400D03*
X381000Y25400D03*
X406400Y25400D03*
X431800Y25400D03*
X457200Y25400D03*
X482600Y25400D03*
X508000Y25400D03*
X533400Y25400D03*
X558800Y25400D03*
X584200Y25400D03*
X609600Y25400D03*
X495300Y508000D03*
X520700Y508000D03*
D11*
X43580Y64770D03*
D12*
X93580Y64770D03*
D10*
X367900Y357020D03*
X342900Y357020D03*
X317900Y357020D03*
D13*
X386900Y287020D03*
X298900Y287020D03*
D14*
X612140Y510540D03*
D10*
X612140Y485140D03*
X612140Y459740D03*
X612140Y434340D03*
D15*
X31750Y450850D03*
X31750Y476250D03*
X31750Y425450D03*
D10*
X241300Y101600D03*
X266700Y101600D03*
X292100Y101600D03*
X317500Y101600D03*
X342900Y101600D03*
X368300Y101600D03*
X393700Y101600D03*
X419100Y101600D03*
X444500Y101600D03*
X469900Y101600D03*
X25400Y228600D03*
X25400Y254000D03*
X25400Y279400D03*
X25400Y304800D03*
X25400Y330200D03*
D16*
X576700Y288900D02*
X576700Y269900D01*
X439700Y269900D02*
X439700Y288900D01*
X455200Y331400D02*
X474200Y331400D01*
D17*
X584200Y450850D03*
D18*
X165100Y476250D02*
X165100Y508000D01*
X165100Y476250D02*
X165107Y475636D01*
X165130Y475023D01*
X165167Y474410D01*
X165219Y473799D01*
X165285Y473188D01*
X165367Y472580D01*
X165463Y471974D01*
X165573Y471370D01*
X165698Y470769D01*
X165838Y470171D01*
X165992Y469577D01*
X166161Y468987D01*
X166343Y468401D01*
X166540Y467820D01*
X166751Y467243D01*
X166975Y466672D01*
X167213Y466106D01*
X167465Y465546D01*
X167731Y464993D01*
X168009Y464446D01*
X168301Y463906D01*
X168606Y463373D01*
X168924Y462848D01*
X169254Y462330D01*
X169596Y461821D01*
X169951Y461320D01*
X170318Y460828D01*
X170696Y460345D01*
X171086Y459871D01*
X171488Y459407D01*
X171900Y458952D01*
X172324Y458508D01*
X172758Y458074D01*
X173202Y457650D01*
X173657Y457238D01*
X174121Y456836D01*
X174595Y456446D01*
X175078Y456068D01*
X175570Y455701D01*
X176071Y455346D01*
X176580Y455004D01*
X177098Y454674D01*
X177623Y454356D01*
X178156Y454051D01*
X178696Y453759D01*
X179243Y453481D01*
X179796Y453215D01*
X180356Y452963D01*
X180922Y452725D01*
X181493Y452501D01*
X182070Y452290D01*
X182651Y452093D01*
X183237Y451911D01*
X183827Y451742D01*
X184421Y451588D01*
X185019Y451448D01*
X185620Y451323D01*
X186224Y451213D01*
X186830Y451117D01*
X187438Y451035D01*
X188049Y450969D01*
X188660Y450917D01*
X189273Y450880D01*
X189886Y450857D01*
X190500Y450850D01*
X541929Y450850D02*
X542552Y450858D01*
X543175Y450881D01*
X543798Y450919D01*
X544419Y450972D01*
X545038Y451041D01*
X545656Y451125D01*
X546271Y451224D01*
X546884Y451338D01*
X547494Y451467D01*
X548101Y451611D01*
X548704Y451770D01*
X549302Y451944D01*
X549897Y452132D01*
X550486Y452335D01*
X551070Y452552D01*
X551649Y452783D01*
X552222Y453029D01*
X552789Y453289D01*
X553349Y453562D01*
X553902Y453849D01*
X554449Y454150D01*
X554987Y454464D01*
X555518Y454791D01*
X556040Y455131D01*
X556555Y455483D01*
X557060Y455849D01*
X557556Y456226D01*
X558043Y456616D01*
X558520Y457017D01*
X558987Y457430D01*
X559443Y457854D01*
X559890Y458289D01*
X579300Y477701D02*
X579747Y478136D01*
X580203Y478560D01*
X580670Y478973D01*
X581147Y479374D01*
X581634Y479764D01*
X582130Y480141D01*
X582635Y480507D01*
X583150Y480859D01*
X583672Y481199D01*
X584203Y481526D01*
X584741Y481840D01*
X585288Y482141D01*
X585841Y482428D01*
X586401Y482701D01*
X586968Y482961D01*
X587541Y483207D01*
X588120Y483438D01*
X588704Y483655D01*
X589293Y483858D01*
X589888Y484046D01*
X590486Y484220D01*
X591089Y484379D01*
X591696Y484523D01*
X592306Y484652D01*
X592919Y484766D01*
X593534Y484865D01*
X594152Y484949D01*
X594771Y485018D01*
X595392Y485071D01*
X596015Y485109D01*
X596638Y485132D01*
X597261Y485140D01*
X612140Y485140D01*
X541929Y450850D02*
X190500Y450850D01*
X559890Y458290D02*
X579301Y477701D01*
X190500Y501650D02*
X190500Y508000D01*
X190500Y501650D02*
X190507Y501036D01*
X190530Y500423D01*
X190567Y499810D01*
X190619Y499199D01*
X190685Y498588D01*
X190767Y497980D01*
X190863Y497374D01*
X190973Y496770D01*
X191098Y496169D01*
X191238Y495571D01*
X191392Y494977D01*
X191561Y494387D01*
X191743Y493801D01*
X191940Y493220D01*
X192151Y492643D01*
X192375Y492072D01*
X192613Y491506D01*
X192865Y490946D01*
X193131Y490393D01*
X193409Y489846D01*
X193701Y489306D01*
X194006Y488773D01*
X194324Y488248D01*
X194654Y487730D01*
X194996Y487221D01*
X195351Y486720D01*
X195718Y486228D01*
X196096Y485745D01*
X196486Y485271D01*
X196888Y484807D01*
X197300Y484352D01*
X197724Y483908D01*
X198158Y483474D01*
X198602Y483050D01*
X199057Y482638D01*
X199521Y482236D01*
X199995Y481846D01*
X200478Y481468D01*
X200970Y481101D01*
X201471Y480746D01*
X201980Y480404D01*
X202498Y480074D01*
X203023Y479756D01*
X203556Y479451D01*
X204096Y479159D01*
X204643Y478881D01*
X205196Y478615D01*
X205756Y478363D01*
X206322Y478125D01*
X206893Y477901D01*
X207470Y477690D01*
X208051Y477493D01*
X208637Y477311D01*
X209227Y477142D01*
X209821Y476988D01*
X210419Y476848D01*
X211020Y476723D01*
X211624Y476613D01*
X212230Y476517D01*
X212838Y476435D01*
X213449Y476369D01*
X214060Y476317D01*
X214673Y476280D01*
X215286Y476257D01*
X215900Y476250D01*
X522879Y476250D02*
X523483Y476257D01*
X524088Y476279D01*
X524691Y476315D01*
X525293Y476365D01*
X525894Y476430D01*
X526494Y476509D01*
X527091Y476602D01*
X527686Y476709D01*
X528278Y476830D01*
X528867Y476966D01*
X529453Y477115D01*
X530035Y477279D01*
X530613Y477456D01*
X531187Y477647D01*
X531755Y477851D01*
X532319Y478069D01*
X532878Y478301D01*
X533431Y478545D01*
X533977Y478803D01*
X534518Y479074D01*
X535052Y479357D01*
X535579Y479653D01*
X536099Y479961D01*
X536611Y480282D01*
X537116Y480615D01*
X537612Y480960D01*
X538101Y481316D01*
X538580Y481684D01*
X539051Y482064D01*
X539512Y482454D01*
X539965Y482855D01*
X540407Y483267D01*
X540840Y483689D01*
X560250Y503101D02*
X560697Y503536D01*
X561153Y503960D01*
X561620Y504373D01*
X562097Y504774D01*
X562584Y505164D01*
X563080Y505541D01*
X563585Y505907D01*
X564100Y506259D01*
X564622Y506599D01*
X565153Y506926D01*
X565691Y507240D01*
X566238Y507541D01*
X566791Y507828D01*
X567351Y508101D01*
X567918Y508361D01*
X568491Y508607D01*
X569070Y508838D01*
X569654Y509055D01*
X570243Y509258D01*
X570838Y509446D01*
X571436Y509620D01*
X572039Y509779D01*
X572646Y509923D01*
X573256Y510052D01*
X573869Y510166D01*
X574484Y510265D01*
X575102Y510349D01*
X575721Y510418D01*
X576342Y510471D01*
X576965Y510509D01*
X577588Y510532D01*
X578211Y510540D01*
X612140Y510540D01*
X522879Y476250D02*
X215900Y476250D01*
X540840Y483690D02*
X560251Y503101D01*
D17*
X184150Y304800D03*
D18*
X482600Y46629D02*
X482600Y25400D01*
X482600Y46629D02*
X482608Y47252D01*
X482631Y47875D01*
X482669Y48498D01*
X482722Y49119D01*
X482791Y49738D01*
X482875Y50356D01*
X482974Y50971D01*
X483088Y51584D01*
X483217Y52194D01*
X483361Y52801D01*
X483520Y53404D01*
X483694Y54002D01*
X483882Y54597D01*
X484085Y55186D01*
X484302Y55770D01*
X484533Y56349D01*
X484779Y56922D01*
X485039Y57489D01*
X485312Y58049D01*
X485599Y58602D01*
X485900Y59149D01*
X486214Y59687D01*
X486541Y60218D01*
X486881Y60740D01*
X487233Y61255D01*
X487599Y61760D01*
X487976Y62256D01*
X488366Y62743D01*
X488767Y63220D01*
X489180Y63687D01*
X489604Y64143D01*
X490039Y64590D01*
X490040Y64590D02*
X501650Y76200D01*
X502011Y76569D01*
X502362Y76947D01*
X502705Y77333D01*
X503038Y77727D01*
X503362Y78128D01*
X503676Y78538D01*
X503980Y78954D01*
X504274Y79378D01*
X504558Y79809D01*
X504832Y80246D01*
X505095Y80690D01*
X505348Y81140D01*
X505590Y81596D01*
X505821Y82057D01*
X506041Y82524D01*
X506250Y82996D01*
X506447Y83472D01*
X506633Y83954D01*
X506808Y84439D01*
X506971Y84929D01*
X507122Y85422D01*
X507261Y85919D01*
X507389Y86419D01*
X507505Y86922D01*
X507608Y87427D01*
X507700Y87935D01*
X507779Y88445D01*
X507847Y88956D01*
X507902Y89469D01*
X507945Y89983D01*
X507975Y90498D01*
X507994Y91014D01*
X508000Y91530D01*
X508000Y139700D02*
X507993Y140314D01*
X507970Y140927D01*
X507933Y141540D01*
X507881Y142151D01*
X507815Y142762D01*
X507733Y143370D01*
X507637Y143976D01*
X507527Y144580D01*
X507402Y145181D01*
X507262Y145779D01*
X507108Y146373D01*
X506939Y146963D01*
X506757Y147549D01*
X506560Y148130D01*
X506349Y148707D01*
X506125Y149278D01*
X505887Y149844D01*
X505635Y150404D01*
X505369Y150957D01*
X505091Y151504D01*
X504799Y152044D01*
X504494Y152577D01*
X504176Y153102D01*
X503846Y153620D01*
X503504Y154129D01*
X503149Y154630D01*
X502782Y155122D01*
X502404Y155605D01*
X502014Y156079D01*
X501612Y156543D01*
X501200Y156998D01*
X500776Y157442D01*
X500342Y157876D01*
X499898Y158300D01*
X499443Y158712D01*
X498979Y159114D01*
X498505Y159504D01*
X498022Y159882D01*
X497530Y160249D01*
X497029Y160604D01*
X496520Y160946D01*
X496002Y161276D01*
X495477Y161594D01*
X494944Y161899D01*
X494404Y162191D01*
X493857Y162469D01*
X493304Y162735D01*
X492744Y162987D01*
X492178Y163225D01*
X491607Y163449D01*
X491030Y163660D01*
X490449Y163857D01*
X489863Y164039D01*
X489273Y164208D01*
X488679Y164362D01*
X488081Y164502D01*
X487480Y164627D01*
X486876Y164737D01*
X486270Y164833D01*
X485662Y164915D01*
X485051Y164981D01*
X484440Y165033D01*
X483827Y165070D01*
X483214Y165093D01*
X482600Y165100D01*
X508000Y139700D02*
X508000Y91530D01*
X260350Y165100D02*
X259736Y165107D01*
X259123Y165130D01*
X258510Y165167D01*
X257899Y165219D01*
X257288Y165285D01*
X256680Y165367D01*
X256074Y165463D01*
X255470Y165573D01*
X254869Y165698D01*
X254271Y165838D01*
X253677Y165992D01*
X253087Y166161D01*
X252501Y166343D01*
X251920Y166540D01*
X251343Y166751D01*
X250772Y166975D01*
X250206Y167213D01*
X249646Y167465D01*
X249093Y167731D01*
X248546Y168009D01*
X248006Y168301D01*
X247473Y168606D01*
X246948Y168924D01*
X246430Y169254D01*
X245921Y169596D01*
X245420Y169951D01*
X244928Y170318D01*
X244445Y170696D01*
X243971Y171086D01*
X243507Y171488D01*
X243052Y171900D01*
X242608Y172324D01*
X242174Y172758D01*
X241750Y173202D01*
X241338Y173657D01*
X240936Y174121D01*
X240546Y174595D01*
X240168Y175078D01*
X239801Y175570D01*
X239446Y176071D01*
X239104Y176580D01*
X238774Y177098D01*
X238456Y177623D01*
X238151Y178156D01*
X237859Y178696D01*
X237581Y179243D01*
X237315Y179796D01*
X237063Y180356D01*
X236825Y180922D01*
X236601Y181493D01*
X236390Y182070D01*
X236193Y182651D01*
X236011Y183237D01*
X235842Y183827D01*
X235688Y184421D01*
X235548Y185019D01*
X235423Y185620D01*
X235313Y186224D01*
X235217Y186830D01*
X235135Y187438D01*
X235069Y188049D01*
X235017Y188660D01*
X234980Y189273D01*
X234957Y189886D01*
X234950Y190500D01*
X234950Y279400D02*
X234943Y280014D01*
X234920Y280627D01*
X234883Y281240D01*
X234831Y281851D01*
X234765Y282462D01*
X234683Y283070D01*
X234587Y283676D01*
X234477Y284280D01*
X234352Y284881D01*
X234212Y285479D01*
X234058Y286073D01*
X233889Y286663D01*
X233707Y287249D01*
X233510Y287830D01*
X233299Y288407D01*
X233075Y288978D01*
X232837Y289544D01*
X232585Y290104D01*
X232319Y290657D01*
X232041Y291204D01*
X231749Y291744D01*
X231444Y292277D01*
X231126Y292802D01*
X230796Y293320D01*
X230454Y293829D01*
X230099Y294330D01*
X229732Y294822D01*
X229354Y295305D01*
X228964Y295779D01*
X228562Y296243D01*
X228150Y296698D01*
X227726Y297142D01*
X227292Y297576D01*
X226848Y298000D01*
X226393Y298412D01*
X225929Y298814D01*
X225455Y299204D01*
X224972Y299582D01*
X224480Y299949D01*
X223979Y300304D01*
X223470Y300646D01*
X222952Y300976D01*
X222427Y301294D01*
X221894Y301599D01*
X221354Y301891D01*
X220807Y302169D01*
X220254Y302435D01*
X219694Y302687D01*
X219128Y302925D01*
X218557Y303149D01*
X217980Y303360D01*
X217399Y303557D01*
X216813Y303739D01*
X216223Y303908D01*
X215629Y304062D01*
X215031Y304202D01*
X214430Y304327D01*
X213826Y304437D01*
X213220Y304533D01*
X212612Y304615D01*
X212001Y304681D01*
X211390Y304733D01*
X210777Y304770D01*
X210164Y304793D01*
X209550Y304800D01*
X184150Y304800D01*
X260350Y165100D02*
X482600Y165100D01*
X234950Y190500D02*
X234950Y279400D01*
D17*
X215900Y438150D03*
X266700Y400050D03*
D18*
X241300Y400050D01*
X240686Y400057D01*
X240073Y400080D01*
X239460Y400117D01*
X238849Y400169D01*
X238238Y400235D01*
X237630Y400317D01*
X237024Y400413D01*
X236420Y400523D01*
X235819Y400648D01*
X235221Y400788D01*
X234627Y400942D01*
X234037Y401111D01*
X233451Y401293D01*
X232870Y401490D01*
X232293Y401701D01*
X231722Y401925D01*
X231156Y402163D01*
X230596Y402415D01*
X230043Y402681D01*
X229496Y402959D01*
X228956Y403251D01*
X228423Y403556D01*
X227898Y403874D01*
X227380Y404204D01*
X226871Y404546D01*
X226370Y404901D01*
X225878Y405268D01*
X225395Y405646D01*
X224921Y406036D01*
X224457Y406438D01*
X224002Y406850D01*
X223558Y407274D01*
X223124Y407708D01*
X222700Y408152D01*
X222288Y408607D01*
X221886Y409071D01*
X221496Y409545D01*
X221118Y410028D01*
X220751Y410520D01*
X220396Y411021D01*
X220054Y411530D01*
X219724Y412048D01*
X219406Y412573D01*
X219101Y413106D01*
X218809Y413646D01*
X218531Y414193D01*
X218265Y414746D01*
X218013Y415306D01*
X217775Y415872D01*
X217551Y416443D01*
X217340Y417020D01*
X217143Y417601D01*
X216961Y418187D01*
X216792Y418777D01*
X216638Y419371D01*
X216498Y419969D01*
X216373Y420570D01*
X216263Y421174D01*
X216167Y421780D01*
X216085Y422388D01*
X216019Y422999D01*
X215967Y423610D01*
X215930Y424223D01*
X215907Y424836D01*
X215900Y425450D01*
X215900Y438150D01*
X419100Y101600D02*
X419100Y99421D01*
X419108Y98798D01*
X419131Y98175D01*
X419169Y97552D01*
X419222Y96931D01*
X419291Y96312D01*
X419375Y95694D01*
X419474Y95079D01*
X419588Y94466D01*
X419717Y93856D01*
X419861Y93249D01*
X420020Y92646D01*
X420194Y92048D01*
X420382Y91453D01*
X420585Y90864D01*
X420802Y90280D01*
X421033Y89701D01*
X421279Y89128D01*
X421539Y88561D01*
X421812Y88001D01*
X422099Y87448D01*
X422400Y86901D01*
X422714Y86363D01*
X423041Y85832D01*
X423381Y85310D01*
X423733Y84795D01*
X424099Y84290D01*
X424476Y83794D01*
X424866Y83307D01*
X425267Y82830D01*
X425680Y82363D01*
X426104Y81907D01*
X426539Y81460D01*
X449761Y58240D02*
X450196Y57793D01*
X450620Y57337D01*
X451033Y56870D01*
X451434Y56393D01*
X451824Y55906D01*
X452201Y55410D01*
X452567Y54905D01*
X452919Y54390D01*
X453259Y53868D01*
X453586Y53337D01*
X453900Y52799D01*
X454201Y52252D01*
X454488Y51699D01*
X454761Y51139D01*
X455021Y50572D01*
X455267Y49999D01*
X455498Y49420D01*
X455715Y48836D01*
X455918Y48247D01*
X456106Y47652D01*
X456280Y47054D01*
X456439Y46451D01*
X456583Y45844D01*
X456712Y45234D01*
X456826Y44621D01*
X456925Y44006D01*
X457009Y43388D01*
X457078Y42769D01*
X457131Y42148D01*
X457169Y41525D01*
X457192Y40902D01*
X457200Y40279D01*
X457200Y25400D01*
X449761Y58240D02*
X426540Y81461D01*
X393700Y99421D02*
X393700Y101600D01*
X393700Y99421D02*
X393708Y98798D01*
X393731Y98175D01*
X393769Y97552D01*
X393822Y96931D01*
X393891Y96312D01*
X393975Y95694D01*
X394074Y95079D01*
X394188Y94466D01*
X394317Y93856D01*
X394461Y93249D01*
X394620Y92646D01*
X394794Y92048D01*
X394982Y91453D01*
X395185Y90864D01*
X395402Y90280D01*
X395633Y89701D01*
X395879Y89128D01*
X396139Y88561D01*
X396412Y88001D01*
X396699Y87448D01*
X397000Y86901D01*
X397314Y86363D01*
X397641Y85832D01*
X397981Y85310D01*
X398333Y84795D01*
X398699Y84290D01*
X399076Y83794D01*
X399466Y83307D01*
X399867Y82830D01*
X400280Y82363D01*
X400704Y81907D01*
X401139Y81460D01*
X424361Y58240D02*
X424796Y57793D01*
X425220Y57337D01*
X425633Y56870D01*
X426034Y56393D01*
X426424Y55906D01*
X426801Y55410D01*
X427167Y54905D01*
X427519Y54390D01*
X427859Y53868D01*
X428186Y53337D01*
X428500Y52799D01*
X428801Y52252D01*
X429088Y51699D01*
X429361Y51139D01*
X429621Y50572D01*
X429867Y49999D01*
X430098Y49420D01*
X430315Y48836D01*
X430518Y48247D01*
X430706Y47652D01*
X430880Y47054D01*
X431039Y46451D01*
X431183Y45844D01*
X431312Y45234D01*
X431426Y44621D01*
X431525Y44006D01*
X431609Y43388D01*
X431678Y42769D01*
X431731Y42148D01*
X431769Y41525D01*
X431792Y40902D01*
X431800Y40279D01*
X431800Y25400D01*
X424361Y58240D02*
X401140Y81461D01*
X368300Y78830D02*
X368300Y101600D01*
X368300Y78830D02*
X368306Y78314D01*
X368325Y77798D01*
X368355Y77283D01*
X368398Y76769D01*
X368453Y76256D01*
X368521Y75745D01*
X368600Y75235D01*
X368692Y74727D01*
X368795Y74222D01*
X368911Y73719D01*
X369039Y73219D01*
X369178Y72722D01*
X369329Y72229D01*
X369492Y71739D01*
X369667Y71254D01*
X369853Y70772D01*
X370050Y70296D01*
X370259Y69824D01*
X370479Y69357D01*
X370710Y68896D01*
X370952Y68440D01*
X371205Y67990D01*
X371468Y67546D01*
X371742Y67109D01*
X372026Y66678D01*
X372320Y66254D01*
X372624Y65838D01*
X372938Y65428D01*
X373262Y65027D01*
X373595Y64633D01*
X373938Y64247D01*
X374289Y63869D01*
X374650Y63500D01*
X375011Y63131D01*
X375362Y62753D01*
X375705Y62367D01*
X376038Y61973D01*
X376362Y61572D01*
X376676Y61162D01*
X376980Y60746D01*
X377274Y60322D01*
X377558Y59891D01*
X377832Y59454D01*
X378095Y59010D01*
X378348Y58560D01*
X378590Y58104D01*
X378821Y57643D01*
X379041Y57176D01*
X379250Y56704D01*
X379447Y56228D01*
X379633Y55746D01*
X379808Y55261D01*
X379971Y54771D01*
X380122Y54278D01*
X380261Y53781D01*
X380389Y53281D01*
X380505Y52778D01*
X380608Y52273D01*
X380700Y51765D01*
X380779Y51255D01*
X380847Y50744D01*
X380902Y50231D01*
X380945Y49717D01*
X380975Y49202D01*
X380994Y48686D01*
X381000Y48170D01*
X381000Y25400D01*
X342900Y25400D02*
X342900Y101600D01*
X317500Y101600D02*
X317500Y25400D01*
X292100Y25400D02*
X292100Y101600D01*
X266700Y101600D02*
X266700Y25400D01*
X241300Y25400D02*
X241300Y101600D01*
D17*
X292100Y419100D03*
D18*
X292100Y397871D01*
X292093Y397267D01*
X292071Y396662D01*
X292035Y396059D01*
X291985Y395457D01*
X291920Y394856D01*
X291841Y394256D01*
X291748Y393659D01*
X291641Y393064D01*
X291520Y392472D01*
X291384Y391883D01*
X291235Y391297D01*
X291071Y390715D01*
X290894Y390137D01*
X290703Y389563D01*
X290499Y388995D01*
X290281Y388431D01*
X290049Y387872D01*
X289805Y387319D01*
X289547Y386773D01*
X289276Y386232D01*
X288993Y385698D01*
X288697Y385171D01*
X288389Y384651D01*
X288068Y384139D01*
X287735Y383634D01*
X287390Y383138D01*
X287034Y382649D01*
X286666Y382170D01*
X286286Y381699D01*
X285896Y381238D01*
X285495Y380785D01*
X285083Y380343D01*
X284661Y379910D01*
X248740Y343989D02*
X248307Y343567D01*
X247865Y343155D01*
X247412Y342754D01*
X246951Y342364D01*
X246480Y341984D01*
X246001Y341616D01*
X245512Y341260D01*
X245016Y340915D01*
X244511Y340582D01*
X243999Y340261D01*
X243479Y339953D01*
X242952Y339657D01*
X242418Y339374D01*
X241877Y339103D01*
X241331Y338845D01*
X240778Y338601D01*
X240219Y338369D01*
X239655Y338151D01*
X239087Y337947D01*
X238513Y337756D01*
X237935Y337579D01*
X237353Y337415D01*
X236767Y337266D01*
X236178Y337130D01*
X235586Y337009D01*
X234991Y336902D01*
X234394Y336809D01*
X233794Y336730D01*
X233193Y336665D01*
X232591Y336615D01*
X231988Y336579D01*
X231383Y336557D01*
X230779Y336550D01*
X248740Y343990D02*
X284661Y379911D01*
X230779Y336550D02*
X175621Y336550D01*
X174998Y336542D01*
X174375Y336519D01*
X173752Y336481D01*
X173131Y336428D01*
X172512Y336359D01*
X171894Y336275D01*
X171279Y336176D01*
X170666Y336062D01*
X170056Y335933D01*
X169449Y335789D01*
X168846Y335630D01*
X168248Y335456D01*
X167653Y335268D01*
X167064Y335065D01*
X166480Y334848D01*
X165901Y334617D01*
X165328Y334371D01*
X164761Y334111D01*
X164201Y333838D01*
X163648Y333551D01*
X163101Y333250D01*
X162563Y332936D01*
X162032Y332609D01*
X161510Y332269D01*
X160995Y331917D01*
X160490Y331551D01*
X159994Y331174D01*
X159507Y330784D01*
X159030Y330383D01*
X158563Y329970D01*
X158107Y329546D01*
X157660Y329111D01*
X46629Y228600D02*
X25400Y228600D01*
X46629Y228600D02*
X47233Y228607D01*
X47838Y228629D01*
X48441Y228665D01*
X49043Y228715D01*
X49644Y228780D01*
X50244Y228859D01*
X50841Y228952D01*
X51436Y229059D01*
X52028Y229180D01*
X52617Y229316D01*
X53203Y229465D01*
X53785Y229629D01*
X54363Y229806D01*
X54937Y229997D01*
X55505Y230201D01*
X56069Y230419D01*
X56628Y230651D01*
X57181Y230895D01*
X57727Y231153D01*
X58268Y231424D01*
X58802Y231707D01*
X59329Y232003D01*
X59849Y232311D01*
X60361Y232632D01*
X60866Y232965D01*
X61362Y233310D01*
X61851Y233666D01*
X62330Y234034D01*
X62801Y234414D01*
X63262Y234804D01*
X63715Y235205D01*
X64157Y235617D01*
X64590Y236039D01*
X64590Y236040D02*
X157661Y329111D01*
M02*
