G04 EAGLE Gerber RS-274X export*
G75*
%MOMM*%
%FSLAX34Y34*%
%LPD*%
%INBottom Soldermask*%
%IPPOS*%
%AMOC8*
5,1,8,0,0,1.08239X$1,22.5*%
G01*
%ADD10C,2.082800*%
%ADD11R,2.000000X2.000000*%
%ADD12C,1.955800*%
%ADD13C,3.251200*%
%ADD14C,2.133600*%
%ADD15R,2.082800X2.082800*%
%ADD16C,1.412800*%
%ADD17C,2.103200*%


D10*
X469900Y508000D03*
X444500Y508000D03*
X419100Y508000D03*
X393700Y508000D03*
X368300Y508000D03*
X342900Y508000D03*
X292100Y508000D03*
X266700Y508000D03*
X241300Y508000D03*
X215900Y508000D03*
X190500Y508000D03*
X165100Y508000D03*
X165100Y25400D03*
X190500Y25400D03*
X215900Y25400D03*
X241300Y25400D03*
X266700Y25400D03*
X292100Y25400D03*
X317500Y25400D03*
X342900Y25400D03*
X381000Y25400D03*
X406400Y25400D03*
X431800Y25400D03*
X457200Y25400D03*
X482600Y25400D03*
X508000Y25400D03*
X533400Y25400D03*
X558800Y25400D03*
X584200Y25400D03*
X609600Y25400D03*
X495300Y508000D03*
X520700Y508000D03*
D11*
X93580Y64770D03*
D12*
X43580Y64770D03*
D13*
X386900Y287020D03*
D14*
X317900Y357020D03*
X342900Y357020D03*
X367900Y357020D03*
D13*
X298900Y287020D03*
D15*
X612140Y510540D03*
D10*
X612140Y485140D03*
X612140Y459740D03*
X612140Y434340D03*
D16*
X31750Y450850D03*
X31750Y476250D03*
X31750Y425450D03*
D10*
X241300Y101600D03*
X266700Y101600D03*
X292100Y101600D03*
X317500Y101600D03*
X342900Y101600D03*
X368300Y101600D03*
X393700Y101600D03*
X419100Y101600D03*
X444500Y101600D03*
X469900Y101600D03*
X25400Y228600D03*
X25400Y254000D03*
X25400Y279400D03*
X25400Y304800D03*
X25400Y330200D03*
D17*
X576700Y288900D02*
X576700Y269900D01*
X439700Y269900D02*
X439700Y288900D01*
X455200Y331400D02*
X474200Y331400D01*
M02*
