G04 EAGLE Gerber RS-274X export*
G75*
%MOMM*%
%FSLAX34Y34*%
%LPD*%
%INTop Soldermask*%
%IPPOS*%
%AMOC8*
5,1,8,0,0,1.08239X$1,22.5*%
G01*
%ADD10C,2.082800*%
%ADD11C,0.894081*%
%ADD12C,0.900000*%
%ADD13R,1.203200X1.303200*%
%ADD14C,2.000000*%
%ADD15C,1.000000*%
%ADD16R,2.082800X2.082800*%
%ADD17C,1.412800*%
%ADD18R,1.403200X1.003200*%
%ADD19C,2.103200*%
%ADD20R,1.303200X1.203200*%


D10*
X469900Y508000D03*
X444500Y508000D03*
X419100Y508000D03*
X393700Y508000D03*
X368300Y508000D03*
X342900Y508000D03*
X292100Y508000D03*
X266700Y508000D03*
X241300Y508000D03*
X215900Y508000D03*
X190500Y508000D03*
X165100Y508000D03*
X165100Y25400D03*
X190500Y25400D03*
X215900Y25400D03*
X241300Y25400D03*
X266700Y25400D03*
X292100Y25400D03*
X317500Y25400D03*
X342900Y25400D03*
X381000Y25400D03*
X406400Y25400D03*
X431800Y25400D03*
X457200Y25400D03*
X482600Y25400D03*
X508000Y25400D03*
X533400Y25400D03*
X558800Y25400D03*
X584200Y25400D03*
X609600Y25400D03*
X495300Y508000D03*
X520700Y508000D03*
D11*
X43580Y64770D03*
D12*
X93580Y64770D03*
D13*
X135010Y304800D03*
X152010Y304800D03*
D14*
X298900Y287020D03*
X386900Y287020D03*
D15*
X317900Y357020D03*
X342900Y357020D03*
X367900Y357020D03*
D16*
X612140Y510540D03*
D10*
X612140Y485140D03*
X612140Y459740D03*
X612140Y434340D03*
D17*
X31750Y450850D03*
X31750Y476250D03*
X31750Y425450D03*
D10*
X241300Y101600D03*
X266700Y101600D03*
X292100Y101600D03*
X317500Y101600D03*
X342900Y101600D03*
X368300Y101600D03*
X393700Y101600D03*
X419100Y101600D03*
X444500Y101600D03*
X469900Y101600D03*
X25400Y228600D03*
X25400Y254000D03*
X25400Y279400D03*
X25400Y304800D03*
X25400Y330200D03*
D18*
X552450Y181500D03*
X552450Y199500D03*
X577850Y181500D03*
X577850Y199500D03*
D19*
X576700Y269900D02*
X576700Y288900D01*
X439700Y288900D02*
X439700Y269900D01*
X455200Y331400D02*
X474200Y331400D01*
D20*
X63500Y205350D03*
X63500Y188350D03*
M02*
