M48
;GenerationSoftware,Autodesk,EAGLE,9.6.2*%
;CreationDate,2023-12-25T14:44:50Z*%
FMAT,2
ICI,OFF
METRIC,TZ,000.000
T6C0.508
T5C0.600
T4C0.900
T3C1.000
T2C1.016
T1C2.000
%
G90
M71
T1
X29890Y28702
X38690Y28702
T2
X39370Y50800
X2540Y25400
X2540Y27940
X2540Y30480
X2540Y33020
X46990Y50800
X44450Y50800
X41910Y50800
X16510Y50800
X36830Y50800
X34290Y50800
X29210Y50800
X26670Y50800
X24130Y50800
X21590Y50800
X19050Y50800
X16510Y2540
X19050Y2540
X21590Y2540
X24130Y2540
X26670Y2540
X29210Y2540
X31750Y2540
X34290Y2540
X38100Y2540
X43180Y2540
X45720Y2540
X48260Y2540
X50800Y2540
X53340Y2540
X55880Y2540
X58420Y2540
X40640Y2540
X49530Y50800
X52070Y50800
X60960Y2540
X61214Y51054
X61214Y48514
X61214Y45974
X61214Y43434
X24130Y10160
X26670Y10160
X29210Y10160
X31750Y10160
X34290Y10160
X36830Y10160
X39370Y10160
X41910Y10160
X44450Y10160
X46990Y10160
X2540Y22860
T3
X36790Y35702
X34290Y35702
X31790Y35702
X57670Y27940
X43970Y27940
X46470Y33140
T4
X4358Y6477
X9358Y6477
T5
X3175Y45085
X3175Y47625
X3175Y42545
T6
X18415Y30480
X21590Y43815
X26670Y40005
X29210Y41910
X58420Y45085
M30