G04 EAGLE Gerber RS-274X export*
G75*
%MOMM*%
%FSLAX34Y34*%
%LPD*%
%INTop Copper*%
%IPPOS*%
%AMOC8*
5,1,8,0,0,1.08239X$1,22.5*%
G01*
%ADD10C,0.203200*%
%ADD11C,1.879600*%
%ADD12C,1.930400*%
%ADD13R,1.930400X1.930400*%
%ADD14R,1.000000X1.100000*%
%ADD15C,3.000000*%
%ADD16R,1.879600X1.879600*%
%ADD17C,1.209600*%
%ADD18R,1.200000X0.800000*%
%ADD19C,1.900000*%
%ADD20R,1.100000X1.000000*%
%ADD21C,1.016000*%
%ADD22C,0.812800*%
%ADD23C,0.508000*%

G36*
X629784Y4080D02*
X629784Y4080D01*
X629903Y4087D01*
X629941Y4100D01*
X629982Y4105D01*
X630092Y4148D01*
X630205Y4185D01*
X630240Y4207D01*
X630277Y4222D01*
X630373Y4291D01*
X630474Y4355D01*
X630502Y4385D01*
X630535Y4408D01*
X630611Y4500D01*
X630692Y4587D01*
X630712Y4622D01*
X630737Y4653D01*
X630788Y4761D01*
X630846Y4865D01*
X630856Y4905D01*
X630873Y4941D01*
X630895Y5058D01*
X630925Y5173D01*
X630929Y5233D01*
X630933Y5253D01*
X630931Y5274D01*
X630935Y5334D01*
X630935Y528066D01*
X630920Y528184D01*
X630913Y528303D01*
X630900Y528341D01*
X630895Y528382D01*
X630852Y528492D01*
X630815Y528605D01*
X630793Y528640D01*
X630778Y528677D01*
X630709Y528773D01*
X630645Y528874D01*
X630615Y528902D01*
X630592Y528935D01*
X630500Y529011D01*
X630413Y529092D01*
X630378Y529112D01*
X630347Y529137D01*
X630239Y529188D01*
X630135Y529246D01*
X630095Y529256D01*
X630059Y529273D01*
X629942Y529295D01*
X629827Y529325D01*
X629767Y529329D01*
X629747Y529333D01*
X629726Y529331D01*
X629666Y529335D01*
X5334Y529335D01*
X5216Y529320D01*
X5097Y529313D01*
X5059Y529300D01*
X5018Y529295D01*
X4908Y529252D01*
X4795Y529215D01*
X4760Y529193D01*
X4723Y529178D01*
X4627Y529109D01*
X4526Y529045D01*
X4498Y529015D01*
X4465Y528992D01*
X4389Y528900D01*
X4308Y528813D01*
X4288Y528778D01*
X4263Y528747D01*
X4212Y528639D01*
X4154Y528535D01*
X4144Y528495D01*
X4127Y528459D01*
X4105Y528342D01*
X4075Y528227D01*
X4071Y528167D01*
X4067Y528147D01*
X4069Y528126D01*
X4065Y528066D01*
X4065Y5334D01*
X4080Y5216D01*
X4087Y5097D01*
X4100Y5059D01*
X4105Y5018D01*
X4148Y4908D01*
X4185Y4795D01*
X4207Y4760D01*
X4222Y4723D01*
X4291Y4627D01*
X4355Y4526D01*
X4385Y4498D01*
X4408Y4465D01*
X4500Y4389D01*
X4587Y4308D01*
X4622Y4288D01*
X4653Y4263D01*
X4761Y4212D01*
X4865Y4154D01*
X4905Y4144D01*
X4941Y4127D01*
X5058Y4105D01*
X5173Y4075D01*
X5233Y4071D01*
X5253Y4067D01*
X5274Y4069D01*
X5334Y4065D01*
X629666Y4065D01*
X629784Y4080D01*
G37*
%LPC*%
G36*
X82665Y52069D02*
X82665Y52069D01*
X80879Y53855D01*
X80879Y75685D01*
X82665Y77471D01*
X85198Y77471D01*
X85316Y77486D01*
X85435Y77493D01*
X85473Y77506D01*
X85514Y77511D01*
X85624Y77554D01*
X85737Y77591D01*
X85772Y77613D01*
X85809Y77628D01*
X85905Y77697D01*
X86006Y77761D01*
X86034Y77791D01*
X86067Y77814D01*
X86143Y77906D01*
X86224Y77993D01*
X86244Y78028D01*
X86269Y78059D01*
X86320Y78167D01*
X86378Y78271D01*
X86388Y78311D01*
X86405Y78347D01*
X86427Y78464D01*
X86457Y78579D01*
X86461Y78639D01*
X86465Y78659D01*
X86463Y78680D01*
X86467Y78740D01*
X86467Y130269D01*
X88683Y138538D01*
X92963Y145952D01*
X94811Y147800D01*
X96106Y149095D01*
X97169Y150157D01*
X97169Y150158D01*
X217132Y270121D01*
X217217Y270230D01*
X217306Y270337D01*
X217314Y270356D01*
X217327Y270372D01*
X217382Y270500D01*
X217441Y270625D01*
X217445Y270645D01*
X217453Y270664D01*
X217475Y270802D01*
X217501Y270938D01*
X217500Y270958D01*
X217503Y270978D01*
X217490Y271117D01*
X217481Y271255D01*
X217475Y271274D01*
X217473Y271294D01*
X217426Y271426D01*
X217383Y271557D01*
X217372Y271575D01*
X217365Y271594D01*
X217287Y271709D01*
X217213Y271826D01*
X217198Y271840D01*
X217187Y271857D01*
X217083Y271949D01*
X216981Y272044D01*
X216964Y272054D01*
X216948Y272067D01*
X216825Y272130D01*
X216703Y272198D01*
X216683Y272203D01*
X216665Y272212D01*
X216529Y272242D01*
X216395Y272277D01*
X216367Y272279D01*
X216355Y272282D01*
X216334Y272281D01*
X216234Y272287D01*
X36415Y272287D01*
X36317Y272275D01*
X36218Y272272D01*
X36160Y272255D01*
X36100Y272247D01*
X36008Y272211D01*
X35913Y272183D01*
X35860Y272153D01*
X35804Y272130D01*
X35724Y272072D01*
X35639Y272022D01*
X35563Y271956D01*
X35547Y271944D01*
X35539Y271934D01*
X35518Y271916D01*
X32450Y268848D01*
X29425Y267595D01*
X29399Y267580D01*
X29370Y267571D01*
X29261Y267501D01*
X29148Y267437D01*
X29127Y267416D01*
X29102Y267400D01*
X29013Y267306D01*
X28920Y267216D01*
X28904Y267190D01*
X28884Y267169D01*
X28821Y267055D01*
X28754Y266945D01*
X28745Y266916D01*
X28731Y266890D01*
X28698Y266765D01*
X28660Y266641D01*
X28659Y266611D01*
X28651Y266582D01*
X28651Y266452D01*
X28645Y266323D01*
X28651Y266294D01*
X28651Y266264D01*
X28683Y266139D01*
X28709Y266012D01*
X28722Y265985D01*
X28730Y265956D01*
X28792Y265843D01*
X28849Y265726D01*
X28868Y265703D01*
X28883Y265677D01*
X28971Y265583D01*
X29055Y265484D01*
X29080Y265467D01*
X29100Y265445D01*
X29209Y265376D01*
X29315Y265301D01*
X29343Y265290D01*
X29369Y265274D01*
X29518Y265215D01*
X29983Y265064D01*
X31657Y264211D01*
X33178Y263106D01*
X34506Y261778D01*
X35611Y260257D01*
X36464Y258583D01*
X37045Y256796D01*
X37085Y256539D01*
X26670Y256539D01*
X26552Y256524D01*
X26433Y256517D01*
X26395Y256504D01*
X26355Y256499D01*
X26244Y256456D01*
X26131Y256419D01*
X26097Y256397D01*
X26059Y256382D01*
X25963Y256312D01*
X25862Y256249D01*
X25834Y256219D01*
X25802Y256195D01*
X25726Y256104D01*
X25644Y256017D01*
X25625Y255982D01*
X25599Y255951D01*
X25548Y255843D01*
X25491Y255739D01*
X25480Y255699D01*
X25463Y255663D01*
X25441Y255546D01*
X25411Y255431D01*
X25407Y255370D01*
X25403Y255350D01*
X25405Y255330D01*
X25401Y255270D01*
X25401Y252730D01*
X25416Y252612D01*
X25423Y252493D01*
X25436Y252455D01*
X25441Y252414D01*
X25485Y252304D01*
X25521Y252191D01*
X25543Y252156D01*
X25558Y252119D01*
X25628Y252023D01*
X25691Y251922D01*
X25721Y251894D01*
X25745Y251861D01*
X25836Y251786D01*
X25923Y251704D01*
X25958Y251684D01*
X25990Y251659D01*
X26097Y251608D01*
X26202Y251550D01*
X26241Y251540D01*
X26277Y251523D01*
X26394Y251501D01*
X26509Y251471D01*
X26570Y251467D01*
X26590Y251463D01*
X26610Y251465D01*
X26670Y251461D01*
X37085Y251461D01*
X37045Y251204D01*
X36464Y249417D01*
X35611Y247743D01*
X34506Y246222D01*
X33178Y244894D01*
X31657Y243789D01*
X29983Y242936D01*
X29518Y242785D01*
X29491Y242772D01*
X29462Y242765D01*
X29348Y242705D01*
X29230Y242650D01*
X29207Y242631D01*
X29181Y242617D01*
X29085Y242530D01*
X28985Y242447D01*
X28968Y242423D01*
X28946Y242403D01*
X28874Y242294D01*
X28798Y242190D01*
X28787Y242162D01*
X28771Y242137D01*
X28729Y242014D01*
X28681Y241894D01*
X28677Y241864D01*
X28668Y241836D01*
X28657Y241707D01*
X28641Y241579D01*
X28645Y241549D01*
X28642Y241519D01*
X28665Y241391D01*
X28681Y241263D01*
X28692Y241235D01*
X28697Y241206D01*
X28750Y241088D01*
X28798Y240967D01*
X28815Y240943D01*
X28827Y240916D01*
X28908Y240815D01*
X28984Y240710D01*
X29007Y240691D01*
X29026Y240667D01*
X29130Y240589D01*
X29229Y240507D01*
X29256Y240494D01*
X29280Y240476D01*
X29425Y240405D01*
X32450Y239152D01*
X35518Y236084D01*
X35596Y236024D01*
X35668Y235956D01*
X35721Y235927D01*
X35769Y235890D01*
X35860Y235850D01*
X35947Y235802D01*
X36005Y235787D01*
X36061Y235763D01*
X36159Y235748D01*
X36255Y235723D01*
X36355Y235717D01*
X36375Y235713D01*
X36387Y235715D01*
X36415Y235713D01*
X45059Y235713D01*
X54206Y232741D01*
X61987Y227087D01*
X67641Y219306D01*
X69275Y214276D01*
X69309Y214204D01*
X69333Y214129D01*
X69376Y214061D01*
X69410Y213988D01*
X69461Y213927D01*
X69503Y213860D01*
X69562Y213805D01*
X69613Y213743D01*
X69677Y213696D01*
X69735Y213642D01*
X69805Y213603D01*
X69870Y213556D01*
X69944Y213527D01*
X70014Y213488D01*
X70091Y213468D01*
X70166Y213439D01*
X70231Y213430D01*
X72049Y211613D01*
X72049Y199087D01*
X70325Y197364D01*
X70248Y197264D01*
X70166Y197169D01*
X70151Y197139D01*
X70130Y197112D01*
X70080Y196997D01*
X70024Y196884D01*
X70017Y196851D01*
X70004Y196820D01*
X69984Y196696D01*
X69958Y196573D01*
X69959Y196540D01*
X69954Y196506D01*
X69966Y196381D01*
X69971Y196255D01*
X69981Y196223D01*
X69984Y196190D01*
X70026Y196071D01*
X70063Y195951D01*
X70080Y195922D01*
X70091Y195890D01*
X70162Y195786D01*
X70227Y195679D01*
X70251Y195655D01*
X70270Y195627D01*
X70364Y195544D01*
X70454Y195456D01*
X70495Y195429D01*
X70508Y195417D01*
X70528Y195407D01*
X70553Y195390D01*
X71033Y194910D01*
X71368Y194331D01*
X71541Y193684D01*
X71541Y190849D01*
X64730Y190849D01*
X64612Y190834D01*
X64493Y190827D01*
X64455Y190814D01*
X64415Y190809D01*
X64304Y190766D01*
X64191Y190729D01*
X64157Y190707D01*
X64119Y190692D01*
X64023Y190623D01*
X63922Y190559D01*
X63894Y190529D01*
X63862Y190506D01*
X63786Y190414D01*
X63704Y190327D01*
X63685Y190292D01*
X63659Y190261D01*
X63608Y190153D01*
X63551Y190049D01*
X63541Y190009D01*
X63523Y189973D01*
X63503Y189866D01*
X63499Y189896D01*
X63455Y190006D01*
X63419Y190119D01*
X63397Y190154D01*
X63382Y190191D01*
X63312Y190287D01*
X63249Y190388D01*
X63219Y190416D01*
X63195Y190449D01*
X63104Y190525D01*
X63017Y190606D01*
X62982Y190626D01*
X62950Y190651D01*
X62843Y190702D01*
X62738Y190760D01*
X62699Y190770D01*
X62663Y190787D01*
X62546Y190809D01*
X62430Y190839D01*
X62370Y190843D01*
X62350Y190847D01*
X62330Y190845D01*
X62270Y190849D01*
X55459Y190849D01*
X55459Y193684D01*
X55632Y194331D01*
X55967Y194910D01*
X56461Y195404D01*
X56512Y195443D01*
X56616Y195514D01*
X56638Y195539D01*
X56665Y195559D01*
X56743Y195658D01*
X56827Y195752D01*
X56842Y195782D01*
X56863Y195808D01*
X56914Y195923D01*
X56971Y196035D01*
X56979Y196068D01*
X56992Y196099D01*
X57013Y196223D01*
X57041Y196345D01*
X57040Y196379D01*
X57045Y196412D01*
X57035Y196537D01*
X57031Y196663D01*
X57022Y196696D01*
X57019Y196729D01*
X56978Y196848D01*
X56943Y196969D01*
X56926Y196998D01*
X56915Y197030D01*
X56845Y197134D01*
X56781Y197243D01*
X56749Y197279D01*
X56739Y197295D01*
X56723Y197309D01*
X56675Y197364D01*
X54951Y199087D01*
X54951Y211532D01*
X54936Y211650D01*
X54929Y211768D01*
X54914Y211827D01*
X54911Y211848D01*
X54904Y211866D01*
X54889Y211924D01*
X54705Y212492D01*
X54654Y212599D01*
X54611Y212710D01*
X54578Y212761D01*
X54569Y212780D01*
X54556Y212796D01*
X54524Y212846D01*
X51790Y216609D01*
X51709Y216696D01*
X51633Y216787D01*
X51586Y216826D01*
X51572Y216841D01*
X51555Y216852D01*
X51509Y216890D01*
X47746Y219624D01*
X47642Y219682D01*
X47542Y219745D01*
X47485Y219768D01*
X47467Y219778D01*
X47448Y219783D01*
X47392Y219805D01*
X42968Y221242D01*
X42900Y221255D01*
X42835Y221278D01*
X42675Y221300D01*
X40350Y221483D01*
X40328Y221482D01*
X40250Y221487D01*
X36415Y221487D01*
X36317Y221475D01*
X36218Y221472D01*
X36160Y221455D01*
X36100Y221447D01*
X36008Y221411D01*
X35913Y221383D01*
X35860Y221353D01*
X35804Y221330D01*
X35724Y221272D01*
X35639Y221222D01*
X35563Y221156D01*
X35547Y221144D01*
X35539Y221134D01*
X35518Y221116D01*
X32450Y218048D01*
X27876Y216153D01*
X22924Y216153D01*
X18350Y218048D01*
X14848Y221550D01*
X12953Y226124D01*
X12953Y231076D01*
X14848Y235650D01*
X18350Y239152D01*
X21375Y240405D01*
X21401Y240420D01*
X21430Y240429D01*
X21539Y240499D01*
X21652Y240563D01*
X21673Y240584D01*
X21698Y240600D01*
X21787Y240694D01*
X21880Y240784D01*
X21896Y240810D01*
X21916Y240831D01*
X21979Y240945D01*
X22046Y241055D01*
X22055Y241084D01*
X22069Y241110D01*
X22102Y241235D01*
X22140Y241359D01*
X22141Y241389D01*
X22149Y241418D01*
X22149Y241548D01*
X22155Y241677D01*
X22149Y241706D01*
X22149Y241736D01*
X22117Y241861D01*
X22091Y241988D01*
X22078Y242015D01*
X22070Y242044D01*
X22008Y242157D01*
X21951Y242274D01*
X21932Y242297D01*
X21917Y242323D01*
X21829Y242417D01*
X21745Y242516D01*
X21720Y242533D01*
X21700Y242555D01*
X21591Y242624D01*
X21485Y242699D01*
X21457Y242710D01*
X21431Y242726D01*
X21282Y242785D01*
X20817Y242936D01*
X19143Y243789D01*
X17622Y244894D01*
X16294Y246222D01*
X15189Y247743D01*
X14336Y249417D01*
X13755Y251204D01*
X13715Y251461D01*
X24130Y251461D01*
X24248Y251476D01*
X24367Y251483D01*
X24405Y251496D01*
X24445Y251501D01*
X24556Y251544D01*
X24669Y251581D01*
X24703Y251603D01*
X24741Y251618D01*
X24837Y251688D01*
X24938Y251751D01*
X24966Y251781D01*
X24998Y251804D01*
X25074Y251896D01*
X25156Y251983D01*
X25175Y252018D01*
X25201Y252049D01*
X25252Y252157D01*
X25309Y252261D01*
X25320Y252301D01*
X25337Y252337D01*
X25359Y252454D01*
X25389Y252569D01*
X25393Y252630D01*
X25397Y252650D01*
X25395Y252670D01*
X25399Y252730D01*
X25399Y255270D01*
X25384Y255388D01*
X25377Y255507D01*
X25364Y255545D01*
X25359Y255585D01*
X25315Y255696D01*
X25279Y255809D01*
X25257Y255844D01*
X25242Y255881D01*
X25172Y255977D01*
X25109Y256078D01*
X25079Y256106D01*
X25055Y256139D01*
X24964Y256214D01*
X24877Y256296D01*
X24842Y256316D01*
X24810Y256341D01*
X24703Y256392D01*
X24598Y256450D01*
X24559Y256460D01*
X24523Y256477D01*
X24406Y256499D01*
X24291Y256529D01*
X24230Y256533D01*
X24210Y256537D01*
X24190Y256535D01*
X24130Y256539D01*
X13715Y256539D01*
X13755Y256796D01*
X14336Y258583D01*
X15189Y260257D01*
X16294Y261778D01*
X17622Y263106D01*
X19143Y264211D01*
X20817Y265064D01*
X21282Y265215D01*
X21309Y265228D01*
X21338Y265235D01*
X21452Y265295D01*
X21570Y265350D01*
X21593Y265369D01*
X21619Y265383D01*
X21715Y265470D01*
X21815Y265553D01*
X21832Y265577D01*
X21854Y265597D01*
X21926Y265706D01*
X22002Y265810D01*
X22013Y265838D01*
X22029Y265863D01*
X22071Y265986D01*
X22119Y266106D01*
X22123Y266136D01*
X22132Y266164D01*
X22143Y266293D01*
X22159Y266421D01*
X22155Y266451D01*
X22158Y266481D01*
X22135Y266609D01*
X22119Y266737D01*
X22108Y266765D01*
X22103Y266794D01*
X22050Y266912D01*
X22002Y267033D01*
X21985Y267057D01*
X21973Y267084D01*
X21892Y267185D01*
X21816Y267290D01*
X21793Y267309D01*
X21774Y267333D01*
X21670Y267411D01*
X21571Y267493D01*
X21544Y267506D01*
X21520Y267524D01*
X21375Y267595D01*
X18350Y268848D01*
X14848Y272350D01*
X12953Y276924D01*
X12953Y281876D01*
X14848Y286450D01*
X18350Y289952D01*
X20705Y290927D01*
X20825Y290996D01*
X20948Y291061D01*
X20963Y291075D01*
X20981Y291085D01*
X21081Y291182D01*
X21184Y291275D01*
X21195Y291292D01*
X21209Y291306D01*
X21282Y291424D01*
X21358Y291541D01*
X21365Y291560D01*
X21376Y291577D01*
X21416Y291710D01*
X21462Y291842D01*
X21463Y291862D01*
X21469Y291881D01*
X21476Y292020D01*
X21487Y292159D01*
X21483Y292179D01*
X21484Y292199D01*
X21456Y292335D01*
X21432Y292472D01*
X21424Y292491D01*
X21420Y292510D01*
X21359Y292635D01*
X21302Y292762D01*
X21289Y292778D01*
X21280Y292796D01*
X21190Y292902D01*
X21103Y293010D01*
X21087Y293023D01*
X21074Y293038D01*
X20960Y293118D01*
X20849Y293202D01*
X20824Y293214D01*
X20814Y293221D01*
X20795Y293228D01*
X20705Y293273D01*
X18350Y294248D01*
X14848Y297750D01*
X12953Y302324D01*
X12953Y307276D01*
X14848Y311850D01*
X18350Y315352D01*
X21375Y316605D01*
X21401Y316620D01*
X21430Y316629D01*
X21539Y316698D01*
X21652Y316763D01*
X21673Y316784D01*
X21698Y316800D01*
X21787Y316894D01*
X21880Y316984D01*
X21896Y317010D01*
X21916Y317031D01*
X21979Y317145D01*
X22046Y317255D01*
X22055Y317284D01*
X22069Y317310D01*
X22102Y317436D01*
X22140Y317559D01*
X22141Y317589D01*
X22149Y317618D01*
X22149Y317748D01*
X22155Y317877D01*
X22149Y317906D01*
X22149Y317936D01*
X22117Y318062D01*
X22091Y318188D01*
X22078Y318215D01*
X22070Y318244D01*
X22008Y318358D01*
X21951Y318474D01*
X21932Y318497D01*
X21917Y318523D01*
X21829Y318618D01*
X21745Y318716D01*
X21720Y318733D01*
X21700Y318755D01*
X21591Y318824D01*
X21485Y318899D01*
X21457Y318910D01*
X21431Y318926D01*
X21282Y318985D01*
X20817Y319136D01*
X19143Y319989D01*
X17622Y321094D01*
X16294Y322422D01*
X15189Y323943D01*
X14336Y325617D01*
X13755Y327404D01*
X13715Y327661D01*
X24130Y327661D01*
X24248Y327676D01*
X24367Y327683D01*
X24405Y327696D01*
X24445Y327701D01*
X24556Y327744D01*
X24669Y327781D01*
X24703Y327803D01*
X24741Y327818D01*
X24837Y327888D01*
X24938Y327951D01*
X24966Y327981D01*
X24998Y328004D01*
X25074Y328096D01*
X25156Y328183D01*
X25175Y328218D01*
X25201Y328249D01*
X25252Y328357D01*
X25309Y328461D01*
X25320Y328501D01*
X25337Y328537D01*
X25359Y328654D01*
X25389Y328769D01*
X25393Y328830D01*
X25397Y328850D01*
X25395Y328870D01*
X25399Y328930D01*
X25399Y330201D01*
X25401Y330201D01*
X25401Y328930D01*
X25416Y328812D01*
X25423Y328693D01*
X25436Y328655D01*
X25441Y328614D01*
X25485Y328504D01*
X25521Y328391D01*
X25543Y328356D01*
X25558Y328319D01*
X25628Y328223D01*
X25691Y328122D01*
X25721Y328094D01*
X25745Y328061D01*
X25836Y327986D01*
X25923Y327904D01*
X25958Y327884D01*
X25990Y327859D01*
X26097Y327808D01*
X26202Y327750D01*
X26241Y327740D01*
X26277Y327723D01*
X26394Y327701D01*
X26509Y327671D01*
X26570Y327667D01*
X26590Y327663D01*
X26610Y327665D01*
X26670Y327661D01*
X37085Y327661D01*
X37045Y327404D01*
X36464Y325617D01*
X35611Y323943D01*
X34506Y322422D01*
X33178Y321094D01*
X31657Y319989D01*
X29983Y319136D01*
X29518Y318985D01*
X29491Y318972D01*
X29462Y318965D01*
X29347Y318905D01*
X29230Y318850D01*
X29207Y318831D01*
X29181Y318817D01*
X29085Y318729D01*
X28985Y318647D01*
X28968Y318623D01*
X28946Y318603D01*
X28874Y318494D01*
X28798Y318390D01*
X28787Y318362D01*
X28771Y318337D01*
X28729Y318214D01*
X28681Y318094D01*
X28677Y318064D01*
X28668Y318036D01*
X28657Y317907D01*
X28641Y317779D01*
X28645Y317749D01*
X28642Y317719D01*
X28665Y317591D01*
X28681Y317463D01*
X28692Y317435D01*
X28697Y317406D01*
X28750Y317288D01*
X28798Y317167D01*
X28815Y317143D01*
X28827Y317116D01*
X28908Y317015D01*
X28984Y316910D01*
X29007Y316891D01*
X29026Y316867D01*
X29129Y316790D01*
X29229Y316707D01*
X29256Y316694D01*
X29280Y316676D01*
X29425Y316605D01*
X32450Y315352D01*
X35518Y312284D01*
X35596Y312224D01*
X35668Y312156D01*
X35721Y312127D01*
X35769Y312090D01*
X35860Y312050D01*
X35947Y312002D01*
X36005Y311987D01*
X36061Y311963D01*
X36159Y311948D01*
X36255Y311923D01*
X36355Y311917D01*
X36375Y311913D01*
X36387Y311915D01*
X36415Y311913D01*
X126785Y311913D01*
X126884Y311925D01*
X126983Y311928D01*
X127041Y311945D01*
X127101Y311953D01*
X127193Y311989D01*
X127288Y312017D01*
X127340Y312047D01*
X127397Y312070D01*
X127477Y312128D01*
X127562Y312178D01*
X127637Y312244D01*
X127654Y312256D01*
X127662Y312266D01*
X127683Y312284D01*
X128747Y313349D01*
X141273Y313349D01*
X142612Y312009D01*
X142707Y311936D01*
X142796Y311857D01*
X142832Y311839D01*
X142864Y311814D01*
X142973Y311767D01*
X143079Y311713D01*
X143118Y311704D01*
X143156Y311688D01*
X143273Y311669D01*
X143389Y311643D01*
X143430Y311644D01*
X143470Y311638D01*
X143588Y311649D01*
X143707Y311653D01*
X143746Y311664D01*
X143786Y311668D01*
X143899Y311708D01*
X144013Y311741D01*
X144047Y311762D01*
X144086Y311775D01*
X144184Y311842D01*
X144287Y311903D01*
X144332Y311943D01*
X144349Y311954D01*
X144362Y311969D01*
X144407Y312009D01*
X145747Y313349D01*
X158273Y313349D01*
X159337Y312284D01*
X159415Y312224D01*
X159487Y312156D01*
X159541Y312127D01*
X159588Y312090D01*
X159679Y312050D01*
X159766Y312002D01*
X159825Y311987D01*
X159880Y311963D01*
X159978Y311948D01*
X160074Y311923D01*
X160174Y311917D01*
X160194Y311913D01*
X160207Y311915D01*
X160235Y311913D01*
X179828Y311913D01*
X179837Y311914D01*
X179846Y311913D01*
X179995Y311934D01*
X180143Y311953D01*
X180152Y311956D01*
X180161Y311957D01*
X180313Y312009D01*
X182533Y312929D01*
X185767Y312929D01*
X188755Y311691D01*
X191041Y309405D01*
X192279Y306417D01*
X192279Y303183D01*
X191041Y300195D01*
X188755Y297909D01*
X185767Y296671D01*
X182533Y296671D01*
X180313Y297591D01*
X180305Y297593D01*
X180296Y297598D01*
X180151Y297635D01*
X180007Y297675D01*
X179997Y297675D01*
X179988Y297677D01*
X179828Y297687D01*
X160235Y297687D01*
X160136Y297675D01*
X160037Y297672D01*
X159979Y297655D01*
X159919Y297647D01*
X159827Y297611D01*
X159732Y297583D01*
X159680Y297553D01*
X159623Y297530D01*
X159543Y297472D01*
X159458Y297422D01*
X159383Y297356D01*
X159366Y297344D01*
X159358Y297334D01*
X159337Y297316D01*
X158273Y296251D01*
X145747Y296251D01*
X144407Y297591D01*
X144313Y297664D01*
X144224Y297743D01*
X144188Y297761D01*
X144156Y297786D01*
X144047Y297833D01*
X143941Y297887D01*
X143902Y297896D01*
X143864Y297912D01*
X143747Y297931D01*
X143631Y297957D01*
X143590Y297956D01*
X143550Y297962D01*
X143432Y297951D01*
X143313Y297947D01*
X143274Y297936D01*
X143234Y297932D01*
X143122Y297892D01*
X143007Y297859D01*
X142972Y297838D01*
X142934Y297825D01*
X142836Y297758D01*
X142733Y297697D01*
X142688Y297658D01*
X142671Y297646D01*
X142658Y297631D01*
X142612Y297591D01*
X141273Y296251D01*
X128747Y296251D01*
X127683Y297316D01*
X127605Y297376D01*
X127533Y297444D01*
X127480Y297473D01*
X127432Y297510D01*
X127341Y297550D01*
X127254Y297598D01*
X127195Y297613D01*
X127140Y297637D01*
X127042Y297652D01*
X126946Y297677D01*
X126846Y297683D01*
X126826Y297687D01*
X126813Y297685D01*
X126785Y297687D01*
X36415Y297687D01*
X36317Y297675D01*
X36218Y297672D01*
X36160Y297655D01*
X36100Y297647D01*
X36008Y297611D01*
X35913Y297583D01*
X35860Y297553D01*
X35804Y297530D01*
X35724Y297472D01*
X35639Y297422D01*
X35563Y297356D01*
X35547Y297344D01*
X35539Y297334D01*
X35518Y297316D01*
X32450Y294248D01*
X30095Y293273D01*
X29975Y293204D01*
X29852Y293139D01*
X29837Y293125D01*
X29819Y293115D01*
X29719Y293018D01*
X29616Y292925D01*
X29605Y292908D01*
X29591Y292894D01*
X29518Y292775D01*
X29442Y292659D01*
X29435Y292640D01*
X29424Y292623D01*
X29384Y292490D01*
X29338Y292358D01*
X29337Y292338D01*
X29331Y292319D01*
X29324Y292180D01*
X29313Y292041D01*
X29317Y292021D01*
X29316Y292001D01*
X29344Y291865D01*
X29368Y291728D01*
X29376Y291709D01*
X29380Y291690D01*
X29441Y291564D01*
X29498Y291438D01*
X29511Y291422D01*
X29520Y291404D01*
X29610Y291298D01*
X29697Y291190D01*
X29713Y291177D01*
X29726Y291162D01*
X29840Y291082D01*
X29951Y290998D01*
X29976Y290986D01*
X29986Y290979D01*
X30005Y290972D01*
X30095Y290927D01*
X32450Y289952D01*
X35518Y286884D01*
X35596Y286824D01*
X35668Y286756D01*
X35721Y286727D01*
X35769Y286690D01*
X35860Y286650D01*
X35947Y286602D01*
X36005Y286587D01*
X36061Y286563D01*
X36159Y286548D01*
X36255Y286523D01*
X36355Y286517D01*
X36375Y286513D01*
X36387Y286515D01*
X36415Y286513D01*
X232998Y286513D01*
X233096Y286525D01*
X233195Y286528D01*
X233254Y286545D01*
X233314Y286553D01*
X233406Y286589D01*
X233501Y286617D01*
X233553Y286647D01*
X233609Y286670D01*
X233689Y286728D01*
X233775Y286778D01*
X233850Y286844D01*
X233867Y286856D01*
X233874Y286866D01*
X233896Y286884D01*
X235034Y288023D01*
X267272Y320261D01*
X268325Y321314D01*
X269630Y322619D01*
X271478Y324467D01*
X278891Y328747D01*
X287161Y330963D01*
X309518Y330963D01*
X309636Y330978D01*
X309755Y330985D01*
X309793Y330998D01*
X309834Y331003D01*
X309944Y331046D01*
X310057Y331083D01*
X310092Y331105D01*
X310129Y331120D01*
X310225Y331189D01*
X310326Y331253D01*
X310354Y331283D01*
X310387Y331306D01*
X310463Y331398D01*
X310544Y331485D01*
X310564Y331520D01*
X310589Y331551D01*
X310640Y331659D01*
X310698Y331763D01*
X310708Y331803D01*
X310725Y331839D01*
X310747Y331956D01*
X310777Y332071D01*
X310781Y332131D01*
X310785Y332151D01*
X310783Y332172D01*
X310787Y332232D01*
X310787Y346005D01*
X310775Y346103D01*
X310772Y346202D01*
X310755Y346260D01*
X310747Y346320D01*
X310711Y346412D01*
X310683Y346507D01*
X310653Y346560D01*
X310630Y346616D01*
X310572Y346696D01*
X310522Y346781D01*
X310456Y346857D01*
X310444Y346873D01*
X310434Y346881D01*
X310416Y346902D01*
X307348Y349970D01*
X305453Y354544D01*
X305453Y359496D01*
X307348Y364070D01*
X310850Y367572D01*
X315424Y369467D01*
X320376Y369467D01*
X324950Y367572D01*
X328452Y364070D01*
X329227Y362198D01*
X329296Y362078D01*
X329361Y361955D01*
X329375Y361940D01*
X329385Y361922D01*
X329482Y361822D01*
X329575Y361719D01*
X329592Y361708D01*
X329606Y361694D01*
X329725Y361621D01*
X329841Y361544D01*
X329860Y361538D01*
X329877Y361527D01*
X330010Y361486D01*
X330142Y361441D01*
X330162Y361440D01*
X330181Y361434D01*
X330320Y361427D01*
X330459Y361416D01*
X330479Y361420D01*
X330499Y361419D01*
X330635Y361447D01*
X330772Y361470D01*
X330791Y361479D01*
X330810Y361483D01*
X330936Y361544D01*
X331062Y361601D01*
X331078Y361614D01*
X331096Y361623D01*
X331202Y361713D01*
X331310Y361800D01*
X331323Y361816D01*
X331338Y361829D01*
X331418Y361943D01*
X331502Y362054D01*
X331514Y362079D01*
X331521Y362089D01*
X331528Y362108D01*
X331573Y362198D01*
X332348Y364070D01*
X335416Y367138D01*
X335476Y367216D01*
X335544Y367288D01*
X335573Y367341D01*
X335610Y367389D01*
X335650Y367480D01*
X335698Y367567D01*
X335713Y367625D01*
X335737Y367681D01*
X335752Y367779D01*
X335777Y367875D01*
X335783Y367975D01*
X335787Y367995D01*
X335785Y368007D01*
X335787Y368035D01*
X335787Y374650D01*
X335785Y374672D01*
X335783Y374750D01*
X335574Y377412D01*
X335560Y377480D01*
X335556Y377548D01*
X335516Y377704D01*
X333870Y382768D01*
X333837Y382840D01*
X333836Y382841D01*
X333836Y382842D01*
X333820Y382876D01*
X333776Y382986D01*
X333744Y383037D01*
X333735Y383056D01*
X333722Y383072D01*
X333690Y383122D01*
X330560Y387430D01*
X330479Y387516D01*
X330404Y387608D01*
X330357Y387646D01*
X330343Y387661D01*
X330325Y387672D01*
X330280Y387710D01*
X325972Y390840D01*
X325868Y390897D01*
X325768Y390961D01*
X325711Y390983D01*
X325693Y390993D01*
X325674Y390998D01*
X325618Y391020D01*
X320554Y392666D01*
X320487Y392679D01*
X320421Y392701D01*
X320262Y392724D01*
X317600Y392933D01*
X317578Y392932D01*
X317500Y392937D01*
X271022Y392937D01*
X271013Y392936D01*
X271004Y392937D01*
X270855Y392916D01*
X270707Y392897D01*
X270698Y392894D01*
X270689Y392893D01*
X270537Y392841D01*
X268317Y391921D01*
X265083Y391921D01*
X262095Y393159D01*
X259809Y395445D01*
X258571Y398433D01*
X258571Y401667D01*
X259809Y404655D01*
X262095Y406941D01*
X265083Y408179D01*
X268317Y408179D01*
X270537Y407259D01*
X270545Y407257D01*
X270554Y407252D01*
X270699Y407215D01*
X270843Y407175D01*
X270853Y407175D01*
X270862Y407173D01*
X271022Y407163D01*
X322650Y407163D01*
X332444Y403980D01*
X340776Y397927D01*
X346830Y389594D01*
X350013Y379799D01*
X350013Y368035D01*
X350025Y367937D01*
X350028Y367838D01*
X350045Y367780D01*
X350053Y367720D01*
X350089Y367628D01*
X350117Y367533D01*
X350147Y367480D01*
X350170Y367424D01*
X350228Y367344D01*
X350278Y367259D01*
X350344Y367183D01*
X350356Y367167D01*
X350366Y367159D01*
X350384Y367138D01*
X353452Y364070D01*
X354481Y361586D01*
X354496Y361560D01*
X354505Y361531D01*
X354574Y361422D01*
X354639Y361310D01*
X354659Y361288D01*
X354675Y361263D01*
X354770Y361174D01*
X354860Y361081D01*
X354885Y361066D01*
X354907Y361045D01*
X355021Y360983D01*
X355131Y360915D01*
X355159Y360906D01*
X355186Y360892D01*
X355311Y360859D01*
X355435Y360821D01*
X355465Y360820D01*
X355494Y360812D01*
X355623Y360812D01*
X355753Y360806D01*
X355782Y360812D01*
X355812Y360812D01*
X355937Y360844D01*
X356064Y360870D01*
X356091Y360884D01*
X356120Y360891D01*
X356233Y360953D01*
X356350Y361010D01*
X356372Y361030D01*
X356399Y361044D01*
X356493Y361132D01*
X356592Y361217D01*
X356609Y361241D01*
X356631Y361261D01*
X356690Y361354D01*
X356709Y361375D01*
X356735Y361420D01*
X356775Y361477D01*
X356785Y361504D01*
X356801Y361530D01*
X356811Y361554D01*
X357689Y363277D01*
X358794Y364798D01*
X360122Y366126D01*
X361643Y367231D01*
X363317Y368084D01*
X365104Y368665D01*
X365401Y368712D01*
X365401Y358250D01*
X365416Y358132D01*
X365423Y358013D01*
X365435Y357975D01*
X365441Y357935D01*
X365484Y357824D01*
X365521Y357711D01*
X365543Y357677D01*
X365558Y357639D01*
X365627Y357543D01*
X365691Y357442D01*
X365721Y357414D01*
X365744Y357382D01*
X365836Y357306D01*
X365923Y357224D01*
X365958Y357205D01*
X365989Y357179D01*
X366097Y357128D01*
X366201Y357071D01*
X366241Y357061D01*
X366277Y357043D01*
X366384Y357023D01*
X366354Y357019D01*
X366244Y356975D01*
X366131Y356939D01*
X366096Y356917D01*
X366059Y356902D01*
X365962Y356832D01*
X365862Y356769D01*
X365834Y356739D01*
X365801Y356715D01*
X365725Y356624D01*
X365644Y356537D01*
X365624Y356502D01*
X365599Y356470D01*
X365548Y356363D01*
X365490Y356258D01*
X365480Y356219D01*
X365463Y356183D01*
X365441Y356066D01*
X365411Y355950D01*
X365407Y355890D01*
X365403Y355870D01*
X365405Y355850D01*
X365401Y355790D01*
X365401Y345328D01*
X365104Y345375D01*
X363317Y345956D01*
X361643Y346809D01*
X360122Y347914D01*
X358794Y349242D01*
X357689Y350763D01*
X356791Y352526D01*
X356766Y352563D01*
X356725Y352648D01*
X356706Y352671D01*
X356692Y352698D01*
X356619Y352778D01*
X356612Y352789D01*
X356601Y352798D01*
X356523Y352894D01*
X356499Y352911D01*
X356478Y352933D01*
X356370Y353004D01*
X356265Y353081D01*
X356238Y353092D01*
X356213Y353108D01*
X356090Y353150D01*
X355970Y353198D01*
X355940Y353201D01*
X355912Y353211D01*
X355783Y353221D01*
X355654Y353238D01*
X355625Y353234D01*
X355595Y353236D01*
X355467Y353214D01*
X355339Y353198D01*
X355311Y353187D01*
X355282Y353182D01*
X355163Y353129D01*
X355043Y353081D01*
X355019Y353064D01*
X354992Y353051D01*
X354890Y352970D01*
X354786Y352894D01*
X354767Y352872D01*
X354743Y352853D01*
X354665Y352749D01*
X354583Y352650D01*
X354570Y352623D01*
X354552Y352599D01*
X354481Y352454D01*
X353452Y349970D01*
X349950Y346468D01*
X345376Y344573D01*
X340424Y344573D01*
X335850Y346468D01*
X332348Y349970D01*
X331573Y351842D01*
X331504Y351962D01*
X331439Y352085D01*
X331425Y352100D01*
X331415Y352118D01*
X331318Y352218D01*
X331225Y352321D01*
X331208Y352332D01*
X331194Y352346D01*
X331076Y352419D01*
X330959Y352496D01*
X330940Y352502D01*
X330923Y352513D01*
X330790Y352554D01*
X330658Y352599D01*
X330638Y352600D01*
X330619Y352606D01*
X330480Y352613D01*
X330341Y352624D01*
X330321Y352621D01*
X330301Y352621D01*
X330165Y352593D01*
X330028Y352570D01*
X330009Y352561D01*
X329990Y352557D01*
X329865Y352496D01*
X329738Y352439D01*
X329722Y352426D01*
X329704Y352417D01*
X329598Y352327D01*
X329490Y352240D01*
X329477Y352224D01*
X329462Y352211D01*
X329382Y352097D01*
X329298Y351986D01*
X329286Y351961D01*
X329279Y351951D01*
X329272Y351932D01*
X329227Y351842D01*
X328452Y349970D01*
X325384Y346902D01*
X325324Y346824D01*
X325256Y346752D01*
X325227Y346699D01*
X325190Y346651D01*
X325150Y346560D01*
X325102Y346473D01*
X325087Y346415D01*
X325063Y346359D01*
X325048Y346261D01*
X325023Y346165D01*
X325017Y346065D01*
X325013Y346045D01*
X325015Y346033D01*
X325013Y346005D01*
X325013Y332232D01*
X325028Y332114D01*
X325035Y331995D01*
X325048Y331957D01*
X325053Y331916D01*
X325096Y331806D01*
X325133Y331693D01*
X325155Y331658D01*
X325170Y331621D01*
X325239Y331525D01*
X325303Y331424D01*
X325333Y331396D01*
X325356Y331363D01*
X325448Y331287D01*
X325535Y331206D01*
X325570Y331186D01*
X325601Y331161D01*
X325709Y331110D01*
X325813Y331052D01*
X325853Y331042D01*
X325889Y331025D01*
X326006Y331003D01*
X326121Y330973D01*
X326181Y330969D01*
X326201Y330965D01*
X326222Y330967D01*
X326282Y330963D01*
X393700Y330963D01*
X393722Y330965D01*
X393800Y330967D01*
X396462Y331176D01*
X396530Y331190D01*
X396598Y331194D01*
X396754Y331234D01*
X401818Y332880D01*
X401926Y332930D01*
X402036Y332974D01*
X402087Y333006D01*
X402106Y333015D01*
X402122Y333028D01*
X402172Y333060D01*
X406480Y336190D01*
X406566Y336271D01*
X406658Y336346D01*
X406696Y336393D01*
X406711Y336407D01*
X406722Y336425D01*
X406760Y336470D01*
X409890Y340778D01*
X409947Y340882D01*
X410011Y340982D01*
X410033Y341039D01*
X410043Y341057D01*
X410048Y341076D01*
X410070Y341132D01*
X411716Y346196D01*
X411729Y346263D01*
X411751Y346329D01*
X411774Y346488D01*
X411983Y349150D01*
X411982Y349172D01*
X411987Y349250D01*
X411987Y496985D01*
X411975Y497083D01*
X411972Y497182D01*
X411955Y497240D01*
X411947Y497300D01*
X411911Y497392D01*
X411883Y497487D01*
X411853Y497540D01*
X411830Y497596D01*
X411772Y497676D01*
X411722Y497761D01*
X411656Y497837D01*
X411644Y497853D01*
X411634Y497861D01*
X411616Y497882D01*
X408548Y500950D01*
X407295Y503975D01*
X407280Y504001D01*
X407271Y504030D01*
X407201Y504139D01*
X407137Y504252D01*
X407116Y504273D01*
X407100Y504298D01*
X407006Y504387D01*
X406916Y504480D01*
X406890Y504496D01*
X406869Y504516D01*
X406755Y504579D01*
X406645Y504646D01*
X406616Y504655D01*
X406590Y504669D01*
X406465Y504702D01*
X406341Y504740D01*
X406311Y504741D01*
X406282Y504749D01*
X406152Y504749D01*
X406023Y504755D01*
X405994Y504749D01*
X405964Y504749D01*
X405839Y504717D01*
X405712Y504691D01*
X405685Y504678D01*
X405656Y504670D01*
X405543Y504608D01*
X405426Y504551D01*
X405403Y504532D01*
X405377Y504517D01*
X405283Y504429D01*
X405184Y504345D01*
X405167Y504320D01*
X405145Y504300D01*
X405076Y504191D01*
X405001Y504085D01*
X404990Y504057D01*
X404974Y504031D01*
X404915Y503882D01*
X404764Y503417D01*
X403911Y501743D01*
X402806Y500222D01*
X401478Y498894D01*
X399957Y497789D01*
X398283Y496936D01*
X396496Y496355D01*
X396239Y496315D01*
X396239Y506730D01*
X396224Y506848D01*
X396217Y506967D01*
X396204Y507005D01*
X396199Y507045D01*
X396156Y507156D01*
X396119Y507269D01*
X396097Y507303D01*
X396082Y507341D01*
X396012Y507437D01*
X395949Y507538D01*
X395919Y507566D01*
X395895Y507598D01*
X395804Y507674D01*
X395717Y507756D01*
X395682Y507775D01*
X395651Y507801D01*
X395543Y507852D01*
X395439Y507909D01*
X395399Y507920D01*
X395363Y507937D01*
X395246Y507959D01*
X395131Y507989D01*
X395070Y507993D01*
X395050Y507997D01*
X395030Y507995D01*
X394970Y507999D01*
X393699Y507999D01*
X393699Y508001D01*
X394970Y508001D01*
X395088Y508016D01*
X395207Y508023D01*
X395245Y508036D01*
X395285Y508041D01*
X395396Y508085D01*
X395509Y508121D01*
X395544Y508143D01*
X395581Y508158D01*
X395677Y508228D01*
X395778Y508291D01*
X395806Y508321D01*
X395839Y508345D01*
X395914Y508436D01*
X395996Y508523D01*
X396016Y508558D01*
X396041Y508590D01*
X396092Y508697D01*
X396150Y508802D01*
X396160Y508841D01*
X396177Y508877D01*
X396199Y508994D01*
X396229Y509109D01*
X396233Y509170D01*
X396237Y509190D01*
X396235Y509210D01*
X396239Y509270D01*
X396239Y519685D01*
X396496Y519645D01*
X398283Y519064D01*
X399957Y518211D01*
X401478Y517106D01*
X402806Y515778D01*
X403911Y514257D01*
X404764Y512583D01*
X404915Y512118D01*
X404928Y512091D01*
X404935Y512062D01*
X404995Y511948D01*
X405050Y511830D01*
X405069Y511807D01*
X405083Y511781D01*
X405170Y511685D01*
X405253Y511585D01*
X405277Y511568D01*
X405297Y511546D01*
X405406Y511474D01*
X405510Y511398D01*
X405538Y511387D01*
X405563Y511371D01*
X405686Y511329D01*
X405806Y511281D01*
X405836Y511277D01*
X405864Y511268D01*
X405993Y511257D01*
X406121Y511241D01*
X406151Y511245D01*
X406181Y511242D01*
X406309Y511265D01*
X406437Y511281D01*
X406465Y511292D01*
X406494Y511297D01*
X406612Y511350D01*
X406733Y511398D01*
X406757Y511415D01*
X406784Y511427D01*
X406885Y511508D01*
X406990Y511584D01*
X407009Y511607D01*
X407033Y511626D01*
X407111Y511730D01*
X407193Y511829D01*
X407206Y511856D01*
X407224Y511880D01*
X407295Y512025D01*
X408548Y515050D01*
X412050Y518552D01*
X416624Y520447D01*
X421576Y520447D01*
X426150Y518552D01*
X429652Y515050D01*
X430627Y512695D01*
X430696Y512575D01*
X430761Y512452D01*
X430775Y512437D01*
X430785Y512419D01*
X430882Y512319D01*
X430975Y512216D01*
X430992Y512205D01*
X431006Y512191D01*
X431125Y512118D01*
X431241Y512042D01*
X431260Y512035D01*
X431277Y512024D01*
X431410Y511983D01*
X431542Y511938D01*
X431562Y511937D01*
X431581Y511931D01*
X431720Y511924D01*
X431859Y511913D01*
X431879Y511917D01*
X431899Y511916D01*
X432035Y511944D01*
X432172Y511968D01*
X432191Y511976D01*
X432210Y511980D01*
X432336Y512041D01*
X432462Y512098D01*
X432478Y512111D01*
X432496Y512120D01*
X432602Y512210D01*
X432710Y512297D01*
X432723Y512313D01*
X432738Y512326D01*
X432818Y512440D01*
X432902Y512551D01*
X432914Y512576D01*
X432921Y512586D01*
X432928Y512605D01*
X432973Y512695D01*
X433948Y515051D01*
X437450Y518552D01*
X442024Y520447D01*
X446976Y520447D01*
X451550Y518552D01*
X455052Y515050D01*
X456027Y512695D01*
X456096Y512575D01*
X456161Y512452D01*
X456175Y512437D01*
X456185Y512419D01*
X456282Y512319D01*
X456375Y512216D01*
X456392Y512205D01*
X456406Y512191D01*
X456525Y512118D01*
X456641Y512042D01*
X456660Y512035D01*
X456677Y512024D01*
X456810Y511983D01*
X456942Y511938D01*
X456962Y511937D01*
X456981Y511931D01*
X457120Y511924D01*
X457259Y511913D01*
X457279Y511917D01*
X457299Y511916D01*
X457435Y511944D01*
X457572Y511968D01*
X457591Y511976D01*
X457610Y511980D01*
X457736Y512041D01*
X457862Y512098D01*
X457878Y512111D01*
X457896Y512120D01*
X458002Y512210D01*
X458110Y512297D01*
X458123Y512313D01*
X458138Y512326D01*
X458218Y512440D01*
X458302Y512551D01*
X458314Y512576D01*
X458321Y512586D01*
X458328Y512605D01*
X458373Y512695D01*
X459348Y515051D01*
X462850Y518552D01*
X467424Y520447D01*
X472376Y520447D01*
X476950Y518552D01*
X480452Y515051D01*
X481427Y512695D01*
X481496Y512574D01*
X481561Y512452D01*
X481575Y512437D01*
X481585Y512419D01*
X481682Y512319D01*
X481775Y512216D01*
X481792Y512205D01*
X481806Y512191D01*
X481924Y512118D01*
X482041Y512042D01*
X482060Y512035D01*
X482077Y512024D01*
X482210Y511984D01*
X482342Y511938D01*
X482362Y511937D01*
X482381Y511931D01*
X482520Y511924D01*
X482659Y511913D01*
X482679Y511917D01*
X482699Y511916D01*
X482835Y511944D01*
X482972Y511968D01*
X482991Y511976D01*
X483010Y511980D01*
X483135Y512041D01*
X483262Y512098D01*
X483278Y512111D01*
X483296Y512120D01*
X483402Y512210D01*
X483510Y512297D01*
X483523Y512313D01*
X483538Y512326D01*
X483618Y512440D01*
X483702Y512551D01*
X483714Y512576D01*
X483721Y512586D01*
X483728Y512605D01*
X483773Y512695D01*
X484748Y515050D01*
X488250Y518552D01*
X492824Y520447D01*
X497776Y520447D01*
X502350Y518552D01*
X505852Y515051D01*
X506827Y512695D01*
X506896Y512574D01*
X506961Y512452D01*
X506975Y512437D01*
X506985Y512419D01*
X507082Y512319D01*
X507175Y512216D01*
X507192Y512205D01*
X507206Y512191D01*
X507324Y512118D01*
X507441Y512042D01*
X507460Y512035D01*
X507477Y512024D01*
X507610Y511984D01*
X507742Y511938D01*
X507762Y511937D01*
X507781Y511931D01*
X507920Y511924D01*
X508059Y511913D01*
X508079Y511917D01*
X508099Y511916D01*
X508235Y511944D01*
X508372Y511968D01*
X508391Y511976D01*
X508410Y511980D01*
X508535Y512041D01*
X508662Y512098D01*
X508678Y512111D01*
X508696Y512120D01*
X508802Y512210D01*
X508910Y512297D01*
X508923Y512313D01*
X508938Y512326D01*
X509018Y512440D01*
X509102Y512551D01*
X509114Y512576D01*
X509121Y512586D01*
X509128Y512605D01*
X509173Y512695D01*
X510148Y515050D01*
X513650Y518552D01*
X518224Y520447D01*
X523176Y520447D01*
X527750Y518552D01*
X531252Y515050D01*
X533147Y510476D01*
X533147Y505524D01*
X531252Y500950D01*
X527750Y497448D01*
X523176Y495553D01*
X518224Y495553D01*
X513650Y497448D01*
X510148Y500950D01*
X509173Y503305D01*
X509104Y503425D01*
X509039Y503548D01*
X509025Y503563D01*
X509015Y503581D01*
X508918Y503681D01*
X508825Y503784D01*
X508808Y503795D01*
X508794Y503809D01*
X508675Y503882D01*
X508559Y503958D01*
X508540Y503965D01*
X508523Y503976D01*
X508390Y504017D01*
X508258Y504062D01*
X508238Y504063D01*
X508219Y504069D01*
X508080Y504076D01*
X507941Y504087D01*
X507921Y504083D01*
X507901Y504084D01*
X507765Y504056D01*
X507628Y504032D01*
X507609Y504024D01*
X507590Y504020D01*
X507464Y503959D01*
X507338Y503902D01*
X507322Y503889D01*
X507304Y503880D01*
X507198Y503790D01*
X507090Y503703D01*
X507077Y503687D01*
X507062Y503674D01*
X506982Y503560D01*
X506898Y503449D01*
X506886Y503424D01*
X506879Y503414D01*
X506872Y503395D01*
X506827Y503305D01*
X505852Y500949D01*
X502350Y497448D01*
X497776Y495553D01*
X492824Y495553D01*
X488250Y497448D01*
X484748Y500950D01*
X483773Y503305D01*
X483704Y503425D01*
X483639Y503548D01*
X483625Y503563D01*
X483615Y503581D01*
X483518Y503681D01*
X483425Y503784D01*
X483408Y503795D01*
X483394Y503809D01*
X483275Y503882D01*
X483159Y503958D01*
X483140Y503965D01*
X483123Y503976D01*
X482990Y504017D01*
X482858Y504062D01*
X482838Y504063D01*
X482819Y504069D01*
X482680Y504076D01*
X482541Y504087D01*
X482521Y504083D01*
X482501Y504084D01*
X482365Y504056D01*
X482228Y504032D01*
X482209Y504024D01*
X482190Y504020D01*
X482064Y503959D01*
X481938Y503902D01*
X481922Y503889D01*
X481904Y503880D01*
X481798Y503790D01*
X481690Y503703D01*
X481677Y503687D01*
X481662Y503674D01*
X481582Y503560D01*
X481498Y503449D01*
X481486Y503424D01*
X481479Y503414D01*
X481472Y503395D01*
X481427Y503305D01*
X480452Y500949D01*
X476950Y497448D01*
X472376Y495553D01*
X467424Y495553D01*
X462850Y497448D01*
X459348Y500949D01*
X458373Y503305D01*
X458304Y503426D01*
X458239Y503548D01*
X458225Y503563D01*
X458215Y503581D01*
X458118Y503681D01*
X458025Y503784D01*
X458008Y503795D01*
X457994Y503809D01*
X457876Y503882D01*
X457759Y503958D01*
X457740Y503965D01*
X457723Y503976D01*
X457590Y504016D01*
X457458Y504062D01*
X457438Y504063D01*
X457419Y504069D01*
X457280Y504076D01*
X457141Y504087D01*
X457121Y504083D01*
X457101Y504084D01*
X456965Y504056D01*
X456828Y504032D01*
X456809Y504024D01*
X456790Y504020D01*
X456665Y503959D01*
X456538Y503902D01*
X456522Y503889D01*
X456504Y503880D01*
X456398Y503790D01*
X456290Y503703D01*
X456277Y503687D01*
X456262Y503674D01*
X456182Y503560D01*
X456098Y503449D01*
X456086Y503424D01*
X456079Y503414D01*
X456072Y503395D01*
X456027Y503305D01*
X455052Y500950D01*
X451984Y497882D01*
X451924Y497804D01*
X451856Y497732D01*
X451827Y497679D01*
X451790Y497631D01*
X451750Y497540D01*
X451702Y497453D01*
X451687Y497395D01*
X451663Y497339D01*
X451648Y497241D01*
X451623Y497145D01*
X451617Y497045D01*
X451613Y497025D01*
X451615Y497013D01*
X451613Y496985D01*
X451613Y459740D01*
X451615Y459718D01*
X451617Y459640D01*
X451826Y456978D01*
X451840Y456910D01*
X451844Y456842D01*
X451884Y456686D01*
X453530Y451622D01*
X453580Y451514D01*
X453624Y451404D01*
X453656Y451353D01*
X453665Y451334D01*
X453678Y451318D01*
X453710Y451268D01*
X456840Y446960D01*
X456921Y446874D01*
X456996Y446782D01*
X457043Y446743D01*
X457057Y446729D01*
X457074Y446718D01*
X457120Y446680D01*
X461428Y443550D01*
X461532Y443493D01*
X461632Y443429D01*
X461689Y443407D01*
X461707Y443397D01*
X461726Y443392D01*
X461782Y443370D01*
X466846Y441724D01*
X466913Y441711D01*
X466979Y441689D01*
X467138Y441666D01*
X469800Y441457D01*
X469822Y441458D01*
X469900Y441453D01*
X601125Y441453D01*
X601223Y441465D01*
X601322Y441468D01*
X601380Y441485D01*
X601440Y441493D01*
X601532Y441529D01*
X601627Y441557D01*
X601680Y441587D01*
X601736Y441610D01*
X601816Y441668D01*
X601901Y441718D01*
X601977Y441784D01*
X601993Y441796D01*
X602001Y441806D01*
X602022Y441824D01*
X605090Y444892D01*
X608115Y446145D01*
X608141Y446160D01*
X608170Y446169D01*
X608279Y446238D01*
X608392Y446303D01*
X608413Y446324D01*
X608438Y446340D01*
X608527Y446434D01*
X608620Y446524D01*
X608636Y446550D01*
X608656Y446571D01*
X608719Y446685D01*
X608786Y446795D01*
X608795Y446824D01*
X608809Y446850D01*
X608842Y446976D01*
X608880Y447099D01*
X608881Y447129D01*
X608889Y447158D01*
X608889Y447288D01*
X608895Y447417D01*
X608889Y447446D01*
X608889Y447476D01*
X608857Y447602D01*
X608831Y447728D01*
X608818Y447755D01*
X608810Y447784D01*
X608748Y447898D01*
X608691Y448014D01*
X608672Y448037D01*
X608657Y448063D01*
X608569Y448158D01*
X608485Y448256D01*
X608460Y448273D01*
X608440Y448295D01*
X608331Y448364D01*
X608225Y448439D01*
X608197Y448450D01*
X608171Y448466D01*
X608022Y448525D01*
X607557Y448676D01*
X605883Y449529D01*
X604362Y450634D01*
X603034Y451962D01*
X601929Y453483D01*
X601076Y455157D01*
X600495Y456944D01*
X600455Y457201D01*
X610870Y457201D01*
X610988Y457216D01*
X611107Y457223D01*
X611145Y457236D01*
X611185Y457241D01*
X611296Y457284D01*
X611409Y457321D01*
X611443Y457343D01*
X611481Y457358D01*
X611577Y457428D01*
X611678Y457491D01*
X611706Y457521D01*
X611738Y457544D01*
X611814Y457636D01*
X611896Y457723D01*
X611915Y457758D01*
X611941Y457789D01*
X611992Y457897D01*
X612049Y458001D01*
X612060Y458041D01*
X612077Y458077D01*
X612099Y458194D01*
X612129Y458309D01*
X612133Y458370D01*
X612137Y458390D01*
X612135Y458410D01*
X612139Y458470D01*
X612139Y461010D01*
X612124Y461128D01*
X612117Y461247D01*
X612104Y461285D01*
X612099Y461325D01*
X612055Y461436D01*
X612019Y461549D01*
X611997Y461584D01*
X611982Y461621D01*
X611912Y461717D01*
X611849Y461818D01*
X611819Y461846D01*
X611795Y461879D01*
X611704Y461954D01*
X611617Y462036D01*
X611582Y462056D01*
X611550Y462081D01*
X611443Y462132D01*
X611338Y462190D01*
X611299Y462200D01*
X611263Y462217D01*
X611146Y462239D01*
X611031Y462269D01*
X610970Y462273D01*
X610950Y462277D01*
X610930Y462275D01*
X610870Y462279D01*
X600455Y462279D01*
X600495Y462536D01*
X601076Y464323D01*
X601929Y465997D01*
X603034Y467518D01*
X604362Y468846D01*
X605883Y469951D01*
X607557Y470804D01*
X608022Y470955D01*
X608049Y470968D01*
X608078Y470975D01*
X608193Y471035D01*
X608310Y471090D01*
X608333Y471109D01*
X608359Y471123D01*
X608455Y471211D01*
X608555Y471293D01*
X608572Y471317D01*
X608594Y471337D01*
X608666Y471446D01*
X608742Y471550D01*
X608753Y471578D01*
X608769Y471603D01*
X608811Y471726D01*
X608859Y471846D01*
X608863Y471876D01*
X608872Y471904D01*
X608883Y472033D01*
X608899Y472161D01*
X608895Y472191D01*
X608898Y472221D01*
X608875Y472349D01*
X608859Y472477D01*
X608848Y472505D01*
X608843Y472534D01*
X608790Y472652D01*
X608742Y472773D01*
X608725Y472797D01*
X608713Y472824D01*
X608632Y472925D01*
X608556Y473030D01*
X608533Y473049D01*
X608514Y473073D01*
X608411Y473150D01*
X608311Y473233D01*
X608284Y473246D01*
X608260Y473264D01*
X608115Y473335D01*
X605090Y474588D01*
X601588Y478090D01*
X599693Y482664D01*
X599693Y487616D01*
X601588Y492190D01*
X605104Y495706D01*
X605117Y495712D01*
X605190Y495764D01*
X605268Y495809D01*
X605318Y495857D01*
X605375Y495898D01*
X605432Y495968D01*
X605496Y496030D01*
X605533Y496090D01*
X605578Y496143D01*
X605616Y496225D01*
X605663Y496301D01*
X605683Y496368D01*
X605713Y496431D01*
X605730Y496519D01*
X605756Y496605D01*
X605760Y496675D01*
X605773Y496744D01*
X605767Y496833D01*
X605772Y496923D01*
X605757Y496991D01*
X605753Y497061D01*
X605725Y497146D01*
X605707Y497234D01*
X605677Y497297D01*
X605655Y497363D01*
X605607Y497439D01*
X605568Y497520D01*
X605522Y497573D01*
X605485Y497632D01*
X605420Y497694D01*
X605361Y497762D01*
X605304Y497802D01*
X605253Y497850D01*
X605175Y497893D01*
X605101Y497945D01*
X605036Y497970D01*
X604975Y498004D01*
X604888Y498026D01*
X604804Y498058D01*
X604734Y498066D01*
X604667Y498083D01*
X604506Y498093D01*
X601479Y498093D01*
X599693Y499879D01*
X599693Y521201D01*
X601479Y522987D01*
X622801Y522987D01*
X624587Y521201D01*
X624587Y499879D01*
X622801Y498093D01*
X619774Y498093D01*
X619705Y498085D01*
X619635Y498086D01*
X619547Y498065D01*
X619458Y498053D01*
X619393Y498028D01*
X619325Y498011D01*
X619246Y497969D01*
X619163Y497936D01*
X619106Y497895D01*
X619044Y497863D01*
X618978Y497802D01*
X618905Y497750D01*
X618861Y497696D01*
X618809Y497649D01*
X618760Y497574D01*
X618702Y497505D01*
X618673Y497441D01*
X618634Y497383D01*
X618605Y497298D01*
X618567Y497217D01*
X618554Y497148D01*
X618531Y497082D01*
X618524Y496993D01*
X618507Y496905D01*
X618512Y496835D01*
X618506Y496765D01*
X618521Y496677D01*
X618527Y496587D01*
X618548Y496521D01*
X618560Y496452D01*
X618597Y496370D01*
X618625Y496285D01*
X618662Y496226D01*
X618691Y496162D01*
X618747Y496092D01*
X618795Y496016D01*
X618846Y495968D01*
X618890Y495913D01*
X618961Y495860D01*
X619027Y495798D01*
X619088Y495764D01*
X619144Y495722D01*
X619176Y495706D01*
X622692Y492190D01*
X624587Y487616D01*
X624587Y482664D01*
X622692Y478090D01*
X619190Y474588D01*
X616165Y473335D01*
X616139Y473320D01*
X616110Y473311D01*
X616001Y473241D01*
X615888Y473177D01*
X615867Y473157D01*
X615842Y473141D01*
X615753Y473046D01*
X615660Y472956D01*
X615644Y472931D01*
X615624Y472909D01*
X615561Y472795D01*
X615494Y472685D01*
X615485Y472656D01*
X615471Y472630D01*
X615438Y472505D01*
X615400Y472381D01*
X615399Y472351D01*
X615391Y472322D01*
X615391Y472192D01*
X615385Y472063D01*
X615391Y472034D01*
X615391Y472004D01*
X615423Y471879D01*
X615449Y471752D01*
X615462Y471725D01*
X615470Y471696D01*
X615532Y471583D01*
X615589Y471466D01*
X615608Y471443D01*
X615623Y471417D01*
X615711Y471323D01*
X615795Y471224D01*
X615820Y471207D01*
X615840Y471185D01*
X615949Y471116D01*
X616055Y471041D01*
X616083Y471030D01*
X616108Y471014D01*
X616258Y470955D01*
X616723Y470804D01*
X618397Y469951D01*
X619918Y468846D01*
X621246Y467518D01*
X622351Y465997D01*
X623204Y464323D01*
X623785Y462536D01*
X623825Y462279D01*
X613410Y462279D01*
X613292Y462264D01*
X613173Y462257D01*
X613135Y462244D01*
X613095Y462239D01*
X612984Y462196D01*
X612871Y462159D01*
X612837Y462137D01*
X612799Y462122D01*
X612703Y462052D01*
X612602Y461989D01*
X612574Y461959D01*
X612542Y461935D01*
X612466Y461844D01*
X612384Y461757D01*
X612365Y461722D01*
X612339Y461691D01*
X612288Y461583D01*
X612231Y461479D01*
X612220Y461439D01*
X612203Y461403D01*
X612181Y461286D01*
X612151Y461171D01*
X612147Y461110D01*
X612143Y461090D01*
X612144Y461079D01*
X612143Y461075D01*
X612144Y461063D01*
X612141Y461010D01*
X612141Y458470D01*
X612156Y458352D01*
X612163Y458233D01*
X612176Y458195D01*
X612181Y458154D01*
X612225Y458044D01*
X612261Y457931D01*
X612283Y457896D01*
X612298Y457859D01*
X612368Y457763D01*
X612431Y457662D01*
X612461Y457634D01*
X612485Y457601D01*
X612576Y457526D01*
X612663Y457444D01*
X612698Y457424D01*
X612730Y457399D01*
X612837Y457348D01*
X612942Y457290D01*
X612981Y457280D01*
X613017Y457263D01*
X613134Y457241D01*
X613249Y457211D01*
X613310Y457207D01*
X613330Y457203D01*
X613350Y457205D01*
X613410Y457201D01*
X623825Y457201D01*
X623785Y456944D01*
X623204Y455157D01*
X622351Y453483D01*
X621246Y451962D01*
X619918Y450634D01*
X618397Y449529D01*
X616723Y448676D01*
X616258Y448525D01*
X616231Y448512D01*
X616202Y448505D01*
X616087Y448445D01*
X615970Y448390D01*
X615947Y448371D01*
X615921Y448357D01*
X615825Y448269D01*
X615725Y448187D01*
X615708Y448163D01*
X615686Y448143D01*
X615614Y448034D01*
X615538Y447930D01*
X615527Y447902D01*
X615511Y447877D01*
X615469Y447754D01*
X615421Y447634D01*
X615417Y447604D01*
X615408Y447576D01*
X615397Y447447D01*
X615381Y447319D01*
X615385Y447289D01*
X615382Y447259D01*
X615405Y447131D01*
X615421Y447003D01*
X615432Y446975D01*
X615437Y446946D01*
X615490Y446828D01*
X615538Y446707D01*
X615555Y446683D01*
X615567Y446656D01*
X615648Y446555D01*
X615724Y446450D01*
X615747Y446431D01*
X615766Y446407D01*
X615869Y446330D01*
X615969Y446247D01*
X615996Y446234D01*
X616020Y446216D01*
X616165Y446145D01*
X619190Y444892D01*
X622692Y441390D01*
X624587Y436816D01*
X624587Y431864D01*
X622692Y427290D01*
X619190Y423788D01*
X614616Y421893D01*
X609664Y421893D01*
X605090Y423788D01*
X602022Y426856D01*
X601944Y426916D01*
X601872Y426984D01*
X601819Y427013D01*
X601771Y427050D01*
X601680Y427090D01*
X601593Y427138D01*
X601535Y427153D01*
X601479Y427177D01*
X601381Y427192D01*
X601285Y427217D01*
X601185Y427223D01*
X601165Y427227D01*
X601153Y427225D01*
X601125Y427227D01*
X464750Y427227D01*
X454956Y430410D01*
X448133Y435366D01*
X448133Y435367D01*
X446623Y436463D01*
X440570Y444796D01*
X437387Y454590D01*
X437387Y496985D01*
X437375Y497083D01*
X437372Y497182D01*
X437355Y497240D01*
X437347Y497300D01*
X437311Y497392D01*
X437283Y497487D01*
X437253Y497540D01*
X437230Y497596D01*
X437172Y497676D01*
X437122Y497761D01*
X437056Y497837D01*
X437044Y497853D01*
X437034Y497861D01*
X437016Y497882D01*
X433948Y500949D01*
X432973Y503305D01*
X432904Y503426D01*
X432839Y503548D01*
X432825Y503563D01*
X432815Y503581D01*
X432718Y503681D01*
X432625Y503784D01*
X432608Y503795D01*
X432594Y503809D01*
X432476Y503882D01*
X432359Y503958D01*
X432340Y503965D01*
X432323Y503976D01*
X432190Y504016D01*
X432058Y504062D01*
X432038Y504063D01*
X432019Y504069D01*
X431880Y504076D01*
X431741Y504087D01*
X431721Y504083D01*
X431701Y504084D01*
X431565Y504056D01*
X431428Y504032D01*
X431409Y504024D01*
X431390Y504020D01*
X431265Y503959D01*
X431138Y503902D01*
X431122Y503889D01*
X431104Y503880D01*
X430998Y503790D01*
X430890Y503703D01*
X430877Y503687D01*
X430862Y503674D01*
X430782Y503560D01*
X430698Y503449D01*
X430686Y503424D01*
X430679Y503414D01*
X430672Y503395D01*
X430627Y503305D01*
X429652Y500950D01*
X426584Y497882D01*
X426524Y497804D01*
X426456Y497732D01*
X426427Y497679D01*
X426390Y497631D01*
X426350Y497540D01*
X426302Y497453D01*
X426287Y497395D01*
X426263Y497339D01*
X426248Y497241D01*
X426223Y497145D01*
X426217Y497045D01*
X426213Y497025D01*
X426215Y497013D01*
X426213Y496985D01*
X426213Y344100D01*
X423030Y334306D01*
X416977Y325973D01*
X408644Y319920D01*
X398850Y316737D01*
X344932Y316737D01*
X344814Y316722D01*
X344695Y316715D01*
X344657Y316702D01*
X344616Y316697D01*
X344506Y316654D01*
X344393Y316617D01*
X344358Y316595D01*
X344321Y316580D01*
X344225Y316511D01*
X344124Y316447D01*
X344096Y316417D01*
X344063Y316394D01*
X343987Y316302D01*
X343906Y316215D01*
X343886Y316180D01*
X343861Y316149D01*
X343810Y316041D01*
X343752Y315937D01*
X343742Y315897D01*
X343725Y315861D01*
X343703Y315744D01*
X343673Y315629D01*
X343669Y315569D01*
X343665Y315549D01*
X343667Y315528D01*
X343663Y315468D01*
X343663Y215900D01*
X343665Y215878D01*
X343667Y215800D01*
X343876Y213138D01*
X343890Y213070D01*
X343894Y213002D01*
X343934Y212846D01*
X345580Y207782D01*
X345630Y207674D01*
X345674Y207564D01*
X345706Y207513D01*
X345715Y207494D01*
X345728Y207478D01*
X345760Y207428D01*
X348890Y203120D01*
X348971Y203034D01*
X349046Y202942D01*
X349093Y202904D01*
X349107Y202889D01*
X349125Y202878D01*
X349170Y202840D01*
X353478Y199710D01*
X353582Y199653D01*
X353682Y199589D01*
X353739Y199567D01*
X353757Y199557D01*
X353776Y199552D01*
X353832Y199530D01*
X358896Y197884D01*
X358963Y197871D01*
X359029Y197849D01*
X359188Y197826D01*
X361850Y197617D01*
X361872Y197618D01*
X361950Y197613D01*
X424250Y197613D01*
X434044Y194430D01*
X442377Y188377D01*
X448430Y180044D01*
X451613Y170250D01*
X451613Y112615D01*
X451625Y112517D01*
X451628Y112418D01*
X451645Y112360D01*
X451653Y112300D01*
X451689Y112208D01*
X451717Y112113D01*
X451747Y112060D01*
X451770Y112004D01*
X451828Y111924D01*
X451878Y111839D01*
X451944Y111763D01*
X451956Y111747D01*
X451966Y111739D01*
X451984Y111718D01*
X455052Y108650D01*
X456305Y105625D01*
X456320Y105599D01*
X456329Y105570D01*
X456399Y105461D01*
X456463Y105348D01*
X456484Y105327D01*
X456500Y105302D01*
X456594Y105213D01*
X456684Y105120D01*
X456710Y105104D01*
X456731Y105084D01*
X456845Y105021D01*
X456955Y104954D01*
X456984Y104945D01*
X457010Y104931D01*
X457135Y104898D01*
X457259Y104860D01*
X457289Y104859D01*
X457318Y104851D01*
X457448Y104851D01*
X457577Y104845D01*
X457606Y104851D01*
X457636Y104851D01*
X457761Y104883D01*
X457888Y104909D01*
X457915Y104922D01*
X457944Y104930D01*
X458057Y104992D01*
X458174Y105049D01*
X458197Y105068D01*
X458223Y105083D01*
X458317Y105171D01*
X458416Y105255D01*
X458433Y105280D01*
X458455Y105300D01*
X458524Y105409D01*
X458599Y105515D01*
X458610Y105543D01*
X458626Y105569D01*
X458685Y105718D01*
X458836Y106183D01*
X459689Y107857D01*
X460794Y109378D01*
X462122Y110706D01*
X463643Y111811D01*
X465317Y112664D01*
X467104Y113245D01*
X467361Y113285D01*
X467361Y102870D01*
X467376Y102752D01*
X467383Y102633D01*
X467396Y102595D01*
X467401Y102555D01*
X467444Y102444D01*
X467481Y102331D01*
X467503Y102297D01*
X467518Y102259D01*
X467588Y102163D01*
X467651Y102062D01*
X467681Y102034D01*
X467704Y102002D01*
X467796Y101926D01*
X467883Y101844D01*
X467918Y101825D01*
X467949Y101799D01*
X468057Y101748D01*
X468161Y101691D01*
X468201Y101680D01*
X468237Y101663D01*
X468354Y101641D01*
X468469Y101611D01*
X468530Y101607D01*
X468550Y101603D01*
X468570Y101605D01*
X468630Y101601D01*
X469901Y101601D01*
X469901Y101599D01*
X468630Y101599D01*
X468512Y101584D01*
X468393Y101577D01*
X468355Y101564D01*
X468314Y101559D01*
X468204Y101515D01*
X468091Y101479D01*
X468056Y101457D01*
X468019Y101442D01*
X467923Y101372D01*
X467822Y101309D01*
X467794Y101279D01*
X467761Y101255D01*
X467686Y101164D01*
X467604Y101077D01*
X467584Y101042D01*
X467559Y101010D01*
X467508Y100903D01*
X467450Y100798D01*
X467440Y100759D01*
X467423Y100723D01*
X467401Y100606D01*
X467371Y100491D01*
X467367Y100430D01*
X467363Y100410D01*
X467365Y100390D01*
X467361Y100330D01*
X467361Y89915D01*
X467104Y89955D01*
X465317Y90536D01*
X463643Y91389D01*
X462122Y92494D01*
X460794Y93822D01*
X459689Y95343D01*
X458836Y97017D01*
X458685Y97482D01*
X458672Y97509D01*
X458665Y97538D01*
X458605Y97652D01*
X458550Y97770D01*
X458531Y97793D01*
X458517Y97819D01*
X458430Y97915D01*
X458347Y98015D01*
X458323Y98032D01*
X458303Y98054D01*
X458194Y98126D01*
X458090Y98202D01*
X458062Y98213D01*
X458037Y98229D01*
X457914Y98271D01*
X457794Y98319D01*
X457764Y98323D01*
X457736Y98332D01*
X457607Y98343D01*
X457479Y98359D01*
X457449Y98355D01*
X457419Y98358D01*
X457291Y98335D01*
X457163Y98319D01*
X457135Y98308D01*
X457106Y98303D01*
X456988Y98250D01*
X456867Y98202D01*
X456843Y98185D01*
X456816Y98173D01*
X456715Y98092D01*
X456610Y98016D01*
X456591Y97993D01*
X456567Y97974D01*
X456489Y97870D01*
X456407Y97771D01*
X456394Y97744D01*
X456376Y97720D01*
X456305Y97575D01*
X455052Y94550D01*
X451550Y91048D01*
X446976Y89153D01*
X442024Y89153D01*
X437450Y91048D01*
X433948Y94550D01*
X432973Y96905D01*
X432904Y97025D01*
X432839Y97148D01*
X432825Y97163D01*
X432815Y97181D01*
X432718Y97281D01*
X432625Y97384D01*
X432608Y97395D01*
X432594Y97409D01*
X432475Y97482D01*
X432359Y97558D01*
X432340Y97565D01*
X432323Y97576D01*
X432190Y97616D01*
X432058Y97662D01*
X432038Y97663D01*
X432019Y97669D01*
X431880Y97676D01*
X431741Y97687D01*
X431721Y97683D01*
X431701Y97684D01*
X431565Y97656D01*
X431428Y97632D01*
X431409Y97624D01*
X431390Y97620D01*
X431264Y97559D01*
X431138Y97502D01*
X431122Y97489D01*
X431104Y97480D01*
X430998Y97390D01*
X430890Y97303D01*
X430877Y97287D01*
X430862Y97274D01*
X430782Y97160D01*
X430698Y97049D01*
X430686Y97024D01*
X430679Y97014D01*
X430672Y96995D01*
X430627Y96905D01*
X429652Y94550D01*
X426150Y91048D01*
X421576Y89153D01*
X416624Y89153D01*
X412050Y91048D01*
X408548Y94550D01*
X407573Y96905D01*
X407504Y97025D01*
X407439Y97148D01*
X407425Y97163D01*
X407415Y97181D01*
X407318Y97281D01*
X407225Y97384D01*
X407208Y97395D01*
X407194Y97409D01*
X407075Y97482D01*
X406959Y97558D01*
X406940Y97565D01*
X406923Y97576D01*
X406790Y97616D01*
X406658Y97662D01*
X406638Y97663D01*
X406619Y97669D01*
X406480Y97676D01*
X406341Y97687D01*
X406321Y97683D01*
X406301Y97684D01*
X406165Y97656D01*
X406028Y97632D01*
X406009Y97624D01*
X405990Y97620D01*
X405864Y97559D01*
X405738Y97502D01*
X405722Y97489D01*
X405704Y97480D01*
X405598Y97390D01*
X405490Y97303D01*
X405477Y97287D01*
X405462Y97274D01*
X405382Y97160D01*
X405298Y97049D01*
X405286Y97024D01*
X405279Y97014D01*
X405272Y96995D01*
X405227Y96905D01*
X404252Y94550D01*
X400750Y91048D01*
X396176Y89153D01*
X391224Y89153D01*
X386650Y91048D01*
X383148Y94550D01*
X382173Y96905D01*
X382104Y97025D01*
X382039Y97148D01*
X382025Y97163D01*
X382015Y97181D01*
X381918Y97281D01*
X381825Y97384D01*
X381808Y97395D01*
X381794Y97409D01*
X381675Y97482D01*
X381559Y97558D01*
X381540Y97565D01*
X381523Y97576D01*
X381390Y97616D01*
X381258Y97662D01*
X381238Y97663D01*
X381219Y97669D01*
X381080Y97676D01*
X380941Y97687D01*
X380921Y97683D01*
X380901Y97684D01*
X380765Y97656D01*
X380628Y97632D01*
X380609Y97624D01*
X380590Y97620D01*
X380464Y97559D01*
X380338Y97502D01*
X380322Y97489D01*
X380304Y97480D01*
X380198Y97390D01*
X380090Y97303D01*
X380077Y97287D01*
X380062Y97274D01*
X379982Y97160D01*
X379898Y97049D01*
X379886Y97024D01*
X379879Y97014D01*
X379872Y96995D01*
X379827Y96905D01*
X378852Y94550D01*
X375350Y91048D01*
X370776Y89153D01*
X365824Y89153D01*
X361250Y91048D01*
X357748Y94550D01*
X356773Y96905D01*
X356704Y97025D01*
X356639Y97148D01*
X356625Y97163D01*
X356615Y97181D01*
X356518Y97281D01*
X356425Y97384D01*
X356408Y97395D01*
X356394Y97409D01*
X356275Y97482D01*
X356159Y97558D01*
X356140Y97565D01*
X356123Y97576D01*
X355990Y97617D01*
X355858Y97662D01*
X355838Y97663D01*
X355819Y97669D01*
X355680Y97676D01*
X355541Y97687D01*
X355521Y97683D01*
X355501Y97684D01*
X355365Y97656D01*
X355228Y97632D01*
X355209Y97624D01*
X355190Y97620D01*
X355064Y97559D01*
X354938Y97502D01*
X354922Y97489D01*
X354904Y97480D01*
X354798Y97390D01*
X354690Y97303D01*
X354677Y97287D01*
X354662Y97274D01*
X354582Y97160D01*
X354498Y97049D01*
X354486Y97024D01*
X354479Y97014D01*
X354472Y96995D01*
X354427Y96905D01*
X353452Y94549D01*
X349950Y91048D01*
X345376Y89153D01*
X340424Y89153D01*
X335850Y91048D01*
X332348Y94550D01*
X331373Y96905D01*
X331304Y97025D01*
X331239Y97148D01*
X331225Y97163D01*
X331215Y97181D01*
X331118Y97281D01*
X331025Y97384D01*
X331008Y97395D01*
X330994Y97409D01*
X330875Y97482D01*
X330759Y97558D01*
X330740Y97565D01*
X330723Y97576D01*
X330590Y97617D01*
X330458Y97662D01*
X330438Y97663D01*
X330419Y97669D01*
X330280Y97676D01*
X330141Y97687D01*
X330121Y97683D01*
X330101Y97684D01*
X329965Y97656D01*
X329828Y97632D01*
X329809Y97624D01*
X329790Y97620D01*
X329664Y97559D01*
X329538Y97502D01*
X329522Y97489D01*
X329504Y97480D01*
X329398Y97390D01*
X329290Y97303D01*
X329277Y97287D01*
X329262Y97274D01*
X329182Y97160D01*
X329098Y97049D01*
X329086Y97024D01*
X329079Y97014D01*
X329072Y96995D01*
X329027Y96905D01*
X328052Y94549D01*
X324550Y91048D01*
X319976Y89153D01*
X315024Y89153D01*
X310450Y91048D01*
X306948Y94550D01*
X305973Y96905D01*
X305904Y97025D01*
X305839Y97148D01*
X305825Y97163D01*
X305815Y97181D01*
X305718Y97281D01*
X305625Y97384D01*
X305608Y97395D01*
X305594Y97409D01*
X305475Y97482D01*
X305359Y97558D01*
X305340Y97565D01*
X305323Y97576D01*
X305190Y97617D01*
X305058Y97662D01*
X305038Y97663D01*
X305019Y97669D01*
X304880Y97676D01*
X304741Y97687D01*
X304721Y97683D01*
X304701Y97684D01*
X304565Y97656D01*
X304428Y97632D01*
X304409Y97624D01*
X304390Y97620D01*
X304264Y97559D01*
X304138Y97502D01*
X304122Y97489D01*
X304104Y97480D01*
X303998Y97390D01*
X303890Y97303D01*
X303877Y97287D01*
X303862Y97274D01*
X303782Y97160D01*
X303698Y97049D01*
X303686Y97024D01*
X303679Y97014D01*
X303672Y96995D01*
X303627Y96905D01*
X302652Y94549D01*
X299150Y91048D01*
X294576Y89153D01*
X289624Y89153D01*
X285050Y91048D01*
X281548Y94550D01*
X280573Y96905D01*
X280504Y97025D01*
X280439Y97148D01*
X280425Y97163D01*
X280415Y97181D01*
X280318Y97281D01*
X280225Y97384D01*
X280208Y97395D01*
X280194Y97409D01*
X280075Y97482D01*
X279959Y97558D01*
X279940Y97565D01*
X279923Y97576D01*
X279790Y97617D01*
X279658Y97662D01*
X279638Y97663D01*
X279619Y97669D01*
X279480Y97676D01*
X279341Y97687D01*
X279321Y97683D01*
X279301Y97684D01*
X279165Y97656D01*
X279028Y97632D01*
X279009Y97624D01*
X278990Y97620D01*
X278864Y97559D01*
X278738Y97502D01*
X278722Y97489D01*
X278704Y97480D01*
X278598Y97390D01*
X278490Y97303D01*
X278477Y97287D01*
X278462Y97274D01*
X278382Y97160D01*
X278298Y97049D01*
X278286Y97024D01*
X278279Y97014D01*
X278272Y96995D01*
X278227Y96905D01*
X277252Y94549D01*
X273750Y91048D01*
X269176Y89153D01*
X264224Y89153D01*
X259650Y91048D01*
X256148Y94550D01*
X255173Y96905D01*
X255104Y97025D01*
X255039Y97148D01*
X255025Y97163D01*
X255015Y97181D01*
X254918Y97281D01*
X254825Y97384D01*
X254808Y97395D01*
X254794Y97409D01*
X254675Y97482D01*
X254559Y97558D01*
X254540Y97565D01*
X254523Y97576D01*
X254390Y97617D01*
X254258Y97662D01*
X254238Y97663D01*
X254219Y97669D01*
X254080Y97676D01*
X253941Y97687D01*
X253921Y97683D01*
X253901Y97684D01*
X253765Y97656D01*
X253628Y97632D01*
X253609Y97624D01*
X253590Y97620D01*
X253464Y97559D01*
X253338Y97502D01*
X253322Y97489D01*
X253304Y97480D01*
X253198Y97390D01*
X253090Y97303D01*
X253077Y97287D01*
X253062Y97274D01*
X252982Y97160D01*
X252898Y97049D01*
X252886Y97024D01*
X252879Y97014D01*
X252872Y96995D01*
X252827Y96905D01*
X251852Y94549D01*
X248350Y91048D01*
X243776Y89153D01*
X238824Y89153D01*
X234250Y91048D01*
X230748Y94550D01*
X228853Y99124D01*
X228853Y104076D01*
X230748Y108650D01*
X234250Y112152D01*
X238824Y114047D01*
X243776Y114047D01*
X248350Y112152D01*
X251852Y108651D01*
X252827Y106295D01*
X252896Y106174D01*
X252961Y106052D01*
X252975Y106037D01*
X252985Y106019D01*
X253082Y105919D01*
X253175Y105816D01*
X253192Y105805D01*
X253206Y105791D01*
X253324Y105718D01*
X253441Y105642D01*
X253460Y105635D01*
X253477Y105624D01*
X253610Y105584D01*
X253742Y105538D01*
X253762Y105537D01*
X253781Y105531D01*
X253920Y105524D01*
X254059Y105513D01*
X254079Y105517D01*
X254099Y105516D01*
X254235Y105544D01*
X254372Y105568D01*
X254391Y105576D01*
X254410Y105580D01*
X254535Y105641D01*
X254662Y105698D01*
X254678Y105711D01*
X254696Y105720D01*
X254802Y105810D01*
X254910Y105897D01*
X254923Y105913D01*
X254938Y105926D01*
X255018Y106040D01*
X255102Y106151D01*
X255114Y106176D01*
X255121Y106186D01*
X255128Y106205D01*
X255173Y106295D01*
X256148Y108650D01*
X259650Y112152D01*
X264224Y114047D01*
X269176Y114047D01*
X273750Y112152D01*
X277252Y108651D01*
X278227Y106295D01*
X278296Y106174D01*
X278361Y106052D01*
X278375Y106037D01*
X278385Y106019D01*
X278482Y105919D01*
X278575Y105816D01*
X278592Y105805D01*
X278606Y105791D01*
X278724Y105718D01*
X278841Y105642D01*
X278860Y105635D01*
X278877Y105624D01*
X279010Y105584D01*
X279142Y105538D01*
X279162Y105537D01*
X279181Y105531D01*
X279320Y105524D01*
X279459Y105513D01*
X279479Y105517D01*
X279499Y105516D01*
X279635Y105544D01*
X279772Y105568D01*
X279791Y105576D01*
X279810Y105580D01*
X279935Y105641D01*
X280062Y105698D01*
X280078Y105711D01*
X280096Y105720D01*
X280202Y105810D01*
X280310Y105897D01*
X280323Y105913D01*
X280338Y105926D01*
X280418Y106040D01*
X280502Y106151D01*
X280514Y106176D01*
X280521Y106186D01*
X280528Y106205D01*
X280573Y106295D01*
X281548Y108650D01*
X285050Y112152D01*
X289624Y114047D01*
X294576Y114047D01*
X299150Y112152D01*
X302652Y108651D01*
X303627Y106295D01*
X303696Y106174D01*
X303761Y106052D01*
X303775Y106037D01*
X303785Y106019D01*
X303882Y105919D01*
X303975Y105816D01*
X303992Y105805D01*
X304006Y105791D01*
X304124Y105718D01*
X304241Y105642D01*
X304260Y105635D01*
X304277Y105624D01*
X304410Y105584D01*
X304542Y105538D01*
X304562Y105537D01*
X304581Y105531D01*
X304720Y105524D01*
X304859Y105513D01*
X304879Y105517D01*
X304899Y105516D01*
X305035Y105544D01*
X305172Y105568D01*
X305191Y105576D01*
X305210Y105580D01*
X305335Y105641D01*
X305462Y105698D01*
X305478Y105711D01*
X305496Y105720D01*
X305602Y105810D01*
X305710Y105897D01*
X305723Y105913D01*
X305738Y105926D01*
X305818Y106040D01*
X305902Y106151D01*
X305914Y106176D01*
X305921Y106186D01*
X305928Y106205D01*
X305973Y106295D01*
X306948Y108650D01*
X310450Y112152D01*
X315024Y114047D01*
X319976Y114047D01*
X324550Y112152D01*
X328052Y108651D01*
X329027Y106295D01*
X329096Y106174D01*
X329161Y106052D01*
X329175Y106037D01*
X329185Y106019D01*
X329282Y105919D01*
X329375Y105816D01*
X329392Y105805D01*
X329406Y105791D01*
X329524Y105718D01*
X329641Y105642D01*
X329660Y105635D01*
X329677Y105624D01*
X329810Y105584D01*
X329942Y105538D01*
X329962Y105537D01*
X329981Y105531D01*
X330120Y105524D01*
X330259Y105513D01*
X330279Y105517D01*
X330299Y105516D01*
X330435Y105544D01*
X330572Y105568D01*
X330591Y105576D01*
X330610Y105580D01*
X330735Y105641D01*
X330862Y105698D01*
X330878Y105711D01*
X330896Y105720D01*
X331002Y105810D01*
X331110Y105897D01*
X331123Y105913D01*
X331138Y105926D01*
X331218Y106040D01*
X331302Y106151D01*
X331314Y106176D01*
X331321Y106186D01*
X331328Y106205D01*
X331373Y106295D01*
X332348Y108650D01*
X335850Y112152D01*
X340424Y114047D01*
X345376Y114047D01*
X349950Y112152D01*
X353452Y108651D01*
X354427Y106295D01*
X354496Y106174D01*
X354561Y106052D01*
X354575Y106037D01*
X354585Y106019D01*
X354682Y105919D01*
X354775Y105816D01*
X354792Y105805D01*
X354806Y105791D01*
X354924Y105718D01*
X355041Y105642D01*
X355060Y105635D01*
X355077Y105624D01*
X355210Y105584D01*
X355342Y105538D01*
X355362Y105537D01*
X355381Y105531D01*
X355520Y105524D01*
X355659Y105513D01*
X355679Y105517D01*
X355699Y105516D01*
X355835Y105544D01*
X355972Y105568D01*
X355991Y105576D01*
X356010Y105580D01*
X356135Y105641D01*
X356262Y105698D01*
X356278Y105711D01*
X356296Y105720D01*
X356402Y105810D01*
X356510Y105897D01*
X356523Y105913D01*
X356538Y105926D01*
X356618Y106040D01*
X356702Y106151D01*
X356714Y106176D01*
X356721Y106186D01*
X356728Y106205D01*
X356773Y106295D01*
X357748Y108650D01*
X361250Y112152D01*
X365824Y114047D01*
X370776Y114047D01*
X375350Y112152D01*
X378852Y108650D01*
X379827Y106295D01*
X379896Y106175D01*
X379961Y106052D01*
X379975Y106037D01*
X379985Y106019D01*
X380082Y105919D01*
X380175Y105816D01*
X380192Y105805D01*
X380206Y105791D01*
X380324Y105718D01*
X380441Y105642D01*
X380460Y105635D01*
X380477Y105624D01*
X380610Y105584D01*
X380742Y105538D01*
X380762Y105537D01*
X380781Y105531D01*
X380920Y105524D01*
X381059Y105513D01*
X381079Y105517D01*
X381099Y105516D01*
X381235Y105544D01*
X381372Y105568D01*
X381391Y105576D01*
X381410Y105580D01*
X381535Y105641D01*
X381662Y105698D01*
X381678Y105711D01*
X381696Y105720D01*
X381802Y105810D01*
X381910Y105897D01*
X381923Y105913D01*
X381938Y105926D01*
X382018Y106040D01*
X382102Y106151D01*
X382114Y106176D01*
X382121Y106186D01*
X382128Y106205D01*
X382173Y106295D01*
X383148Y108650D01*
X386650Y112152D01*
X391224Y114047D01*
X396176Y114047D01*
X400750Y112152D01*
X404252Y108650D01*
X405227Y106295D01*
X405296Y106175D01*
X405361Y106052D01*
X405375Y106037D01*
X405385Y106019D01*
X405482Y105919D01*
X405575Y105816D01*
X405592Y105805D01*
X405606Y105791D01*
X405724Y105718D01*
X405841Y105642D01*
X405860Y105635D01*
X405877Y105624D01*
X406010Y105584D01*
X406142Y105538D01*
X406162Y105537D01*
X406181Y105531D01*
X406320Y105524D01*
X406459Y105513D01*
X406479Y105517D01*
X406499Y105516D01*
X406635Y105544D01*
X406772Y105568D01*
X406791Y105576D01*
X406810Y105580D01*
X406935Y105641D01*
X407062Y105698D01*
X407078Y105711D01*
X407096Y105720D01*
X407202Y105810D01*
X407310Y105897D01*
X407323Y105913D01*
X407338Y105926D01*
X407418Y106040D01*
X407502Y106151D01*
X407514Y106176D01*
X407521Y106186D01*
X407528Y106205D01*
X407573Y106295D01*
X408548Y108650D01*
X412050Y112152D01*
X416624Y114047D01*
X421576Y114047D01*
X426150Y112152D01*
X429652Y108650D01*
X430627Y106295D01*
X430696Y106175D01*
X430761Y106052D01*
X430775Y106037D01*
X430785Y106019D01*
X430882Y105919D01*
X430975Y105816D01*
X430992Y105805D01*
X431006Y105791D01*
X431124Y105718D01*
X431241Y105642D01*
X431260Y105635D01*
X431277Y105624D01*
X431410Y105584D01*
X431542Y105538D01*
X431562Y105537D01*
X431581Y105531D01*
X431720Y105524D01*
X431859Y105513D01*
X431879Y105517D01*
X431899Y105516D01*
X432035Y105544D01*
X432172Y105568D01*
X432191Y105576D01*
X432210Y105580D01*
X432335Y105641D01*
X432462Y105698D01*
X432478Y105711D01*
X432496Y105720D01*
X432602Y105810D01*
X432710Y105897D01*
X432723Y105913D01*
X432738Y105926D01*
X432818Y106040D01*
X432902Y106151D01*
X432914Y106176D01*
X432921Y106186D01*
X432928Y106205D01*
X432973Y106295D01*
X433948Y108650D01*
X437016Y111718D01*
X437076Y111796D01*
X437144Y111868D01*
X437173Y111921D01*
X437210Y111969D01*
X437250Y112060D01*
X437298Y112147D01*
X437313Y112205D01*
X437337Y112261D01*
X437352Y112359D01*
X437377Y112455D01*
X437383Y112555D01*
X437387Y112575D01*
X437385Y112587D01*
X437387Y112615D01*
X437387Y165100D01*
X437385Y165122D01*
X437383Y165200D01*
X437174Y167862D01*
X437160Y167930D01*
X437156Y167998D01*
X437116Y168154D01*
X435470Y173218D01*
X435420Y173326D01*
X435376Y173436D01*
X435344Y173487D01*
X435335Y173506D01*
X435322Y173522D01*
X435290Y173572D01*
X432160Y177880D01*
X432079Y177966D01*
X432004Y178058D01*
X431957Y178096D01*
X431943Y178111D01*
X431925Y178122D01*
X431880Y178160D01*
X427572Y181290D01*
X427468Y181347D01*
X427368Y181411D01*
X427311Y181433D01*
X427293Y181443D01*
X427274Y181448D01*
X427218Y181470D01*
X422154Y183116D01*
X422087Y183129D01*
X422021Y183151D01*
X421862Y183174D01*
X419200Y183383D01*
X419178Y183382D01*
X419100Y183387D01*
X356800Y183387D01*
X347006Y186570D01*
X338673Y192623D01*
X332620Y200956D01*
X329437Y210750D01*
X329437Y315468D01*
X329422Y315586D01*
X329415Y315705D01*
X329402Y315743D01*
X329397Y315784D01*
X329354Y315894D01*
X329317Y316007D01*
X329295Y316042D01*
X329280Y316079D01*
X329211Y316175D01*
X329147Y316276D01*
X329117Y316304D01*
X329094Y316337D01*
X329002Y316413D01*
X328915Y316494D01*
X328880Y316514D01*
X328849Y316539D01*
X328741Y316590D01*
X328637Y316648D01*
X328597Y316658D01*
X328561Y316675D01*
X328444Y316697D01*
X328329Y316727D01*
X328269Y316731D01*
X328249Y316735D01*
X328228Y316733D01*
X328168Y316737D01*
X291441Y316737D01*
X291420Y316735D01*
X291358Y316735D01*
X289137Y316589D01*
X289093Y316581D01*
X289049Y316580D01*
X288891Y316548D01*
X284600Y315399D01*
X284521Y315366D01*
X284438Y315343D01*
X284315Y315282D01*
X284306Y315278D01*
X284302Y315276D01*
X284294Y315272D01*
X280446Y313051D01*
X280411Y313024D01*
X280372Y313004D01*
X280244Y312906D01*
X278571Y311438D01*
X278557Y311422D01*
X278510Y311381D01*
X245093Y277965D01*
X245093Y277964D01*
X244362Y277233D01*
X107228Y140099D01*
X106049Y138920D01*
X106036Y138904D01*
X105992Y138859D01*
X104524Y137186D01*
X104500Y137149D01*
X104469Y137118D01*
X104421Y137046D01*
X104407Y137029D01*
X104401Y137015D01*
X104379Y136984D01*
X102158Y133136D01*
X102125Y133057D01*
X102083Y132983D01*
X102039Y132853D01*
X102035Y132843D01*
X102034Y132839D01*
X102031Y132830D01*
X100882Y128539D01*
X100876Y128495D01*
X100862Y128453D01*
X100841Y128293D01*
X100695Y126072D01*
X100697Y126051D01*
X100693Y125989D01*
X100693Y78740D01*
X100708Y78622D01*
X100715Y78503D01*
X100728Y78465D01*
X100733Y78424D01*
X100776Y78314D01*
X100813Y78201D01*
X100835Y78166D01*
X100850Y78129D01*
X100919Y78033D01*
X100983Y77932D01*
X101013Y77904D01*
X101036Y77871D01*
X101128Y77795D01*
X101215Y77714D01*
X101250Y77694D01*
X101281Y77669D01*
X101389Y77618D01*
X101493Y77560D01*
X101533Y77550D01*
X101569Y77533D01*
X101686Y77511D01*
X101801Y77481D01*
X101861Y77477D01*
X101881Y77473D01*
X101902Y77475D01*
X101962Y77471D01*
X104495Y77471D01*
X106281Y75685D01*
X106281Y53855D01*
X104495Y52069D01*
X82665Y52069D01*
G37*
%LPD*%
%LPC*%
G36*
X170290Y386587D02*
X170290Y386587D01*
X162966Y388549D01*
X156401Y392340D01*
X154899Y393842D01*
X153693Y395048D01*
X152542Y396199D01*
X152542Y396200D01*
X135760Y412981D01*
X135744Y412994D01*
X135699Y413038D01*
X134026Y414506D01*
X133989Y414530D01*
X133958Y414561D01*
X133824Y414651D01*
X129976Y416872D01*
X129897Y416905D01*
X129823Y416947D01*
X129693Y416991D01*
X129683Y416995D01*
X129679Y416996D01*
X129670Y416999D01*
X125379Y418148D01*
X125335Y418154D01*
X125293Y418168D01*
X125133Y418189D01*
X122912Y418335D01*
X122891Y418333D01*
X122829Y418337D01*
X38028Y418337D01*
X37930Y418325D01*
X37831Y418322D01*
X37772Y418305D01*
X37712Y418297D01*
X37620Y418261D01*
X37525Y418233D01*
X37473Y418203D01*
X37417Y418180D01*
X37336Y418122D01*
X37251Y418072D01*
X37176Y418006D01*
X37159Y417994D01*
X37151Y417984D01*
X37130Y417966D01*
X36903Y417738D01*
X33559Y416353D01*
X29941Y416353D01*
X26597Y417738D01*
X24038Y420297D01*
X22653Y423641D01*
X22653Y427259D01*
X24038Y430603D01*
X26597Y433162D01*
X29941Y434547D01*
X33559Y434547D01*
X36903Y433162D01*
X37130Y432934D01*
X37209Y432874D01*
X37281Y432806D01*
X37334Y432777D01*
X37382Y432740D01*
X37472Y432700D01*
X37559Y432652D01*
X37618Y432637D01*
X37673Y432613D01*
X37771Y432598D01*
X37867Y432573D01*
X37967Y432567D01*
X37987Y432563D01*
X38000Y432565D01*
X38028Y432563D01*
X127109Y432563D01*
X135379Y430347D01*
X142792Y426067D01*
X144640Y424219D01*
X145943Y422916D01*
X146997Y421861D01*
X146998Y421861D01*
X162601Y406258D01*
X163054Y405805D01*
X163779Y405079D01*
X163796Y405067D01*
X163840Y405023D01*
X165148Y403876D01*
X165185Y403851D01*
X165216Y403820D01*
X165350Y403731D01*
X168357Y401995D01*
X168436Y401962D01*
X168510Y401920D01*
X168640Y401876D01*
X168650Y401872D01*
X168654Y401871D01*
X168663Y401868D01*
X172016Y400970D01*
X172060Y400964D01*
X172102Y400950D01*
X172261Y400929D01*
X173997Y400815D01*
X174018Y400817D01*
X174080Y400813D01*
X224429Y400813D01*
X224450Y400815D01*
X224512Y400815D01*
X226733Y400961D01*
X226777Y400969D01*
X226821Y400970D01*
X226979Y401002D01*
X231270Y402151D01*
X231349Y402184D01*
X231432Y402207D01*
X231555Y402268D01*
X231564Y402272D01*
X231568Y402274D01*
X231576Y402278D01*
X235424Y404499D01*
X235459Y404526D01*
X235498Y404546D01*
X235626Y404644D01*
X237299Y406112D01*
X237313Y406128D01*
X237360Y406169D01*
X254142Y422950D01*
X254349Y423158D01*
X255321Y424129D01*
X255333Y424146D01*
X255377Y424190D01*
X256524Y425498D01*
X256549Y425535D01*
X256580Y425566D01*
X256669Y425700D01*
X258405Y428707D01*
X258438Y428786D01*
X258480Y428860D01*
X258524Y428990D01*
X258528Y429000D01*
X258529Y429004D01*
X258532Y429013D01*
X259430Y432366D01*
X259436Y432410D01*
X259450Y432452D01*
X259471Y432611D01*
X259585Y434347D01*
X259583Y434368D01*
X259587Y434430D01*
X259587Y496985D01*
X259575Y497083D01*
X259572Y497182D01*
X259555Y497240D01*
X259547Y497300D01*
X259511Y497392D01*
X259483Y497487D01*
X259453Y497540D01*
X259430Y497596D01*
X259372Y497676D01*
X259322Y497761D01*
X259256Y497837D01*
X259244Y497853D01*
X259234Y497861D01*
X259216Y497882D01*
X256148Y500950D01*
X255173Y503305D01*
X255104Y503425D01*
X255039Y503548D01*
X255025Y503563D01*
X255015Y503581D01*
X254918Y503681D01*
X254825Y503784D01*
X254808Y503795D01*
X254794Y503809D01*
X254676Y503882D01*
X254559Y503958D01*
X254540Y503965D01*
X254523Y503976D01*
X254390Y504016D01*
X254258Y504062D01*
X254238Y504063D01*
X254219Y504069D01*
X254080Y504076D01*
X253941Y504087D01*
X253921Y504083D01*
X253901Y504084D01*
X253765Y504056D01*
X253628Y504032D01*
X253609Y504024D01*
X253590Y504020D01*
X253465Y503959D01*
X253338Y503902D01*
X253322Y503889D01*
X253304Y503880D01*
X253198Y503790D01*
X253090Y503703D01*
X253077Y503687D01*
X253062Y503674D01*
X252982Y503560D01*
X252898Y503449D01*
X252886Y503424D01*
X252879Y503414D01*
X252872Y503395D01*
X252827Y503305D01*
X251852Y500950D01*
X248784Y497882D01*
X248724Y497804D01*
X248656Y497732D01*
X248627Y497679D01*
X248590Y497631D01*
X248550Y497540D01*
X248502Y497453D01*
X248487Y497395D01*
X248463Y497339D01*
X248448Y497241D01*
X248423Y497145D01*
X248417Y497045D01*
X248413Y497025D01*
X248415Y497013D01*
X248413Y496985D01*
X248413Y434006D01*
X245852Y426124D01*
X240980Y419420D01*
X234276Y414548D01*
X226394Y411987D01*
X203091Y411987D01*
X194821Y414203D01*
X187408Y418483D01*
X185560Y420331D01*
X184207Y421684D01*
X183203Y422688D01*
X183202Y422689D01*
X142110Y463781D01*
X142094Y463794D01*
X142049Y463838D01*
X140376Y465306D01*
X140339Y465330D01*
X140308Y465361D01*
X140174Y465451D01*
X136326Y467672D01*
X136247Y467705D01*
X136173Y467747D01*
X136043Y467791D01*
X136033Y467795D01*
X136029Y467796D01*
X136020Y467799D01*
X131729Y468948D01*
X131685Y468954D01*
X131643Y468968D01*
X131483Y468989D01*
X129262Y469135D01*
X129241Y469133D01*
X129179Y469137D01*
X38028Y469137D01*
X37930Y469125D01*
X37831Y469122D01*
X37772Y469105D01*
X37712Y469097D01*
X37620Y469061D01*
X37525Y469033D01*
X37473Y469003D01*
X37417Y468980D01*
X37336Y468922D01*
X37251Y468872D01*
X37176Y468806D01*
X37159Y468794D01*
X37151Y468784D01*
X37130Y468766D01*
X36903Y468538D01*
X33559Y467153D01*
X29941Y467153D01*
X26597Y468538D01*
X24038Y471097D01*
X22653Y474441D01*
X22653Y478059D01*
X24038Y481403D01*
X26597Y483962D01*
X29941Y485347D01*
X33559Y485347D01*
X36903Y483962D01*
X37130Y483734D01*
X37209Y483674D01*
X37281Y483606D01*
X37334Y483577D01*
X37382Y483540D01*
X37472Y483500D01*
X37559Y483452D01*
X37618Y483437D01*
X37673Y483413D01*
X37771Y483398D01*
X37867Y483373D01*
X37967Y483367D01*
X37987Y483363D01*
X38000Y483365D01*
X38028Y483363D01*
X133459Y483363D01*
X141729Y481147D01*
X149142Y476867D01*
X150990Y475019D01*
X152428Y473581D01*
X152428Y473580D01*
X153347Y472662D01*
X153348Y472661D01*
X194440Y431569D01*
X194456Y431556D01*
X194501Y431512D01*
X196174Y430044D01*
X196211Y430020D01*
X196242Y429989D01*
X196376Y429899D01*
X200224Y427678D01*
X200303Y427645D01*
X200377Y427603D01*
X200507Y427559D01*
X200517Y427555D01*
X200521Y427554D01*
X200530Y427551D01*
X204821Y426402D01*
X204865Y426396D01*
X204907Y426382D01*
X205067Y426361D01*
X207288Y426215D01*
X207309Y426217D01*
X207371Y426213D01*
X222250Y426213D01*
X222272Y426215D01*
X222350Y426217D01*
X224018Y426348D01*
X224086Y426362D01*
X224155Y426366D01*
X224311Y426406D01*
X227485Y427438D01*
X227593Y427488D01*
X227703Y427532D01*
X227755Y427564D01*
X227773Y427573D01*
X227789Y427586D01*
X227839Y427618D01*
X230539Y429580D01*
X230626Y429661D01*
X230718Y429737D01*
X230756Y429783D01*
X230771Y429797D01*
X230782Y429815D01*
X230820Y429861D01*
X232782Y432561D01*
X232839Y432665D01*
X232903Y432765D01*
X232925Y432821D01*
X232935Y432839D01*
X232940Y432859D01*
X232962Y432915D01*
X233994Y436089D01*
X234007Y436157D01*
X234029Y436222D01*
X234052Y436382D01*
X234183Y438050D01*
X234183Y438059D01*
X234185Y438068D01*
X234183Y438088D01*
X234187Y438150D01*
X234187Y496985D01*
X234175Y497083D01*
X234172Y497182D01*
X234155Y497240D01*
X234147Y497300D01*
X234111Y497392D01*
X234083Y497487D01*
X234053Y497540D01*
X234030Y497596D01*
X233972Y497676D01*
X233922Y497761D01*
X233856Y497837D01*
X233844Y497853D01*
X233834Y497861D01*
X233816Y497882D01*
X230748Y500950D01*
X229773Y503305D01*
X229704Y503425D01*
X229639Y503548D01*
X229625Y503563D01*
X229615Y503581D01*
X229518Y503681D01*
X229425Y503784D01*
X229408Y503795D01*
X229394Y503809D01*
X229276Y503882D01*
X229159Y503958D01*
X229140Y503965D01*
X229123Y503976D01*
X228990Y504016D01*
X228858Y504062D01*
X228838Y504063D01*
X228819Y504069D01*
X228680Y504076D01*
X228541Y504087D01*
X228521Y504083D01*
X228501Y504084D01*
X228365Y504056D01*
X228228Y504032D01*
X228209Y504024D01*
X228190Y504020D01*
X228065Y503959D01*
X227938Y503902D01*
X227922Y503889D01*
X227904Y503880D01*
X227798Y503790D01*
X227690Y503703D01*
X227677Y503687D01*
X227662Y503674D01*
X227582Y503560D01*
X227498Y503449D01*
X227486Y503424D01*
X227479Y503414D01*
X227472Y503395D01*
X227427Y503305D01*
X226452Y500950D01*
X223384Y497882D01*
X223324Y497804D01*
X223256Y497732D01*
X223227Y497679D01*
X223190Y497631D01*
X223150Y497540D01*
X223102Y497453D01*
X223087Y497395D01*
X223063Y497339D01*
X223048Y497241D01*
X223023Y497145D01*
X223017Y497045D01*
X223013Y497025D01*
X223015Y497013D01*
X223013Y496985D01*
X223013Y442472D01*
X223014Y442463D01*
X223013Y442454D01*
X223034Y442305D01*
X223053Y442157D01*
X223056Y442148D01*
X223057Y442139D01*
X223109Y441987D01*
X224029Y439767D01*
X224029Y436533D01*
X222791Y433545D01*
X220505Y431259D01*
X217517Y430021D01*
X214283Y430021D01*
X211295Y431259D01*
X209009Y433545D01*
X207771Y436533D01*
X207771Y439767D01*
X208691Y441987D01*
X208693Y441995D01*
X208698Y442004D01*
X208735Y442149D01*
X208775Y442293D01*
X208775Y442303D01*
X208777Y442312D01*
X208787Y442472D01*
X208787Y496985D01*
X208775Y497083D01*
X208772Y497182D01*
X208755Y497240D01*
X208747Y497300D01*
X208711Y497392D01*
X208683Y497487D01*
X208653Y497540D01*
X208630Y497596D01*
X208572Y497676D01*
X208522Y497761D01*
X208456Y497837D01*
X208444Y497853D01*
X208434Y497861D01*
X208416Y497882D01*
X205348Y500950D01*
X204373Y503305D01*
X204304Y503425D01*
X204239Y503548D01*
X204225Y503563D01*
X204215Y503581D01*
X204118Y503681D01*
X204025Y503784D01*
X204008Y503795D01*
X203994Y503809D01*
X203876Y503882D01*
X203759Y503958D01*
X203740Y503965D01*
X203723Y503976D01*
X203590Y504016D01*
X203458Y504062D01*
X203438Y504063D01*
X203419Y504069D01*
X203280Y504076D01*
X203141Y504087D01*
X203121Y504083D01*
X203101Y504084D01*
X202965Y504056D01*
X202828Y504032D01*
X202809Y504024D01*
X202790Y504020D01*
X202665Y503959D01*
X202538Y503902D01*
X202522Y503889D01*
X202504Y503880D01*
X202398Y503790D01*
X202290Y503703D01*
X202277Y503687D01*
X202262Y503674D01*
X202182Y503560D01*
X202098Y503449D01*
X202086Y503424D01*
X202079Y503414D01*
X202072Y503395D01*
X202027Y503305D01*
X201052Y500950D01*
X197550Y497448D01*
X192976Y495553D01*
X188024Y495553D01*
X183450Y497448D01*
X179948Y500950D01*
X178973Y503305D01*
X178904Y503425D01*
X178839Y503548D01*
X178825Y503563D01*
X178815Y503581D01*
X178718Y503681D01*
X178625Y503784D01*
X178608Y503795D01*
X178594Y503809D01*
X178476Y503882D01*
X178359Y503958D01*
X178340Y503965D01*
X178323Y503976D01*
X178190Y504016D01*
X178058Y504062D01*
X178038Y504063D01*
X178019Y504069D01*
X177880Y504076D01*
X177741Y504087D01*
X177721Y504083D01*
X177701Y504084D01*
X177565Y504056D01*
X177428Y504032D01*
X177409Y504024D01*
X177390Y504020D01*
X177265Y503959D01*
X177138Y503902D01*
X177122Y503889D01*
X177104Y503880D01*
X176998Y503790D01*
X176890Y503703D01*
X176877Y503687D01*
X176862Y503674D01*
X176782Y503560D01*
X176698Y503449D01*
X176686Y503424D01*
X176679Y503414D01*
X176672Y503395D01*
X176627Y503305D01*
X175652Y500950D01*
X172150Y497448D01*
X167576Y495553D01*
X162624Y495553D01*
X158050Y497448D01*
X154548Y500950D01*
X152653Y505524D01*
X152653Y510476D01*
X154548Y515050D01*
X158050Y518552D01*
X162624Y520447D01*
X167576Y520447D01*
X172150Y518552D01*
X175652Y515050D01*
X176627Y512695D01*
X176696Y512575D01*
X176761Y512452D01*
X176775Y512437D01*
X176785Y512419D01*
X176882Y512319D01*
X176975Y512216D01*
X176992Y512205D01*
X177006Y512191D01*
X177125Y512118D01*
X177241Y512042D01*
X177260Y512035D01*
X177277Y512024D01*
X177410Y511984D01*
X177542Y511938D01*
X177562Y511937D01*
X177581Y511931D01*
X177720Y511924D01*
X177859Y511913D01*
X177879Y511917D01*
X177899Y511916D01*
X178035Y511944D01*
X178172Y511968D01*
X178191Y511976D01*
X178210Y511980D01*
X178336Y512041D01*
X178462Y512098D01*
X178478Y512111D01*
X178496Y512120D01*
X178602Y512210D01*
X178710Y512297D01*
X178723Y512313D01*
X178738Y512326D01*
X178818Y512440D01*
X178902Y512551D01*
X178914Y512576D01*
X178921Y512586D01*
X178928Y512605D01*
X178973Y512695D01*
X179948Y515050D01*
X183450Y518552D01*
X188024Y520447D01*
X192976Y520447D01*
X197550Y518552D01*
X201052Y515050D01*
X202027Y512695D01*
X202096Y512575D01*
X202161Y512452D01*
X202175Y512437D01*
X202185Y512419D01*
X202282Y512319D01*
X202375Y512216D01*
X202392Y512205D01*
X202406Y512191D01*
X202525Y512118D01*
X202641Y512042D01*
X202660Y512035D01*
X202677Y512024D01*
X202810Y511984D01*
X202942Y511938D01*
X202962Y511937D01*
X202981Y511931D01*
X203120Y511924D01*
X203259Y511913D01*
X203279Y511917D01*
X203299Y511916D01*
X203435Y511944D01*
X203572Y511968D01*
X203591Y511976D01*
X203610Y511980D01*
X203736Y512041D01*
X203862Y512098D01*
X203878Y512111D01*
X203896Y512120D01*
X204002Y512210D01*
X204110Y512297D01*
X204123Y512313D01*
X204138Y512326D01*
X204218Y512440D01*
X204302Y512551D01*
X204314Y512576D01*
X204321Y512586D01*
X204328Y512605D01*
X204373Y512695D01*
X205348Y515050D01*
X208850Y518552D01*
X213424Y520447D01*
X218376Y520447D01*
X222950Y518552D01*
X226452Y515050D01*
X227427Y512695D01*
X227496Y512575D01*
X227561Y512452D01*
X227575Y512437D01*
X227585Y512419D01*
X227682Y512319D01*
X227775Y512216D01*
X227792Y512205D01*
X227806Y512191D01*
X227925Y512118D01*
X228041Y512042D01*
X228060Y512035D01*
X228077Y512024D01*
X228210Y511984D01*
X228342Y511938D01*
X228362Y511937D01*
X228381Y511931D01*
X228520Y511924D01*
X228659Y511913D01*
X228679Y511917D01*
X228699Y511916D01*
X228835Y511944D01*
X228972Y511968D01*
X228991Y511976D01*
X229010Y511980D01*
X229136Y512041D01*
X229262Y512098D01*
X229278Y512111D01*
X229296Y512120D01*
X229402Y512210D01*
X229510Y512297D01*
X229523Y512313D01*
X229538Y512326D01*
X229618Y512440D01*
X229702Y512551D01*
X229714Y512576D01*
X229721Y512586D01*
X229728Y512605D01*
X229773Y512695D01*
X230748Y515050D01*
X234250Y518552D01*
X238824Y520447D01*
X243776Y520447D01*
X248350Y518552D01*
X251852Y515050D01*
X252827Y512695D01*
X252896Y512575D01*
X252961Y512452D01*
X252975Y512437D01*
X252985Y512419D01*
X253082Y512319D01*
X253175Y512216D01*
X253192Y512205D01*
X253206Y512191D01*
X253325Y512118D01*
X253441Y512042D01*
X253460Y512035D01*
X253477Y512024D01*
X253610Y511984D01*
X253742Y511938D01*
X253762Y511937D01*
X253781Y511931D01*
X253920Y511924D01*
X254059Y511913D01*
X254079Y511917D01*
X254099Y511916D01*
X254235Y511944D01*
X254372Y511968D01*
X254391Y511976D01*
X254410Y511980D01*
X254536Y512041D01*
X254662Y512098D01*
X254678Y512111D01*
X254696Y512120D01*
X254802Y512210D01*
X254910Y512297D01*
X254923Y512313D01*
X254938Y512326D01*
X255018Y512440D01*
X255102Y512551D01*
X255114Y512576D01*
X255121Y512586D01*
X255128Y512605D01*
X255173Y512695D01*
X256148Y515050D01*
X259650Y518552D01*
X264224Y520447D01*
X269176Y520447D01*
X273750Y518552D01*
X277252Y515050D01*
X278227Y512695D01*
X278296Y512575D01*
X278361Y512452D01*
X278375Y512437D01*
X278385Y512419D01*
X278482Y512319D01*
X278575Y512216D01*
X278592Y512205D01*
X278606Y512191D01*
X278725Y512118D01*
X278841Y512042D01*
X278860Y512035D01*
X278877Y512024D01*
X279010Y511984D01*
X279142Y511938D01*
X279162Y511937D01*
X279181Y511931D01*
X279320Y511924D01*
X279459Y511913D01*
X279479Y511917D01*
X279499Y511916D01*
X279635Y511944D01*
X279772Y511968D01*
X279791Y511976D01*
X279810Y511980D01*
X279936Y512041D01*
X280062Y512098D01*
X280078Y512111D01*
X280096Y512120D01*
X280202Y512210D01*
X280310Y512297D01*
X280323Y512313D01*
X280338Y512326D01*
X280418Y512440D01*
X280502Y512551D01*
X280514Y512576D01*
X280521Y512586D01*
X280528Y512605D01*
X280573Y512695D01*
X281548Y515050D01*
X285050Y518552D01*
X289624Y520447D01*
X294576Y520447D01*
X299150Y518552D01*
X302652Y515050D01*
X304547Y510476D01*
X304547Y505524D01*
X302652Y500950D01*
X299584Y497882D01*
X299524Y497804D01*
X299456Y497732D01*
X299427Y497679D01*
X299390Y497631D01*
X299350Y497540D01*
X299302Y497453D01*
X299287Y497395D01*
X299263Y497339D01*
X299248Y497241D01*
X299223Y497145D01*
X299217Y497045D01*
X299213Y497025D01*
X299215Y497013D01*
X299213Y496985D01*
X299213Y423422D01*
X299214Y423413D01*
X299213Y423404D01*
X299234Y423255D01*
X299253Y423107D01*
X299256Y423098D01*
X299257Y423089D01*
X299309Y422937D01*
X300229Y420717D01*
X300229Y417483D01*
X298991Y414495D01*
X296705Y412209D01*
X293717Y410971D01*
X290483Y410971D01*
X287495Y412209D01*
X285209Y414495D01*
X283971Y417483D01*
X283971Y420717D01*
X284891Y422937D01*
X284893Y422945D01*
X284898Y422954D01*
X284935Y423099D01*
X284975Y423243D01*
X284975Y423253D01*
X284977Y423262D01*
X284987Y423422D01*
X284987Y496985D01*
X284975Y497083D01*
X284972Y497182D01*
X284955Y497240D01*
X284947Y497300D01*
X284911Y497392D01*
X284883Y497487D01*
X284853Y497540D01*
X284830Y497596D01*
X284772Y497676D01*
X284722Y497761D01*
X284656Y497837D01*
X284644Y497853D01*
X284634Y497861D01*
X284616Y497882D01*
X281548Y500950D01*
X280573Y503305D01*
X280504Y503425D01*
X280439Y503548D01*
X280425Y503563D01*
X280415Y503581D01*
X280318Y503681D01*
X280225Y503784D01*
X280208Y503795D01*
X280194Y503809D01*
X280076Y503882D01*
X279959Y503958D01*
X279940Y503965D01*
X279923Y503976D01*
X279790Y504016D01*
X279658Y504062D01*
X279638Y504063D01*
X279619Y504069D01*
X279480Y504076D01*
X279341Y504087D01*
X279321Y504083D01*
X279301Y504084D01*
X279165Y504056D01*
X279028Y504032D01*
X279009Y504024D01*
X278990Y504020D01*
X278865Y503959D01*
X278738Y503902D01*
X278722Y503889D01*
X278704Y503880D01*
X278598Y503790D01*
X278490Y503703D01*
X278477Y503687D01*
X278462Y503674D01*
X278382Y503560D01*
X278298Y503449D01*
X278286Y503424D01*
X278279Y503414D01*
X278272Y503395D01*
X278227Y503305D01*
X277252Y500950D01*
X274184Y497882D01*
X274124Y497804D01*
X274056Y497732D01*
X274027Y497679D01*
X273990Y497631D01*
X273950Y497540D01*
X273902Y497453D01*
X273887Y497395D01*
X273863Y497339D01*
X273848Y497241D01*
X273823Y497145D01*
X273817Y497045D01*
X273813Y497025D01*
X273815Y497013D01*
X273813Y496985D01*
X273813Y430640D01*
X271851Y423316D01*
X268060Y416751D01*
X266558Y415250D01*
X266558Y415249D01*
X265302Y413993D01*
X264201Y412892D01*
X264200Y412892D01*
X248598Y397289D01*
X247524Y396215D01*
X247523Y396214D01*
X246240Y394931D01*
X244392Y393083D01*
X236979Y388803D01*
X228709Y386587D01*
X170290Y386587D01*
G37*
%LPD*%
%LPC*%
G36*
X378524Y12953D02*
X378524Y12953D01*
X373950Y14848D01*
X370448Y18350D01*
X368553Y22924D01*
X368553Y27876D01*
X370448Y32450D01*
X373950Y35952D01*
X378524Y37847D01*
X383476Y37847D01*
X388050Y35952D01*
X391552Y32450D01*
X392527Y30095D01*
X392596Y29975D01*
X392661Y29852D01*
X392675Y29837D01*
X392685Y29819D01*
X392782Y29719D01*
X392875Y29616D01*
X392892Y29605D01*
X392906Y29591D01*
X393024Y29518D01*
X393141Y29442D01*
X393160Y29435D01*
X393177Y29424D01*
X393310Y29384D01*
X393442Y29338D01*
X393462Y29337D01*
X393481Y29331D01*
X393620Y29324D01*
X393759Y29313D01*
X393779Y29317D01*
X393799Y29316D01*
X393935Y29344D01*
X394072Y29368D01*
X394091Y29376D01*
X394110Y29380D01*
X394235Y29441D01*
X394362Y29498D01*
X394378Y29511D01*
X394396Y29520D01*
X394502Y29610D01*
X394610Y29697D01*
X394623Y29713D01*
X394638Y29726D01*
X394718Y29840D01*
X394802Y29951D01*
X394814Y29976D01*
X394821Y29986D01*
X394828Y30005D01*
X394873Y30095D01*
X395848Y32450D01*
X399349Y35952D01*
X400030Y36234D01*
X400121Y36286D01*
X400216Y36330D01*
X400259Y36364D01*
X400307Y36391D01*
X400382Y36464D01*
X400463Y36530D01*
X400496Y36575D01*
X400535Y36613D01*
X400590Y36702D01*
X400652Y36786D01*
X400673Y36837D01*
X400701Y36884D01*
X400732Y36984D01*
X400771Y37081D01*
X400789Y37167D01*
X400795Y37188D01*
X400796Y37203D01*
X400803Y37239D01*
X401816Y44839D01*
X401816Y44842D01*
X401817Y44846D01*
X401827Y45006D01*
X401827Y49600D01*
X405010Y59394D01*
X411063Y67727D01*
X419396Y73780D01*
X429190Y76963D01*
X527050Y76963D01*
X527072Y76965D01*
X527150Y76967D01*
X529812Y77176D01*
X529880Y77190D01*
X529948Y77194D01*
X530104Y77234D01*
X535168Y78880D01*
X535276Y78930D01*
X535386Y78974D01*
X535437Y79006D01*
X535456Y79015D01*
X535472Y79028D01*
X535522Y79060D01*
X539830Y82190D01*
X539916Y82271D01*
X540008Y82346D01*
X540046Y82393D01*
X540061Y82407D01*
X540072Y82425D01*
X540110Y82470D01*
X543240Y86778D01*
X543297Y86882D01*
X543361Y86982D01*
X543383Y87039D01*
X543393Y87057D01*
X543398Y87076D01*
X543420Y87132D01*
X545066Y92196D01*
X545079Y92263D01*
X545101Y92329D01*
X545124Y92488D01*
X545333Y95150D01*
X545332Y95172D01*
X545337Y95250D01*
X545337Y173775D01*
X545325Y173874D01*
X545322Y173973D01*
X545305Y174031D01*
X545297Y174091D01*
X545261Y174183D01*
X545233Y174278D01*
X545203Y174330D01*
X545180Y174387D01*
X545122Y174467D01*
X545072Y174552D01*
X545006Y174627D01*
X544994Y174644D01*
X544984Y174652D01*
X544966Y174673D01*
X543401Y176237D01*
X543401Y186763D01*
X545187Y188549D01*
X550628Y188549D01*
X550637Y188550D01*
X550647Y188549D01*
X550796Y188570D01*
X550944Y188589D01*
X550952Y188592D01*
X550962Y188593D01*
X551018Y188613D01*
X553903Y188613D01*
X553948Y188601D01*
X554093Y188561D01*
X554102Y188561D01*
X554111Y188559D01*
X554272Y188549D01*
X559713Y188549D01*
X561499Y186763D01*
X561499Y176237D01*
X559934Y174673D01*
X559874Y174595D01*
X559806Y174523D01*
X559777Y174470D01*
X559740Y174422D01*
X559700Y174331D01*
X559652Y174244D01*
X559637Y174185D01*
X559613Y174130D01*
X559598Y174032D01*
X559573Y173936D01*
X559567Y173836D01*
X559563Y173816D01*
X559565Y173803D01*
X559563Y173775D01*
X559563Y90100D01*
X556380Y80306D01*
X550327Y71973D01*
X541994Y65920D01*
X532200Y62737D01*
X434340Y62737D01*
X434318Y62735D01*
X434240Y62733D01*
X431578Y62524D01*
X431510Y62510D01*
X431442Y62506D01*
X431286Y62466D01*
X426222Y60820D01*
X426114Y60770D01*
X426004Y60726D01*
X425953Y60694D01*
X425934Y60685D01*
X425918Y60672D01*
X425868Y60640D01*
X421560Y57510D01*
X421474Y57429D01*
X421382Y57354D01*
X421344Y57307D01*
X421329Y57293D01*
X421318Y57275D01*
X421280Y57230D01*
X418150Y52922D01*
X418093Y52818D01*
X418029Y52718D01*
X418007Y52661D01*
X417997Y52643D01*
X417992Y52624D01*
X417970Y52568D01*
X416324Y47504D01*
X416311Y47437D01*
X416289Y47371D01*
X416266Y47212D01*
X416123Y45396D01*
X416130Y45262D01*
X416131Y45128D01*
X416138Y45093D01*
X416138Y45078D01*
X416145Y45058D01*
X416162Y44970D01*
X416177Y44912D01*
X416064Y44062D01*
X416064Y44058D01*
X416063Y44054D01*
X416053Y43894D01*
X416053Y43035D01*
X415931Y42741D01*
X415909Y42659D01*
X415877Y42581D01*
X415849Y42443D01*
X415847Y42434D01*
X415847Y42431D01*
X415845Y42423D01*
X414885Y35222D01*
X414885Y35198D01*
X414880Y35175D01*
X414884Y35039D01*
X414883Y34904D01*
X414889Y34881D01*
X414889Y34857D01*
X414927Y34726D01*
X414960Y34595D01*
X414971Y34574D01*
X414978Y34551D01*
X415047Y34435D01*
X415111Y34315D01*
X415127Y34298D01*
X415139Y34277D01*
X415246Y34156D01*
X416952Y32450D01*
X417927Y30095D01*
X417996Y29975D01*
X418061Y29852D01*
X418075Y29837D01*
X418085Y29819D01*
X418182Y29719D01*
X418275Y29616D01*
X418292Y29605D01*
X418306Y29591D01*
X418424Y29518D01*
X418541Y29442D01*
X418560Y29435D01*
X418577Y29424D01*
X418710Y29384D01*
X418842Y29338D01*
X418862Y29337D01*
X418881Y29331D01*
X419020Y29324D01*
X419159Y29313D01*
X419179Y29317D01*
X419199Y29316D01*
X419335Y29344D01*
X419472Y29368D01*
X419491Y29376D01*
X419510Y29380D01*
X419635Y29441D01*
X419762Y29498D01*
X419778Y29511D01*
X419796Y29520D01*
X419902Y29610D01*
X420010Y29697D01*
X420023Y29713D01*
X420038Y29726D01*
X420118Y29840D01*
X420202Y29951D01*
X420214Y29976D01*
X420221Y29986D01*
X420228Y30005D01*
X420273Y30095D01*
X421248Y32450D01*
X424750Y35952D01*
X429324Y37847D01*
X434276Y37847D01*
X438850Y35952D01*
X442352Y32450D01*
X443327Y30095D01*
X443396Y29975D01*
X443461Y29852D01*
X443475Y29837D01*
X443485Y29819D01*
X443582Y29719D01*
X443675Y29616D01*
X443692Y29605D01*
X443706Y29591D01*
X443824Y29518D01*
X443941Y29442D01*
X443960Y29435D01*
X443977Y29424D01*
X444110Y29384D01*
X444242Y29338D01*
X444262Y29337D01*
X444281Y29331D01*
X444420Y29324D01*
X444559Y29313D01*
X444579Y29317D01*
X444599Y29316D01*
X444735Y29344D01*
X444872Y29368D01*
X444891Y29376D01*
X444910Y29380D01*
X445035Y29441D01*
X445162Y29498D01*
X445178Y29511D01*
X445196Y29520D01*
X445302Y29610D01*
X445410Y29697D01*
X445423Y29713D01*
X445438Y29726D01*
X445518Y29840D01*
X445602Y29951D01*
X445614Y29976D01*
X445621Y29986D01*
X445628Y30005D01*
X445673Y30095D01*
X446648Y32450D01*
X450150Y35952D01*
X454724Y37847D01*
X459676Y37847D01*
X464250Y35952D01*
X467752Y32450D01*
X468727Y30095D01*
X468796Y29975D01*
X468861Y29852D01*
X468875Y29837D01*
X468885Y29819D01*
X468982Y29719D01*
X469075Y29616D01*
X469092Y29605D01*
X469106Y29591D01*
X469224Y29518D01*
X469341Y29442D01*
X469360Y29435D01*
X469377Y29424D01*
X469510Y29384D01*
X469642Y29338D01*
X469662Y29337D01*
X469681Y29331D01*
X469820Y29324D01*
X469959Y29313D01*
X469979Y29317D01*
X469999Y29316D01*
X470135Y29344D01*
X470272Y29368D01*
X470291Y29376D01*
X470310Y29380D01*
X470435Y29441D01*
X470562Y29498D01*
X470578Y29511D01*
X470596Y29520D01*
X470702Y29610D01*
X470810Y29697D01*
X470823Y29713D01*
X470838Y29726D01*
X470918Y29840D01*
X471002Y29951D01*
X471014Y29976D01*
X471021Y29986D01*
X471028Y30005D01*
X471073Y30095D01*
X472048Y32450D01*
X475550Y35952D01*
X480124Y37847D01*
X485076Y37847D01*
X489650Y35952D01*
X493152Y32450D01*
X494127Y30095D01*
X494196Y29975D01*
X494261Y29852D01*
X494275Y29837D01*
X494285Y29819D01*
X494382Y29719D01*
X494475Y29616D01*
X494492Y29605D01*
X494506Y29591D01*
X494625Y29518D01*
X494741Y29442D01*
X494760Y29435D01*
X494777Y29424D01*
X494910Y29384D01*
X495042Y29338D01*
X495062Y29337D01*
X495081Y29331D01*
X495220Y29324D01*
X495359Y29313D01*
X495379Y29317D01*
X495399Y29316D01*
X495535Y29344D01*
X495672Y29368D01*
X495691Y29376D01*
X495710Y29380D01*
X495836Y29441D01*
X495962Y29498D01*
X495978Y29511D01*
X495996Y29520D01*
X496102Y29610D01*
X496210Y29697D01*
X496223Y29713D01*
X496238Y29726D01*
X496318Y29840D01*
X496402Y29951D01*
X496414Y29976D01*
X496421Y29986D01*
X496428Y30005D01*
X496473Y30095D01*
X497448Y32450D01*
X500950Y35952D01*
X505524Y37847D01*
X510476Y37847D01*
X515050Y35952D01*
X518552Y32450D01*
X519805Y29425D01*
X519820Y29399D01*
X519829Y29370D01*
X519899Y29261D01*
X519963Y29148D01*
X519984Y29127D01*
X520000Y29102D01*
X520094Y29013D01*
X520184Y28920D01*
X520210Y28904D01*
X520231Y28884D01*
X520345Y28821D01*
X520455Y28754D01*
X520484Y28745D01*
X520510Y28731D01*
X520635Y28698D01*
X520759Y28660D01*
X520789Y28659D01*
X520818Y28651D01*
X520948Y28651D01*
X521077Y28645D01*
X521106Y28651D01*
X521136Y28651D01*
X521261Y28683D01*
X521388Y28709D01*
X521415Y28722D01*
X521444Y28730D01*
X521557Y28792D01*
X521674Y28849D01*
X521697Y28868D01*
X521723Y28883D01*
X521817Y28971D01*
X521916Y29055D01*
X521933Y29080D01*
X521955Y29100D01*
X522024Y29209D01*
X522099Y29315D01*
X522110Y29343D01*
X522126Y29369D01*
X522185Y29518D01*
X522336Y29983D01*
X523189Y31657D01*
X524294Y33178D01*
X525622Y34506D01*
X527143Y35611D01*
X528817Y36464D01*
X530604Y37045D01*
X530861Y37085D01*
X530861Y26670D01*
X530876Y26552D01*
X530883Y26433D01*
X530896Y26395D01*
X530901Y26355D01*
X530944Y26244D01*
X530981Y26131D01*
X531003Y26097D01*
X531018Y26059D01*
X531088Y25963D01*
X531151Y25862D01*
X531181Y25834D01*
X531204Y25802D01*
X531296Y25726D01*
X531383Y25644D01*
X531418Y25625D01*
X531449Y25599D01*
X531557Y25548D01*
X531661Y25491D01*
X531701Y25480D01*
X531737Y25463D01*
X531854Y25441D01*
X531969Y25411D01*
X532030Y25407D01*
X532050Y25403D01*
X532070Y25405D01*
X532130Y25401D01*
X534670Y25401D01*
X534788Y25416D01*
X534907Y25423D01*
X534945Y25436D01*
X534985Y25441D01*
X535096Y25485D01*
X535209Y25521D01*
X535244Y25543D01*
X535281Y25558D01*
X535377Y25628D01*
X535478Y25691D01*
X535506Y25721D01*
X535539Y25745D01*
X535614Y25836D01*
X535696Y25923D01*
X535716Y25958D01*
X535741Y25990D01*
X535792Y26097D01*
X535850Y26202D01*
X535860Y26241D01*
X535877Y26277D01*
X535899Y26394D01*
X535929Y26509D01*
X535933Y26570D01*
X535937Y26590D01*
X535935Y26610D01*
X535939Y26670D01*
X535939Y37085D01*
X536196Y37045D01*
X537983Y36464D01*
X539657Y35611D01*
X541178Y34506D01*
X542506Y33178D01*
X543611Y31657D01*
X544464Y29983D01*
X544615Y29518D01*
X544628Y29491D01*
X544635Y29462D01*
X544695Y29348D01*
X544750Y29230D01*
X544769Y29207D01*
X544783Y29181D01*
X544870Y29085D01*
X544953Y28985D01*
X544977Y28968D01*
X544997Y28946D01*
X545106Y28874D01*
X545210Y28798D01*
X545238Y28787D01*
X545263Y28771D01*
X545386Y28729D01*
X545506Y28681D01*
X545536Y28677D01*
X545564Y28668D01*
X545693Y28657D01*
X545821Y28641D01*
X545851Y28645D01*
X545881Y28642D01*
X546009Y28665D01*
X546137Y28681D01*
X546165Y28692D01*
X546194Y28697D01*
X546312Y28750D01*
X546433Y28798D01*
X546457Y28815D01*
X546484Y28827D01*
X546585Y28908D01*
X546690Y28984D01*
X546709Y29007D01*
X546733Y29026D01*
X546811Y29130D01*
X546893Y29229D01*
X546906Y29256D01*
X546924Y29280D01*
X546995Y29425D01*
X548248Y32450D01*
X551750Y35952D01*
X556324Y37847D01*
X561276Y37847D01*
X565850Y35952D01*
X569352Y32451D01*
X570327Y30095D01*
X570396Y29974D01*
X570461Y29852D01*
X570475Y29837D01*
X570485Y29819D01*
X570582Y29719D01*
X570675Y29616D01*
X570692Y29605D01*
X570706Y29591D01*
X570824Y29518D01*
X570941Y29442D01*
X570960Y29435D01*
X570977Y29424D01*
X571110Y29384D01*
X571242Y29338D01*
X571262Y29337D01*
X571281Y29331D01*
X571420Y29324D01*
X571559Y29313D01*
X571579Y29317D01*
X571599Y29316D01*
X571735Y29344D01*
X571872Y29368D01*
X571891Y29376D01*
X571910Y29380D01*
X572035Y29441D01*
X572162Y29498D01*
X572178Y29511D01*
X572196Y29520D01*
X572302Y29610D01*
X572410Y29697D01*
X572423Y29713D01*
X572438Y29726D01*
X572518Y29840D01*
X572602Y29951D01*
X572614Y29976D01*
X572621Y29986D01*
X572628Y30005D01*
X572673Y30095D01*
X573648Y32450D01*
X577150Y35952D01*
X581724Y37847D01*
X586676Y37847D01*
X591250Y35952D01*
X594752Y32451D01*
X595727Y30095D01*
X595796Y29974D01*
X595861Y29852D01*
X595875Y29837D01*
X595885Y29819D01*
X595982Y29719D01*
X596075Y29616D01*
X596092Y29605D01*
X596106Y29591D01*
X596224Y29518D01*
X596341Y29442D01*
X596360Y29435D01*
X596377Y29424D01*
X596510Y29384D01*
X596642Y29338D01*
X596662Y29337D01*
X596681Y29331D01*
X596820Y29324D01*
X596959Y29313D01*
X596979Y29317D01*
X596999Y29316D01*
X597135Y29344D01*
X597272Y29368D01*
X597291Y29376D01*
X597310Y29380D01*
X597435Y29441D01*
X597562Y29498D01*
X597578Y29511D01*
X597596Y29520D01*
X597702Y29610D01*
X597810Y29697D01*
X597823Y29713D01*
X597838Y29726D01*
X597918Y29840D01*
X598002Y29951D01*
X598014Y29976D01*
X598021Y29986D01*
X598028Y30005D01*
X598073Y30095D01*
X599048Y32450D01*
X602550Y35952D01*
X607124Y37847D01*
X612076Y37847D01*
X616650Y35952D01*
X620152Y32450D01*
X622047Y27876D01*
X622047Y22924D01*
X620152Y18350D01*
X616650Y14848D01*
X612076Y12953D01*
X607124Y12953D01*
X602550Y14848D01*
X599048Y18350D01*
X598073Y20705D01*
X598004Y20825D01*
X597939Y20948D01*
X597925Y20963D01*
X597915Y20981D01*
X597818Y21081D01*
X597725Y21184D01*
X597708Y21195D01*
X597694Y21209D01*
X597575Y21282D01*
X597459Y21358D01*
X597440Y21365D01*
X597423Y21376D01*
X597290Y21417D01*
X597158Y21462D01*
X597138Y21463D01*
X597119Y21469D01*
X596980Y21476D01*
X596841Y21487D01*
X596821Y21483D01*
X596801Y21484D01*
X596665Y21456D01*
X596528Y21432D01*
X596509Y21424D01*
X596490Y21420D01*
X596364Y21359D01*
X596238Y21302D01*
X596222Y21289D01*
X596204Y21280D01*
X596098Y21190D01*
X595990Y21103D01*
X595977Y21087D01*
X595962Y21074D01*
X595882Y20960D01*
X595798Y20849D01*
X595786Y20824D01*
X595779Y20814D01*
X595772Y20795D01*
X595727Y20705D01*
X594752Y18349D01*
X591250Y14848D01*
X586676Y12953D01*
X581724Y12953D01*
X577150Y14848D01*
X573648Y18350D01*
X572673Y20705D01*
X572604Y20825D01*
X572539Y20948D01*
X572525Y20963D01*
X572515Y20981D01*
X572418Y21081D01*
X572325Y21184D01*
X572308Y21195D01*
X572294Y21209D01*
X572175Y21282D01*
X572059Y21358D01*
X572040Y21365D01*
X572023Y21376D01*
X571890Y21417D01*
X571758Y21462D01*
X571738Y21463D01*
X571719Y21469D01*
X571580Y21476D01*
X571441Y21487D01*
X571421Y21483D01*
X571401Y21484D01*
X571265Y21456D01*
X571128Y21432D01*
X571109Y21424D01*
X571090Y21420D01*
X570964Y21359D01*
X570838Y21302D01*
X570822Y21289D01*
X570804Y21280D01*
X570698Y21190D01*
X570590Y21103D01*
X570577Y21087D01*
X570562Y21074D01*
X570482Y20960D01*
X570398Y20849D01*
X570386Y20824D01*
X570379Y20814D01*
X570372Y20795D01*
X570327Y20705D01*
X569352Y18349D01*
X565850Y14848D01*
X561276Y12953D01*
X556324Y12953D01*
X551750Y14848D01*
X548248Y18350D01*
X546995Y21375D01*
X546980Y21401D01*
X546971Y21430D01*
X546901Y21539D01*
X546837Y21652D01*
X546816Y21673D01*
X546800Y21698D01*
X546706Y21787D01*
X546616Y21880D01*
X546590Y21896D01*
X546569Y21916D01*
X546455Y21979D01*
X546345Y22046D01*
X546316Y22055D01*
X546290Y22069D01*
X546165Y22102D01*
X546041Y22140D01*
X546011Y22141D01*
X545982Y22149D01*
X545852Y22149D01*
X545723Y22155D01*
X545694Y22149D01*
X545664Y22149D01*
X545539Y22117D01*
X545412Y22091D01*
X545385Y22078D01*
X545356Y22070D01*
X545243Y22008D01*
X545126Y21951D01*
X545103Y21932D01*
X545077Y21917D01*
X544983Y21829D01*
X544884Y21745D01*
X544867Y21720D01*
X544845Y21700D01*
X544776Y21591D01*
X544701Y21485D01*
X544690Y21457D01*
X544674Y21431D01*
X544615Y21282D01*
X544464Y20817D01*
X543611Y19143D01*
X542506Y17622D01*
X541178Y16294D01*
X539657Y15189D01*
X537983Y14336D01*
X536196Y13755D01*
X535939Y13715D01*
X535939Y24130D01*
X535924Y24248D01*
X535917Y24367D01*
X535904Y24405D01*
X535899Y24445D01*
X535856Y24556D01*
X535819Y24669D01*
X535797Y24703D01*
X535782Y24741D01*
X535712Y24837D01*
X535649Y24938D01*
X535619Y24966D01*
X535595Y24998D01*
X535504Y25074D01*
X535417Y25156D01*
X535382Y25175D01*
X535351Y25201D01*
X535243Y25252D01*
X535139Y25309D01*
X535099Y25320D01*
X535063Y25337D01*
X534946Y25359D01*
X534831Y25389D01*
X534770Y25393D01*
X534750Y25397D01*
X534730Y25395D01*
X534670Y25399D01*
X532130Y25399D01*
X532012Y25384D01*
X531893Y25377D01*
X531855Y25364D01*
X531814Y25359D01*
X531704Y25315D01*
X531591Y25279D01*
X531556Y25257D01*
X531519Y25242D01*
X531423Y25172D01*
X531322Y25109D01*
X531294Y25079D01*
X531261Y25055D01*
X531186Y24964D01*
X531104Y24877D01*
X531084Y24842D01*
X531059Y24810D01*
X531008Y24703D01*
X530950Y24598D01*
X530940Y24559D01*
X530923Y24523D01*
X530901Y24406D01*
X530871Y24291D01*
X530867Y24230D01*
X530863Y24210D01*
X530865Y24190D01*
X530861Y24130D01*
X530861Y13715D01*
X530604Y13755D01*
X528817Y14336D01*
X527143Y15189D01*
X525622Y16294D01*
X524294Y17622D01*
X523189Y19143D01*
X522336Y20817D01*
X522185Y21282D01*
X522172Y21309D01*
X522165Y21338D01*
X522105Y21452D01*
X522050Y21570D01*
X522031Y21593D01*
X522017Y21619D01*
X521930Y21715D01*
X521847Y21815D01*
X521823Y21832D01*
X521803Y21854D01*
X521694Y21926D01*
X521590Y22002D01*
X521562Y22013D01*
X521537Y22029D01*
X521414Y22071D01*
X521294Y22119D01*
X521264Y22123D01*
X521236Y22132D01*
X521107Y22143D01*
X520979Y22159D01*
X520949Y22155D01*
X520919Y22158D01*
X520791Y22135D01*
X520663Y22119D01*
X520635Y22108D01*
X520606Y22103D01*
X520488Y22050D01*
X520367Y22002D01*
X520343Y21985D01*
X520316Y21973D01*
X520215Y21892D01*
X520110Y21816D01*
X520091Y21793D01*
X520067Y21774D01*
X519989Y21670D01*
X519907Y21571D01*
X519894Y21544D01*
X519876Y21520D01*
X519805Y21375D01*
X518552Y18350D01*
X515050Y14848D01*
X510476Y12953D01*
X505524Y12953D01*
X500950Y14848D01*
X497448Y18350D01*
X496473Y20705D01*
X496404Y20825D01*
X496339Y20948D01*
X496325Y20963D01*
X496315Y20981D01*
X496218Y21081D01*
X496125Y21184D01*
X496108Y21195D01*
X496094Y21209D01*
X495976Y21282D01*
X495859Y21358D01*
X495840Y21365D01*
X495823Y21376D01*
X495690Y21416D01*
X495558Y21462D01*
X495538Y21463D01*
X495519Y21469D01*
X495380Y21476D01*
X495241Y21487D01*
X495221Y21483D01*
X495201Y21484D01*
X495065Y21456D01*
X494928Y21432D01*
X494909Y21424D01*
X494890Y21420D01*
X494765Y21359D01*
X494638Y21302D01*
X494622Y21289D01*
X494604Y21280D01*
X494498Y21190D01*
X494390Y21103D01*
X494377Y21087D01*
X494362Y21074D01*
X494282Y20960D01*
X494198Y20849D01*
X494186Y20824D01*
X494179Y20814D01*
X494172Y20795D01*
X494127Y20705D01*
X493152Y18350D01*
X489650Y14848D01*
X485076Y12953D01*
X480124Y12953D01*
X475550Y14848D01*
X472048Y18350D01*
X471073Y20705D01*
X471004Y20825D01*
X470939Y20948D01*
X470925Y20963D01*
X470915Y20981D01*
X470818Y21081D01*
X470725Y21184D01*
X470708Y21195D01*
X470694Y21209D01*
X470575Y21282D01*
X470459Y21358D01*
X470440Y21365D01*
X470423Y21376D01*
X470290Y21416D01*
X470158Y21462D01*
X470138Y21463D01*
X470119Y21469D01*
X469980Y21476D01*
X469841Y21487D01*
X469821Y21483D01*
X469801Y21484D01*
X469665Y21456D01*
X469528Y21432D01*
X469509Y21424D01*
X469490Y21420D01*
X469364Y21359D01*
X469238Y21302D01*
X469222Y21289D01*
X469204Y21280D01*
X469098Y21190D01*
X468990Y21103D01*
X468977Y21087D01*
X468962Y21074D01*
X468882Y20960D01*
X468798Y20849D01*
X468786Y20824D01*
X468779Y20814D01*
X468772Y20795D01*
X468727Y20705D01*
X467752Y18350D01*
X464250Y14848D01*
X459676Y12953D01*
X454724Y12953D01*
X450150Y14848D01*
X446648Y18350D01*
X445673Y20705D01*
X445604Y20825D01*
X445539Y20948D01*
X445525Y20963D01*
X445515Y20981D01*
X445418Y21081D01*
X445325Y21184D01*
X445308Y21195D01*
X445294Y21209D01*
X445175Y21282D01*
X445059Y21358D01*
X445040Y21365D01*
X445023Y21376D01*
X444890Y21416D01*
X444758Y21462D01*
X444738Y21463D01*
X444719Y21469D01*
X444580Y21476D01*
X444441Y21487D01*
X444421Y21483D01*
X444401Y21484D01*
X444265Y21456D01*
X444128Y21432D01*
X444109Y21424D01*
X444090Y21420D01*
X443964Y21359D01*
X443838Y21302D01*
X443822Y21289D01*
X443804Y21280D01*
X443698Y21190D01*
X443590Y21103D01*
X443577Y21087D01*
X443562Y21074D01*
X443482Y20960D01*
X443398Y20849D01*
X443386Y20824D01*
X443379Y20814D01*
X443372Y20795D01*
X443327Y20705D01*
X442352Y18350D01*
X438850Y14848D01*
X434276Y12953D01*
X429324Y12953D01*
X424750Y14848D01*
X421248Y18350D01*
X420273Y20705D01*
X420204Y20825D01*
X420139Y20948D01*
X420125Y20963D01*
X420115Y20981D01*
X420018Y21081D01*
X419925Y21184D01*
X419908Y21195D01*
X419894Y21209D01*
X419775Y21282D01*
X419659Y21358D01*
X419640Y21365D01*
X419623Y21376D01*
X419490Y21416D01*
X419358Y21462D01*
X419338Y21463D01*
X419319Y21469D01*
X419180Y21476D01*
X419041Y21487D01*
X419021Y21483D01*
X419001Y21484D01*
X418865Y21456D01*
X418728Y21432D01*
X418709Y21424D01*
X418690Y21420D01*
X418564Y21359D01*
X418438Y21302D01*
X418422Y21289D01*
X418404Y21280D01*
X418298Y21190D01*
X418190Y21103D01*
X418177Y21087D01*
X418162Y21074D01*
X418082Y20960D01*
X417998Y20849D01*
X417986Y20824D01*
X417979Y20814D01*
X417972Y20795D01*
X417927Y20705D01*
X416952Y18350D01*
X413450Y14848D01*
X408876Y12953D01*
X403924Y12953D01*
X399350Y14848D01*
X395848Y18350D01*
X394873Y20705D01*
X394804Y20825D01*
X394739Y20948D01*
X394725Y20963D01*
X394715Y20981D01*
X394618Y21081D01*
X394525Y21184D01*
X394508Y21195D01*
X394494Y21209D01*
X394375Y21282D01*
X394259Y21358D01*
X394240Y21365D01*
X394223Y21376D01*
X394090Y21416D01*
X393958Y21462D01*
X393938Y21463D01*
X393919Y21469D01*
X393780Y21476D01*
X393641Y21487D01*
X393621Y21483D01*
X393601Y21484D01*
X393465Y21456D01*
X393328Y21432D01*
X393309Y21424D01*
X393290Y21420D01*
X393164Y21359D01*
X393038Y21302D01*
X393022Y21289D01*
X393004Y21280D01*
X392898Y21190D01*
X392790Y21103D01*
X392777Y21087D01*
X392762Y21074D01*
X392682Y20960D01*
X392598Y20849D01*
X392586Y20824D01*
X392579Y20814D01*
X392572Y20795D01*
X392527Y20705D01*
X391552Y18350D01*
X388050Y14848D01*
X383476Y12953D01*
X378524Y12953D01*
G37*
%LPD*%
%LPC*%
G36*
X550997Y192387D02*
X550997Y192387D01*
X550952Y192399D01*
X550807Y192439D01*
X550798Y192439D01*
X550789Y192441D01*
X550628Y192451D01*
X545187Y192451D01*
X543401Y194237D01*
X543401Y204763D01*
X544966Y206327D01*
X545026Y206405D01*
X545094Y206477D01*
X545123Y206530D01*
X545160Y206578D01*
X545200Y206669D01*
X545248Y206756D01*
X545263Y206815D01*
X545287Y206870D01*
X545302Y206968D01*
X545327Y207064D01*
X545333Y207164D01*
X545337Y207184D01*
X545335Y207197D01*
X545337Y207225D01*
X545337Y254000D01*
X545335Y254022D01*
X545333Y254100D01*
X545124Y256762D01*
X545110Y256828D01*
X545107Y256882D01*
X545106Y256883D01*
X545106Y256898D01*
X545066Y257054D01*
X543420Y262118D01*
X543386Y262190D01*
X543363Y262262D01*
X543343Y262294D01*
X543326Y262336D01*
X543294Y262387D01*
X543285Y262406D01*
X543272Y262422D01*
X543240Y262472D01*
X540110Y266780D01*
X540029Y266866D01*
X539954Y266958D01*
X539907Y266996D01*
X539893Y267011D01*
X539875Y267022D01*
X539830Y267060D01*
X535522Y270190D01*
X535418Y270247D01*
X535318Y270311D01*
X535261Y270333D01*
X535243Y270343D01*
X535224Y270348D01*
X535168Y270370D01*
X530104Y272016D01*
X530037Y272029D01*
X529971Y272051D01*
X529812Y272074D01*
X527150Y272283D01*
X527128Y272282D01*
X527050Y272287D01*
X453518Y272287D01*
X453400Y272272D01*
X453281Y272265D01*
X453243Y272252D01*
X453202Y272247D01*
X453092Y272204D01*
X452979Y272167D01*
X452944Y272145D01*
X452907Y272130D01*
X452811Y272061D01*
X452710Y271997D01*
X452682Y271967D01*
X452649Y271944D01*
X452573Y271852D01*
X452492Y271765D01*
X452472Y271730D01*
X452447Y271699D01*
X452396Y271591D01*
X452338Y271487D01*
X452328Y271447D01*
X452311Y271411D01*
X452289Y271294D01*
X452259Y271179D01*
X452255Y271119D01*
X452251Y271099D01*
X452253Y271078D01*
X452249Y271018D01*
X452249Y267404D01*
X450338Y262792D01*
X446808Y259262D01*
X442196Y257351D01*
X437204Y257351D01*
X432592Y259262D01*
X429062Y262792D01*
X427151Y267404D01*
X427151Y291396D01*
X429062Y296008D01*
X432592Y299538D01*
X437204Y301449D01*
X442196Y301449D01*
X446808Y299538D01*
X450338Y296008D01*
X452249Y291396D01*
X452249Y287782D01*
X452264Y287664D01*
X452271Y287545D01*
X452284Y287507D01*
X452289Y287466D01*
X452332Y287356D01*
X452369Y287243D01*
X452391Y287208D01*
X452406Y287171D01*
X452475Y287075D01*
X452539Y286974D01*
X452569Y286946D01*
X452592Y286913D01*
X452684Y286837D01*
X452771Y286756D01*
X452806Y286736D01*
X452837Y286711D01*
X452945Y286660D01*
X453049Y286602D01*
X453089Y286592D01*
X453125Y286575D01*
X453242Y286553D01*
X453357Y286523D01*
X453417Y286519D01*
X453437Y286515D01*
X453458Y286517D01*
X453518Y286513D01*
X455168Y286513D01*
X455286Y286528D01*
X455405Y286535D01*
X455443Y286548D01*
X455484Y286553D01*
X455594Y286596D01*
X455707Y286633D01*
X455742Y286655D01*
X455779Y286670D01*
X455875Y286739D01*
X455976Y286803D01*
X456004Y286833D01*
X456037Y286856D01*
X456113Y286948D01*
X456194Y287035D01*
X456214Y287070D01*
X456239Y287101D01*
X456290Y287209D01*
X456348Y287313D01*
X456358Y287353D01*
X456375Y287389D01*
X456397Y287506D01*
X456427Y287621D01*
X456431Y287681D01*
X456435Y287701D01*
X456433Y287722D01*
X456437Y287782D01*
X456437Y317582D01*
X456422Y317700D01*
X456415Y317819D01*
X456402Y317857D01*
X456397Y317898D01*
X456354Y318008D01*
X456317Y318121D01*
X456295Y318156D01*
X456280Y318193D01*
X456211Y318289D01*
X456147Y318390D01*
X456117Y318418D01*
X456094Y318451D01*
X456002Y318527D01*
X455915Y318608D01*
X455880Y318628D01*
X455849Y318653D01*
X455741Y318704D01*
X455637Y318762D01*
X455597Y318772D01*
X455561Y318789D01*
X455444Y318811D01*
X455329Y318841D01*
X455269Y318845D01*
X455249Y318849D01*
X455228Y318847D01*
X455168Y318851D01*
X452704Y318851D01*
X448092Y320762D01*
X444562Y324292D01*
X442651Y328904D01*
X442651Y333896D01*
X444562Y338508D01*
X448092Y342038D01*
X452704Y343949D01*
X476696Y343949D01*
X481308Y342038D01*
X484838Y338508D01*
X486749Y333896D01*
X486749Y328904D01*
X484838Y324292D01*
X481308Y320762D01*
X476696Y318851D01*
X471932Y318851D01*
X471814Y318836D01*
X471695Y318829D01*
X471657Y318816D01*
X471616Y318811D01*
X471506Y318768D01*
X471393Y318731D01*
X471358Y318709D01*
X471321Y318694D01*
X471225Y318625D01*
X471124Y318561D01*
X471096Y318531D01*
X471063Y318508D01*
X470987Y318416D01*
X470906Y318329D01*
X470886Y318294D01*
X470861Y318263D01*
X470810Y318155D01*
X470752Y318051D01*
X470742Y318011D01*
X470725Y317975D01*
X470703Y317858D01*
X470673Y317743D01*
X470669Y317683D01*
X470665Y317663D01*
X470666Y317653D01*
X470665Y317650D01*
X470666Y317636D01*
X470663Y317582D01*
X470663Y287782D01*
X470678Y287664D01*
X470685Y287545D01*
X470698Y287507D01*
X470703Y287466D01*
X470746Y287356D01*
X470783Y287243D01*
X470805Y287208D01*
X470820Y287171D01*
X470889Y287075D01*
X470953Y286974D01*
X470983Y286946D01*
X471006Y286913D01*
X471098Y286837D01*
X471185Y286756D01*
X471220Y286736D01*
X471251Y286711D01*
X471359Y286660D01*
X471463Y286602D01*
X471503Y286592D01*
X471539Y286575D01*
X471656Y286553D01*
X471771Y286523D01*
X471831Y286519D01*
X471851Y286515D01*
X471872Y286517D01*
X471932Y286513D01*
X532200Y286513D01*
X541994Y283330D01*
X550327Y277277D01*
X556380Y268944D01*
X559563Y259150D01*
X559563Y207225D01*
X559575Y207126D01*
X559578Y207027D01*
X559595Y206969D01*
X559603Y206909D01*
X559639Y206817D01*
X559667Y206722D01*
X559697Y206670D01*
X559720Y206613D01*
X559778Y206533D01*
X559828Y206448D01*
X559894Y206373D01*
X559906Y206356D01*
X559916Y206348D01*
X559934Y206327D01*
X561499Y204763D01*
X561499Y194237D01*
X559713Y192451D01*
X554272Y192451D01*
X554263Y192450D01*
X554253Y192451D01*
X554104Y192430D01*
X553956Y192411D01*
X553948Y192408D01*
X553938Y192407D01*
X553882Y192387D01*
X550997Y192387D01*
G37*
%LPD*%
%LPC*%
G36*
X162624Y12953D02*
X162624Y12953D01*
X158050Y14848D01*
X154548Y18350D01*
X152653Y22924D01*
X152653Y27876D01*
X154548Y32450D01*
X158050Y35952D01*
X162624Y37847D01*
X167576Y37847D01*
X172150Y35952D01*
X175652Y32450D01*
X176627Y30095D01*
X176696Y29975D01*
X176761Y29852D01*
X176775Y29837D01*
X176785Y29819D01*
X176882Y29719D01*
X176975Y29616D01*
X176992Y29605D01*
X177006Y29591D01*
X177124Y29518D01*
X177241Y29442D01*
X177260Y29435D01*
X177277Y29424D01*
X177410Y29384D01*
X177542Y29338D01*
X177562Y29337D01*
X177581Y29331D01*
X177720Y29324D01*
X177859Y29313D01*
X177879Y29317D01*
X177899Y29316D01*
X178035Y29344D01*
X178172Y29368D01*
X178191Y29376D01*
X178210Y29380D01*
X178335Y29441D01*
X178462Y29498D01*
X178478Y29511D01*
X178496Y29520D01*
X178602Y29610D01*
X178710Y29697D01*
X178723Y29713D01*
X178738Y29726D01*
X178818Y29840D01*
X178902Y29951D01*
X178914Y29976D01*
X178921Y29986D01*
X178928Y30005D01*
X178973Y30095D01*
X179948Y32450D01*
X183450Y35952D01*
X188024Y37847D01*
X192976Y37847D01*
X197550Y35952D01*
X201052Y32450D01*
X202027Y30095D01*
X202096Y29975D01*
X202161Y29852D01*
X202175Y29837D01*
X202185Y29819D01*
X202282Y29719D01*
X202375Y29616D01*
X202392Y29605D01*
X202406Y29591D01*
X202524Y29518D01*
X202641Y29442D01*
X202660Y29435D01*
X202677Y29424D01*
X202810Y29384D01*
X202942Y29338D01*
X202962Y29337D01*
X202981Y29331D01*
X203120Y29324D01*
X203259Y29313D01*
X203279Y29317D01*
X203299Y29316D01*
X203435Y29344D01*
X203572Y29368D01*
X203591Y29376D01*
X203610Y29380D01*
X203735Y29441D01*
X203862Y29498D01*
X203878Y29511D01*
X203896Y29520D01*
X204002Y29610D01*
X204110Y29697D01*
X204123Y29713D01*
X204138Y29726D01*
X204218Y29840D01*
X204302Y29951D01*
X204314Y29976D01*
X204321Y29986D01*
X204328Y30005D01*
X204373Y30095D01*
X205348Y32450D01*
X208850Y35952D01*
X213424Y37847D01*
X218376Y37847D01*
X222950Y35952D01*
X226452Y32450D01*
X227427Y30095D01*
X227496Y29975D01*
X227561Y29852D01*
X227575Y29837D01*
X227585Y29819D01*
X227682Y29719D01*
X227775Y29616D01*
X227792Y29605D01*
X227806Y29591D01*
X227924Y29518D01*
X228041Y29442D01*
X228060Y29435D01*
X228077Y29424D01*
X228210Y29384D01*
X228342Y29338D01*
X228362Y29337D01*
X228381Y29331D01*
X228520Y29324D01*
X228659Y29313D01*
X228679Y29317D01*
X228699Y29316D01*
X228835Y29344D01*
X228972Y29368D01*
X228991Y29376D01*
X229010Y29380D01*
X229135Y29441D01*
X229262Y29498D01*
X229278Y29511D01*
X229296Y29520D01*
X229402Y29610D01*
X229510Y29697D01*
X229523Y29713D01*
X229538Y29726D01*
X229618Y29840D01*
X229702Y29951D01*
X229714Y29976D01*
X229721Y29986D01*
X229728Y30005D01*
X229773Y30095D01*
X230748Y32450D01*
X234250Y35952D01*
X238824Y37847D01*
X243776Y37847D01*
X248350Y35952D01*
X251852Y32450D01*
X252827Y30095D01*
X252896Y29975D01*
X252961Y29852D01*
X252975Y29837D01*
X252985Y29819D01*
X253082Y29719D01*
X253175Y29616D01*
X253192Y29605D01*
X253206Y29591D01*
X253324Y29518D01*
X253441Y29442D01*
X253460Y29435D01*
X253477Y29424D01*
X253610Y29384D01*
X253742Y29338D01*
X253762Y29337D01*
X253781Y29331D01*
X253920Y29324D01*
X254059Y29313D01*
X254079Y29317D01*
X254099Y29316D01*
X254235Y29344D01*
X254372Y29368D01*
X254391Y29376D01*
X254410Y29380D01*
X254535Y29441D01*
X254662Y29498D01*
X254678Y29511D01*
X254696Y29520D01*
X254802Y29610D01*
X254910Y29697D01*
X254923Y29713D01*
X254938Y29726D01*
X255018Y29840D01*
X255102Y29951D01*
X255114Y29976D01*
X255121Y29986D01*
X255128Y30005D01*
X255173Y30095D01*
X256148Y32450D01*
X259650Y35952D01*
X264224Y37847D01*
X269176Y37847D01*
X273750Y35952D01*
X277252Y32450D01*
X278227Y30095D01*
X278296Y29975D01*
X278361Y29852D01*
X278375Y29837D01*
X278385Y29819D01*
X278482Y29719D01*
X278575Y29616D01*
X278592Y29605D01*
X278606Y29591D01*
X278724Y29518D01*
X278841Y29442D01*
X278860Y29435D01*
X278877Y29424D01*
X279010Y29384D01*
X279142Y29338D01*
X279162Y29337D01*
X279181Y29331D01*
X279320Y29324D01*
X279459Y29313D01*
X279479Y29317D01*
X279499Y29316D01*
X279635Y29344D01*
X279772Y29368D01*
X279791Y29376D01*
X279810Y29380D01*
X279935Y29441D01*
X280062Y29498D01*
X280078Y29511D01*
X280096Y29520D01*
X280202Y29610D01*
X280310Y29697D01*
X280323Y29713D01*
X280338Y29726D01*
X280418Y29840D01*
X280502Y29951D01*
X280514Y29976D01*
X280521Y29986D01*
X280528Y30005D01*
X280573Y30095D01*
X281548Y32450D01*
X285050Y35952D01*
X289624Y37847D01*
X294576Y37847D01*
X299150Y35952D01*
X302652Y32450D01*
X303627Y30095D01*
X303696Y29975D01*
X303761Y29852D01*
X303775Y29837D01*
X303785Y29819D01*
X303882Y29719D01*
X303975Y29616D01*
X303992Y29605D01*
X304006Y29591D01*
X304124Y29518D01*
X304241Y29442D01*
X304260Y29435D01*
X304277Y29424D01*
X304410Y29384D01*
X304542Y29338D01*
X304562Y29337D01*
X304581Y29331D01*
X304720Y29324D01*
X304859Y29313D01*
X304879Y29317D01*
X304899Y29316D01*
X305035Y29344D01*
X305172Y29368D01*
X305191Y29376D01*
X305210Y29380D01*
X305335Y29441D01*
X305462Y29498D01*
X305478Y29511D01*
X305496Y29520D01*
X305602Y29610D01*
X305710Y29697D01*
X305723Y29713D01*
X305738Y29726D01*
X305818Y29840D01*
X305902Y29951D01*
X305914Y29976D01*
X305921Y29986D01*
X305928Y30005D01*
X305973Y30095D01*
X306948Y32450D01*
X310450Y35952D01*
X315024Y37847D01*
X319976Y37847D01*
X324550Y35952D01*
X328052Y32450D01*
X329027Y30095D01*
X329096Y29975D01*
X329161Y29852D01*
X329175Y29837D01*
X329185Y29819D01*
X329282Y29719D01*
X329375Y29616D01*
X329392Y29605D01*
X329406Y29591D01*
X329524Y29518D01*
X329641Y29442D01*
X329660Y29435D01*
X329677Y29424D01*
X329810Y29384D01*
X329942Y29338D01*
X329962Y29337D01*
X329981Y29331D01*
X330120Y29324D01*
X330259Y29313D01*
X330279Y29317D01*
X330299Y29316D01*
X330435Y29344D01*
X330572Y29368D01*
X330591Y29376D01*
X330610Y29380D01*
X330735Y29441D01*
X330862Y29498D01*
X330878Y29511D01*
X330896Y29520D01*
X331002Y29610D01*
X331110Y29697D01*
X331123Y29713D01*
X331138Y29726D01*
X331218Y29840D01*
X331302Y29951D01*
X331314Y29976D01*
X331321Y29986D01*
X331328Y30005D01*
X331373Y30095D01*
X332348Y32450D01*
X335850Y35952D01*
X340424Y37847D01*
X345376Y37847D01*
X349950Y35952D01*
X353452Y32450D01*
X355347Y27876D01*
X355347Y22924D01*
X353452Y18350D01*
X349950Y14848D01*
X345376Y12953D01*
X340424Y12953D01*
X335850Y14848D01*
X332348Y18350D01*
X331373Y20705D01*
X331304Y20825D01*
X331239Y20948D01*
X331225Y20963D01*
X331215Y20981D01*
X331118Y21081D01*
X331025Y21184D01*
X331008Y21195D01*
X330994Y21209D01*
X330875Y21282D01*
X330759Y21358D01*
X330740Y21365D01*
X330723Y21376D01*
X330590Y21416D01*
X330458Y21462D01*
X330438Y21463D01*
X330419Y21469D01*
X330280Y21476D01*
X330141Y21487D01*
X330121Y21483D01*
X330101Y21484D01*
X329965Y21456D01*
X329828Y21432D01*
X329809Y21424D01*
X329790Y21420D01*
X329664Y21359D01*
X329538Y21302D01*
X329522Y21289D01*
X329504Y21280D01*
X329398Y21190D01*
X329290Y21103D01*
X329277Y21087D01*
X329262Y21074D01*
X329182Y20960D01*
X329098Y20849D01*
X329086Y20824D01*
X329079Y20814D01*
X329072Y20795D01*
X329027Y20705D01*
X328052Y18350D01*
X324550Y14848D01*
X319976Y12953D01*
X315024Y12953D01*
X310450Y14848D01*
X306948Y18350D01*
X305973Y20705D01*
X305904Y20825D01*
X305839Y20948D01*
X305825Y20963D01*
X305815Y20981D01*
X305718Y21081D01*
X305625Y21184D01*
X305608Y21195D01*
X305594Y21209D01*
X305475Y21282D01*
X305359Y21358D01*
X305340Y21365D01*
X305323Y21376D01*
X305190Y21416D01*
X305058Y21462D01*
X305038Y21463D01*
X305019Y21469D01*
X304880Y21476D01*
X304741Y21487D01*
X304721Y21483D01*
X304701Y21484D01*
X304565Y21456D01*
X304428Y21432D01*
X304409Y21424D01*
X304390Y21420D01*
X304264Y21359D01*
X304138Y21302D01*
X304122Y21289D01*
X304104Y21280D01*
X303998Y21190D01*
X303890Y21103D01*
X303877Y21087D01*
X303862Y21074D01*
X303782Y20960D01*
X303698Y20849D01*
X303686Y20824D01*
X303679Y20814D01*
X303672Y20795D01*
X303627Y20705D01*
X302652Y18350D01*
X299150Y14848D01*
X294576Y12953D01*
X289624Y12953D01*
X285050Y14848D01*
X281548Y18350D01*
X280573Y20705D01*
X280504Y20825D01*
X280439Y20948D01*
X280425Y20963D01*
X280415Y20981D01*
X280318Y21081D01*
X280225Y21184D01*
X280208Y21195D01*
X280194Y21209D01*
X280075Y21282D01*
X279959Y21358D01*
X279940Y21365D01*
X279923Y21376D01*
X279790Y21416D01*
X279658Y21462D01*
X279638Y21463D01*
X279619Y21469D01*
X279480Y21476D01*
X279341Y21487D01*
X279321Y21483D01*
X279301Y21484D01*
X279165Y21456D01*
X279028Y21432D01*
X279009Y21424D01*
X278990Y21420D01*
X278864Y21359D01*
X278738Y21302D01*
X278722Y21289D01*
X278704Y21280D01*
X278598Y21190D01*
X278490Y21103D01*
X278477Y21087D01*
X278462Y21074D01*
X278382Y20960D01*
X278298Y20849D01*
X278286Y20824D01*
X278279Y20814D01*
X278272Y20795D01*
X278227Y20705D01*
X277252Y18350D01*
X273750Y14848D01*
X269176Y12953D01*
X264224Y12953D01*
X259650Y14848D01*
X256148Y18350D01*
X255173Y20705D01*
X255104Y20825D01*
X255039Y20948D01*
X255025Y20963D01*
X255015Y20981D01*
X254918Y21081D01*
X254825Y21184D01*
X254808Y21195D01*
X254794Y21209D01*
X254675Y21282D01*
X254559Y21358D01*
X254540Y21365D01*
X254523Y21376D01*
X254390Y21416D01*
X254258Y21462D01*
X254238Y21463D01*
X254219Y21469D01*
X254080Y21476D01*
X253941Y21487D01*
X253921Y21483D01*
X253901Y21484D01*
X253765Y21456D01*
X253628Y21432D01*
X253609Y21424D01*
X253590Y21420D01*
X253464Y21359D01*
X253338Y21302D01*
X253322Y21289D01*
X253304Y21280D01*
X253198Y21190D01*
X253090Y21103D01*
X253077Y21087D01*
X253062Y21074D01*
X252982Y20960D01*
X252898Y20849D01*
X252886Y20824D01*
X252879Y20814D01*
X252872Y20795D01*
X252827Y20705D01*
X251852Y18350D01*
X248350Y14848D01*
X243776Y12953D01*
X238824Y12953D01*
X234250Y14848D01*
X230748Y18350D01*
X229773Y20705D01*
X229704Y20825D01*
X229639Y20948D01*
X229625Y20963D01*
X229615Y20981D01*
X229518Y21081D01*
X229425Y21184D01*
X229408Y21195D01*
X229394Y21209D01*
X229275Y21282D01*
X229159Y21358D01*
X229140Y21365D01*
X229123Y21376D01*
X228990Y21416D01*
X228858Y21462D01*
X228838Y21463D01*
X228819Y21469D01*
X228680Y21476D01*
X228541Y21487D01*
X228521Y21483D01*
X228501Y21484D01*
X228365Y21456D01*
X228228Y21432D01*
X228209Y21424D01*
X228190Y21420D01*
X228064Y21359D01*
X227938Y21302D01*
X227922Y21289D01*
X227904Y21280D01*
X227798Y21190D01*
X227690Y21103D01*
X227677Y21087D01*
X227662Y21074D01*
X227582Y20960D01*
X227498Y20849D01*
X227486Y20824D01*
X227479Y20814D01*
X227472Y20795D01*
X227427Y20705D01*
X226452Y18350D01*
X222950Y14848D01*
X218376Y12953D01*
X213424Y12953D01*
X208850Y14848D01*
X205348Y18350D01*
X204373Y20705D01*
X204304Y20825D01*
X204239Y20948D01*
X204225Y20963D01*
X204215Y20981D01*
X204118Y21081D01*
X204025Y21184D01*
X204008Y21195D01*
X203994Y21209D01*
X203875Y21282D01*
X203759Y21358D01*
X203740Y21365D01*
X203723Y21376D01*
X203590Y21416D01*
X203458Y21462D01*
X203438Y21463D01*
X203419Y21469D01*
X203280Y21476D01*
X203141Y21487D01*
X203121Y21483D01*
X203101Y21484D01*
X202965Y21456D01*
X202828Y21432D01*
X202809Y21424D01*
X202790Y21420D01*
X202664Y21359D01*
X202538Y21302D01*
X202522Y21289D01*
X202504Y21280D01*
X202398Y21190D01*
X202290Y21103D01*
X202277Y21087D01*
X202262Y21074D01*
X202182Y20960D01*
X202098Y20849D01*
X202086Y20824D01*
X202079Y20814D01*
X202072Y20795D01*
X202027Y20705D01*
X201052Y18350D01*
X197550Y14848D01*
X192976Y12953D01*
X188024Y12953D01*
X183450Y14848D01*
X179948Y18350D01*
X178973Y20705D01*
X178904Y20825D01*
X178839Y20948D01*
X178825Y20963D01*
X178815Y20981D01*
X178718Y21081D01*
X178625Y21184D01*
X178608Y21195D01*
X178594Y21209D01*
X178475Y21282D01*
X178359Y21358D01*
X178340Y21365D01*
X178323Y21376D01*
X178190Y21416D01*
X178058Y21462D01*
X178038Y21463D01*
X178019Y21469D01*
X177880Y21476D01*
X177741Y21487D01*
X177721Y21483D01*
X177701Y21484D01*
X177565Y21456D01*
X177428Y21432D01*
X177409Y21424D01*
X177390Y21420D01*
X177264Y21359D01*
X177138Y21302D01*
X177122Y21289D01*
X177104Y21280D01*
X176998Y21190D01*
X176890Y21103D01*
X176877Y21087D01*
X176862Y21074D01*
X176782Y20960D01*
X176698Y20849D01*
X176686Y20824D01*
X176679Y20814D01*
X176672Y20795D01*
X176627Y20705D01*
X175652Y18350D01*
X172150Y14848D01*
X167576Y12953D01*
X162624Y12953D01*
G37*
%LPD*%
%LPC*%
G36*
X576397Y192387D02*
X576397Y192387D01*
X576352Y192399D01*
X576207Y192439D01*
X576198Y192439D01*
X576189Y192441D01*
X576028Y192451D01*
X570587Y192451D01*
X568801Y194237D01*
X568801Y204763D01*
X570366Y206327D01*
X570426Y206405D01*
X570494Y206477D01*
X570523Y206530D01*
X570560Y206578D01*
X570600Y206669D01*
X570648Y206756D01*
X570663Y206814D01*
X570687Y206870D01*
X570702Y206968D01*
X570727Y207064D01*
X570733Y207164D01*
X570737Y207184D01*
X570735Y207197D01*
X570737Y207225D01*
X570737Y257939D01*
X570734Y257968D01*
X570736Y257998D01*
X570718Y258100D01*
X570715Y258152D01*
X570708Y258175D01*
X570697Y258255D01*
X570687Y258282D01*
X570682Y258311D01*
X570628Y258430D01*
X570580Y258550D01*
X570563Y258574D01*
X570551Y258601D01*
X570470Y258703D01*
X570394Y258808D01*
X570371Y258826D01*
X570352Y258850D01*
X570249Y258928D01*
X570149Y259010D01*
X570122Y259023D01*
X570098Y259041D01*
X569954Y259112D01*
X569592Y259262D01*
X566062Y262792D01*
X564151Y267404D01*
X564151Y291396D01*
X566062Y296008D01*
X569592Y299538D01*
X574204Y301449D01*
X579196Y301449D01*
X583808Y299538D01*
X587338Y296008D01*
X589249Y291396D01*
X589249Y267404D01*
X587338Y262792D01*
X585334Y260788D01*
X585274Y260710D01*
X585206Y260638D01*
X585177Y260585D01*
X585140Y260537D01*
X585100Y260446D01*
X585052Y260359D01*
X585037Y260300D01*
X585013Y260245D01*
X584998Y260147D01*
X584973Y260051D01*
X584967Y259951D01*
X584963Y259931D01*
X584965Y259918D01*
X584963Y259890D01*
X584963Y207225D01*
X584975Y207126D01*
X584978Y207027D01*
X584995Y206969D01*
X585003Y206909D01*
X585039Y206817D01*
X585067Y206722D01*
X585097Y206670D01*
X585120Y206613D01*
X585178Y206533D01*
X585228Y206448D01*
X585294Y206373D01*
X585306Y206356D01*
X585316Y206348D01*
X585334Y206327D01*
X586899Y204763D01*
X586899Y194237D01*
X585113Y192451D01*
X579672Y192451D01*
X579663Y192450D01*
X579653Y192451D01*
X579504Y192430D01*
X579356Y192411D01*
X579348Y192408D01*
X579338Y192407D01*
X579282Y192387D01*
X576397Y192387D01*
G37*
%LPD*%
%LPC*%
G36*
X383310Y268971D02*
X383310Y268971D01*
X376676Y271719D01*
X371599Y276796D01*
X368851Y283430D01*
X368851Y290610D01*
X371599Y297244D01*
X376676Y302321D01*
X383310Y305069D01*
X390490Y305069D01*
X397124Y302321D01*
X402201Y297244D01*
X404949Y290610D01*
X404949Y283430D01*
X402201Y276796D01*
X397124Y271719D01*
X390490Y268971D01*
X383310Y268971D01*
G37*
%LPD*%
%LPC*%
G36*
X295310Y268971D02*
X295310Y268971D01*
X288676Y271719D01*
X283599Y276796D01*
X280851Y283430D01*
X280851Y290610D01*
X283599Y297244D01*
X288676Y302321D01*
X295310Y305069D01*
X302490Y305069D01*
X309124Y302321D01*
X314201Y297244D01*
X316949Y290610D01*
X316949Y283430D01*
X314201Y276796D01*
X309124Y271719D01*
X302490Y268971D01*
X295310Y268971D01*
G37*
%LPD*%
%LPC*%
G36*
X340424Y495553D02*
X340424Y495553D01*
X335850Y497448D01*
X332348Y500950D01*
X330453Y505524D01*
X330453Y510476D01*
X332348Y515050D01*
X335850Y518552D01*
X340424Y520447D01*
X345376Y520447D01*
X349950Y518552D01*
X353452Y515050D01*
X354705Y512025D01*
X354720Y511999D01*
X354729Y511970D01*
X354799Y511861D01*
X354863Y511748D01*
X354884Y511727D01*
X354900Y511702D01*
X354994Y511613D01*
X355084Y511520D01*
X355110Y511504D01*
X355131Y511484D01*
X355245Y511421D01*
X355355Y511354D01*
X355384Y511345D01*
X355410Y511331D01*
X355535Y511298D01*
X355659Y511260D01*
X355689Y511259D01*
X355718Y511251D01*
X355848Y511251D01*
X355977Y511245D01*
X356006Y511251D01*
X356036Y511251D01*
X356161Y511283D01*
X356288Y511309D01*
X356315Y511322D01*
X356344Y511330D01*
X356457Y511392D01*
X356574Y511449D01*
X356597Y511468D01*
X356623Y511483D01*
X356717Y511571D01*
X356816Y511655D01*
X356833Y511680D01*
X356855Y511700D01*
X356924Y511809D01*
X356999Y511915D01*
X357010Y511943D01*
X357026Y511969D01*
X357085Y512118D01*
X357236Y512583D01*
X358089Y514257D01*
X359194Y515778D01*
X360522Y517106D01*
X362043Y518211D01*
X363717Y519064D01*
X365504Y519645D01*
X365761Y519685D01*
X365761Y509270D01*
X365776Y509152D01*
X365783Y509033D01*
X365796Y508995D01*
X365801Y508955D01*
X365844Y508844D01*
X365881Y508731D01*
X365903Y508697D01*
X365918Y508659D01*
X365988Y508563D01*
X366051Y508462D01*
X366081Y508434D01*
X366104Y508402D01*
X366196Y508326D01*
X366283Y508244D01*
X366318Y508225D01*
X366349Y508199D01*
X366457Y508148D01*
X366561Y508091D01*
X366601Y508080D01*
X366637Y508063D01*
X366754Y508041D01*
X366869Y508011D01*
X366930Y508007D01*
X366950Y508003D01*
X366970Y508005D01*
X367030Y508001D01*
X368301Y508001D01*
X368301Y507999D01*
X367030Y507999D01*
X366912Y507984D01*
X366793Y507977D01*
X366755Y507964D01*
X366714Y507959D01*
X366604Y507915D01*
X366491Y507879D01*
X366456Y507857D01*
X366419Y507842D01*
X366323Y507772D01*
X366222Y507709D01*
X366194Y507679D01*
X366161Y507655D01*
X366086Y507564D01*
X366004Y507477D01*
X365984Y507442D01*
X365959Y507410D01*
X365908Y507303D01*
X365850Y507198D01*
X365840Y507159D01*
X365823Y507123D01*
X365801Y507006D01*
X365771Y506891D01*
X365767Y506830D01*
X365763Y506810D01*
X365765Y506790D01*
X365761Y506730D01*
X365761Y496315D01*
X365504Y496355D01*
X363717Y496936D01*
X362043Y497789D01*
X360522Y498894D01*
X359194Y500222D01*
X358089Y501743D01*
X357236Y503417D01*
X357085Y503882D01*
X357072Y503909D01*
X357065Y503938D01*
X357005Y504052D01*
X356950Y504170D01*
X356931Y504193D01*
X356917Y504219D01*
X356830Y504315D01*
X356747Y504415D01*
X356723Y504432D01*
X356703Y504454D01*
X356594Y504526D01*
X356490Y504602D01*
X356462Y504613D01*
X356437Y504629D01*
X356314Y504671D01*
X356194Y504719D01*
X356164Y504723D01*
X356136Y504732D01*
X356007Y504743D01*
X355879Y504759D01*
X355849Y504755D01*
X355819Y504758D01*
X355691Y504735D01*
X355563Y504719D01*
X355535Y504708D01*
X355506Y504703D01*
X355388Y504650D01*
X355267Y504602D01*
X355243Y504585D01*
X355216Y504573D01*
X355115Y504492D01*
X355010Y504416D01*
X354991Y504393D01*
X354967Y504374D01*
X354889Y504270D01*
X354807Y504171D01*
X354794Y504144D01*
X354776Y504120D01*
X354705Y503975D01*
X353452Y500950D01*
X349950Y497448D01*
X345376Y495553D01*
X340424Y495553D01*
G37*
%LPD*%
%LPC*%
G36*
X45829Y67019D02*
X45829Y67019D01*
X45829Y76758D01*
X46435Y76663D01*
X48260Y76069D01*
X49970Y75198D01*
X51523Y74070D01*
X52880Y72713D01*
X54008Y71160D01*
X54879Y69450D01*
X55473Y67625D01*
X55568Y67019D01*
X45829Y67019D01*
G37*
%LPD*%
%LPC*%
G36*
X31592Y67019D02*
X31592Y67019D01*
X31687Y67625D01*
X32281Y69450D01*
X33152Y71160D01*
X34280Y72713D01*
X35637Y74070D01*
X37190Y75198D01*
X38900Y76069D01*
X40725Y76663D01*
X41331Y76758D01*
X41331Y67019D01*
X31592Y67019D01*
G37*
%LPD*%
%LPC*%
G36*
X45829Y62521D02*
X45829Y62521D01*
X55568Y62521D01*
X55473Y61915D01*
X54879Y60090D01*
X54008Y58380D01*
X52880Y56827D01*
X51523Y55470D01*
X49970Y54342D01*
X48260Y53471D01*
X46435Y52877D01*
X45829Y52782D01*
X45829Y62521D01*
G37*
%LPD*%
%LPC*%
G36*
X40725Y52877D02*
X40725Y52877D01*
X38900Y53471D01*
X37190Y54342D01*
X35637Y55470D01*
X34280Y56827D01*
X33152Y58380D01*
X32281Y60090D01*
X31687Y61915D01*
X31592Y62521D01*
X41331Y62521D01*
X41331Y52782D01*
X40725Y52877D01*
G37*
%LPD*%
%LPC*%
G36*
X370399Y359519D02*
X370399Y359519D01*
X370399Y368712D01*
X370696Y368665D01*
X372483Y368084D01*
X374157Y367231D01*
X375678Y366126D01*
X377006Y364798D01*
X378111Y363277D01*
X378964Y361603D01*
X379545Y359816D01*
X379592Y359519D01*
X370399Y359519D01*
G37*
%LPD*%
%LPC*%
G36*
X370399Y354521D02*
X370399Y354521D01*
X379592Y354521D01*
X379545Y354224D01*
X378964Y352437D01*
X378111Y350763D01*
X377006Y349242D01*
X375678Y347914D01*
X374157Y346809D01*
X372483Y345956D01*
X370696Y345375D01*
X370399Y345328D01*
X370399Y354521D01*
G37*
%LPD*%
%LPC*%
G36*
X370839Y510539D02*
X370839Y510539D01*
X370839Y519685D01*
X371096Y519645D01*
X372883Y519064D01*
X374557Y518211D01*
X376078Y517106D01*
X377406Y515778D01*
X378511Y514257D01*
X379364Y512583D01*
X379793Y511263D01*
X379827Y511191D01*
X379851Y511115D01*
X379894Y511048D01*
X379928Y510975D01*
X379979Y510914D01*
X380022Y510847D01*
X380080Y510792D01*
X380131Y510730D01*
X380195Y510683D01*
X380253Y510629D01*
X380324Y510590D01*
X380388Y510543D01*
X380398Y510539D01*
X370839Y510539D01*
G37*
%LPD*%
%LPC*%
G36*
X390904Y496355D02*
X390904Y496355D01*
X389117Y496936D01*
X387443Y497789D01*
X385922Y498894D01*
X384594Y500222D01*
X383489Y501743D01*
X382636Y503417D01*
X382207Y504737D01*
X382173Y504809D01*
X382149Y504885D01*
X382106Y504952D01*
X382072Y505025D01*
X382021Y505086D01*
X381978Y505153D01*
X381920Y505208D01*
X381869Y505270D01*
X381805Y505317D01*
X381747Y505371D01*
X381677Y505410D01*
X381612Y505457D01*
X381602Y505461D01*
X391161Y505461D01*
X391161Y496315D01*
X390904Y496355D01*
G37*
%LPD*%
%LPC*%
G36*
X370839Y505461D02*
X370839Y505461D01*
X380398Y505461D01*
X380389Y505457D01*
X380325Y505411D01*
X380255Y505372D01*
X380197Y505318D01*
X380132Y505271D01*
X380081Y505209D01*
X380023Y505155D01*
X379980Y505087D01*
X379929Y505026D01*
X379895Y504954D01*
X379852Y504887D01*
X379794Y504740D01*
X379793Y504738D01*
X379793Y504737D01*
X379364Y503417D01*
X378511Y501743D01*
X377406Y500222D01*
X376078Y498894D01*
X374557Y497789D01*
X372883Y496936D01*
X371096Y496355D01*
X370839Y496315D01*
X370839Y505461D01*
G37*
%LPD*%
%LPC*%
G36*
X381602Y510539D02*
X381602Y510539D01*
X381611Y510543D01*
X381675Y510589D01*
X381745Y510628D01*
X381803Y510682D01*
X381868Y510729D01*
X381919Y510791D01*
X381977Y510845D01*
X382020Y510913D01*
X382071Y510974D01*
X382105Y511046D01*
X382148Y511113D01*
X382206Y511260D01*
X382207Y511262D01*
X382207Y511263D01*
X382636Y512583D01*
X383489Y514257D01*
X384594Y515778D01*
X385922Y517106D01*
X387443Y518211D01*
X389117Y519064D01*
X390904Y519645D01*
X391161Y519685D01*
X391161Y510539D01*
X381602Y510539D01*
G37*
%LPD*%
%LPC*%
G36*
X27939Y332739D02*
X27939Y332739D01*
X27939Y341885D01*
X28196Y341845D01*
X29983Y341264D01*
X31657Y340411D01*
X33178Y339306D01*
X34506Y337978D01*
X35611Y336457D01*
X36464Y334783D01*
X37045Y332996D01*
X37085Y332739D01*
X27939Y332739D01*
G37*
%LPD*%
%LPC*%
G36*
X472439Y104139D02*
X472439Y104139D01*
X472439Y113285D01*
X472696Y113245D01*
X474483Y112664D01*
X476157Y111811D01*
X477678Y110706D01*
X479006Y109378D01*
X480111Y107857D01*
X480964Y106183D01*
X481545Y104396D01*
X481585Y104139D01*
X472439Y104139D01*
G37*
%LPD*%
%LPC*%
G36*
X13715Y332739D02*
X13715Y332739D01*
X13755Y332996D01*
X14336Y334783D01*
X15189Y336457D01*
X16294Y337978D01*
X17622Y339306D01*
X19143Y340411D01*
X20817Y341264D01*
X22604Y341845D01*
X22861Y341885D01*
X22861Y332739D01*
X13715Y332739D01*
G37*
%LPD*%
%LPC*%
G36*
X472439Y99061D02*
X472439Y99061D01*
X481585Y99061D01*
X481545Y98804D01*
X480964Y97017D01*
X480111Y95343D01*
X479006Y93822D01*
X477678Y92494D01*
X476157Y91389D01*
X474483Y90536D01*
X472696Y89955D01*
X472439Y89915D01*
X472439Y99061D01*
G37*
%LPD*%
%LPC*%
G36*
X33249Y452349D02*
X33249Y452349D01*
X33249Y459309D01*
X34255Y459109D01*
X35818Y458461D01*
X37225Y457521D01*
X38421Y456325D01*
X39361Y454918D01*
X40009Y453355D01*
X40209Y452349D01*
X33249Y452349D01*
G37*
%LPD*%
%LPC*%
G36*
X23291Y452349D02*
X23291Y452349D01*
X23491Y453355D01*
X24139Y454918D01*
X25079Y456325D01*
X26275Y457521D01*
X27682Y458461D01*
X29245Y459109D01*
X30251Y459309D01*
X30251Y452349D01*
X23291Y452349D01*
G37*
%LPD*%
%LPC*%
G36*
X33249Y449351D02*
X33249Y449351D01*
X40209Y449351D01*
X40009Y448345D01*
X39361Y446782D01*
X38421Y445375D01*
X37225Y444179D01*
X35818Y443239D01*
X34255Y442591D01*
X33249Y442391D01*
X33249Y449351D01*
G37*
%LPD*%
%LPC*%
G36*
X29245Y442591D02*
X29245Y442591D01*
X27682Y443239D01*
X26275Y444179D01*
X25079Y445375D01*
X24139Y446782D01*
X23491Y448345D01*
X23291Y449351D01*
X30251Y449351D01*
X30251Y442391D01*
X29245Y442591D01*
G37*
%LPD*%
%LPC*%
G36*
X579849Y183499D02*
X579849Y183499D01*
X579849Y188041D01*
X584184Y188041D01*
X584831Y187868D01*
X585410Y187533D01*
X585883Y187060D01*
X586218Y186481D01*
X586391Y185834D01*
X586391Y183499D01*
X579849Y183499D01*
G37*
%LPD*%
%LPC*%
G36*
X569309Y183499D02*
X569309Y183499D01*
X569309Y185834D01*
X569482Y186481D01*
X569817Y187060D01*
X570290Y187533D01*
X570869Y187868D01*
X571516Y188041D01*
X575851Y188041D01*
X575851Y183499D01*
X569309Y183499D01*
G37*
%LPD*%
%LPC*%
G36*
X579849Y174959D02*
X579849Y174959D01*
X579849Y179501D01*
X586391Y179501D01*
X586391Y177166D01*
X586218Y176519D01*
X585883Y175940D01*
X585410Y175467D01*
X584831Y175132D01*
X584184Y174959D01*
X579849Y174959D01*
G37*
%LPD*%
%LPC*%
G36*
X571516Y174959D02*
X571516Y174959D01*
X570869Y175132D01*
X570290Y175467D01*
X569817Y175940D01*
X569482Y176519D01*
X569309Y177166D01*
X569309Y179501D01*
X575851Y179501D01*
X575851Y174959D01*
X571516Y174959D01*
G37*
%LPD*%
%LPC*%
G36*
X65999Y180809D02*
X65999Y180809D01*
X65999Y185851D01*
X71541Y185851D01*
X71541Y183016D01*
X71368Y182369D01*
X71033Y181790D01*
X70560Y181317D01*
X69981Y180982D01*
X69334Y180809D01*
X65999Y180809D01*
G37*
%LPD*%
%LPC*%
G36*
X57666Y180809D02*
X57666Y180809D01*
X57019Y180982D01*
X56440Y181317D01*
X55967Y181790D01*
X55632Y182369D01*
X55459Y183016D01*
X55459Y185851D01*
X61001Y185851D01*
X61001Y180809D01*
X57666Y180809D01*
G37*
%LPD*%
D10*
X0Y0D02*
X635000Y0D01*
X635000Y533400D01*
X0Y533400D01*
X0Y0D01*
D11*
X469900Y508000D03*
X444500Y508000D03*
X419100Y508000D03*
X393700Y508000D03*
X368300Y508000D03*
X342900Y508000D03*
X292100Y508000D03*
X266700Y508000D03*
X241300Y508000D03*
X215900Y508000D03*
X190500Y508000D03*
X165100Y508000D03*
X165100Y25400D03*
X190500Y25400D03*
X215900Y25400D03*
X241300Y25400D03*
X266700Y25400D03*
X292100Y25400D03*
X317500Y25400D03*
X342900Y25400D03*
X381000Y25400D03*
X406400Y25400D03*
X431800Y25400D03*
X457200Y25400D03*
X482600Y25400D03*
X508000Y25400D03*
X533400Y25400D03*
X558800Y25400D03*
X584200Y25400D03*
X609600Y25400D03*
X495300Y508000D03*
X520700Y508000D03*
D12*
X43580Y64770D03*
D13*
X93580Y64770D03*
D14*
X135010Y304800D03*
X152010Y304800D03*
D11*
X367900Y357020D03*
X342900Y357020D03*
X317900Y357020D03*
D15*
X386900Y287020D03*
X298900Y287020D03*
D16*
X612140Y510540D03*
D11*
X612140Y485140D03*
X612140Y459740D03*
X612140Y434340D03*
D17*
X31750Y450850D03*
X31750Y476250D03*
X31750Y425450D03*
D11*
X241300Y101600D03*
X266700Y101600D03*
X292100Y101600D03*
X317500Y101600D03*
X342900Y101600D03*
X368300Y101600D03*
X393700Y101600D03*
X419100Y101600D03*
X444500Y101600D03*
X469900Y101600D03*
X25400Y228600D03*
X25400Y254000D03*
X25400Y279400D03*
X25400Y304800D03*
X25400Y330200D03*
D18*
X552450Y181500D03*
X552450Y199500D03*
X577850Y181500D03*
X577850Y199500D03*
D19*
X576700Y269900D02*
X576700Y288900D01*
X439700Y288900D02*
X439700Y269900D01*
X455200Y331400D02*
X474200Y331400D01*
D20*
X63500Y205350D03*
X63500Y188350D03*
D21*
X584200Y450850D03*
D22*
X336550Y215900D02*
X336557Y215286D01*
X336580Y214673D01*
X336617Y214060D01*
X336669Y213449D01*
X336735Y212838D01*
X336817Y212230D01*
X336913Y211624D01*
X337023Y211020D01*
X337148Y210419D01*
X337288Y209821D01*
X337442Y209227D01*
X337611Y208637D01*
X337793Y208051D01*
X337990Y207470D01*
X338201Y206893D01*
X338425Y206322D01*
X338663Y205756D01*
X338915Y205196D01*
X339181Y204643D01*
X339459Y204096D01*
X339751Y203556D01*
X340056Y203023D01*
X340374Y202498D01*
X340704Y201980D01*
X341046Y201471D01*
X341401Y200970D01*
X341768Y200478D01*
X342146Y199995D01*
X342536Y199521D01*
X342938Y199057D01*
X343350Y198602D01*
X343774Y198158D01*
X344208Y197724D01*
X344652Y197300D01*
X345107Y196888D01*
X345571Y196486D01*
X346045Y196096D01*
X346528Y195718D01*
X347020Y195351D01*
X347521Y194996D01*
X348030Y194654D01*
X348548Y194324D01*
X349073Y194006D01*
X349606Y193701D01*
X350146Y193409D01*
X350693Y193131D01*
X351246Y192865D01*
X351806Y192613D01*
X352372Y192375D01*
X352943Y192151D01*
X353520Y191940D01*
X354101Y191743D01*
X354687Y191561D01*
X355277Y191392D01*
X355871Y191238D01*
X356469Y191098D01*
X357070Y190973D01*
X357674Y190863D01*
X358280Y190767D01*
X358888Y190685D01*
X359499Y190619D01*
X360110Y190567D01*
X360723Y190530D01*
X361336Y190507D01*
X361950Y190500D01*
X419100Y190500D01*
X419714Y190493D01*
X420327Y190470D01*
X420940Y190433D01*
X421551Y190381D01*
X422162Y190315D01*
X422770Y190233D01*
X423376Y190137D01*
X423980Y190027D01*
X424581Y189902D01*
X425179Y189762D01*
X425773Y189608D01*
X426363Y189439D01*
X426949Y189257D01*
X427530Y189060D01*
X428107Y188849D01*
X428678Y188625D01*
X429244Y188387D01*
X429804Y188135D01*
X430357Y187869D01*
X430904Y187591D01*
X431444Y187299D01*
X431977Y186994D01*
X432502Y186676D01*
X433020Y186346D01*
X433529Y186004D01*
X434030Y185649D01*
X434522Y185282D01*
X435005Y184904D01*
X435479Y184514D01*
X435943Y184112D01*
X436398Y183700D01*
X436842Y183276D01*
X437276Y182842D01*
X437700Y182398D01*
X438112Y181943D01*
X438514Y181479D01*
X438904Y181005D01*
X439282Y180522D01*
X439649Y180030D01*
X440004Y179529D01*
X440346Y179020D01*
X440676Y178502D01*
X440994Y177977D01*
X441299Y177444D01*
X441591Y176904D01*
X441869Y176357D01*
X442135Y175804D01*
X442387Y175244D01*
X442625Y174678D01*
X442849Y174107D01*
X443060Y173530D01*
X443257Y172949D01*
X443439Y172363D01*
X443608Y171773D01*
X443762Y171179D01*
X443902Y170581D01*
X444027Y169980D01*
X444137Y169376D01*
X444233Y168770D01*
X444315Y168162D01*
X444381Y167551D01*
X444433Y166940D01*
X444470Y166327D01*
X444493Y165714D01*
X444500Y165100D01*
X444500Y101600D01*
X238885Y281815D02*
X101020Y143950D01*
X101019Y143950D02*
X100584Y143503D01*
X100160Y143047D01*
X99747Y142580D01*
X99346Y142103D01*
X98956Y141616D01*
X98579Y141120D01*
X98213Y140615D01*
X97861Y140100D01*
X97521Y139578D01*
X97194Y139047D01*
X96880Y138509D01*
X96579Y137962D01*
X96292Y137409D01*
X96019Y136849D01*
X95759Y136282D01*
X95513Y135709D01*
X95282Y135130D01*
X95065Y134546D01*
X94862Y133957D01*
X94674Y133362D01*
X94500Y132764D01*
X94341Y132161D01*
X94197Y131554D01*
X94068Y130944D01*
X93954Y130331D01*
X93855Y129716D01*
X93771Y129098D01*
X93702Y128479D01*
X93649Y127858D01*
X93611Y127235D01*
X93588Y126612D01*
X93580Y125989D01*
X93580Y64770D01*
X25400Y279400D02*
X233055Y279400D01*
X233251Y279402D01*
X233447Y279409D01*
X233643Y279421D01*
X233839Y279437D01*
X234034Y279458D01*
X234228Y279484D01*
X234422Y279514D01*
X234615Y279549D01*
X234808Y279588D01*
X234999Y279632D01*
X235189Y279681D01*
X235378Y279734D01*
X235565Y279792D01*
X235752Y279853D01*
X235936Y279920D01*
X236119Y279991D01*
X236301Y280066D01*
X236480Y280145D01*
X236658Y280229D01*
X236833Y280317D01*
X237006Y280409D01*
X237178Y280505D01*
X237346Y280605D01*
X237513Y280709D01*
X237676Y280817D01*
X237838Y280929D01*
X237996Y281045D01*
X238152Y281164D01*
X238305Y281287D01*
X238454Y281414D01*
X238601Y281544D01*
X238745Y281678D01*
X238885Y281815D01*
X393700Y323850D02*
X394314Y323857D01*
X394927Y323880D01*
X395540Y323917D01*
X396151Y323969D01*
X396762Y324035D01*
X397370Y324117D01*
X397976Y324213D01*
X398580Y324323D01*
X399181Y324448D01*
X399779Y324588D01*
X400373Y324742D01*
X400963Y324911D01*
X401549Y325093D01*
X402130Y325290D01*
X402707Y325501D01*
X403278Y325725D01*
X403844Y325963D01*
X404404Y326215D01*
X404957Y326481D01*
X405504Y326759D01*
X406044Y327051D01*
X406577Y327356D01*
X407102Y327674D01*
X407620Y328004D01*
X408129Y328346D01*
X408630Y328701D01*
X409122Y329068D01*
X409605Y329446D01*
X410079Y329836D01*
X410543Y330238D01*
X410998Y330650D01*
X411442Y331074D01*
X411876Y331508D01*
X412300Y331952D01*
X412712Y332407D01*
X413114Y332871D01*
X413504Y333345D01*
X413882Y333828D01*
X414249Y334320D01*
X414604Y334821D01*
X414946Y335330D01*
X415276Y335848D01*
X415594Y336373D01*
X415899Y336906D01*
X416191Y337446D01*
X416469Y337993D01*
X416735Y338546D01*
X416987Y339106D01*
X417225Y339672D01*
X417449Y340243D01*
X417660Y340820D01*
X417857Y341401D01*
X418039Y341987D01*
X418208Y342577D01*
X418362Y343171D01*
X418502Y343769D01*
X418627Y344370D01*
X418737Y344974D01*
X418833Y345580D01*
X418915Y346188D01*
X418981Y346799D01*
X419033Y347410D01*
X419070Y348023D01*
X419093Y348636D01*
X419100Y349250D01*
X393700Y323850D02*
X336550Y323850D01*
X419100Y349250D02*
X419100Y508000D01*
X336550Y323850D02*
X336550Y215900D01*
X291441Y323850D02*
X290818Y323842D01*
X290195Y323819D01*
X289572Y323781D01*
X288951Y323728D01*
X288332Y323659D01*
X287714Y323575D01*
X287099Y323476D01*
X286486Y323362D01*
X285876Y323233D01*
X285269Y323089D01*
X284666Y322930D01*
X284068Y322756D01*
X283473Y322568D01*
X282884Y322365D01*
X282300Y322148D01*
X281721Y321917D01*
X281148Y321671D01*
X280581Y321411D01*
X280021Y321138D01*
X279468Y320851D01*
X278921Y320550D01*
X278383Y320236D01*
X277852Y319909D01*
X277330Y319569D01*
X276815Y319217D01*
X276310Y318851D01*
X275814Y318474D01*
X275327Y318084D01*
X274850Y317683D01*
X274383Y317270D01*
X273927Y316846D01*
X273480Y316411D01*
X273481Y316411D02*
X238885Y281815D01*
X317500Y323850D02*
X336550Y323850D01*
X317500Y323850D02*
X291441Y323850D01*
X317900Y324250D02*
X317900Y357020D01*
X317900Y324250D02*
X317898Y324211D01*
X317892Y324172D01*
X317883Y324134D01*
X317870Y324097D01*
X317853Y324061D01*
X317833Y324028D01*
X317809Y323996D01*
X317783Y323967D01*
X317754Y323941D01*
X317722Y323917D01*
X317689Y323897D01*
X317653Y323880D01*
X317616Y323867D01*
X317578Y323858D01*
X317539Y323852D01*
X317500Y323850D01*
X122829Y425450D02*
X31750Y425450D01*
X122829Y425450D02*
X123452Y425442D01*
X124075Y425419D01*
X124698Y425381D01*
X125319Y425328D01*
X125938Y425259D01*
X126556Y425175D01*
X127171Y425076D01*
X127784Y424962D01*
X128394Y424833D01*
X129001Y424689D01*
X129604Y424530D01*
X130202Y424356D01*
X130797Y424168D01*
X131386Y423965D01*
X131970Y423748D01*
X132549Y423517D01*
X133122Y423271D01*
X133689Y423011D01*
X134249Y422738D01*
X134802Y422451D01*
X135349Y422150D01*
X135887Y421836D01*
X136418Y421509D01*
X136940Y421169D01*
X137455Y420817D01*
X137960Y420451D01*
X138456Y420074D01*
X138943Y419684D01*
X139420Y419283D01*
X139887Y418870D01*
X140343Y418446D01*
X140790Y418011D01*
X158750Y400050D01*
X159119Y399689D01*
X159497Y399338D01*
X159883Y398995D01*
X160277Y398662D01*
X160678Y398338D01*
X161088Y398024D01*
X161504Y397720D01*
X161928Y397426D01*
X162359Y397142D01*
X162796Y396868D01*
X163240Y396605D01*
X163690Y396352D01*
X164146Y396110D01*
X164607Y395879D01*
X165074Y395659D01*
X165546Y395450D01*
X166022Y395253D01*
X166504Y395067D01*
X166989Y394892D01*
X167479Y394729D01*
X167972Y394578D01*
X168469Y394439D01*
X168969Y394311D01*
X169472Y394195D01*
X169977Y394092D01*
X170485Y394000D01*
X170995Y393921D01*
X171506Y393853D01*
X172019Y393798D01*
X172533Y393755D01*
X173048Y393725D01*
X173564Y393706D01*
X174080Y393700D01*
X224429Y393700D02*
X225033Y393707D01*
X225638Y393729D01*
X226241Y393765D01*
X226843Y393815D01*
X227444Y393880D01*
X228044Y393959D01*
X228641Y394052D01*
X229236Y394159D01*
X229828Y394280D01*
X230417Y394416D01*
X231003Y394565D01*
X231585Y394729D01*
X232163Y394906D01*
X232737Y395097D01*
X233305Y395301D01*
X233869Y395519D01*
X234428Y395751D01*
X234981Y395995D01*
X235527Y396253D01*
X236068Y396524D01*
X236602Y396807D01*
X237129Y397103D01*
X237649Y397411D01*
X238161Y397732D01*
X238666Y398065D01*
X239162Y398410D01*
X239651Y398766D01*
X240130Y399134D01*
X240601Y399514D01*
X241062Y399904D01*
X241515Y400305D01*
X241957Y400717D01*
X242390Y401139D01*
X242390Y401140D02*
X260350Y419100D01*
X260711Y419469D01*
X261062Y419847D01*
X261405Y420233D01*
X261738Y420627D01*
X262062Y421028D01*
X262376Y421438D01*
X262680Y421854D01*
X262974Y422278D01*
X263258Y422709D01*
X263532Y423146D01*
X263795Y423590D01*
X264048Y424040D01*
X264290Y424496D01*
X264521Y424957D01*
X264741Y425424D01*
X264950Y425896D01*
X265147Y426372D01*
X265333Y426854D01*
X265508Y427339D01*
X265671Y427829D01*
X265822Y428322D01*
X265961Y428819D01*
X266089Y429319D01*
X266205Y429822D01*
X266308Y430327D01*
X266400Y430835D01*
X266479Y431345D01*
X266547Y431856D01*
X266602Y432369D01*
X266645Y432883D01*
X266675Y433398D01*
X266694Y433914D01*
X266700Y434430D01*
X266700Y508000D01*
X224429Y393700D02*
X174080Y393700D01*
X444500Y459740D02*
X444500Y508000D01*
X444500Y459740D02*
X444507Y459126D01*
X444530Y458513D01*
X444567Y457900D01*
X444619Y457289D01*
X444685Y456678D01*
X444767Y456070D01*
X444863Y455464D01*
X444973Y454860D01*
X445098Y454259D01*
X445238Y453661D01*
X445392Y453067D01*
X445561Y452477D01*
X445743Y451891D01*
X445940Y451310D01*
X446151Y450733D01*
X446375Y450162D01*
X446613Y449596D01*
X446865Y449036D01*
X447131Y448483D01*
X447409Y447936D01*
X447701Y447396D01*
X448006Y446863D01*
X448324Y446338D01*
X448654Y445820D01*
X448996Y445311D01*
X449351Y444810D01*
X449718Y444318D01*
X450096Y443835D01*
X450486Y443361D01*
X450888Y442897D01*
X451300Y442442D01*
X451724Y441998D01*
X452158Y441564D01*
X452602Y441140D01*
X453057Y440728D01*
X453521Y440326D01*
X453995Y439936D01*
X454478Y439558D01*
X454970Y439191D01*
X455471Y438836D01*
X455980Y438494D01*
X456498Y438164D01*
X457023Y437846D01*
X457556Y437541D01*
X458096Y437249D01*
X458643Y436971D01*
X459196Y436705D01*
X459756Y436453D01*
X460322Y436215D01*
X460893Y435991D01*
X461470Y435780D01*
X462051Y435583D01*
X462637Y435401D01*
X463227Y435232D01*
X463821Y435078D01*
X464419Y434938D01*
X465020Y434813D01*
X465624Y434703D01*
X466230Y434607D01*
X466838Y434525D01*
X467449Y434459D01*
X468060Y434407D01*
X468673Y434370D01*
X469286Y434347D01*
X469900Y434340D01*
X612140Y434340D01*
X129179Y476250D02*
X31750Y476250D01*
X129179Y476250D02*
X129802Y476242D01*
X130425Y476219D01*
X131048Y476181D01*
X131669Y476128D01*
X132288Y476059D01*
X132906Y475975D01*
X133521Y475876D01*
X134134Y475762D01*
X134744Y475633D01*
X135351Y475489D01*
X135954Y475330D01*
X136552Y475156D01*
X137147Y474968D01*
X137736Y474765D01*
X138320Y474548D01*
X138899Y474317D01*
X139472Y474071D01*
X140039Y473811D01*
X140599Y473538D01*
X141152Y473251D01*
X141699Y472950D01*
X142237Y472636D01*
X142768Y472309D01*
X143290Y471969D01*
X143805Y471617D01*
X144310Y471251D01*
X144806Y470874D01*
X145293Y470484D01*
X145770Y470083D01*
X146237Y469670D01*
X146693Y469246D01*
X147140Y468811D01*
X189410Y426539D02*
X189857Y426104D01*
X190313Y425680D01*
X190780Y425267D01*
X191257Y424866D01*
X191744Y424476D01*
X192240Y424099D01*
X192745Y423733D01*
X193260Y423381D01*
X193782Y423041D01*
X194313Y422714D01*
X194851Y422400D01*
X195398Y422099D01*
X195951Y421812D01*
X196511Y421539D01*
X197078Y421279D01*
X197651Y421033D01*
X198230Y420802D01*
X198814Y420585D01*
X199403Y420382D01*
X199998Y420194D01*
X200596Y420020D01*
X201199Y419861D01*
X201806Y419717D01*
X202416Y419588D01*
X203029Y419474D01*
X203644Y419375D01*
X204262Y419291D01*
X204881Y419222D01*
X205502Y419169D01*
X206125Y419131D01*
X206748Y419108D01*
X207371Y419100D01*
X222250Y419100D01*
X189411Y426540D02*
X147140Y468811D01*
X222250Y419100D02*
X222710Y419106D01*
X223170Y419122D01*
X223630Y419150D01*
X224089Y419189D01*
X224546Y419239D01*
X225003Y419300D01*
X225457Y419372D01*
X225910Y419455D01*
X226361Y419549D01*
X226809Y419654D01*
X227255Y419769D01*
X227697Y419895D01*
X228137Y420032D01*
X228573Y420180D01*
X229005Y420338D01*
X229434Y420506D01*
X229858Y420685D01*
X230278Y420874D01*
X230693Y421073D01*
X231103Y421282D01*
X231508Y421501D01*
X231908Y421729D01*
X232302Y421968D01*
X232690Y422215D01*
X233072Y422472D01*
X233447Y422738D01*
X233816Y423013D01*
X234179Y423297D01*
X234534Y423590D01*
X234882Y423891D01*
X235223Y424200D01*
X235557Y424518D01*
X235882Y424843D01*
X236200Y425177D01*
X236509Y425518D01*
X236810Y425866D01*
X237103Y426221D01*
X237387Y426584D01*
X237662Y426953D01*
X237928Y427328D01*
X238185Y427710D01*
X238432Y428098D01*
X238671Y428492D01*
X238899Y428892D01*
X239118Y429297D01*
X239327Y429707D01*
X239526Y430122D01*
X239715Y430542D01*
X239894Y430966D01*
X240062Y431395D01*
X240220Y431827D01*
X240368Y432263D01*
X240505Y432703D01*
X240631Y433145D01*
X240746Y433591D01*
X240851Y434039D01*
X240945Y434490D01*
X241028Y434943D01*
X241100Y435397D01*
X241161Y435854D01*
X241211Y436311D01*
X241250Y436770D01*
X241278Y437230D01*
X241294Y437690D01*
X241300Y438150D01*
X241300Y508000D01*
D23*
X154550Y304800D02*
X152010Y304800D01*
D21*
X184150Y304800D03*
D22*
X152010Y304800D01*
D21*
X215900Y438150D03*
X266700Y400050D03*
D22*
X215900Y438150D02*
X215900Y508000D01*
X317500Y400050D02*
X318114Y400043D01*
X318727Y400020D01*
X319340Y399983D01*
X319951Y399931D01*
X320562Y399865D01*
X321170Y399783D01*
X321776Y399687D01*
X322380Y399577D01*
X322981Y399452D01*
X323579Y399312D01*
X324173Y399158D01*
X324763Y398989D01*
X325349Y398807D01*
X325930Y398610D01*
X326507Y398399D01*
X327078Y398175D01*
X327644Y397937D01*
X328204Y397685D01*
X328757Y397419D01*
X329304Y397141D01*
X329844Y396849D01*
X330377Y396544D01*
X330902Y396226D01*
X331420Y395896D01*
X331929Y395554D01*
X332430Y395199D01*
X332922Y394832D01*
X333405Y394454D01*
X333879Y394064D01*
X334343Y393662D01*
X334798Y393250D01*
X335242Y392826D01*
X335676Y392392D01*
X336100Y391948D01*
X336512Y391493D01*
X336914Y391029D01*
X337304Y390555D01*
X337682Y390072D01*
X338049Y389580D01*
X338404Y389079D01*
X338746Y388570D01*
X339076Y388052D01*
X339394Y387527D01*
X339699Y386994D01*
X339991Y386454D01*
X340269Y385907D01*
X340535Y385354D01*
X340787Y384794D01*
X341025Y384228D01*
X341249Y383657D01*
X341460Y383080D01*
X341657Y382499D01*
X341839Y381913D01*
X342008Y381323D01*
X342162Y380729D01*
X342302Y380131D01*
X342427Y379530D01*
X342537Y378926D01*
X342633Y378320D01*
X342715Y377712D01*
X342781Y377101D01*
X342833Y376490D01*
X342870Y375877D01*
X342893Y375264D01*
X342900Y374650D01*
X342900Y357020D01*
X317500Y400050D02*
X266700Y400050D01*
D21*
X292100Y419100D03*
D22*
X292100Y508000D01*
X40250Y228600D02*
X25400Y228600D01*
X40250Y228600D02*
X40812Y228593D01*
X41373Y228573D01*
X41934Y228539D01*
X42494Y228491D01*
X43052Y228430D01*
X43609Y228356D01*
X44164Y228268D01*
X44717Y228167D01*
X45267Y228052D01*
X45814Y227924D01*
X46358Y227783D01*
X46898Y227629D01*
X47435Y227462D01*
X47967Y227282D01*
X48495Y227089D01*
X49017Y226884D01*
X49535Y226665D01*
X50048Y226435D01*
X50554Y226192D01*
X51055Y225937D01*
X51549Y225670D01*
X52037Y225391D01*
X52518Y225100D01*
X52991Y224798D01*
X53458Y224484D01*
X53916Y224160D01*
X54367Y223824D01*
X54809Y223477D01*
X55243Y223120D01*
X55668Y222753D01*
X56084Y222375D01*
X56490Y221988D01*
X56888Y221590D01*
X57275Y221184D01*
X57653Y220768D01*
X58020Y220343D01*
X58377Y219909D01*
X58724Y219467D01*
X59060Y219016D01*
X59384Y218558D01*
X59698Y218091D01*
X60000Y217618D01*
X60291Y217137D01*
X60570Y216649D01*
X60837Y216155D01*
X61092Y215654D01*
X61335Y215148D01*
X61565Y214635D01*
X61784Y214117D01*
X61989Y213595D01*
X62182Y213067D01*
X62362Y212535D01*
X62529Y211998D01*
X62683Y211458D01*
X62824Y210914D01*
X62952Y210367D01*
X63067Y209817D01*
X63168Y209264D01*
X63256Y208709D01*
X63330Y208152D01*
X63391Y207594D01*
X63439Y207034D01*
X63473Y206473D01*
X63493Y205912D01*
X63500Y205350D01*
X25400Y304800D02*
X135010Y304800D01*
X576700Y279400D02*
X576767Y279398D01*
X576834Y279392D01*
X576900Y279383D01*
X576965Y279369D01*
X577030Y279352D01*
X577093Y279331D01*
X577155Y279306D01*
X577216Y279278D01*
X577275Y279246D01*
X577332Y279211D01*
X577387Y279172D01*
X577439Y279131D01*
X577489Y279086D01*
X577536Y279039D01*
X577581Y278989D01*
X577622Y278937D01*
X577661Y278882D01*
X577696Y278825D01*
X577728Y278766D01*
X577756Y278705D01*
X577781Y278643D01*
X577802Y278580D01*
X577819Y278515D01*
X577833Y278450D01*
X577842Y278384D01*
X577848Y278317D01*
X577850Y278250D01*
X577850Y199500D01*
X552450Y199500D02*
X552450Y254000D01*
X552443Y254614D01*
X552420Y255227D01*
X552383Y255840D01*
X552331Y256451D01*
X552265Y257062D01*
X552183Y257670D01*
X552087Y258276D01*
X551977Y258880D01*
X551852Y259481D01*
X551712Y260079D01*
X551558Y260673D01*
X551389Y261263D01*
X551207Y261849D01*
X551010Y262430D01*
X550799Y263007D01*
X550575Y263578D01*
X550337Y264144D01*
X550085Y264704D01*
X549819Y265257D01*
X549541Y265804D01*
X549249Y266344D01*
X548944Y266877D01*
X548626Y267402D01*
X548296Y267920D01*
X547954Y268429D01*
X547599Y268930D01*
X547232Y269422D01*
X546854Y269905D01*
X546464Y270379D01*
X546062Y270843D01*
X545650Y271298D01*
X545226Y271742D01*
X544792Y272176D01*
X544348Y272600D01*
X543893Y273012D01*
X543429Y273414D01*
X542955Y273804D01*
X542472Y274182D01*
X541980Y274549D01*
X541479Y274904D01*
X540970Y275246D01*
X540452Y275576D01*
X539927Y275894D01*
X539394Y276199D01*
X538854Y276491D01*
X538307Y276769D01*
X537754Y277035D01*
X537194Y277287D01*
X536628Y277525D01*
X536057Y277749D01*
X535480Y277960D01*
X534899Y278157D01*
X534313Y278339D01*
X533723Y278508D01*
X533129Y278662D01*
X532531Y278802D01*
X531930Y278927D01*
X531326Y279037D01*
X530720Y279133D01*
X530112Y279215D01*
X529501Y279281D01*
X528890Y279333D01*
X528277Y279370D01*
X527664Y279393D01*
X527050Y279400D01*
X463550Y279400D01*
X439700Y279400D01*
X463550Y330250D02*
X463552Y330317D01*
X463558Y330384D01*
X463567Y330450D01*
X463581Y330515D01*
X463598Y330580D01*
X463619Y330643D01*
X463644Y330705D01*
X463672Y330766D01*
X463704Y330825D01*
X463739Y330882D01*
X463778Y330937D01*
X463819Y330989D01*
X463864Y331039D01*
X463911Y331086D01*
X463961Y331131D01*
X464013Y331172D01*
X464068Y331211D01*
X464125Y331246D01*
X464184Y331278D01*
X464245Y331306D01*
X464307Y331331D01*
X464370Y331352D01*
X464435Y331369D01*
X464500Y331383D01*
X464566Y331392D01*
X464633Y331398D01*
X464700Y331400D01*
X463550Y330250D02*
X463550Y279400D01*
X408940Y44450D02*
X406400Y25400D01*
X408940Y44450D02*
X408947Y45064D01*
X408970Y45677D01*
X409007Y46290D01*
X409059Y46901D01*
X409125Y47512D01*
X409207Y48120D01*
X409303Y48726D01*
X409413Y49330D01*
X409538Y49931D01*
X409678Y50529D01*
X409832Y51123D01*
X410001Y51713D01*
X410183Y52299D01*
X410380Y52880D01*
X410591Y53457D01*
X410815Y54028D01*
X411053Y54594D01*
X411305Y55154D01*
X411571Y55707D01*
X411849Y56254D01*
X412141Y56794D01*
X412446Y57327D01*
X412764Y57852D01*
X413094Y58370D01*
X413436Y58879D01*
X413791Y59380D01*
X414158Y59872D01*
X414536Y60355D01*
X414926Y60829D01*
X415328Y61293D01*
X415740Y61748D01*
X416164Y62192D01*
X416598Y62626D01*
X417042Y63050D01*
X417497Y63462D01*
X417961Y63864D01*
X418435Y64254D01*
X418918Y64632D01*
X419410Y64999D01*
X419911Y65354D01*
X420420Y65696D01*
X420938Y66026D01*
X421463Y66344D01*
X421996Y66649D01*
X422536Y66941D01*
X423083Y67219D01*
X423636Y67485D01*
X424196Y67737D01*
X424762Y67975D01*
X425333Y68199D01*
X425910Y68410D01*
X426491Y68607D01*
X427077Y68789D01*
X427667Y68958D01*
X428261Y69112D01*
X428859Y69252D01*
X429460Y69377D01*
X430064Y69487D01*
X430670Y69583D01*
X431278Y69665D01*
X431889Y69731D01*
X432500Y69783D01*
X433113Y69820D01*
X433726Y69843D01*
X434340Y69850D01*
X527050Y69850D02*
X527664Y69857D01*
X528277Y69880D01*
X528890Y69917D01*
X529501Y69969D01*
X530112Y70035D01*
X530720Y70117D01*
X531326Y70213D01*
X531930Y70323D01*
X532531Y70448D01*
X533129Y70588D01*
X533723Y70742D01*
X534313Y70911D01*
X534899Y71093D01*
X535480Y71290D01*
X536057Y71501D01*
X536628Y71725D01*
X537194Y71963D01*
X537754Y72215D01*
X538307Y72481D01*
X538854Y72759D01*
X539394Y73051D01*
X539927Y73356D01*
X540452Y73674D01*
X540970Y74004D01*
X541479Y74346D01*
X541980Y74701D01*
X542472Y75068D01*
X542955Y75446D01*
X543429Y75836D01*
X543893Y76238D01*
X544348Y76650D01*
X544792Y77074D01*
X545226Y77508D01*
X545650Y77952D01*
X546062Y78407D01*
X546464Y78871D01*
X546854Y79345D01*
X547232Y79828D01*
X547599Y80320D01*
X547954Y80821D01*
X548296Y81330D01*
X548626Y81848D01*
X548944Y82373D01*
X549249Y82906D01*
X549541Y83446D01*
X549819Y83993D01*
X550085Y84546D01*
X550337Y85106D01*
X550575Y85672D01*
X550799Y86243D01*
X551010Y86820D01*
X551207Y87401D01*
X551389Y87987D01*
X551558Y88577D01*
X551712Y89171D01*
X551852Y89769D01*
X551977Y90370D01*
X552087Y90974D01*
X552183Y91580D01*
X552265Y92188D01*
X552331Y92799D01*
X552383Y93410D01*
X552420Y94023D01*
X552443Y94636D01*
X552450Y95250D01*
X552450Y181500D01*
X527050Y69850D02*
X434340Y69850D01*
M02*
