G75*
%MOIN*%
%OFA0B0*%
%FSLAX25Y25*%
%IPPOS*%
%LPD*%
%AMOC8*
5,1,8,0,0,1.08239X$1,22.5*
%
%ADD10C,0.00800*%
%ADD11C,0.07400*%
%ADD12C,0.07600*%
%ADD13R,0.07600X0.07600*%
%ADD14C,0.11811*%
%ADD15R,0.07400X0.07400*%
%ADD16C,0.07480*%
%ADD17C,0.08000*%
%ADD18C,0.01000*%
%ADD19C,0.03000*%
%ADD20C,0.04000*%
D10*
X0029000Y0024000D02*
X0029000Y0234000D01*
X0284000Y0234000D01*
X0284000Y0024000D01*
X0029000Y0024000D01*
D11*
X0099000Y0034000D03*
X0109000Y0034000D03*
X0119000Y0034000D03*
X0129000Y0034000D03*
X0139000Y0034000D03*
X0149000Y0034000D03*
X0159000Y0034000D03*
X0169000Y0034000D03*
X0184000Y0034000D03*
X0194000Y0034000D03*
X0204000Y0034000D03*
X0214000Y0034000D03*
X0224000Y0034000D03*
X0234000Y0034000D03*
X0244000Y0034000D03*
X0254000Y0034000D03*
X0264000Y0034000D03*
X0274000Y0034000D03*
X0234000Y0054000D03*
X0224000Y0054000D03*
X0214000Y0054000D03*
X0204000Y0054000D03*
X0194000Y0054000D03*
X0184000Y0054000D03*
X0169000Y0054000D03*
X0159000Y0054000D03*
X0149000Y0054000D03*
X0139000Y0054000D03*
X0129000Y0054000D03*
X0119000Y0054000D03*
X0129000Y0094000D03*
X0099000Y0094000D03*
X0074000Y0114000D03*
X0039000Y0104000D03*
X0039000Y0094000D03*
X0039000Y0084000D03*
X0039000Y0134000D03*
X0039000Y0144000D03*
X0039000Y0154000D03*
X0039000Y0164000D03*
X0039000Y0174000D03*
X0039000Y0184000D03*
X0039000Y0194000D03*
X0039000Y0204000D03*
X0039000Y0214000D03*
X0055000Y0225000D03*
X0065000Y0225000D03*
X0075000Y0225000D03*
X0099000Y0224000D03*
X0109000Y0224000D03*
X0119000Y0224000D03*
X0129000Y0224000D03*
X0139000Y0224000D03*
X0149000Y0224000D03*
X0169000Y0224000D03*
X0179000Y0224000D03*
X0189000Y0224000D03*
X0199000Y0224000D03*
X0209000Y0224000D03*
X0219000Y0224000D03*
X0229000Y0224000D03*
X0239000Y0224000D03*
X0199000Y0201500D03*
X0189000Y0201500D03*
X0179000Y0201500D03*
X0178843Y0164559D03*
X0169000Y0164559D03*
X0159157Y0164559D03*
X0074000Y0144000D03*
D12*
X0051157Y0049500D03*
D13*
X0070843Y0049500D03*
D14*
X0151677Y0137000D03*
X0186323Y0137000D03*
D15*
X0085000Y0225000D03*
D16*
X0213213Y0154472D02*
X0220693Y0154472D01*
X0207110Y0137740D02*
X0207110Y0130260D01*
X0261047Y0130260D02*
X0261047Y0137740D01*
D17*
X0269000Y0097000D03*
X0269000Y0086000D03*
X0244000Y0086000D03*
X0244000Y0097000D03*
D18*
X0238703Y0094894D02*
X0221462Y0094894D01*
X0220088Y0095893D02*
X0238300Y0095893D01*
X0238300Y0095866D02*
X0239168Y0093771D01*
X0240771Y0092168D01*
X0242383Y0091500D01*
X0240771Y0090832D01*
X0239168Y0089229D01*
X0238300Y0087134D01*
X0238300Y0084866D01*
X0239168Y0082771D01*
X0240771Y0081168D01*
X0242866Y0080300D01*
X0245134Y0080300D01*
X0247229Y0081168D01*
X0248832Y0082771D01*
X0249700Y0084866D01*
X0249700Y0087134D01*
X0248832Y0089229D01*
X0247229Y0090832D01*
X0245617Y0091500D01*
X0247229Y0092168D01*
X0248832Y0093771D01*
X0249700Y0095866D01*
X0249700Y0098134D01*
X0248832Y0100229D01*
X0247229Y0101832D01*
X0245134Y0102700D01*
X0242866Y0102700D01*
X0240771Y0101832D01*
X0239168Y0100229D01*
X0238300Y0098134D01*
X0238300Y0095866D01*
X0238300Y0096891D02*
X0217041Y0096891D01*
X0216091Y0097200D02*
X0133437Y0097200D01*
X0132059Y0098578D01*
X0130074Y0099400D01*
X0127926Y0099400D01*
X0125941Y0098578D01*
X0124422Y0097059D01*
X0123600Y0095074D01*
X0123600Y0092926D01*
X0124422Y0090941D01*
X0125941Y0089422D01*
X0127926Y0088600D01*
X0130074Y0088600D01*
X0132059Y0089422D01*
X0133437Y0090800D01*
X0214000Y0090800D01*
X0215064Y0090716D01*
X0217087Y0090059D01*
X0218808Y0088808D01*
X0220059Y0087087D01*
X0220716Y0085064D01*
X0220800Y0084000D01*
X0220800Y0058437D01*
X0219422Y0057059D01*
X0219000Y0056040D01*
X0218578Y0057059D01*
X0217059Y0058578D01*
X0215074Y0059400D01*
X0212926Y0059400D01*
X0210941Y0058578D01*
X0209422Y0057059D01*
X0209000Y0056040D01*
X0208578Y0057059D01*
X0207059Y0058578D01*
X0205074Y0059400D01*
X0202926Y0059400D01*
X0200941Y0058578D01*
X0199422Y0057059D01*
X0199000Y0056040D01*
X0198578Y0057059D01*
X0197059Y0058578D01*
X0195074Y0059400D01*
X0192926Y0059400D01*
X0190941Y0058578D01*
X0189422Y0057059D01*
X0189000Y0056040D01*
X0188578Y0057059D01*
X0187059Y0058578D01*
X0185074Y0059400D01*
X0182926Y0059400D01*
X0180941Y0058578D01*
X0179422Y0057059D01*
X0178600Y0055074D01*
X0178600Y0052926D01*
X0179422Y0050941D01*
X0180800Y0049563D01*
X0180800Y0038437D01*
X0179422Y0037059D01*
X0178600Y0035074D01*
X0178600Y0032926D01*
X0179422Y0030941D01*
X0180941Y0029422D01*
X0182926Y0028600D01*
X0185074Y0028600D01*
X0187059Y0029422D01*
X0188578Y0030941D01*
X0189000Y0031960D01*
X0189422Y0030941D01*
X0190941Y0029422D01*
X0192926Y0028600D01*
X0195074Y0028600D01*
X0197059Y0029422D01*
X0198578Y0030941D01*
X0199000Y0031960D01*
X0199422Y0030941D01*
X0200941Y0029422D01*
X0202926Y0028600D01*
X0205074Y0028600D01*
X0207059Y0029422D01*
X0208578Y0030941D01*
X0209000Y0031960D01*
X0209422Y0030941D01*
X0210941Y0029422D01*
X0212926Y0028600D01*
X0215074Y0028600D01*
X0217059Y0029422D01*
X0218578Y0030941D01*
X0219000Y0031960D01*
X0219422Y0030941D01*
X0220941Y0029422D01*
X0222926Y0028600D01*
X0225074Y0028600D01*
X0227059Y0029422D01*
X0228578Y0030941D01*
X0229000Y0031960D01*
X0229422Y0030941D01*
X0230941Y0029422D01*
X0232926Y0028600D01*
X0235074Y0028600D01*
X0237059Y0029422D01*
X0238578Y0030941D01*
X0239109Y0032224D01*
X0239181Y0032004D01*
X0239553Y0031275D01*
X0240034Y0030612D01*
X0240612Y0030034D01*
X0241275Y0029553D01*
X0242004Y0029181D01*
X0242782Y0028928D01*
X0243500Y0028814D01*
X0243500Y0033500D01*
X0244500Y0033500D01*
X0244500Y0028814D01*
X0245218Y0028928D01*
X0245996Y0029181D01*
X0246725Y0029553D01*
X0247388Y0030034D01*
X0247966Y0030612D01*
X0248447Y0031275D01*
X0248819Y0032004D01*
X0248891Y0032224D01*
X0249422Y0030941D01*
X0250941Y0029422D01*
X0252926Y0028600D01*
X0255074Y0028600D01*
X0257059Y0029422D01*
X0258578Y0030941D01*
X0259000Y0031960D01*
X0259422Y0030941D01*
X0260941Y0029422D01*
X0262926Y0028600D01*
X0265074Y0028600D01*
X0267059Y0029422D01*
X0268578Y0030941D01*
X0269000Y0031960D01*
X0269422Y0030941D01*
X0270941Y0029422D01*
X0272926Y0028600D01*
X0275074Y0028600D01*
X0277059Y0029422D01*
X0278578Y0030941D01*
X0279400Y0032926D01*
X0279400Y0035074D01*
X0278578Y0037059D01*
X0277059Y0038578D01*
X0275074Y0039400D01*
X0272926Y0039400D01*
X0270941Y0038578D01*
X0269422Y0037059D01*
X0269000Y0036040D01*
X0268578Y0037059D01*
X0267059Y0038578D01*
X0265074Y0039400D01*
X0262926Y0039400D01*
X0260941Y0038578D01*
X0259422Y0037059D01*
X0259000Y0036040D01*
X0258578Y0037059D01*
X0257059Y0038578D01*
X0255074Y0039400D01*
X0252926Y0039400D01*
X0250941Y0038578D01*
X0249422Y0037059D01*
X0248891Y0035776D01*
X0248819Y0035996D01*
X0248447Y0036725D01*
X0247966Y0037388D01*
X0247388Y0037966D01*
X0246725Y0038447D01*
X0245996Y0038819D01*
X0245218Y0039072D01*
X0244500Y0039186D01*
X0244500Y0034500D01*
X0243500Y0034500D01*
X0243500Y0039186D01*
X0242782Y0039072D01*
X0242004Y0038819D01*
X0241275Y0038447D01*
X0240612Y0037966D01*
X0240034Y0037388D01*
X0239553Y0036725D01*
X0239181Y0035996D01*
X0239109Y0035776D01*
X0238578Y0037059D01*
X0237200Y0038437D01*
X0237200Y0049563D01*
X0238578Y0050941D01*
X0239400Y0052926D01*
X0239400Y0055074D01*
X0238578Y0057059D01*
X0237059Y0058578D01*
X0235074Y0059400D01*
X0232926Y0059400D01*
X0230941Y0058578D01*
X0229422Y0057059D01*
X0229000Y0056040D01*
X0228578Y0057059D01*
X0227200Y0058437D01*
X0227200Y0086091D01*
X0225908Y0090067D01*
X0225908Y0090067D01*
X0223450Y0093450D01*
X0220067Y0095908D01*
X0216091Y0097200D01*
X0220067Y0095908D02*
X0220067Y0095908D01*
X0222837Y0093896D02*
X0239116Y0093896D01*
X0240042Y0092897D02*
X0223852Y0092897D01*
X0223450Y0093450D02*
X0223450Y0093450D01*
X0223450Y0093450D01*
X0224577Y0091899D02*
X0241421Y0091899D01*
X0240935Y0090900D02*
X0225303Y0090900D01*
X0225962Y0089902D02*
X0239841Y0089902D01*
X0239033Y0088903D02*
X0226286Y0088903D01*
X0226611Y0087905D02*
X0238619Y0087905D01*
X0238300Y0086906D02*
X0226935Y0086906D01*
X0227200Y0085908D02*
X0238300Y0085908D01*
X0238300Y0084909D02*
X0227200Y0084909D01*
X0227200Y0083911D02*
X0238696Y0083911D01*
X0239109Y0082912D02*
X0227200Y0082912D01*
X0227200Y0081914D02*
X0240025Y0081914D01*
X0241381Y0080915D02*
X0227200Y0080915D01*
X0227200Y0079917D02*
X0281900Y0079917D01*
X0281900Y0080915D02*
X0271135Y0080915D01*
X0271111Y0080903D02*
X0271883Y0081296D01*
X0272583Y0081805D01*
X0273195Y0082417D01*
X0273704Y0083117D01*
X0274097Y0083889D01*
X0274365Y0084712D01*
X0274489Y0085500D01*
X0269500Y0085500D01*
X0269500Y0086500D01*
X0274489Y0086500D01*
X0274365Y0087288D01*
X0274097Y0088111D01*
X0273704Y0088883D01*
X0273195Y0089583D01*
X0272583Y0090195D01*
X0271883Y0090704D01*
X0271111Y0091097D01*
X0270289Y0091364D01*
X0272229Y0092168D01*
X0273832Y0093771D01*
X0274700Y0095866D01*
X0274700Y0098134D01*
X0273832Y0100229D01*
X0272229Y0101832D01*
X0272200Y0101844D01*
X0272200Y0127814D01*
X0271108Y0131174D01*
X0269032Y0134032D01*
X0266487Y0135880D01*
X0266487Y0138822D01*
X0265659Y0140822D01*
X0264129Y0142352D01*
X0262129Y0143180D01*
X0259965Y0143180D01*
X0257966Y0142352D01*
X0256435Y0140822D01*
X0255607Y0138822D01*
X0255607Y0129178D01*
X0256435Y0127178D01*
X0257966Y0125648D01*
X0259965Y0124820D01*
X0262129Y0124820D01*
X0264129Y0125648D01*
X0265626Y0127145D01*
X0265741Y0126791D01*
X0265800Y0126047D01*
X0265800Y0101844D01*
X0265771Y0101832D01*
X0264168Y0100229D01*
X0263300Y0098134D01*
X0263300Y0095866D01*
X0264168Y0093771D01*
X0265771Y0092168D01*
X0267711Y0091364D01*
X0266889Y0091097D01*
X0266117Y0090704D01*
X0265417Y0090195D01*
X0264805Y0089583D01*
X0264296Y0088883D01*
X0263903Y0088111D01*
X0263635Y0087288D01*
X0263511Y0086500D01*
X0268500Y0086500D01*
X0268500Y0085500D01*
X0269500Y0085500D01*
X0269500Y0080511D01*
X0270288Y0080635D01*
X0271111Y0080903D01*
X0269500Y0080915D02*
X0268500Y0080915D01*
X0268500Y0080511D02*
X0268500Y0085500D01*
X0263511Y0085500D01*
X0263635Y0084712D01*
X0263903Y0083889D01*
X0264296Y0083117D01*
X0264805Y0082417D01*
X0265417Y0081805D01*
X0266117Y0081296D01*
X0266889Y0080903D01*
X0267712Y0080635D01*
X0268500Y0080511D01*
X0268500Y0081914D02*
X0269500Y0081914D01*
X0269500Y0082912D02*
X0268500Y0082912D01*
X0268500Y0083911D02*
X0269500Y0083911D01*
X0269500Y0084909D02*
X0268500Y0084909D01*
X0268500Y0085908D02*
X0249700Y0085908D01*
X0249700Y0086906D02*
X0263575Y0086906D01*
X0263836Y0087905D02*
X0249381Y0087905D01*
X0248967Y0088903D02*
X0264311Y0088903D01*
X0265124Y0089902D02*
X0248159Y0089902D01*
X0247065Y0090900D02*
X0266503Y0090900D01*
X0266421Y0091899D02*
X0246579Y0091899D01*
X0247958Y0092897D02*
X0265042Y0092897D01*
X0264116Y0093896D02*
X0248884Y0093896D01*
X0249297Y0094894D02*
X0263703Y0094894D01*
X0263300Y0095893D02*
X0249700Y0095893D01*
X0249700Y0096891D02*
X0263300Y0096891D01*
X0263300Y0097890D02*
X0249700Y0097890D01*
X0249387Y0098888D02*
X0263613Y0098888D01*
X0264026Y0099887D02*
X0248974Y0099887D01*
X0248176Y0100885D02*
X0264824Y0100885D01*
X0265800Y0101884D02*
X0247104Y0101884D01*
X0240896Y0101884D02*
X0043968Y0101884D01*
X0043578Y0100941D02*
X0044400Y0102926D01*
X0044400Y0105074D01*
X0043578Y0107059D01*
X0042059Y0108578D01*
X0040074Y0109400D01*
X0037926Y0109400D01*
X0035941Y0108578D01*
X0034422Y0107059D01*
X0033600Y0105074D01*
X0033600Y0102926D01*
X0034422Y0100941D01*
X0035941Y0099422D01*
X0036960Y0099000D01*
X0035941Y0098578D01*
X0034422Y0097059D01*
X0033600Y0095074D01*
X0033600Y0092926D01*
X0034422Y0090941D01*
X0035941Y0089422D01*
X0037224Y0088891D01*
X0037004Y0088819D01*
X0036275Y0088447D01*
X0035612Y0087966D01*
X0035034Y0087388D01*
X0034553Y0086725D01*
X0034181Y0085996D01*
X0033928Y0085218D01*
X0033814Y0084500D01*
X0038500Y0084500D01*
X0038500Y0083500D01*
X0039500Y0083500D01*
X0039500Y0084500D01*
X0044186Y0084500D01*
X0044072Y0085218D01*
X0043819Y0085996D01*
X0043447Y0086725D01*
X0042966Y0087388D01*
X0042388Y0087966D01*
X0041725Y0088447D01*
X0040996Y0088819D01*
X0040776Y0088891D01*
X0042059Y0089422D01*
X0043437Y0090800D01*
X0094563Y0090800D01*
X0095941Y0089422D01*
X0097926Y0088600D01*
X0100074Y0088600D01*
X0102059Y0089422D01*
X0103578Y0090941D01*
X0104400Y0092926D01*
X0104400Y0095074D01*
X0103578Y0097059D01*
X0102059Y0098578D01*
X0100074Y0099400D01*
X0097926Y0099400D01*
X0095941Y0098578D01*
X0094563Y0097200D01*
X0043437Y0097200D01*
X0042059Y0098578D01*
X0041040Y0099000D01*
X0042059Y0099422D01*
X0043578Y0100941D01*
X0043522Y0100885D02*
X0239824Y0100885D01*
X0239026Y0099887D02*
X0042524Y0099887D01*
X0041309Y0098888D02*
X0096691Y0098888D01*
X0095253Y0097890D02*
X0042747Y0097890D01*
X0044382Y0102882D02*
X0265800Y0102882D01*
X0265800Y0103881D02*
X0044400Y0103881D01*
X0044400Y0104879D02*
X0265800Y0104879D01*
X0265800Y0105878D02*
X0044067Y0105878D01*
X0043653Y0106876D02*
X0265800Y0106876D01*
X0265800Y0107875D02*
X0042762Y0107875D01*
X0041345Y0108873D02*
X0073127Y0108873D01*
X0072782Y0108928D02*
X0073591Y0108800D01*
X0073614Y0108800D01*
X0073614Y0113614D01*
X0068800Y0113614D01*
X0068800Y0113591D01*
X0068928Y0112782D01*
X0069181Y0112004D01*
X0069553Y0111275D01*
X0070034Y0110612D01*
X0070612Y0110034D01*
X0071275Y0109553D01*
X0072004Y0109181D01*
X0072782Y0108928D01*
X0073614Y0108873D02*
X0074386Y0108873D01*
X0074386Y0108800D02*
X0074409Y0108800D01*
X0075218Y0108928D01*
X0075996Y0109181D01*
X0076725Y0109553D01*
X0077388Y0110034D01*
X0077966Y0110612D01*
X0078447Y0111275D01*
X0078819Y0112004D01*
X0079072Y0112782D01*
X0079200Y0113591D01*
X0079200Y0113614D01*
X0074386Y0113614D01*
X0074386Y0114386D01*
X0073614Y0114386D01*
X0073614Y0119200D01*
X0073591Y0119200D01*
X0072782Y0119072D01*
X0072004Y0118819D01*
X0071275Y0118447D01*
X0070612Y0117966D01*
X0070034Y0117388D01*
X0069553Y0116725D01*
X0069181Y0115996D01*
X0068928Y0115218D01*
X0068800Y0114409D01*
X0068800Y0114386D01*
X0073614Y0114386D01*
X0073614Y0113614D01*
X0074386Y0113614D01*
X0074386Y0108800D01*
X0074873Y0108873D02*
X0265800Y0108873D01*
X0265800Y0109872D02*
X0077165Y0109872D01*
X0078154Y0110870D02*
X0265800Y0110870D01*
X0265800Y0111869D02*
X0078750Y0111869D01*
X0079085Y0112868D02*
X0265800Y0112868D01*
X0265800Y0113866D02*
X0074386Y0113866D01*
X0074386Y0114386D02*
X0079200Y0114386D01*
X0079200Y0114409D01*
X0079072Y0115218D01*
X0078819Y0115996D01*
X0078447Y0116725D01*
X0077966Y0117388D01*
X0077388Y0117966D01*
X0076725Y0118447D01*
X0075996Y0118819D01*
X0075218Y0119072D01*
X0074409Y0119200D01*
X0074386Y0119200D01*
X0074386Y0114386D01*
X0074386Y0114865D02*
X0073614Y0114865D01*
X0073614Y0115863D02*
X0074386Y0115863D01*
X0074386Y0116862D02*
X0073614Y0116862D01*
X0073614Y0117860D02*
X0074386Y0117860D01*
X0074386Y0118859D02*
X0073614Y0118859D01*
X0072126Y0118859D02*
X0031100Y0118859D01*
X0031100Y0119857D02*
X0265800Y0119857D01*
X0265800Y0118859D02*
X0075874Y0118859D01*
X0077494Y0117860D02*
X0265800Y0117860D01*
X0265800Y0116862D02*
X0078349Y0116862D01*
X0078862Y0115863D02*
X0265800Y0115863D01*
X0265800Y0114865D02*
X0079128Y0114865D01*
X0074386Y0112868D02*
X0073614Y0112868D01*
X0073614Y0113866D02*
X0031100Y0113866D01*
X0031100Y0112868D02*
X0068915Y0112868D01*
X0069250Y0111869D02*
X0031100Y0111869D01*
X0031100Y0110870D02*
X0069846Y0110870D01*
X0070835Y0109872D02*
X0031100Y0109872D01*
X0031100Y0108873D02*
X0036655Y0108873D01*
X0035238Y0107875D02*
X0031100Y0107875D01*
X0031100Y0106876D02*
X0034347Y0106876D01*
X0033933Y0105878D02*
X0031100Y0105878D01*
X0031100Y0104879D02*
X0033600Y0104879D01*
X0033600Y0103881D02*
X0031100Y0103881D01*
X0031100Y0102882D02*
X0033618Y0102882D01*
X0034032Y0101884D02*
X0031100Y0101884D01*
X0031100Y0100885D02*
X0034478Y0100885D01*
X0035476Y0099887D02*
X0031100Y0099887D01*
X0031100Y0098888D02*
X0036691Y0098888D01*
X0035253Y0097890D02*
X0031100Y0097890D01*
X0031100Y0096891D02*
X0034353Y0096891D01*
X0033939Y0095893D02*
X0031100Y0095893D01*
X0031100Y0094894D02*
X0033600Y0094894D01*
X0033600Y0093896D02*
X0031100Y0093896D01*
X0031100Y0092897D02*
X0033612Y0092897D01*
X0034025Y0091899D02*
X0031100Y0091899D01*
X0031100Y0090900D02*
X0034463Y0090900D01*
X0035461Y0089902D02*
X0031100Y0089902D01*
X0031100Y0088903D02*
X0037194Y0088903D01*
X0035551Y0087905D02*
X0031100Y0087905D01*
X0031100Y0086906D02*
X0034684Y0086906D01*
X0034152Y0085908D02*
X0031100Y0085908D01*
X0031100Y0084909D02*
X0033879Y0084909D01*
X0033814Y0083500D02*
X0033928Y0082782D01*
X0034181Y0082004D01*
X0034553Y0081275D01*
X0035034Y0080612D01*
X0035612Y0080034D01*
X0036275Y0079553D01*
X0037004Y0079181D01*
X0037782Y0078928D01*
X0038500Y0078814D01*
X0038500Y0083500D01*
X0033814Y0083500D01*
X0033907Y0082912D02*
X0031100Y0082912D01*
X0031100Y0081914D02*
X0034227Y0081914D01*
X0034814Y0080915D02*
X0031100Y0080915D01*
X0031100Y0079917D02*
X0035773Y0079917D01*
X0037845Y0078918D02*
X0031100Y0078918D01*
X0031100Y0077920D02*
X0220800Y0077920D01*
X0220800Y0078918D02*
X0040155Y0078918D01*
X0040218Y0078928D02*
X0040996Y0079181D01*
X0041725Y0079553D01*
X0042388Y0080034D01*
X0042966Y0080612D01*
X0043447Y0081275D01*
X0043819Y0082004D01*
X0044072Y0082782D01*
X0044186Y0083500D01*
X0039500Y0083500D01*
X0039500Y0078814D01*
X0040218Y0078928D01*
X0039500Y0078918D02*
X0038500Y0078918D01*
X0038500Y0079917D02*
X0039500Y0079917D01*
X0039500Y0080915D02*
X0038500Y0080915D01*
X0038500Y0081914D02*
X0039500Y0081914D01*
X0039500Y0082912D02*
X0038500Y0082912D01*
X0038500Y0083911D02*
X0031100Y0083911D01*
X0031100Y0076921D02*
X0220800Y0076921D01*
X0220800Y0075923D02*
X0031100Y0075923D01*
X0031100Y0074924D02*
X0220800Y0074924D01*
X0220800Y0073926D02*
X0031100Y0073926D01*
X0031100Y0072927D02*
X0220800Y0072927D01*
X0220800Y0071929D02*
X0031100Y0071929D01*
X0031100Y0070930D02*
X0220800Y0070930D01*
X0220800Y0069932D02*
X0031100Y0069932D01*
X0031100Y0068933D02*
X0220800Y0068933D01*
X0220800Y0067934D02*
X0031100Y0067934D01*
X0031100Y0066936D02*
X0220800Y0066936D01*
X0220800Y0065937D02*
X0031100Y0065937D01*
X0031100Y0064939D02*
X0220800Y0064939D01*
X0220800Y0063940D02*
X0031100Y0063940D01*
X0031100Y0062942D02*
X0220800Y0062942D01*
X0220800Y0061943D02*
X0031100Y0061943D01*
X0031100Y0060945D02*
X0220800Y0060945D01*
X0220800Y0059946D02*
X0031100Y0059946D01*
X0031100Y0058948D02*
X0116834Y0058948D01*
X0115941Y0058578D02*
X0117926Y0059400D01*
X0120074Y0059400D01*
X0122059Y0058578D01*
X0123578Y0057059D01*
X0124000Y0056040D01*
X0124422Y0057059D01*
X0125941Y0058578D01*
X0127926Y0059400D01*
X0130074Y0059400D01*
X0132059Y0058578D01*
X0133578Y0057059D01*
X0134000Y0056040D01*
X0134422Y0057059D01*
X0135941Y0058578D01*
X0137926Y0059400D01*
X0140074Y0059400D01*
X0142059Y0058578D01*
X0143578Y0057059D01*
X0144000Y0056040D01*
X0144422Y0057059D01*
X0145941Y0058578D01*
X0147926Y0059400D01*
X0150074Y0059400D01*
X0152059Y0058578D01*
X0153578Y0057059D01*
X0154000Y0056040D01*
X0154422Y0057059D01*
X0155941Y0058578D01*
X0157926Y0059400D01*
X0160074Y0059400D01*
X0162059Y0058578D01*
X0163578Y0057059D01*
X0164000Y0056040D01*
X0164422Y0057059D01*
X0165941Y0058578D01*
X0167926Y0059400D01*
X0170074Y0059400D01*
X0172059Y0058578D01*
X0173578Y0057059D01*
X0174400Y0055074D01*
X0174400Y0052926D01*
X0173578Y0050941D01*
X0172200Y0049563D01*
X0172200Y0038437D01*
X0173578Y0037059D01*
X0174400Y0035074D01*
X0174400Y0032926D01*
X0173578Y0030941D01*
X0172059Y0029422D01*
X0170074Y0028600D01*
X0167926Y0028600D01*
X0165941Y0029422D01*
X0164422Y0030941D01*
X0164000Y0031960D01*
X0163578Y0030941D01*
X0162059Y0029422D01*
X0160074Y0028600D01*
X0157926Y0028600D01*
X0155941Y0029422D01*
X0154422Y0030941D01*
X0154000Y0031960D01*
X0153578Y0030941D01*
X0152059Y0029422D01*
X0150074Y0028600D01*
X0147926Y0028600D01*
X0145941Y0029422D01*
X0144422Y0030941D01*
X0144000Y0031960D01*
X0143578Y0030941D01*
X0142059Y0029422D01*
X0140074Y0028600D01*
X0137926Y0028600D01*
X0135941Y0029422D01*
X0134422Y0030941D01*
X0134000Y0031960D01*
X0133578Y0030941D01*
X0132059Y0029422D01*
X0130074Y0028600D01*
X0127926Y0028600D01*
X0125941Y0029422D01*
X0124422Y0030941D01*
X0124000Y0031960D01*
X0123578Y0030941D01*
X0122059Y0029422D01*
X0120074Y0028600D01*
X0117926Y0028600D01*
X0115941Y0029422D01*
X0114422Y0030941D01*
X0114000Y0031960D01*
X0113578Y0030941D01*
X0112059Y0029422D01*
X0110074Y0028600D01*
X0107926Y0028600D01*
X0105941Y0029422D01*
X0104422Y0030941D01*
X0104000Y0031960D01*
X0103578Y0030941D01*
X0102059Y0029422D01*
X0100074Y0028600D01*
X0097926Y0028600D01*
X0095941Y0029422D01*
X0094422Y0030941D01*
X0093600Y0032926D01*
X0093600Y0035074D01*
X0094422Y0037059D01*
X0095941Y0038578D01*
X0097926Y0039400D01*
X0100074Y0039400D01*
X0102059Y0038578D01*
X0103578Y0037059D01*
X0104000Y0036040D01*
X0104422Y0037059D01*
X0105941Y0038578D01*
X0107926Y0039400D01*
X0110074Y0039400D01*
X0112059Y0038578D01*
X0113578Y0037059D01*
X0114000Y0036040D01*
X0114422Y0037059D01*
X0115800Y0038437D01*
X0115800Y0049563D01*
X0114422Y0050941D01*
X0113600Y0052926D01*
X0113600Y0055074D01*
X0114422Y0057059D01*
X0115941Y0058578D01*
X0115313Y0057949D02*
X0031100Y0057949D01*
X0031100Y0056951D02*
X0114377Y0056951D01*
X0113964Y0055952D02*
X0031100Y0055952D01*
X0031100Y0054954D02*
X0066292Y0054954D01*
X0066338Y0055000D02*
X0065343Y0054004D01*
X0065343Y0044996D01*
X0066338Y0044000D01*
X0075347Y0044000D01*
X0076343Y0044996D01*
X0076343Y0054004D01*
X0075347Y0055000D01*
X0066338Y0055000D01*
X0065343Y0053955D02*
X0054042Y0053955D01*
X0053935Y0054033D02*
X0053192Y0054412D01*
X0052399Y0054669D01*
X0051575Y0054800D01*
X0051543Y0054800D01*
X0051543Y0049886D01*
X0050772Y0049886D01*
X0050772Y0054800D01*
X0050740Y0054800D01*
X0049916Y0054669D01*
X0049123Y0054412D01*
X0048380Y0054033D01*
X0047705Y0053543D01*
X0047115Y0052953D01*
X0046625Y0052278D01*
X0046246Y0051534D01*
X0045988Y0050741D01*
X0045857Y0049917D01*
X0045857Y0049886D01*
X0050772Y0049886D01*
X0050772Y0049114D01*
X0051543Y0049114D01*
X0051543Y0044200D01*
X0051575Y0044200D01*
X0052399Y0044330D01*
X0053192Y0044588D01*
X0053935Y0044967D01*
X0054610Y0045457D01*
X0055200Y0046047D01*
X0055690Y0046722D01*
X0056069Y0047466D01*
X0056327Y0048259D01*
X0056457Y0049083D01*
X0056457Y0049114D01*
X0051543Y0049114D01*
X0051543Y0049886D01*
X0056457Y0049886D01*
X0056457Y0049917D01*
X0056327Y0050741D01*
X0056069Y0051534D01*
X0055690Y0052278D01*
X0055200Y0052953D01*
X0054610Y0053543D01*
X0053935Y0054033D01*
X0055196Y0052957D02*
X0065343Y0052957D01*
X0065343Y0051958D02*
X0055853Y0051958D01*
X0056256Y0050960D02*
X0065343Y0050960D01*
X0065343Y0049961D02*
X0056450Y0049961D01*
X0056438Y0048963D02*
X0065343Y0048963D01*
X0065343Y0047964D02*
X0056231Y0047964D01*
X0055815Y0046966D02*
X0065343Y0046966D01*
X0065343Y0045967D02*
X0055120Y0045967D01*
X0053938Y0044969D02*
X0065370Y0044969D01*
X0076315Y0044969D02*
X0115800Y0044969D01*
X0115800Y0045967D02*
X0076343Y0045967D01*
X0076343Y0046966D02*
X0115800Y0046966D01*
X0115800Y0047964D02*
X0076343Y0047964D01*
X0076343Y0048963D02*
X0115800Y0048963D01*
X0115402Y0049961D02*
X0076343Y0049961D01*
X0076343Y0050960D02*
X0114414Y0050960D01*
X0114001Y0051958D02*
X0076343Y0051958D01*
X0076343Y0052957D02*
X0113600Y0052957D01*
X0113600Y0053955D02*
X0076343Y0053955D01*
X0075393Y0054954D02*
X0113600Y0054954D01*
X0121166Y0058948D02*
X0126834Y0058948D01*
X0125313Y0057949D02*
X0122687Y0057949D01*
X0123623Y0056951D02*
X0124377Y0056951D01*
X0131166Y0058948D02*
X0136834Y0058948D01*
X0135313Y0057949D02*
X0132687Y0057949D01*
X0133623Y0056951D02*
X0134377Y0056951D01*
X0141166Y0058948D02*
X0146834Y0058948D01*
X0145313Y0057949D02*
X0142687Y0057949D01*
X0143623Y0056951D02*
X0144377Y0056951D01*
X0151166Y0058948D02*
X0156834Y0058948D01*
X0155313Y0057949D02*
X0152687Y0057949D01*
X0153623Y0056951D02*
X0154377Y0056951D01*
X0161166Y0058948D02*
X0166834Y0058948D01*
X0165313Y0057949D02*
X0162687Y0057949D01*
X0163623Y0056951D02*
X0164377Y0056951D01*
X0171166Y0058948D02*
X0181834Y0058948D01*
X0180313Y0057949D02*
X0172687Y0057949D01*
X0173623Y0056951D02*
X0179377Y0056951D01*
X0178964Y0055952D02*
X0174036Y0055952D01*
X0174400Y0054954D02*
X0178600Y0054954D01*
X0178600Y0053955D02*
X0174400Y0053955D01*
X0174400Y0052957D02*
X0178600Y0052957D01*
X0179001Y0051958D02*
X0173999Y0051958D01*
X0173586Y0050960D02*
X0179414Y0050960D01*
X0180402Y0049961D02*
X0172598Y0049961D01*
X0172200Y0048963D02*
X0180800Y0048963D01*
X0180800Y0047964D02*
X0172200Y0047964D01*
X0172200Y0046966D02*
X0180800Y0046966D01*
X0180800Y0045967D02*
X0172200Y0045967D01*
X0172200Y0044969D02*
X0180800Y0044969D01*
X0180800Y0043970D02*
X0172200Y0043970D01*
X0172200Y0042972D02*
X0180800Y0042972D01*
X0180800Y0041973D02*
X0172200Y0041973D01*
X0172200Y0040975D02*
X0180800Y0040975D01*
X0180800Y0039976D02*
X0172200Y0039976D01*
X0172200Y0038978D02*
X0180800Y0038978D01*
X0180342Y0037979D02*
X0172658Y0037979D01*
X0173610Y0036981D02*
X0179390Y0036981D01*
X0178976Y0035982D02*
X0174024Y0035982D01*
X0174400Y0034984D02*
X0178600Y0034984D01*
X0178600Y0033985D02*
X0174400Y0033985D01*
X0174400Y0032987D02*
X0178600Y0032987D01*
X0178988Y0031988D02*
X0174012Y0031988D01*
X0173598Y0030990D02*
X0179402Y0030990D01*
X0180372Y0029991D02*
X0172628Y0029991D01*
X0171022Y0028993D02*
X0181978Y0028993D01*
X0186022Y0028993D02*
X0191978Y0028993D01*
X0190372Y0029991D02*
X0187628Y0029991D01*
X0188598Y0030990D02*
X0189402Y0030990D01*
X0196022Y0028993D02*
X0201978Y0028993D01*
X0200372Y0029991D02*
X0197628Y0029991D01*
X0198598Y0030990D02*
X0199402Y0030990D01*
X0206022Y0028993D02*
X0211978Y0028993D01*
X0210372Y0029991D02*
X0207628Y0029991D01*
X0208598Y0030990D02*
X0209402Y0030990D01*
X0216022Y0028993D02*
X0221978Y0028993D01*
X0220372Y0029991D02*
X0217628Y0029991D01*
X0218598Y0030990D02*
X0219402Y0030990D01*
X0226022Y0028993D02*
X0231978Y0028993D01*
X0230372Y0029991D02*
X0227628Y0029991D01*
X0228598Y0030990D02*
X0229402Y0030990D01*
X0236022Y0028993D02*
X0242584Y0028993D01*
X0243500Y0028993D02*
X0244500Y0028993D01*
X0245416Y0028993D02*
X0251978Y0028993D01*
X0250372Y0029991D02*
X0247329Y0029991D01*
X0248240Y0030990D02*
X0249402Y0030990D01*
X0248988Y0031988D02*
X0248811Y0031988D01*
X0256022Y0028993D02*
X0261978Y0028993D01*
X0260372Y0029991D02*
X0257628Y0029991D01*
X0258598Y0030990D02*
X0259402Y0030990D01*
X0259390Y0036981D02*
X0258610Y0036981D01*
X0257658Y0037979D02*
X0260342Y0037979D01*
X0261906Y0038978D02*
X0256094Y0038978D01*
X0251906Y0038978D02*
X0245508Y0038978D01*
X0244500Y0038978D02*
X0243500Y0038978D01*
X0243500Y0037979D02*
X0244500Y0037979D01*
X0244500Y0036981D02*
X0243500Y0036981D01*
X0243500Y0035982D02*
X0244500Y0035982D01*
X0244500Y0034984D02*
X0243500Y0034984D01*
X0243500Y0032987D02*
X0244500Y0032987D01*
X0244500Y0031988D02*
X0243500Y0031988D01*
X0243500Y0030990D02*
X0244500Y0030990D01*
X0244500Y0029991D02*
X0243500Y0029991D01*
X0240671Y0029991D02*
X0237628Y0029991D01*
X0238598Y0030990D02*
X0239760Y0030990D01*
X0239189Y0031988D02*
X0239012Y0031988D01*
X0239024Y0035982D02*
X0239176Y0035982D01*
X0239738Y0036981D02*
X0238610Y0036981D01*
X0237658Y0037979D02*
X0240630Y0037979D01*
X0242492Y0038978D02*
X0237200Y0038978D01*
X0237200Y0039976D02*
X0281900Y0039976D01*
X0281900Y0038978D02*
X0276094Y0038978D01*
X0277658Y0037979D02*
X0281900Y0037979D01*
X0281900Y0036981D02*
X0278610Y0036981D01*
X0279024Y0035982D02*
X0281900Y0035982D01*
X0281900Y0034984D02*
X0279400Y0034984D01*
X0279400Y0033985D02*
X0281900Y0033985D01*
X0281900Y0032987D02*
X0279400Y0032987D01*
X0279012Y0031988D02*
X0281900Y0031988D01*
X0281900Y0030990D02*
X0278598Y0030990D01*
X0277628Y0029991D02*
X0281900Y0029991D01*
X0281900Y0028993D02*
X0276022Y0028993D01*
X0271978Y0028993D02*
X0266022Y0028993D01*
X0267628Y0029991D02*
X0270372Y0029991D01*
X0269402Y0030990D02*
X0268598Y0030990D01*
X0268610Y0036981D02*
X0269390Y0036981D01*
X0270342Y0037979D02*
X0267658Y0037979D01*
X0266094Y0038978D02*
X0271906Y0038978D01*
X0281900Y0040975D02*
X0237200Y0040975D01*
X0237200Y0041973D02*
X0281900Y0041973D01*
X0281900Y0042972D02*
X0237200Y0042972D01*
X0237200Y0043970D02*
X0281900Y0043970D01*
X0281900Y0044969D02*
X0237200Y0044969D01*
X0237200Y0045967D02*
X0281900Y0045967D01*
X0281900Y0046966D02*
X0237200Y0046966D01*
X0237200Y0047964D02*
X0281900Y0047964D01*
X0281900Y0048963D02*
X0237200Y0048963D01*
X0237598Y0049961D02*
X0281900Y0049961D01*
X0281900Y0050960D02*
X0238586Y0050960D01*
X0238999Y0051958D02*
X0281900Y0051958D01*
X0281900Y0052957D02*
X0239400Y0052957D01*
X0239400Y0053955D02*
X0281900Y0053955D01*
X0281900Y0054954D02*
X0239400Y0054954D01*
X0239036Y0055952D02*
X0281900Y0055952D01*
X0281900Y0056951D02*
X0238623Y0056951D01*
X0237687Y0057949D02*
X0281900Y0057949D01*
X0281900Y0058948D02*
X0236166Y0058948D01*
X0231834Y0058948D02*
X0227200Y0058948D01*
X0227200Y0059946D02*
X0281900Y0059946D01*
X0281900Y0060945D02*
X0227200Y0060945D01*
X0227200Y0061943D02*
X0281900Y0061943D01*
X0281900Y0062942D02*
X0227200Y0062942D01*
X0227200Y0063940D02*
X0281900Y0063940D01*
X0281900Y0064939D02*
X0227200Y0064939D01*
X0227200Y0065937D02*
X0281900Y0065937D01*
X0281900Y0066936D02*
X0227200Y0066936D01*
X0227200Y0067934D02*
X0281900Y0067934D01*
X0281900Y0068933D02*
X0227200Y0068933D01*
X0227200Y0069932D02*
X0281900Y0069932D01*
X0281900Y0070930D02*
X0227200Y0070930D01*
X0227200Y0071929D02*
X0281900Y0071929D01*
X0281900Y0072927D02*
X0227200Y0072927D01*
X0227200Y0073926D02*
X0281900Y0073926D01*
X0281900Y0074924D02*
X0227200Y0074924D01*
X0227200Y0075923D02*
X0281900Y0075923D01*
X0281900Y0076921D02*
X0227200Y0076921D01*
X0227200Y0077920D02*
X0281900Y0077920D01*
X0281900Y0078918D02*
X0227200Y0078918D01*
X0220800Y0079917D02*
X0042226Y0079917D01*
X0043186Y0080915D02*
X0220800Y0080915D01*
X0220800Y0081914D02*
X0043773Y0081914D01*
X0044093Y0082912D02*
X0220800Y0082912D01*
X0220800Y0083911D02*
X0039500Y0083911D01*
X0044121Y0084909D02*
X0220728Y0084909D01*
X0220442Y0085908D02*
X0043848Y0085908D01*
X0043316Y0086906D02*
X0220118Y0086906D01*
X0219465Y0087905D02*
X0042449Y0087905D01*
X0040806Y0088903D02*
X0097194Y0088903D01*
X0095461Y0089902D02*
X0042538Y0089902D01*
X0073614Y0109872D02*
X0074386Y0109872D01*
X0074386Y0110870D02*
X0073614Y0110870D01*
X0073614Y0111869D02*
X0074386Y0111869D01*
X0068872Y0114865D02*
X0031100Y0114865D01*
X0031100Y0115863D02*
X0069138Y0115863D01*
X0069651Y0116862D02*
X0031100Y0116862D01*
X0031100Y0117860D02*
X0070506Y0117860D01*
X0043735Y0131839D02*
X0146082Y0131839D01*
X0145230Y0132692D02*
X0147369Y0130552D01*
X0150164Y0129394D01*
X0153190Y0129394D01*
X0155985Y0130552D01*
X0158125Y0132692D01*
X0159283Y0135487D01*
X0159283Y0138513D01*
X0158125Y0141308D01*
X0155985Y0143448D01*
X0153190Y0144605D01*
X0150164Y0144605D01*
X0147369Y0143448D01*
X0145230Y0141308D01*
X0144072Y0138513D01*
X0144072Y0135487D01*
X0145230Y0132692D01*
X0145169Y0132838D02*
X0044081Y0132838D01*
X0044072Y0132782D02*
X0044186Y0133500D01*
X0039500Y0133500D01*
X0039500Y0134500D01*
X0044186Y0134500D01*
X0044072Y0135218D01*
X0043819Y0135996D01*
X0043447Y0136725D01*
X0042966Y0137388D01*
X0042388Y0137966D01*
X0041725Y0138447D01*
X0040996Y0138819D01*
X0040776Y0138891D01*
X0042059Y0139422D01*
X0043437Y0140800D01*
X0069563Y0140800D01*
X0070941Y0139422D01*
X0072926Y0138600D01*
X0075074Y0138600D01*
X0077059Y0139422D01*
X0078437Y0140800D01*
X0138567Y0140800D01*
X0142560Y0141870D01*
X0146140Y0143937D01*
X0149063Y0146860D01*
X0149063Y0146860D01*
X0151130Y0150440D01*
X0152200Y0154433D01*
X0152200Y0219563D01*
X0153578Y0220941D01*
X0154400Y0222926D01*
X0154400Y0225074D01*
X0153578Y0227059D01*
X0152059Y0228578D01*
X0150074Y0229400D01*
X0147926Y0229400D01*
X0145941Y0228578D01*
X0144422Y0227059D01*
X0144000Y0226040D01*
X0143578Y0227059D01*
X0142059Y0228578D01*
X0140074Y0229400D01*
X0137926Y0229400D01*
X0135941Y0228578D01*
X0134422Y0227059D01*
X0134000Y0226040D01*
X0133578Y0227059D01*
X0132059Y0228578D01*
X0130074Y0229400D01*
X0127926Y0229400D01*
X0125941Y0228578D01*
X0124422Y0227059D01*
X0124000Y0226040D01*
X0123578Y0227059D01*
X0122059Y0228578D01*
X0120074Y0229400D01*
X0117926Y0229400D01*
X0115941Y0228578D01*
X0114422Y0227059D01*
X0114000Y0226040D01*
X0113578Y0227059D01*
X0112059Y0228578D01*
X0110074Y0229400D01*
X0107926Y0229400D01*
X0105941Y0228578D01*
X0104422Y0227059D01*
X0104000Y0226040D01*
X0103578Y0227059D01*
X0102059Y0228578D01*
X0100074Y0229400D01*
X0097926Y0229400D01*
X0095941Y0228578D01*
X0094422Y0227059D01*
X0093600Y0225074D01*
X0093600Y0222926D01*
X0094422Y0220941D01*
X0095450Y0219913D01*
X0095331Y0219548D01*
X0094541Y0218459D01*
X0093452Y0217669D01*
X0092173Y0217253D01*
X0091500Y0217200D01*
X0085000Y0217200D01*
X0083936Y0217284D01*
X0081913Y0217941D01*
X0080192Y0219192D01*
X0078941Y0220913D01*
X0078845Y0221208D01*
X0079578Y0221941D01*
X0079600Y0221995D01*
X0079600Y0220596D01*
X0080596Y0219600D01*
X0089404Y0219600D01*
X0090400Y0220596D01*
X0090400Y0229404D01*
X0089404Y0230400D01*
X0080596Y0230400D01*
X0079600Y0229404D01*
X0079600Y0228005D01*
X0079578Y0228059D01*
X0078059Y0229578D01*
X0076074Y0230400D01*
X0073926Y0230400D01*
X0071941Y0229578D01*
X0070422Y0228059D01*
X0069891Y0226776D01*
X0069819Y0226996D01*
X0069447Y0227725D01*
X0068966Y0228388D01*
X0068388Y0228966D01*
X0067725Y0229447D01*
X0066996Y0229819D01*
X0066218Y0230072D01*
X0065500Y0230186D01*
X0065500Y0225500D01*
X0064500Y0225500D01*
X0064500Y0230186D01*
X0063782Y0230072D01*
X0063004Y0229819D01*
X0062275Y0229447D01*
X0061612Y0228966D01*
X0061034Y0228388D01*
X0060553Y0227725D01*
X0060181Y0226996D01*
X0060109Y0226776D01*
X0059578Y0228059D01*
X0058059Y0229578D01*
X0056074Y0230400D01*
X0053926Y0230400D01*
X0051941Y0229578D01*
X0050422Y0228059D01*
X0049600Y0226074D01*
X0049600Y0223926D01*
X0050422Y0221941D01*
X0051941Y0220422D01*
X0053926Y0219600D01*
X0056074Y0219600D01*
X0058059Y0220422D01*
X0059578Y0221941D01*
X0060109Y0223224D01*
X0060181Y0223004D01*
X0060553Y0222275D01*
X0061034Y0221612D01*
X0061612Y0221034D01*
X0062275Y0220553D01*
X0063004Y0220181D01*
X0063782Y0219928D01*
X0064500Y0219814D01*
X0064500Y0224500D01*
X0065500Y0224500D01*
X0065500Y0219814D01*
X0066218Y0219928D01*
X0066996Y0220181D01*
X0067725Y0220553D01*
X0068388Y0221034D01*
X0068966Y0221612D01*
X0069447Y0222275D01*
X0069819Y0223004D01*
X0069891Y0223224D01*
X0070422Y0221941D01*
X0071941Y0220422D01*
X0072336Y0220258D01*
X0073092Y0217933D01*
X0075550Y0214550D01*
X0075550Y0214550D01*
X0078933Y0212092D01*
X0082909Y0210800D01*
X0093195Y0210800D01*
X0096418Y0211847D01*
X0099160Y0213840D01*
X0101153Y0216582D01*
X0102083Y0219447D01*
X0103578Y0220941D01*
X0104000Y0221960D01*
X0104422Y0220941D01*
X0105941Y0219422D01*
X0107926Y0218600D01*
X0110074Y0218600D01*
X0112059Y0219422D01*
X0113578Y0220941D01*
X0114000Y0221960D01*
X0114422Y0220941D01*
X0115941Y0219422D01*
X0117926Y0218600D01*
X0120074Y0218600D01*
X0122059Y0219422D01*
X0123578Y0220941D01*
X0124000Y0221960D01*
X0124422Y0220941D01*
X0125800Y0219563D01*
X0125800Y0216500D01*
X0125720Y0215286D01*
X0125092Y0212941D01*
X0123878Y0210839D01*
X0122161Y0209122D01*
X0120059Y0207908D01*
X0117714Y0207280D01*
X0116500Y0207200D01*
X0043437Y0207200D01*
X0042059Y0208578D01*
X0041040Y0209000D01*
X0042059Y0209422D01*
X0043578Y0210941D01*
X0044400Y0212926D01*
X0044400Y0215074D01*
X0043578Y0217059D01*
X0042059Y0218578D01*
X0040074Y0219400D01*
X0037926Y0219400D01*
X0035941Y0218578D01*
X0034422Y0217059D01*
X0033600Y0215074D01*
X0033600Y0212926D01*
X0034422Y0210941D01*
X0035941Y0209422D01*
X0036960Y0209000D01*
X0035941Y0208578D01*
X0034422Y0207059D01*
X0033600Y0205074D01*
X0033600Y0202926D01*
X0034422Y0200941D01*
X0035941Y0199422D01*
X0037224Y0198891D01*
X0037004Y0198819D01*
X0036275Y0198447D01*
X0035612Y0197966D01*
X0035034Y0197388D01*
X0034553Y0196725D01*
X0034181Y0195996D01*
X0033928Y0195218D01*
X0033814Y0194500D01*
X0038500Y0194500D01*
X0038500Y0193500D01*
X0033814Y0193500D01*
X0033928Y0192782D01*
X0034181Y0192004D01*
X0034553Y0191275D01*
X0035034Y0190612D01*
X0035612Y0190034D01*
X0036275Y0189553D01*
X0037004Y0189181D01*
X0037224Y0189109D01*
X0035941Y0188578D01*
X0034422Y0187059D01*
X0033600Y0185074D01*
X0033600Y0182926D01*
X0034422Y0180941D01*
X0035941Y0179422D01*
X0036960Y0179000D01*
X0035941Y0178578D01*
X0034422Y0177059D01*
X0033600Y0175074D01*
X0033600Y0172926D01*
X0034422Y0170941D01*
X0035941Y0169422D01*
X0037224Y0168891D01*
X0037004Y0168819D01*
X0036275Y0168447D01*
X0035612Y0167966D01*
X0035034Y0167388D01*
X0034553Y0166725D01*
X0034181Y0165996D01*
X0033928Y0165218D01*
X0033814Y0164500D01*
X0038500Y0164500D01*
X0038500Y0163500D01*
X0033814Y0163500D01*
X0033928Y0162782D01*
X0034181Y0162004D01*
X0034553Y0161275D01*
X0035034Y0160612D01*
X0035612Y0160034D01*
X0036275Y0159553D01*
X0037004Y0159181D01*
X0037224Y0159109D01*
X0035941Y0158578D01*
X0034422Y0157059D01*
X0033600Y0155074D01*
X0033600Y0152926D01*
X0034422Y0150941D01*
X0035941Y0149422D01*
X0036960Y0149000D01*
X0035941Y0148578D01*
X0034422Y0147059D01*
X0033600Y0145074D01*
X0033600Y0142926D01*
X0034422Y0140941D01*
X0035941Y0139422D01*
X0037224Y0138891D01*
X0037004Y0138819D01*
X0036275Y0138447D01*
X0035612Y0137966D01*
X0035034Y0137388D01*
X0034553Y0136725D01*
X0034181Y0135996D01*
X0033928Y0135218D01*
X0033814Y0134500D01*
X0038500Y0134500D01*
X0038500Y0133500D01*
X0039500Y0133500D01*
X0039500Y0128814D01*
X0040218Y0128928D01*
X0040996Y0129181D01*
X0041725Y0129553D01*
X0042388Y0130034D01*
X0042966Y0130612D01*
X0043447Y0131275D01*
X0043819Y0132004D01*
X0044072Y0132782D01*
X0044133Y0134835D02*
X0144342Y0134835D01*
X0144072Y0135833D02*
X0043872Y0135833D01*
X0043370Y0136832D02*
X0144072Y0136832D01*
X0144072Y0137830D02*
X0042524Y0137830D01*
X0040966Y0138829D02*
X0072373Y0138829D01*
X0070536Y0139827D02*
X0042464Y0139827D01*
X0037034Y0138829D02*
X0031100Y0138829D01*
X0031100Y0139827D02*
X0035536Y0139827D01*
X0034537Y0140826D02*
X0031100Y0140826D01*
X0031100Y0141824D02*
X0034056Y0141824D01*
X0033643Y0142823D02*
X0031100Y0142823D01*
X0031100Y0143821D02*
X0033600Y0143821D01*
X0033600Y0144820D02*
X0031100Y0144820D01*
X0031100Y0145818D02*
X0033908Y0145818D01*
X0034322Y0146817D02*
X0031100Y0146817D01*
X0031100Y0147815D02*
X0035179Y0147815D01*
X0036511Y0148814D02*
X0031100Y0148814D01*
X0031100Y0149812D02*
X0035551Y0149812D01*
X0034552Y0150811D02*
X0031100Y0150811D01*
X0031100Y0151809D02*
X0034062Y0151809D01*
X0033649Y0152808D02*
X0031100Y0152808D01*
X0031100Y0153806D02*
X0033600Y0153806D01*
X0033600Y0154805D02*
X0031100Y0154805D01*
X0031100Y0155803D02*
X0033902Y0155803D01*
X0034316Y0156802D02*
X0031100Y0156802D01*
X0031100Y0157801D02*
X0035164Y0157801D01*
X0036475Y0158799D02*
X0031100Y0158799D01*
X0031100Y0159798D02*
X0035937Y0159798D01*
X0034900Y0160796D02*
X0031100Y0160796D01*
X0031100Y0161795D02*
X0034288Y0161795D01*
X0033926Y0162793D02*
X0031100Y0162793D01*
X0031100Y0163792D02*
X0038500Y0163792D01*
X0039500Y0163792D02*
X0145800Y0163792D01*
X0145800Y0164790D02*
X0044140Y0164790D01*
X0044186Y0164500D02*
X0044072Y0165218D01*
X0043819Y0165996D01*
X0043447Y0166725D01*
X0042966Y0167388D01*
X0042388Y0167966D01*
X0041725Y0168447D01*
X0040996Y0168819D01*
X0040776Y0168891D01*
X0042059Y0169422D01*
X0043437Y0170800D01*
X0128567Y0170800D01*
X0132560Y0171870D01*
X0136140Y0173937D01*
X0139063Y0176860D01*
X0141130Y0180440D01*
X0142200Y0184433D01*
X0142200Y0219563D01*
X0143578Y0220941D01*
X0144000Y0221960D01*
X0144422Y0220941D01*
X0145800Y0219563D01*
X0145800Y0156500D01*
X0145720Y0155286D01*
X0145092Y0152941D01*
X0143878Y0150839D01*
X0142161Y0149122D01*
X0140059Y0147908D01*
X0137714Y0147280D01*
X0136500Y0147200D01*
X0078437Y0147200D01*
X0077059Y0148578D01*
X0075074Y0149400D01*
X0072926Y0149400D01*
X0070941Y0148578D01*
X0069563Y0147200D01*
X0043437Y0147200D01*
X0042059Y0148578D01*
X0041040Y0149000D01*
X0042059Y0149422D01*
X0043578Y0150941D01*
X0044400Y0152926D01*
X0044400Y0155074D01*
X0043578Y0157059D01*
X0042059Y0158578D01*
X0040776Y0159109D01*
X0040996Y0159181D01*
X0041725Y0159553D01*
X0042388Y0160034D01*
X0042966Y0160612D01*
X0043447Y0161275D01*
X0043819Y0162004D01*
X0044072Y0162782D01*
X0044186Y0163500D01*
X0039500Y0163500D01*
X0039500Y0164500D01*
X0044186Y0164500D01*
X0043886Y0165789D02*
X0145800Y0165789D01*
X0145800Y0166787D02*
X0043403Y0166787D01*
X0042568Y0167786D02*
X0145800Y0167786D01*
X0145800Y0168784D02*
X0041065Y0168784D01*
X0042419Y0169783D02*
X0145800Y0169783D01*
X0145800Y0170781D02*
X0043418Y0170781D01*
X0036935Y0168784D02*
X0031100Y0168784D01*
X0031100Y0167786D02*
X0035432Y0167786D01*
X0034597Y0166787D02*
X0031100Y0166787D01*
X0031100Y0165789D02*
X0034114Y0165789D01*
X0033860Y0164790D02*
X0031100Y0164790D01*
X0031100Y0169783D02*
X0035581Y0169783D01*
X0034582Y0170781D02*
X0031100Y0170781D01*
X0031100Y0171780D02*
X0034075Y0171780D01*
X0033661Y0172778D02*
X0031100Y0172778D01*
X0031100Y0173777D02*
X0033600Y0173777D01*
X0033600Y0174775D02*
X0031100Y0174775D01*
X0031100Y0175774D02*
X0033890Y0175774D01*
X0034303Y0176772D02*
X0031100Y0176772D01*
X0031100Y0177771D02*
X0035134Y0177771D01*
X0036403Y0178769D02*
X0031100Y0178769D01*
X0031100Y0179768D02*
X0035595Y0179768D01*
X0034597Y0180766D02*
X0031100Y0180766D01*
X0031100Y0181765D02*
X0034081Y0181765D01*
X0033667Y0182763D02*
X0031100Y0182763D01*
X0031100Y0183762D02*
X0033600Y0183762D01*
X0033600Y0184760D02*
X0031100Y0184760D01*
X0031100Y0185759D02*
X0033884Y0185759D01*
X0034297Y0186757D02*
X0031100Y0186757D01*
X0031100Y0187756D02*
X0035119Y0187756D01*
X0036367Y0188754D02*
X0031100Y0188754D01*
X0031100Y0189753D02*
X0035999Y0189753D01*
X0034933Y0190751D02*
X0031100Y0190751D01*
X0031100Y0191750D02*
X0034310Y0191750D01*
X0033939Y0192748D02*
X0031100Y0192748D01*
X0031100Y0193747D02*
X0038500Y0193747D01*
X0039500Y0193747D02*
X0135800Y0193747D01*
X0135800Y0194745D02*
X0044147Y0194745D01*
X0044186Y0194500D02*
X0044072Y0195218D01*
X0043819Y0195996D01*
X0043447Y0196725D01*
X0042966Y0197388D01*
X0042388Y0197966D01*
X0041725Y0198447D01*
X0040996Y0198819D01*
X0040776Y0198891D01*
X0042059Y0199422D01*
X0043437Y0200800D01*
X0118567Y0200800D01*
X0122560Y0201870D01*
X0126140Y0203937D01*
X0129063Y0206860D01*
X0131130Y0210440D01*
X0132200Y0214433D01*
X0132200Y0219563D01*
X0133578Y0220941D01*
X0134000Y0221960D01*
X0134422Y0220941D01*
X0135800Y0219563D01*
X0135800Y0186500D01*
X0135720Y0185286D01*
X0135092Y0182941D01*
X0133878Y0180839D01*
X0132161Y0179122D01*
X0130059Y0177908D01*
X0127714Y0177280D01*
X0126500Y0177200D01*
X0043437Y0177200D01*
X0042059Y0178578D01*
X0041040Y0179000D01*
X0042059Y0179422D01*
X0043578Y0180941D01*
X0044400Y0182926D01*
X0044400Y0185074D01*
X0043578Y0187059D01*
X0042059Y0188578D01*
X0040776Y0189109D01*
X0040996Y0189181D01*
X0041725Y0189553D01*
X0042388Y0190034D01*
X0042966Y0190612D01*
X0043447Y0191275D01*
X0043819Y0192004D01*
X0044072Y0192782D01*
X0044186Y0193500D01*
X0039500Y0193500D01*
X0039500Y0194500D01*
X0044186Y0194500D01*
X0043901Y0195744D02*
X0135800Y0195744D01*
X0135800Y0196742D02*
X0043435Y0196742D01*
X0042613Y0197741D02*
X0135800Y0197741D01*
X0135800Y0198739D02*
X0041152Y0198739D01*
X0042375Y0199738D02*
X0135800Y0199738D01*
X0135800Y0200737D02*
X0043373Y0200737D01*
X0036848Y0198739D02*
X0031100Y0198739D01*
X0031100Y0197741D02*
X0035387Y0197741D01*
X0034565Y0196742D02*
X0031100Y0196742D01*
X0031100Y0195744D02*
X0034099Y0195744D01*
X0033853Y0194745D02*
X0031100Y0194745D01*
X0031100Y0199738D02*
X0035625Y0199738D01*
X0034627Y0200737D02*
X0031100Y0200737D01*
X0031100Y0201735D02*
X0034093Y0201735D01*
X0033680Y0202734D02*
X0031100Y0202734D01*
X0031100Y0203732D02*
X0033600Y0203732D01*
X0033600Y0204731D02*
X0031100Y0204731D01*
X0031100Y0205729D02*
X0033871Y0205729D01*
X0034285Y0206728D02*
X0031100Y0206728D01*
X0031100Y0207726D02*
X0035089Y0207726D01*
X0036295Y0208725D02*
X0031100Y0208725D01*
X0031100Y0209723D02*
X0035640Y0209723D01*
X0034642Y0210722D02*
X0031100Y0210722D01*
X0031100Y0211720D02*
X0034099Y0211720D01*
X0033686Y0212719D02*
X0031100Y0212719D01*
X0031100Y0213717D02*
X0033600Y0213717D01*
X0033600Y0214716D02*
X0031100Y0214716D01*
X0031100Y0215714D02*
X0033865Y0215714D01*
X0034279Y0216713D02*
X0031100Y0216713D01*
X0031100Y0217711D02*
X0035074Y0217711D01*
X0036259Y0218710D02*
X0031100Y0218710D01*
X0031100Y0219708D02*
X0053665Y0219708D01*
X0051657Y0220707D02*
X0031100Y0220707D01*
X0031100Y0221705D02*
X0050658Y0221705D01*
X0050106Y0222704D02*
X0031100Y0222704D01*
X0031100Y0223702D02*
X0049693Y0223702D01*
X0049600Y0224701D02*
X0031100Y0224701D01*
X0031100Y0225699D02*
X0049600Y0225699D01*
X0049858Y0226698D02*
X0031100Y0226698D01*
X0031100Y0227696D02*
X0050272Y0227696D01*
X0051058Y0228695D02*
X0031100Y0228695D01*
X0031100Y0229693D02*
X0052220Y0229693D01*
X0057780Y0229693D02*
X0062757Y0229693D01*
X0061341Y0228695D02*
X0058942Y0228695D01*
X0059728Y0227696D02*
X0060538Y0227696D01*
X0064500Y0227696D02*
X0065500Y0227696D01*
X0065500Y0226698D02*
X0064500Y0226698D01*
X0064500Y0225699D02*
X0065500Y0225699D01*
X0065500Y0223702D02*
X0064500Y0223702D01*
X0064500Y0222704D02*
X0065500Y0222704D01*
X0065500Y0221705D02*
X0064500Y0221705D01*
X0064500Y0220707D02*
X0065500Y0220707D01*
X0067938Y0220707D02*
X0071657Y0220707D01*
X0072515Y0219708D02*
X0056335Y0219708D01*
X0058343Y0220707D02*
X0062062Y0220707D01*
X0060966Y0221705D02*
X0059342Y0221705D01*
X0059894Y0222704D02*
X0060334Y0222704D01*
X0069034Y0221705D02*
X0070658Y0221705D01*
X0070106Y0222704D02*
X0069666Y0222704D01*
X0072840Y0218710D02*
X0041741Y0218710D01*
X0042926Y0217711D02*
X0073253Y0217711D01*
X0073092Y0217933D02*
X0073092Y0217933D01*
X0073978Y0216713D02*
X0043721Y0216713D01*
X0044135Y0215714D02*
X0074704Y0215714D01*
X0075429Y0214716D02*
X0044400Y0214716D01*
X0044400Y0213717D02*
X0076696Y0213717D01*
X0078070Y0212719D02*
X0044314Y0212719D01*
X0043901Y0211720D02*
X0080077Y0211720D01*
X0082621Y0217711D02*
X0093511Y0217711D01*
X0094722Y0218710D02*
X0080855Y0218710D01*
X0080488Y0219708D02*
X0079816Y0219708D01*
X0079600Y0220707D02*
X0079091Y0220707D01*
X0079342Y0221705D02*
X0079600Y0221705D01*
X0089512Y0219708D02*
X0095383Y0219708D01*
X0094657Y0220707D02*
X0090400Y0220707D01*
X0090400Y0221705D02*
X0094106Y0221705D01*
X0093692Y0222704D02*
X0090400Y0222704D01*
X0090400Y0223702D02*
X0093600Y0223702D01*
X0093600Y0224701D02*
X0090400Y0224701D01*
X0090400Y0225699D02*
X0093859Y0225699D01*
X0094273Y0226698D02*
X0090400Y0226698D01*
X0090400Y0227696D02*
X0095060Y0227696D01*
X0096223Y0228695D02*
X0090400Y0228695D01*
X0090111Y0229693D02*
X0281900Y0229693D01*
X0281900Y0228695D02*
X0241777Y0228695D01*
X0242059Y0228578D02*
X0240074Y0229400D01*
X0237926Y0229400D01*
X0235941Y0228578D01*
X0234422Y0227059D01*
X0234000Y0226040D01*
X0233578Y0227059D01*
X0232059Y0228578D01*
X0230074Y0229400D01*
X0227926Y0229400D01*
X0225941Y0228578D01*
X0224422Y0227059D01*
X0224000Y0226040D01*
X0223578Y0227059D01*
X0222059Y0228578D01*
X0220074Y0229400D01*
X0217926Y0229400D01*
X0215941Y0228578D01*
X0214422Y0227059D01*
X0214000Y0226040D01*
X0213578Y0227059D01*
X0212059Y0228578D01*
X0210074Y0229400D01*
X0207926Y0229400D01*
X0205941Y0228578D01*
X0204422Y0227059D01*
X0204000Y0226040D01*
X0203578Y0227059D01*
X0202059Y0228578D01*
X0200074Y0229400D01*
X0197926Y0229400D01*
X0195941Y0228578D01*
X0194422Y0227059D01*
X0193891Y0225776D01*
X0193819Y0225996D01*
X0193447Y0226725D01*
X0192966Y0227388D01*
X0192388Y0227966D01*
X0191725Y0228447D01*
X0190996Y0228819D01*
X0190218Y0229072D01*
X0189500Y0229186D01*
X0189500Y0224500D01*
X0188500Y0224500D01*
X0188500Y0229186D01*
X0187782Y0229072D01*
X0187004Y0228819D01*
X0186275Y0228447D01*
X0185612Y0227966D01*
X0185034Y0227388D01*
X0184553Y0226725D01*
X0184181Y0225996D01*
X0184000Y0225439D01*
X0183819Y0225996D01*
X0183447Y0226725D01*
X0182966Y0227388D01*
X0182388Y0227966D01*
X0181725Y0228447D01*
X0180996Y0228819D01*
X0180218Y0229072D01*
X0179500Y0229186D01*
X0179500Y0224500D01*
X0178500Y0224500D01*
X0178500Y0229186D01*
X0177782Y0229072D01*
X0177004Y0228819D01*
X0176275Y0228447D01*
X0175612Y0227966D01*
X0175034Y0227388D01*
X0174553Y0226725D01*
X0174181Y0225996D01*
X0174109Y0225776D01*
X0173578Y0227059D01*
X0172059Y0228578D01*
X0170074Y0229400D01*
X0167926Y0229400D01*
X0165941Y0228578D01*
X0164422Y0227059D01*
X0163600Y0225074D01*
X0163600Y0222926D01*
X0164422Y0220941D01*
X0165941Y0219422D01*
X0167926Y0218600D01*
X0170074Y0218600D01*
X0172059Y0219422D01*
X0173578Y0220941D01*
X0174109Y0222224D01*
X0174181Y0222004D01*
X0174553Y0221275D01*
X0175034Y0220612D01*
X0175612Y0220034D01*
X0176275Y0219553D01*
X0177004Y0219181D01*
X0177782Y0218928D01*
X0178500Y0218814D01*
X0178500Y0223500D01*
X0179500Y0223500D01*
X0179500Y0224500D01*
X0184186Y0224500D01*
X0188500Y0224500D01*
X0188500Y0223500D01*
X0189500Y0223500D01*
X0189500Y0218814D01*
X0190218Y0218928D01*
X0190996Y0219181D01*
X0191725Y0219553D01*
X0192388Y0220034D01*
X0192966Y0220612D01*
X0193447Y0221275D01*
X0193819Y0222004D01*
X0193891Y0222224D01*
X0194422Y0220941D01*
X0195941Y0219422D01*
X0197926Y0218600D01*
X0200074Y0218600D01*
X0202059Y0219422D01*
X0203578Y0220941D01*
X0204000Y0221960D01*
X0204422Y0220941D01*
X0205941Y0219422D01*
X0207926Y0218600D01*
X0210074Y0218600D01*
X0212059Y0219422D01*
X0213578Y0220941D01*
X0214000Y0221960D01*
X0214422Y0220941D01*
X0215941Y0219422D01*
X0217926Y0218600D01*
X0220074Y0218600D01*
X0222059Y0219422D01*
X0223578Y0220941D01*
X0224000Y0221960D01*
X0224422Y0220941D01*
X0225941Y0219422D01*
X0227926Y0218600D01*
X0230074Y0218600D01*
X0232059Y0219422D01*
X0233578Y0220941D01*
X0234000Y0221960D01*
X0234422Y0220941D01*
X0235941Y0219422D01*
X0237926Y0218600D01*
X0240074Y0218600D01*
X0242059Y0219422D01*
X0243578Y0220941D01*
X0244400Y0222926D01*
X0244400Y0225074D01*
X0243578Y0227059D01*
X0242059Y0228578D01*
X0242940Y0227696D02*
X0281900Y0227696D01*
X0281900Y0226698D02*
X0243727Y0226698D01*
X0244141Y0225699D02*
X0281900Y0225699D01*
X0281900Y0224701D02*
X0244400Y0224701D01*
X0244400Y0223702D02*
X0281900Y0223702D01*
X0281900Y0222704D02*
X0244308Y0222704D01*
X0243894Y0221705D02*
X0281900Y0221705D01*
X0281900Y0220707D02*
X0243343Y0220707D01*
X0242345Y0219708D02*
X0281900Y0219708D01*
X0281900Y0218710D02*
X0240339Y0218710D01*
X0237661Y0218710D02*
X0230339Y0218710D01*
X0232345Y0219708D02*
X0235655Y0219708D01*
X0234657Y0220707D02*
X0233343Y0220707D01*
X0233894Y0221705D02*
X0234106Y0221705D01*
X0234273Y0226698D02*
X0233727Y0226698D01*
X0232940Y0227696D02*
X0235060Y0227696D01*
X0236223Y0228695D02*
X0231777Y0228695D01*
X0226223Y0228695D02*
X0221777Y0228695D01*
X0222940Y0227696D02*
X0225060Y0227696D01*
X0224273Y0226698D02*
X0223727Y0226698D01*
X0223894Y0221705D02*
X0224106Y0221705D01*
X0224657Y0220707D02*
X0223343Y0220707D01*
X0222345Y0219708D02*
X0225655Y0219708D01*
X0227661Y0218710D02*
X0220339Y0218710D01*
X0217661Y0218710D02*
X0210339Y0218710D01*
X0212345Y0219708D02*
X0215655Y0219708D01*
X0214657Y0220707D02*
X0213343Y0220707D01*
X0213894Y0221705D02*
X0214106Y0221705D01*
X0207661Y0218710D02*
X0200339Y0218710D01*
X0202345Y0219708D02*
X0205655Y0219708D01*
X0204657Y0220707D02*
X0203343Y0220707D01*
X0203894Y0221705D02*
X0204106Y0221705D01*
X0204273Y0226698D02*
X0203727Y0226698D01*
X0202940Y0227696D02*
X0205060Y0227696D01*
X0206223Y0228695D02*
X0201777Y0228695D01*
X0196223Y0228695D02*
X0191240Y0228695D01*
X0192658Y0227696D02*
X0195060Y0227696D01*
X0194273Y0226698D02*
X0193461Y0226698D01*
X0189500Y0226698D02*
X0188500Y0226698D01*
X0188500Y0227696D02*
X0189500Y0227696D01*
X0189500Y0228695D02*
X0188500Y0228695D01*
X0186760Y0228695D02*
X0181240Y0228695D01*
X0182658Y0227696D02*
X0185342Y0227696D01*
X0184539Y0226698D02*
X0183461Y0226698D01*
X0183915Y0225699D02*
X0184085Y0225699D01*
X0179500Y0225699D02*
X0178500Y0225699D01*
X0178500Y0224701D02*
X0179500Y0224701D01*
X0179500Y0223702D02*
X0188500Y0223702D01*
X0188500Y0223500D02*
X0179500Y0223500D01*
X0179500Y0218814D01*
X0180218Y0218928D01*
X0180996Y0219181D01*
X0181725Y0219553D01*
X0182388Y0220034D01*
X0182966Y0220612D01*
X0183447Y0221275D01*
X0183819Y0222004D01*
X0184000Y0222561D01*
X0184181Y0222004D01*
X0184553Y0221275D01*
X0185034Y0220612D01*
X0185612Y0220034D01*
X0186275Y0219553D01*
X0187004Y0219181D01*
X0187782Y0218928D01*
X0188500Y0218814D01*
X0188500Y0223500D01*
X0188500Y0222704D02*
X0189500Y0222704D01*
X0189500Y0221705D02*
X0188500Y0221705D01*
X0188500Y0220707D02*
X0189500Y0220707D01*
X0189500Y0219708D02*
X0188500Y0219708D01*
X0186060Y0219708D02*
X0181940Y0219708D01*
X0183035Y0220707D02*
X0184965Y0220707D01*
X0184333Y0221705D02*
X0183667Y0221705D01*
X0179500Y0221705D02*
X0178500Y0221705D01*
X0178500Y0220707D02*
X0179500Y0220707D01*
X0179500Y0219708D02*
X0178500Y0219708D01*
X0176060Y0219708D02*
X0172345Y0219708D01*
X0173343Y0220707D02*
X0174965Y0220707D01*
X0174333Y0221705D02*
X0173894Y0221705D01*
X0170339Y0218710D02*
X0197661Y0218710D01*
X0195655Y0219708D02*
X0191940Y0219708D01*
X0193035Y0220707D02*
X0194657Y0220707D01*
X0194106Y0221705D02*
X0193667Y0221705D01*
X0189500Y0224701D02*
X0188500Y0224701D01*
X0188500Y0225699D02*
X0189500Y0225699D01*
X0179500Y0226698D02*
X0178500Y0226698D01*
X0178500Y0227696D02*
X0179500Y0227696D01*
X0179500Y0228695D02*
X0178500Y0228695D01*
X0176760Y0228695D02*
X0171777Y0228695D01*
X0172940Y0227696D02*
X0175342Y0227696D01*
X0174539Y0226698D02*
X0173727Y0226698D01*
X0178500Y0222704D02*
X0179500Y0222704D01*
X0167661Y0218710D02*
X0152200Y0218710D01*
X0152200Y0217711D02*
X0281900Y0217711D01*
X0281900Y0216713D02*
X0152200Y0216713D01*
X0152200Y0215714D02*
X0281900Y0215714D01*
X0281900Y0214716D02*
X0152200Y0214716D01*
X0152200Y0213717D02*
X0281900Y0213717D01*
X0281900Y0212719D02*
X0152200Y0212719D01*
X0152200Y0211720D02*
X0281900Y0211720D01*
X0281900Y0210722D02*
X0152200Y0210722D01*
X0152200Y0209723D02*
X0281900Y0209723D01*
X0281900Y0208725D02*
X0152200Y0208725D01*
X0152200Y0207726D02*
X0281900Y0207726D01*
X0281900Y0206728D02*
X0200490Y0206728D01*
X0200074Y0206900D02*
X0197926Y0206900D01*
X0195941Y0206078D01*
X0194422Y0204559D01*
X0193891Y0203276D01*
X0193819Y0203496D01*
X0193447Y0204225D01*
X0192966Y0204888D01*
X0192388Y0205466D01*
X0191725Y0205947D01*
X0190996Y0206319D01*
X0190218Y0206572D01*
X0189500Y0206686D01*
X0189500Y0202000D01*
X0188500Y0202000D01*
X0188500Y0206686D01*
X0187782Y0206572D01*
X0187004Y0206319D01*
X0186275Y0205947D01*
X0185612Y0205466D01*
X0185034Y0204888D01*
X0184553Y0204225D01*
X0184181Y0203496D01*
X0184000Y0202939D01*
X0183819Y0203496D01*
X0183447Y0204225D01*
X0182966Y0204888D01*
X0182388Y0205466D01*
X0181725Y0205947D01*
X0180996Y0206319D01*
X0180218Y0206572D01*
X0179500Y0206686D01*
X0179500Y0202000D01*
X0178500Y0202000D01*
X0178500Y0206686D01*
X0177782Y0206572D01*
X0177004Y0206319D01*
X0176275Y0205947D01*
X0175612Y0205466D01*
X0175034Y0204888D01*
X0174553Y0204225D01*
X0174181Y0203496D01*
X0173928Y0202718D01*
X0173814Y0202000D01*
X0178500Y0202000D01*
X0178500Y0201000D01*
X0173814Y0201000D01*
X0173928Y0200282D01*
X0174181Y0199504D01*
X0174553Y0198775D01*
X0175034Y0198112D01*
X0175612Y0197534D01*
X0176275Y0197053D01*
X0177004Y0196681D01*
X0177782Y0196428D01*
X0178500Y0196314D01*
X0178500Y0201000D01*
X0179500Y0201000D01*
X0179500Y0202000D01*
X0188500Y0202000D01*
X0188500Y0201000D01*
X0189500Y0201000D01*
X0189500Y0196314D01*
X0190218Y0196428D01*
X0190996Y0196681D01*
X0191725Y0197053D01*
X0192388Y0197534D01*
X0192966Y0198112D01*
X0193447Y0198775D01*
X0193819Y0199504D01*
X0193891Y0199724D01*
X0194422Y0198441D01*
X0195941Y0196922D01*
X0197926Y0196100D01*
X0200074Y0196100D01*
X0202059Y0196922D01*
X0203578Y0198441D01*
X0204400Y0200426D01*
X0204400Y0202574D01*
X0203578Y0204559D01*
X0202059Y0206078D01*
X0200074Y0206900D01*
X0197510Y0206728D02*
X0152200Y0206728D01*
X0152200Y0205729D02*
X0175974Y0205729D01*
X0174920Y0204731D02*
X0152200Y0204731D01*
X0152200Y0203732D02*
X0174301Y0203732D01*
X0173933Y0202734D02*
X0152200Y0202734D01*
X0152200Y0201735D02*
X0178500Y0201735D01*
X0178500Y0200737D02*
X0179500Y0200737D01*
X0179500Y0201000D02*
X0179500Y0196314D01*
X0180218Y0196428D01*
X0180996Y0196681D01*
X0181725Y0197053D01*
X0182388Y0197534D01*
X0182966Y0198112D01*
X0183447Y0198775D01*
X0183819Y0199504D01*
X0184000Y0200061D01*
X0184181Y0199504D01*
X0184553Y0198775D01*
X0185034Y0198112D01*
X0185612Y0197534D01*
X0186275Y0197053D01*
X0187004Y0196681D01*
X0187782Y0196428D01*
X0188500Y0196314D01*
X0188500Y0201000D01*
X0183814Y0201000D01*
X0179500Y0201000D01*
X0179500Y0201735D02*
X0188500Y0201735D01*
X0188500Y0200737D02*
X0189500Y0200737D01*
X0189500Y0199738D02*
X0188500Y0199738D01*
X0188500Y0198739D02*
X0189500Y0198739D01*
X0189500Y0197741D02*
X0188500Y0197741D01*
X0188500Y0196742D02*
X0189500Y0196742D01*
X0191117Y0196742D02*
X0196375Y0196742D01*
X0195122Y0197741D02*
X0192595Y0197741D01*
X0193422Y0198739D02*
X0194299Y0198739D01*
X0189500Y0202734D02*
X0188500Y0202734D01*
X0188500Y0203732D02*
X0189500Y0203732D01*
X0189500Y0204731D02*
X0188500Y0204731D01*
X0188500Y0205729D02*
X0189500Y0205729D01*
X0192026Y0205729D02*
X0195592Y0205729D01*
X0194594Y0204731D02*
X0193080Y0204731D01*
X0193699Y0203732D02*
X0194080Y0203732D01*
X0185974Y0205729D02*
X0182026Y0205729D01*
X0183080Y0204731D02*
X0184920Y0204731D01*
X0184301Y0203732D02*
X0183699Y0203732D01*
X0179500Y0203732D02*
X0178500Y0203732D01*
X0178500Y0202734D02*
X0179500Y0202734D01*
X0179500Y0204731D02*
X0178500Y0204731D01*
X0178500Y0205729D02*
X0179500Y0205729D01*
X0179500Y0199738D02*
X0178500Y0199738D01*
X0178500Y0198739D02*
X0179500Y0198739D01*
X0179500Y0197741D02*
X0178500Y0197741D01*
X0178500Y0196742D02*
X0179500Y0196742D01*
X0181117Y0196742D02*
X0186883Y0196742D01*
X0185405Y0197741D02*
X0182595Y0197741D01*
X0183422Y0198739D02*
X0184578Y0198739D01*
X0184105Y0199738D02*
X0183895Y0199738D01*
X0176883Y0196742D02*
X0152200Y0196742D01*
X0152200Y0195744D02*
X0281900Y0195744D01*
X0281900Y0196742D02*
X0201625Y0196742D01*
X0202878Y0197741D02*
X0281900Y0197741D01*
X0281900Y0198739D02*
X0203701Y0198739D01*
X0204115Y0199738D02*
X0281900Y0199738D01*
X0281900Y0200737D02*
X0204400Y0200737D01*
X0204400Y0201735D02*
X0281900Y0201735D01*
X0281900Y0202734D02*
X0204334Y0202734D01*
X0203920Y0203732D02*
X0281900Y0203732D01*
X0281900Y0204731D02*
X0203406Y0204731D01*
X0202408Y0205729D02*
X0281900Y0205729D01*
X0281900Y0194745D02*
X0152200Y0194745D01*
X0152200Y0193747D02*
X0281900Y0193747D01*
X0281900Y0192748D02*
X0152200Y0192748D01*
X0152200Y0191750D02*
X0281900Y0191750D01*
X0281900Y0190751D02*
X0152200Y0190751D01*
X0152200Y0189753D02*
X0281900Y0189753D01*
X0281900Y0188754D02*
X0152200Y0188754D01*
X0152200Y0187756D02*
X0281900Y0187756D01*
X0281900Y0186757D02*
X0152200Y0186757D01*
X0152200Y0185759D02*
X0281900Y0185759D01*
X0281900Y0184760D02*
X0152200Y0184760D01*
X0152200Y0183762D02*
X0281900Y0183762D01*
X0281900Y0182763D02*
X0152200Y0182763D01*
X0152200Y0181765D02*
X0281900Y0181765D01*
X0281900Y0180766D02*
X0152200Y0180766D01*
X0152200Y0179768D02*
X0281900Y0179768D01*
X0281900Y0178769D02*
X0152200Y0178769D01*
X0152200Y0177771D02*
X0281900Y0177771D01*
X0281900Y0176772D02*
X0152200Y0176772D01*
X0152200Y0175774D02*
X0281900Y0175774D01*
X0281900Y0174775D02*
X0152200Y0174775D01*
X0152200Y0173777D02*
X0281900Y0173777D01*
X0281900Y0172778D02*
X0152200Y0172778D01*
X0152200Y0171780D02*
X0281900Y0171780D01*
X0281900Y0170781D02*
X0152200Y0170781D01*
X0152200Y0169783D02*
X0157658Y0169783D01*
X0158083Y0169959D02*
X0156099Y0169137D01*
X0154580Y0167618D01*
X0153757Y0165633D01*
X0153757Y0163485D01*
X0154580Y0161500D01*
X0156099Y0159981D01*
X0158083Y0159159D01*
X0160232Y0159159D01*
X0162216Y0159981D01*
X0163735Y0161500D01*
X0164079Y0162329D01*
X0164422Y0161500D01*
X0165941Y0159981D01*
X0167926Y0159159D01*
X0170074Y0159159D01*
X0172059Y0159981D01*
X0173578Y0161500D01*
X0174021Y0162570D01*
X0174023Y0162563D01*
X0174395Y0161834D01*
X0174876Y0161171D01*
X0175455Y0160593D01*
X0176117Y0160112D01*
X0176846Y0159740D01*
X0177625Y0159487D01*
X0178358Y0159371D01*
X0178358Y0164075D01*
X0179327Y0164075D01*
X0179327Y0165043D01*
X0184031Y0165043D01*
X0183914Y0165777D01*
X0183662Y0166555D01*
X0183290Y0167284D01*
X0182809Y0167947D01*
X0182230Y0168525D01*
X0181568Y0169006D01*
X0180839Y0169378D01*
X0180060Y0169631D01*
X0179327Y0169747D01*
X0179327Y0165043D01*
X0178358Y0165043D01*
X0178358Y0169747D01*
X0177625Y0169631D01*
X0176846Y0169378D01*
X0176117Y0169006D01*
X0175455Y0168525D01*
X0174876Y0167947D01*
X0174395Y0167284D01*
X0174023Y0166555D01*
X0174021Y0166548D01*
X0173578Y0167618D01*
X0172059Y0169137D01*
X0170074Y0169959D01*
X0167926Y0169959D01*
X0165941Y0169137D01*
X0164422Y0167618D01*
X0164079Y0166789D01*
X0163735Y0167618D01*
X0162216Y0169137D01*
X0160232Y0169959D01*
X0158083Y0169959D01*
X0160657Y0169783D02*
X0167500Y0169783D01*
X0165588Y0168784D02*
X0162569Y0168784D01*
X0163568Y0167786D02*
X0164590Y0167786D01*
X0164300Y0161795D02*
X0163857Y0161795D01*
X0163031Y0160796D02*
X0165126Y0160796D01*
X0166384Y0159798D02*
X0161773Y0159798D01*
X0156542Y0159798D02*
X0152200Y0159798D01*
X0152200Y0160796D02*
X0155284Y0160796D01*
X0154458Y0161795D02*
X0152200Y0161795D01*
X0152200Y0162793D02*
X0154044Y0162793D01*
X0153757Y0163792D02*
X0152200Y0163792D01*
X0152200Y0164790D02*
X0153757Y0164790D01*
X0153822Y0165789D02*
X0152200Y0165789D01*
X0152200Y0166787D02*
X0154235Y0166787D01*
X0154747Y0167786D02*
X0152200Y0167786D01*
X0152200Y0168784D02*
X0155746Y0168784D01*
X0145800Y0171780D02*
X0132223Y0171780D01*
X0132560Y0171870D02*
X0132560Y0171870D01*
X0134133Y0172778D02*
X0145800Y0172778D01*
X0145800Y0173777D02*
X0135863Y0173777D01*
X0136140Y0173937D02*
X0136140Y0173937D01*
X0136978Y0174775D02*
X0145800Y0174775D01*
X0145800Y0175774D02*
X0137977Y0175774D01*
X0138975Y0176772D02*
X0145800Y0176772D01*
X0145800Y0177771D02*
X0139589Y0177771D01*
X0139063Y0176860D02*
X0139063Y0176860D01*
X0140165Y0178769D02*
X0145800Y0178769D01*
X0145800Y0179768D02*
X0140742Y0179768D01*
X0141130Y0180440D02*
X0141130Y0180440D01*
X0141217Y0180766D02*
X0145800Y0180766D01*
X0145800Y0181765D02*
X0141485Y0181765D01*
X0141753Y0182763D02*
X0145800Y0182763D01*
X0145800Y0183762D02*
X0142020Y0183762D01*
X0142200Y0184760D02*
X0145800Y0184760D01*
X0145800Y0185759D02*
X0142200Y0185759D01*
X0142200Y0186757D02*
X0145800Y0186757D01*
X0145800Y0187756D02*
X0142200Y0187756D01*
X0142200Y0188754D02*
X0145800Y0188754D01*
X0145800Y0189753D02*
X0142200Y0189753D01*
X0142200Y0190751D02*
X0145800Y0190751D01*
X0145800Y0191750D02*
X0142200Y0191750D01*
X0142200Y0192748D02*
X0145800Y0192748D01*
X0145800Y0193747D02*
X0142200Y0193747D01*
X0142200Y0194745D02*
X0145800Y0194745D01*
X0145800Y0195744D02*
X0142200Y0195744D01*
X0142200Y0196742D02*
X0145800Y0196742D01*
X0145800Y0197741D02*
X0142200Y0197741D01*
X0142200Y0198739D02*
X0145800Y0198739D01*
X0145800Y0199738D02*
X0142200Y0199738D01*
X0142200Y0200737D02*
X0145800Y0200737D01*
X0145800Y0201735D02*
X0142200Y0201735D01*
X0142200Y0202734D02*
X0145800Y0202734D01*
X0145800Y0203732D02*
X0142200Y0203732D01*
X0142200Y0204731D02*
X0145800Y0204731D01*
X0145800Y0205729D02*
X0142200Y0205729D01*
X0142200Y0206728D02*
X0145800Y0206728D01*
X0145800Y0207726D02*
X0142200Y0207726D01*
X0142200Y0208725D02*
X0145800Y0208725D01*
X0145800Y0209723D02*
X0142200Y0209723D01*
X0142200Y0210722D02*
X0145800Y0210722D01*
X0145800Y0211720D02*
X0142200Y0211720D01*
X0142200Y0212719D02*
X0145800Y0212719D01*
X0145800Y0213717D02*
X0142200Y0213717D01*
X0142200Y0214716D02*
X0145800Y0214716D01*
X0145800Y0215714D02*
X0142200Y0215714D01*
X0142200Y0216713D02*
X0145800Y0216713D01*
X0145800Y0217711D02*
X0142200Y0217711D01*
X0142200Y0218710D02*
X0145800Y0218710D01*
X0145655Y0219708D02*
X0142345Y0219708D01*
X0143343Y0220707D02*
X0144657Y0220707D01*
X0144106Y0221705D02*
X0143894Y0221705D01*
X0143727Y0226698D02*
X0144273Y0226698D01*
X0145060Y0227696D02*
X0142940Y0227696D01*
X0141777Y0228695D02*
X0146223Y0228695D01*
X0151777Y0228695D02*
X0166223Y0228695D01*
X0165060Y0227696D02*
X0152940Y0227696D01*
X0153727Y0226698D02*
X0164273Y0226698D01*
X0163859Y0225699D02*
X0154141Y0225699D01*
X0154400Y0224701D02*
X0163600Y0224701D01*
X0163600Y0223702D02*
X0154400Y0223702D01*
X0154308Y0222704D02*
X0163692Y0222704D01*
X0164106Y0221705D02*
X0153894Y0221705D01*
X0153343Y0220707D02*
X0164657Y0220707D01*
X0165655Y0219708D02*
X0152345Y0219708D01*
X0135800Y0218710D02*
X0132200Y0218710D01*
X0132200Y0217711D02*
X0135800Y0217711D01*
X0135800Y0216713D02*
X0132200Y0216713D01*
X0132200Y0215714D02*
X0135800Y0215714D01*
X0135800Y0214716D02*
X0132200Y0214716D01*
X0132008Y0213717D02*
X0135800Y0213717D01*
X0135800Y0212719D02*
X0131741Y0212719D01*
X0131473Y0211720D02*
X0135800Y0211720D01*
X0135800Y0210722D02*
X0131205Y0210722D01*
X0131130Y0210440D02*
X0131130Y0210440D01*
X0130716Y0209723D02*
X0135800Y0209723D01*
X0135800Y0208725D02*
X0130140Y0208725D01*
X0129563Y0207726D02*
X0135800Y0207726D01*
X0135800Y0206728D02*
X0128931Y0206728D01*
X0129063Y0206860D02*
X0129063Y0206860D01*
X0127932Y0205729D02*
X0135800Y0205729D01*
X0135800Y0204731D02*
X0126934Y0204731D01*
X0126140Y0203937D02*
X0126140Y0203937D01*
X0125785Y0203732D02*
X0135800Y0203732D01*
X0135800Y0202734D02*
X0124056Y0202734D01*
X0122560Y0201870D02*
X0122560Y0201870D01*
X0122056Y0201735D02*
X0135800Y0201735D01*
X0135800Y0192748D02*
X0044061Y0192748D01*
X0043690Y0191750D02*
X0135800Y0191750D01*
X0135800Y0190751D02*
X0043067Y0190751D01*
X0042001Y0189753D02*
X0135800Y0189753D01*
X0135800Y0188754D02*
X0041633Y0188754D01*
X0042881Y0187756D02*
X0135800Y0187756D01*
X0135800Y0186757D02*
X0043703Y0186757D01*
X0044116Y0185759D02*
X0135751Y0185759D01*
X0135580Y0184760D02*
X0044400Y0184760D01*
X0044400Y0183762D02*
X0135312Y0183762D01*
X0134989Y0182763D02*
X0044333Y0182763D01*
X0043919Y0181765D02*
X0134413Y0181765D01*
X0133806Y0180766D02*
X0043403Y0180766D01*
X0042405Y0179768D02*
X0132807Y0179768D01*
X0131551Y0178769D02*
X0041597Y0178769D01*
X0042866Y0177771D02*
X0129547Y0177771D01*
X0145800Y0162793D02*
X0044074Y0162793D01*
X0043712Y0161795D02*
X0145800Y0161795D01*
X0145800Y0160796D02*
X0043100Y0160796D01*
X0042063Y0159798D02*
X0145800Y0159798D01*
X0145800Y0158799D02*
X0041525Y0158799D01*
X0042836Y0157801D02*
X0145800Y0157801D01*
X0145800Y0156802D02*
X0043684Y0156802D01*
X0044098Y0155803D02*
X0145754Y0155803D01*
X0145592Y0154805D02*
X0044400Y0154805D01*
X0044400Y0153806D02*
X0145324Y0153806D01*
X0145015Y0152808D02*
X0044351Y0152808D01*
X0043938Y0151809D02*
X0144439Y0151809D01*
X0143851Y0150811D02*
X0043448Y0150811D01*
X0042449Y0149812D02*
X0142852Y0149812D01*
X0141628Y0148814D02*
X0076489Y0148814D01*
X0077821Y0147815D02*
X0139714Y0147815D01*
X0146140Y0143937D02*
X0146140Y0143937D01*
X0145940Y0143821D02*
X0148271Y0143821D01*
X0147023Y0144820D02*
X0281900Y0144820D01*
X0281900Y0145818D02*
X0148022Y0145818D01*
X0149020Y0146817D02*
X0281900Y0146817D01*
X0281900Y0147815D02*
X0149615Y0147815D01*
X0149063Y0146860D02*
X0149063Y0146860D01*
X0150191Y0148814D02*
X0281900Y0148814D01*
X0281900Y0149812D02*
X0223658Y0149812D01*
X0223775Y0149860D02*
X0225305Y0151391D01*
X0226133Y0153390D01*
X0226133Y0155555D01*
X0225305Y0157554D01*
X0223775Y0159084D01*
X0221775Y0159913D01*
X0212130Y0159913D01*
X0210131Y0159084D01*
X0208601Y0157554D01*
X0207772Y0155555D01*
X0207772Y0153390D01*
X0208601Y0151391D01*
X0210131Y0149860D01*
X0212130Y0149032D01*
X0221775Y0149032D01*
X0223775Y0149860D01*
X0224725Y0150811D02*
X0281900Y0150811D01*
X0281900Y0151809D02*
X0225478Y0151809D01*
X0225892Y0152808D02*
X0281900Y0152808D01*
X0281900Y0153806D02*
X0226133Y0153806D01*
X0226133Y0154805D02*
X0281900Y0154805D01*
X0281900Y0155803D02*
X0226030Y0155803D01*
X0225616Y0156802D02*
X0281900Y0156802D01*
X0281900Y0157801D02*
X0225058Y0157801D01*
X0224060Y0158799D02*
X0281900Y0158799D01*
X0281900Y0159798D02*
X0222053Y0159798D01*
X0211853Y0159798D02*
X0180952Y0159798D01*
X0180839Y0159740D02*
X0181568Y0160112D01*
X0182230Y0160593D01*
X0182809Y0161171D01*
X0183290Y0161834D01*
X0183662Y0162563D01*
X0183914Y0163341D01*
X0184031Y0164075D01*
X0179327Y0164075D01*
X0179327Y0159371D01*
X0180060Y0159487D01*
X0180839Y0159740D01*
X0179327Y0159798D02*
X0178358Y0159798D01*
X0178358Y0160796D02*
X0179327Y0160796D01*
X0179327Y0161795D02*
X0178358Y0161795D01*
X0178358Y0162793D02*
X0179327Y0162793D01*
X0179327Y0163792D02*
X0178358Y0163792D01*
X0179327Y0164790D02*
X0281900Y0164790D01*
X0281900Y0163792D02*
X0183986Y0163792D01*
X0183736Y0162793D02*
X0281900Y0162793D01*
X0281900Y0161795D02*
X0183262Y0161795D01*
X0182433Y0160796D02*
X0281900Y0160796D01*
X0281900Y0165789D02*
X0183911Y0165789D01*
X0183543Y0166787D02*
X0281900Y0166787D01*
X0281900Y0167786D02*
X0182926Y0167786D01*
X0181874Y0168784D02*
X0281900Y0168784D01*
X0281900Y0169783D02*
X0170500Y0169783D01*
X0172412Y0168784D02*
X0175811Y0168784D01*
X0174759Y0167786D02*
X0173410Y0167786D01*
X0173922Y0166787D02*
X0174142Y0166787D01*
X0178358Y0166787D02*
X0179327Y0166787D01*
X0179327Y0165789D02*
X0178358Y0165789D01*
X0178358Y0167786D02*
X0179327Y0167786D01*
X0179327Y0168784D02*
X0178358Y0168784D01*
X0174423Y0161795D02*
X0173700Y0161795D01*
X0172874Y0160796D02*
X0175252Y0160796D01*
X0176734Y0159798D02*
X0171616Y0159798D01*
X0152200Y0158799D02*
X0209846Y0158799D01*
X0208847Y0157801D02*
X0152200Y0157801D01*
X0152200Y0156802D02*
X0208289Y0156802D01*
X0207876Y0155803D02*
X0152200Y0155803D01*
X0152200Y0154805D02*
X0207772Y0154805D01*
X0207772Y0153806D02*
X0152032Y0153806D01*
X0151765Y0152808D02*
X0208014Y0152808D01*
X0208427Y0151809D02*
X0151497Y0151809D01*
X0151229Y0150811D02*
X0209181Y0150811D01*
X0210247Y0149812D02*
X0150768Y0149812D01*
X0151130Y0150440D02*
X0151130Y0150440D01*
X0155083Y0143821D02*
X0182917Y0143821D01*
X0182015Y0143448D02*
X0179875Y0141308D01*
X0178717Y0138513D01*
X0178717Y0135487D01*
X0179875Y0132692D01*
X0182015Y0130552D01*
X0184810Y0129394D01*
X0187836Y0129394D01*
X0190631Y0130552D01*
X0192770Y0132692D01*
X0193928Y0135487D01*
X0193928Y0138513D01*
X0192770Y0141308D01*
X0190631Y0143448D01*
X0187836Y0144605D01*
X0184810Y0144605D01*
X0182015Y0143448D01*
X0181390Y0142823D02*
X0156610Y0142823D01*
X0157609Y0141824D02*
X0180391Y0141824D01*
X0179675Y0140826D02*
X0158325Y0140826D01*
X0158738Y0139827D02*
X0179262Y0139827D01*
X0178848Y0138829D02*
X0159152Y0138829D01*
X0159283Y0137830D02*
X0178717Y0137830D01*
X0178717Y0136832D02*
X0159283Y0136832D01*
X0159283Y0135833D02*
X0178717Y0135833D01*
X0178988Y0134835D02*
X0159012Y0134835D01*
X0158599Y0133836D02*
X0179401Y0133836D01*
X0179815Y0132838D02*
X0158185Y0132838D01*
X0157272Y0131839D02*
X0180728Y0131839D01*
X0181726Y0130841D02*
X0156274Y0130841D01*
X0154271Y0129842D02*
X0183729Y0129842D01*
X0188917Y0129842D02*
X0201670Y0129842D01*
X0201670Y0129178D02*
X0202498Y0127178D01*
X0204029Y0125648D01*
X0206028Y0124820D01*
X0208192Y0124820D01*
X0210192Y0125648D01*
X0211722Y0127178D01*
X0212550Y0129178D01*
X0212550Y0138822D01*
X0211722Y0140822D01*
X0210192Y0142352D01*
X0208192Y0143180D01*
X0206028Y0143180D01*
X0204029Y0142352D01*
X0202498Y0140822D01*
X0201670Y0138822D01*
X0201670Y0129178D01*
X0201808Y0128844D02*
X0039685Y0128844D01*
X0039500Y0128844D02*
X0038500Y0128844D01*
X0038500Y0128814D02*
X0038500Y0133500D01*
X0033814Y0133500D01*
X0033928Y0132782D01*
X0034181Y0132004D01*
X0034553Y0131275D01*
X0035034Y0130612D01*
X0035612Y0130034D01*
X0036275Y0129553D01*
X0037004Y0129181D01*
X0037782Y0128928D01*
X0038500Y0128814D01*
X0038315Y0128844D02*
X0031100Y0128844D01*
X0031100Y0129842D02*
X0035876Y0129842D01*
X0034868Y0130841D02*
X0031100Y0130841D01*
X0031100Y0131839D02*
X0034265Y0131839D01*
X0033919Y0132838D02*
X0031100Y0132838D01*
X0031100Y0133836D02*
X0038500Y0133836D01*
X0038500Y0132838D02*
X0039500Y0132838D01*
X0039500Y0133836D02*
X0144755Y0133836D01*
X0147081Y0130841D02*
X0043132Y0130841D01*
X0042124Y0129842D02*
X0149083Y0129842D01*
X0144203Y0138829D02*
X0075627Y0138829D01*
X0077464Y0139827D02*
X0144616Y0139827D01*
X0145030Y0140826D02*
X0138663Y0140826D01*
X0142390Y0141824D02*
X0145746Y0141824D01*
X0146744Y0142823D02*
X0144210Y0142823D01*
X0142560Y0141870D02*
X0142560Y0141870D01*
X0189729Y0143821D02*
X0281900Y0143821D01*
X0281900Y0142823D02*
X0262992Y0142823D01*
X0264657Y0141824D02*
X0281900Y0141824D01*
X0281900Y0140826D02*
X0265655Y0140826D01*
X0266071Y0139827D02*
X0281900Y0139827D01*
X0281900Y0138829D02*
X0266485Y0138829D01*
X0266487Y0137830D02*
X0281900Y0137830D01*
X0281900Y0136832D02*
X0266487Y0136832D01*
X0266552Y0135833D02*
X0281900Y0135833D01*
X0281900Y0134835D02*
X0267926Y0134835D01*
X0269032Y0134032D02*
X0269032Y0134032D01*
X0269032Y0134032D01*
X0269174Y0133836D02*
X0281900Y0133836D01*
X0281900Y0132838D02*
X0269899Y0132838D01*
X0270625Y0131839D02*
X0281900Y0131839D01*
X0281900Y0130841D02*
X0271216Y0130841D01*
X0271108Y0131174D02*
X0271108Y0131174D01*
X0271541Y0129842D02*
X0281900Y0129842D01*
X0281900Y0128844D02*
X0271865Y0128844D01*
X0272190Y0127845D02*
X0281900Y0127845D01*
X0281900Y0126847D02*
X0272200Y0126847D01*
X0272200Y0125848D02*
X0281900Y0125848D01*
X0281900Y0124850D02*
X0272200Y0124850D01*
X0272200Y0123851D02*
X0281900Y0123851D01*
X0281900Y0122853D02*
X0272200Y0122853D01*
X0272200Y0121854D02*
X0281900Y0121854D01*
X0281900Y0120856D02*
X0272200Y0120856D01*
X0272200Y0119857D02*
X0281900Y0119857D01*
X0281900Y0118859D02*
X0272200Y0118859D01*
X0272200Y0117860D02*
X0281900Y0117860D01*
X0281900Y0116862D02*
X0272200Y0116862D01*
X0272200Y0115863D02*
X0281900Y0115863D01*
X0281900Y0114865D02*
X0272200Y0114865D01*
X0272200Y0113866D02*
X0281900Y0113866D01*
X0281900Y0112868D02*
X0272200Y0112868D01*
X0272200Y0111869D02*
X0281900Y0111869D01*
X0281900Y0110870D02*
X0272200Y0110870D01*
X0272200Y0109872D02*
X0281900Y0109872D01*
X0281900Y0108873D02*
X0272200Y0108873D01*
X0272200Y0107875D02*
X0281900Y0107875D01*
X0281900Y0106876D02*
X0272200Y0106876D01*
X0272200Y0105878D02*
X0281900Y0105878D01*
X0281900Y0104879D02*
X0272200Y0104879D01*
X0272200Y0103881D02*
X0281900Y0103881D01*
X0281900Y0102882D02*
X0272200Y0102882D01*
X0272200Y0101884D02*
X0281900Y0101884D01*
X0281900Y0100885D02*
X0273176Y0100885D01*
X0273974Y0099887D02*
X0281900Y0099887D01*
X0281900Y0098888D02*
X0274387Y0098888D01*
X0274700Y0097890D02*
X0281900Y0097890D01*
X0281900Y0096891D02*
X0274700Y0096891D01*
X0274700Y0095893D02*
X0281900Y0095893D01*
X0281900Y0094894D02*
X0274297Y0094894D01*
X0273884Y0093896D02*
X0281900Y0093896D01*
X0281900Y0092897D02*
X0272958Y0092897D01*
X0271579Y0091899D02*
X0281900Y0091899D01*
X0281900Y0090900D02*
X0271497Y0090900D01*
X0272876Y0089902D02*
X0281900Y0089902D01*
X0281900Y0088903D02*
X0273689Y0088903D01*
X0274164Y0087905D02*
X0281900Y0087905D01*
X0281900Y0086906D02*
X0274425Y0086906D01*
X0274396Y0084909D02*
X0281900Y0084909D01*
X0281900Y0083911D02*
X0274104Y0083911D01*
X0273555Y0082912D02*
X0281900Y0082912D01*
X0281900Y0081914D02*
X0272692Y0081914D01*
X0269500Y0085908D02*
X0281900Y0085908D01*
X0266865Y0080915D02*
X0246619Y0080915D01*
X0247975Y0081914D02*
X0265308Y0081914D01*
X0264445Y0082912D02*
X0248891Y0082912D01*
X0249304Y0083911D02*
X0263896Y0083911D01*
X0263604Y0084909D02*
X0249700Y0084909D01*
X0238300Y0097890D02*
X0132747Y0097890D01*
X0131309Y0098888D02*
X0238613Y0098888D01*
X0218678Y0088903D02*
X0130806Y0088903D01*
X0132538Y0089902D02*
X0217303Y0089902D01*
X0216166Y0058948D02*
X0220800Y0058948D01*
X0220313Y0057949D02*
X0217687Y0057949D01*
X0218623Y0056951D02*
X0219377Y0056951D01*
X0211834Y0058948D02*
X0206166Y0058948D01*
X0207687Y0057949D02*
X0210313Y0057949D01*
X0209377Y0056951D02*
X0208623Y0056951D01*
X0201834Y0058948D02*
X0196166Y0058948D01*
X0197687Y0057949D02*
X0200313Y0057949D01*
X0199377Y0056951D02*
X0198623Y0056951D01*
X0191834Y0058948D02*
X0186166Y0058948D01*
X0187687Y0057949D02*
X0190313Y0057949D01*
X0189377Y0056951D02*
X0188623Y0056951D01*
X0164402Y0030990D02*
X0163598Y0030990D01*
X0162628Y0029991D02*
X0165372Y0029991D01*
X0166978Y0028993D02*
X0161022Y0028993D01*
X0156978Y0028993D02*
X0151022Y0028993D01*
X0152628Y0029991D02*
X0155372Y0029991D01*
X0154402Y0030990D02*
X0153598Y0030990D01*
X0146978Y0028993D02*
X0141022Y0028993D01*
X0142628Y0029991D02*
X0145372Y0029991D01*
X0144402Y0030990D02*
X0143598Y0030990D01*
X0136978Y0028993D02*
X0131022Y0028993D01*
X0132628Y0029991D02*
X0135372Y0029991D01*
X0134402Y0030990D02*
X0133598Y0030990D01*
X0126978Y0028993D02*
X0121022Y0028993D01*
X0122628Y0029991D02*
X0125372Y0029991D01*
X0124402Y0030990D02*
X0123598Y0030990D01*
X0116978Y0028993D02*
X0111022Y0028993D01*
X0112628Y0029991D02*
X0115372Y0029991D01*
X0114402Y0030990D02*
X0113598Y0030990D01*
X0113610Y0036981D02*
X0114390Y0036981D01*
X0115342Y0037979D02*
X0112658Y0037979D01*
X0111094Y0038978D02*
X0115800Y0038978D01*
X0115800Y0039976D02*
X0031100Y0039976D01*
X0031100Y0038978D02*
X0096906Y0038978D01*
X0095342Y0037979D02*
X0031100Y0037979D01*
X0031100Y0036981D02*
X0094390Y0036981D01*
X0093976Y0035982D02*
X0031100Y0035982D01*
X0031100Y0034984D02*
X0093600Y0034984D01*
X0093600Y0033985D02*
X0031100Y0033985D01*
X0031100Y0032987D02*
X0093600Y0032987D01*
X0093988Y0031988D02*
X0031100Y0031988D01*
X0031100Y0030990D02*
X0094402Y0030990D01*
X0095372Y0029991D02*
X0031100Y0029991D01*
X0031100Y0028993D02*
X0096978Y0028993D01*
X0101022Y0028993D02*
X0106978Y0028993D01*
X0105372Y0029991D02*
X0102628Y0029991D01*
X0103598Y0030990D02*
X0104402Y0030990D01*
X0104390Y0036981D02*
X0103610Y0036981D01*
X0102658Y0037979D02*
X0105342Y0037979D01*
X0106906Y0038978D02*
X0101094Y0038978D01*
X0115800Y0040975D02*
X0031100Y0040975D01*
X0031100Y0041973D02*
X0115800Y0041973D01*
X0115800Y0042972D02*
X0031100Y0042972D01*
X0031100Y0043970D02*
X0115800Y0043970D01*
X0051543Y0044969D02*
X0050772Y0044969D01*
X0050772Y0044200D02*
X0050772Y0049114D01*
X0045857Y0049114D01*
X0045857Y0049083D01*
X0045988Y0048259D01*
X0046246Y0047466D01*
X0046625Y0046722D01*
X0047115Y0046047D01*
X0047705Y0045457D01*
X0048380Y0044967D01*
X0049123Y0044588D01*
X0049916Y0044330D01*
X0050740Y0044200D01*
X0050772Y0044200D01*
X0050772Y0045967D02*
X0051543Y0045967D01*
X0051543Y0046966D02*
X0050772Y0046966D01*
X0050772Y0047964D02*
X0051543Y0047964D01*
X0051543Y0048963D02*
X0050772Y0048963D01*
X0050772Y0049961D02*
X0051543Y0049961D01*
X0051543Y0050960D02*
X0050772Y0050960D01*
X0050772Y0051958D02*
X0051543Y0051958D01*
X0051543Y0052957D02*
X0050772Y0052957D01*
X0050772Y0053955D02*
X0051543Y0053955D01*
X0048273Y0053955D02*
X0031100Y0053955D01*
X0031100Y0052957D02*
X0047119Y0052957D01*
X0046462Y0051958D02*
X0031100Y0051958D01*
X0031100Y0050960D02*
X0046059Y0050960D01*
X0045864Y0049961D02*
X0031100Y0049961D01*
X0031100Y0048963D02*
X0045876Y0048963D01*
X0046084Y0047964D02*
X0031100Y0047964D01*
X0031100Y0046966D02*
X0046500Y0046966D01*
X0047195Y0045967D02*
X0031100Y0045967D01*
X0031100Y0044969D02*
X0048377Y0044969D01*
X0031100Y0027994D02*
X0281900Y0027994D01*
X0281900Y0026996D02*
X0031100Y0026996D01*
X0031100Y0026100D02*
X0031100Y0231900D01*
X0281900Y0231900D01*
X0281900Y0026100D01*
X0031100Y0026100D01*
X0100806Y0088903D02*
X0127194Y0088903D01*
X0125461Y0089902D02*
X0102538Y0089902D01*
X0103537Y0090900D02*
X0124463Y0090900D01*
X0124025Y0091899D02*
X0103975Y0091899D01*
X0104388Y0092897D02*
X0123612Y0092897D01*
X0123600Y0093896D02*
X0104400Y0093896D01*
X0104400Y0094894D02*
X0123600Y0094894D01*
X0123939Y0095893D02*
X0104061Y0095893D01*
X0103647Y0096891D02*
X0124353Y0096891D01*
X0125253Y0097890D02*
X0102747Y0097890D01*
X0101309Y0098888D02*
X0126691Y0098888D01*
X0190919Y0130841D02*
X0201670Y0130841D01*
X0201670Y0131839D02*
X0191918Y0131839D01*
X0192831Y0132838D02*
X0201670Y0132838D01*
X0201670Y0133836D02*
X0193244Y0133836D01*
X0193658Y0134835D02*
X0201670Y0134835D01*
X0201670Y0135833D02*
X0193928Y0135833D01*
X0193928Y0136832D02*
X0201670Y0136832D01*
X0201670Y0137830D02*
X0193928Y0137830D01*
X0193797Y0138829D02*
X0201673Y0138829D01*
X0202086Y0139827D02*
X0193384Y0139827D01*
X0192970Y0140826D02*
X0202502Y0140826D01*
X0203501Y0141824D02*
X0192254Y0141824D01*
X0191256Y0142823D02*
X0205165Y0142823D01*
X0209055Y0142823D02*
X0259102Y0142823D01*
X0257438Y0141824D02*
X0210720Y0141824D01*
X0211718Y0140826D02*
X0256439Y0140826D01*
X0256023Y0139827D02*
X0212134Y0139827D01*
X0212548Y0138829D02*
X0255610Y0138829D01*
X0255607Y0137830D02*
X0212550Y0137830D01*
X0212550Y0136832D02*
X0255607Y0136832D01*
X0255607Y0135833D02*
X0212550Y0135833D01*
X0212550Y0134835D02*
X0255607Y0134835D01*
X0255607Y0133836D02*
X0212550Y0133836D01*
X0212550Y0132838D02*
X0255607Y0132838D01*
X0255607Y0131839D02*
X0212550Y0131839D01*
X0212550Y0130841D02*
X0255607Y0130841D01*
X0255607Y0129842D02*
X0212550Y0129842D01*
X0212412Y0128844D02*
X0255745Y0128844D01*
X0256159Y0127845D02*
X0211998Y0127845D01*
X0211391Y0126847D02*
X0256767Y0126847D01*
X0257765Y0125848D02*
X0210392Y0125848D01*
X0208265Y0124850D02*
X0259893Y0124850D01*
X0262202Y0124850D02*
X0265800Y0124850D01*
X0265800Y0125848D02*
X0264329Y0125848D01*
X0265328Y0126847D02*
X0265723Y0126847D01*
X0265800Y0123851D02*
X0031100Y0123851D01*
X0031100Y0122853D02*
X0265800Y0122853D01*
X0265800Y0121854D02*
X0031100Y0121854D01*
X0031100Y0120856D02*
X0265800Y0120856D01*
X0205956Y0124850D02*
X0031100Y0124850D01*
X0031100Y0125848D02*
X0203828Y0125848D01*
X0202830Y0126847D02*
X0031100Y0126847D01*
X0031100Y0127845D02*
X0202222Y0127845D01*
X0227687Y0057949D02*
X0230313Y0057949D01*
X0229377Y0056951D02*
X0228623Y0056951D01*
X0247370Y0037979D02*
X0250342Y0037979D01*
X0249390Y0036981D02*
X0248262Y0036981D01*
X0248824Y0035982D02*
X0248976Y0035982D01*
X0071511Y0148814D02*
X0041489Y0148814D01*
X0042821Y0147815D02*
X0070179Y0147815D01*
X0039500Y0131839D02*
X0038500Y0131839D01*
X0038500Y0130841D02*
X0039500Y0130841D01*
X0039500Y0129842D02*
X0038500Y0129842D01*
X0033867Y0134835D02*
X0031100Y0134835D01*
X0031100Y0135833D02*
X0034128Y0135833D01*
X0034630Y0136832D02*
X0031100Y0136832D01*
X0031100Y0137830D02*
X0035476Y0137830D01*
X0042911Y0207726D02*
X0119380Y0207726D01*
X0121473Y0208725D02*
X0041705Y0208725D01*
X0042360Y0209723D02*
X0122763Y0209723D01*
X0123761Y0210722D02*
X0043358Y0210722D01*
X0069462Y0227696D02*
X0070272Y0227696D01*
X0071058Y0228695D02*
X0068659Y0228695D01*
X0067243Y0229693D02*
X0072220Y0229693D01*
X0077780Y0229693D02*
X0079889Y0229693D01*
X0079600Y0228695D02*
X0078942Y0228695D01*
X0065500Y0228695D02*
X0064500Y0228695D01*
X0064500Y0229693D02*
X0065500Y0229693D01*
X0096027Y0211720D02*
X0124387Y0211720D01*
X0124964Y0212719D02*
X0097617Y0212719D01*
X0096418Y0211847D02*
X0096418Y0211847D01*
X0098992Y0213717D02*
X0125300Y0213717D01*
X0125568Y0214716D02*
X0099797Y0214716D01*
X0099160Y0213840D02*
X0099160Y0213840D01*
X0099160Y0213840D01*
X0100522Y0215714D02*
X0125748Y0215714D01*
X0125800Y0216713D02*
X0101195Y0216713D01*
X0101153Y0216582D02*
X0101153Y0216582D01*
X0101520Y0217711D02*
X0125800Y0217711D01*
X0125800Y0218710D02*
X0120339Y0218710D01*
X0122345Y0219708D02*
X0125655Y0219708D01*
X0124657Y0220707D02*
X0123343Y0220707D01*
X0123894Y0221705D02*
X0124106Y0221705D01*
X0117661Y0218710D02*
X0110339Y0218710D01*
X0112345Y0219708D02*
X0115655Y0219708D01*
X0114657Y0220707D02*
X0113343Y0220707D01*
X0113894Y0221705D02*
X0114106Y0221705D01*
X0114273Y0226698D02*
X0113727Y0226698D01*
X0112940Y0227696D02*
X0115060Y0227696D01*
X0116223Y0228695D02*
X0111777Y0228695D01*
X0106223Y0228695D02*
X0101777Y0228695D01*
X0102940Y0227696D02*
X0105060Y0227696D01*
X0104273Y0226698D02*
X0103727Y0226698D01*
X0103894Y0221705D02*
X0104106Y0221705D01*
X0104657Y0220707D02*
X0103343Y0220707D01*
X0102345Y0219708D02*
X0105655Y0219708D01*
X0107661Y0218710D02*
X0101844Y0218710D01*
X0121777Y0228695D02*
X0126223Y0228695D01*
X0125060Y0227696D02*
X0122940Y0227696D01*
X0123727Y0226698D02*
X0124273Y0226698D01*
X0131777Y0228695D02*
X0136223Y0228695D01*
X0135060Y0227696D02*
X0132940Y0227696D01*
X0133727Y0226698D02*
X0134273Y0226698D01*
X0134106Y0221705D02*
X0133894Y0221705D01*
X0133343Y0220707D02*
X0134657Y0220707D01*
X0135655Y0219708D02*
X0132345Y0219708D01*
X0152200Y0200737D02*
X0173856Y0200737D01*
X0174105Y0199738D02*
X0152200Y0199738D01*
X0152200Y0198739D02*
X0174578Y0198739D01*
X0175405Y0197741D02*
X0152200Y0197741D01*
X0211777Y0228695D02*
X0216223Y0228695D01*
X0215060Y0227696D02*
X0212940Y0227696D01*
X0213727Y0226698D02*
X0214273Y0226698D01*
X0281900Y0230692D02*
X0031100Y0230692D01*
X0031100Y0231690D02*
X0281900Y0231690D01*
D19*
X0189000Y0224000D02*
X0189000Y0201500D01*
X0188998Y0201598D01*
X0188992Y0201696D01*
X0188983Y0201794D01*
X0188969Y0201891D01*
X0188952Y0201988D01*
X0188931Y0202084D01*
X0188906Y0202179D01*
X0188878Y0202273D01*
X0188845Y0202365D01*
X0188810Y0202457D01*
X0188770Y0202547D01*
X0188728Y0202635D01*
X0188681Y0202722D01*
X0188632Y0202806D01*
X0188579Y0202889D01*
X0188523Y0202969D01*
X0188463Y0203048D01*
X0188401Y0203124D01*
X0188336Y0203197D01*
X0188268Y0203268D01*
X0188197Y0203336D01*
X0188124Y0203401D01*
X0188048Y0203463D01*
X0187969Y0203523D01*
X0187889Y0203579D01*
X0187806Y0203632D01*
X0187722Y0203681D01*
X0187635Y0203728D01*
X0187547Y0203770D01*
X0187457Y0203810D01*
X0187365Y0203845D01*
X0187273Y0203878D01*
X0187179Y0203906D01*
X0187084Y0203931D01*
X0186988Y0203952D01*
X0186891Y0203969D01*
X0186794Y0203983D01*
X0186696Y0203992D01*
X0186598Y0203998D01*
X0186500Y0204000D01*
X0179000Y0204000D01*
X0178978Y0203998D01*
X0178956Y0203994D01*
X0178935Y0203986D01*
X0178915Y0203975D01*
X0178897Y0203962D01*
X0178881Y0203946D01*
X0178868Y0203928D01*
X0178857Y0203908D01*
X0178849Y0203887D01*
X0178845Y0203865D01*
X0178843Y0203843D01*
X0178843Y0164559D01*
X0178843Y0156343D01*
X0178841Y0156205D01*
X0178835Y0156067D01*
X0178825Y0155929D01*
X0178811Y0155791D01*
X0178794Y0155654D01*
X0178772Y0155517D01*
X0178747Y0155381D01*
X0178717Y0155246D01*
X0178684Y0155112D01*
X0178647Y0154979D01*
X0178606Y0154846D01*
X0178561Y0154716D01*
X0178513Y0154586D01*
X0178461Y0154458D01*
X0178405Y0154331D01*
X0178346Y0154206D01*
X0178283Y0154083D01*
X0178217Y0153962D01*
X0178147Y0153842D01*
X0178074Y0153725D01*
X0177998Y0153609D01*
X0177918Y0153496D01*
X0177835Y0153386D01*
X0177749Y0153277D01*
X0177660Y0153172D01*
X0177568Y0153068D01*
X0177473Y0152968D01*
X0177375Y0152870D01*
X0177275Y0152775D01*
X0177171Y0152683D01*
X0177066Y0152594D01*
X0176957Y0152508D01*
X0176847Y0152425D01*
X0176734Y0152345D01*
X0176618Y0152269D01*
X0176501Y0152196D01*
X0176381Y0152126D01*
X0176260Y0152060D01*
X0176137Y0151997D01*
X0176012Y0151938D01*
X0175885Y0151882D01*
X0175757Y0151830D01*
X0175627Y0151782D01*
X0175497Y0151737D01*
X0175364Y0151696D01*
X0175231Y0151659D01*
X0175097Y0151626D01*
X0174962Y0151596D01*
X0174826Y0151571D01*
X0174689Y0151549D01*
X0174552Y0151532D01*
X0174414Y0151518D01*
X0174276Y0151508D01*
X0174138Y0151502D01*
X0174000Y0151500D01*
X0173860Y0151498D01*
X0173720Y0151492D01*
X0173580Y0151482D01*
X0173440Y0151469D01*
X0173301Y0151451D01*
X0173162Y0151429D01*
X0173025Y0151404D01*
X0172887Y0151375D01*
X0172751Y0151342D01*
X0172616Y0151305D01*
X0172482Y0151264D01*
X0172349Y0151219D01*
X0172217Y0151171D01*
X0172087Y0151119D01*
X0171958Y0151064D01*
X0171831Y0151005D01*
X0171705Y0150942D01*
X0171581Y0150876D01*
X0171460Y0150807D01*
X0171340Y0150734D01*
X0171222Y0150657D01*
X0171107Y0150578D01*
X0170993Y0150495D01*
X0170883Y0150409D01*
X0170774Y0150320D01*
X0170668Y0150228D01*
X0170565Y0150133D01*
X0170464Y0150036D01*
X0170367Y0149935D01*
X0170272Y0149832D01*
X0170180Y0149726D01*
X0170091Y0149617D01*
X0170005Y0149507D01*
X0169922Y0149393D01*
X0169843Y0149278D01*
X0169766Y0149160D01*
X0169693Y0149040D01*
X0169624Y0148919D01*
X0169558Y0148795D01*
X0169495Y0148669D01*
X0169436Y0148542D01*
X0169381Y0148413D01*
X0169329Y0148283D01*
X0169281Y0148151D01*
X0169236Y0148018D01*
X0169195Y0147884D01*
X0169158Y0147749D01*
X0169125Y0147613D01*
X0169096Y0147475D01*
X0169071Y0147338D01*
X0169049Y0147199D01*
X0169031Y0147060D01*
X0169018Y0146920D01*
X0169008Y0146780D01*
X0169002Y0146640D01*
X0169000Y0146500D01*
X0169000Y0114000D01*
X0169002Y0114098D01*
X0169008Y0114196D01*
X0169017Y0114294D01*
X0169031Y0114391D01*
X0169048Y0114488D01*
X0169069Y0114584D01*
X0169094Y0114679D01*
X0169122Y0114773D01*
X0169155Y0114865D01*
X0169190Y0114957D01*
X0169230Y0115047D01*
X0169272Y0115135D01*
X0169319Y0115222D01*
X0169368Y0115306D01*
X0169421Y0115389D01*
X0169477Y0115469D01*
X0169537Y0115548D01*
X0169599Y0115624D01*
X0169664Y0115697D01*
X0169732Y0115768D01*
X0169803Y0115836D01*
X0169876Y0115901D01*
X0169952Y0115963D01*
X0170031Y0116023D01*
X0170111Y0116079D01*
X0170194Y0116132D01*
X0170278Y0116181D01*
X0170365Y0116228D01*
X0170453Y0116270D01*
X0170543Y0116310D01*
X0170635Y0116345D01*
X0170727Y0116378D01*
X0170821Y0116406D01*
X0170916Y0116431D01*
X0171012Y0116452D01*
X0171109Y0116469D01*
X0171206Y0116483D01*
X0171304Y0116492D01*
X0171402Y0116498D01*
X0171500Y0116500D01*
X0244000Y0116500D01*
X0244242Y0116497D01*
X0244483Y0116488D01*
X0244724Y0116474D01*
X0244965Y0116453D01*
X0245205Y0116427D01*
X0245445Y0116395D01*
X0245684Y0116357D01*
X0245921Y0116314D01*
X0246158Y0116264D01*
X0246393Y0116209D01*
X0246627Y0116149D01*
X0246859Y0116082D01*
X0247090Y0116011D01*
X0247319Y0115933D01*
X0247546Y0115850D01*
X0247771Y0115762D01*
X0247994Y0115668D01*
X0248214Y0115569D01*
X0248432Y0115464D01*
X0248647Y0115355D01*
X0248860Y0115240D01*
X0249070Y0115120D01*
X0249276Y0114995D01*
X0249480Y0114865D01*
X0249681Y0114730D01*
X0249878Y0114590D01*
X0250072Y0114446D01*
X0250262Y0114297D01*
X0250448Y0114143D01*
X0250631Y0113985D01*
X0250810Y0113823D01*
X0250985Y0113656D01*
X0251156Y0113485D01*
X0251323Y0113310D01*
X0251485Y0113131D01*
X0251643Y0112948D01*
X0251797Y0112762D01*
X0251946Y0112572D01*
X0252090Y0112378D01*
X0252230Y0112181D01*
X0252365Y0111980D01*
X0252495Y0111776D01*
X0252620Y0111570D01*
X0252740Y0111360D01*
X0252855Y0111147D01*
X0252964Y0110932D01*
X0253069Y0110714D01*
X0253168Y0110494D01*
X0253262Y0110271D01*
X0253350Y0110046D01*
X0253433Y0109819D01*
X0253511Y0109590D01*
X0253582Y0109359D01*
X0253649Y0109127D01*
X0253709Y0108893D01*
X0253764Y0108658D01*
X0253814Y0108421D01*
X0253857Y0108184D01*
X0253895Y0107945D01*
X0253927Y0107705D01*
X0253953Y0107465D01*
X0253974Y0107224D01*
X0253988Y0106983D01*
X0253997Y0106742D01*
X0254000Y0106500D01*
X0254000Y0096000D01*
X0254003Y0095758D01*
X0254012Y0095517D01*
X0254026Y0095276D01*
X0254047Y0095035D01*
X0254073Y0094795D01*
X0254105Y0094555D01*
X0254143Y0094316D01*
X0254186Y0094079D01*
X0254236Y0093842D01*
X0254291Y0093607D01*
X0254351Y0093373D01*
X0254418Y0093141D01*
X0254489Y0092910D01*
X0254567Y0092681D01*
X0254650Y0092454D01*
X0254738Y0092229D01*
X0254832Y0092006D01*
X0254931Y0091786D01*
X0255036Y0091568D01*
X0255145Y0091353D01*
X0255260Y0091140D01*
X0255380Y0090930D01*
X0255505Y0090724D01*
X0255635Y0090520D01*
X0255770Y0090319D01*
X0255910Y0090122D01*
X0256054Y0089928D01*
X0256203Y0089738D01*
X0256357Y0089552D01*
X0256515Y0089369D01*
X0256677Y0089190D01*
X0256844Y0089015D01*
X0257015Y0088844D01*
X0257190Y0088677D01*
X0257369Y0088515D01*
X0257552Y0088357D01*
X0257738Y0088203D01*
X0257928Y0088054D01*
X0258122Y0087910D01*
X0258319Y0087770D01*
X0258520Y0087635D01*
X0258724Y0087505D01*
X0258930Y0087380D01*
X0259140Y0087260D01*
X0259353Y0087145D01*
X0259568Y0087036D01*
X0259786Y0086931D01*
X0260006Y0086832D01*
X0260229Y0086738D01*
X0260454Y0086650D01*
X0260681Y0086567D01*
X0260910Y0086489D01*
X0261141Y0086418D01*
X0261373Y0086351D01*
X0261607Y0086291D01*
X0261842Y0086236D01*
X0262079Y0086186D01*
X0262316Y0086143D01*
X0262555Y0086105D01*
X0262795Y0086073D01*
X0263035Y0086047D01*
X0263276Y0086026D01*
X0263517Y0086012D01*
X0263758Y0086003D01*
X0264000Y0086000D01*
X0269000Y0086000D01*
X0269000Y0074000D01*
X0268997Y0073758D01*
X0268988Y0073517D01*
X0268974Y0073276D01*
X0268953Y0073035D01*
X0268927Y0072795D01*
X0268895Y0072555D01*
X0268857Y0072316D01*
X0268814Y0072079D01*
X0268764Y0071842D01*
X0268709Y0071607D01*
X0268649Y0071373D01*
X0268582Y0071141D01*
X0268511Y0070910D01*
X0268433Y0070681D01*
X0268350Y0070454D01*
X0268262Y0070229D01*
X0268168Y0070006D01*
X0268069Y0069786D01*
X0267964Y0069568D01*
X0267855Y0069353D01*
X0267740Y0069140D01*
X0267620Y0068930D01*
X0267495Y0068724D01*
X0267365Y0068520D01*
X0267230Y0068319D01*
X0267090Y0068122D01*
X0266946Y0067928D01*
X0266797Y0067738D01*
X0266643Y0067552D01*
X0266485Y0067369D01*
X0266323Y0067190D01*
X0266156Y0067015D01*
X0265985Y0066844D01*
X0265810Y0066677D01*
X0265631Y0066515D01*
X0265448Y0066357D01*
X0265262Y0066203D01*
X0265072Y0066054D01*
X0264878Y0065910D01*
X0264681Y0065770D01*
X0264480Y0065635D01*
X0264276Y0065505D01*
X0264070Y0065380D01*
X0263860Y0065260D01*
X0263647Y0065145D01*
X0263432Y0065036D01*
X0263214Y0064931D01*
X0262994Y0064832D01*
X0262771Y0064738D01*
X0262546Y0064650D01*
X0262319Y0064567D01*
X0262090Y0064489D01*
X0261859Y0064418D01*
X0261627Y0064351D01*
X0261393Y0064291D01*
X0261158Y0064236D01*
X0260921Y0064186D01*
X0260684Y0064143D01*
X0260445Y0064105D01*
X0260205Y0064073D01*
X0259965Y0064047D01*
X0259724Y0064026D01*
X0259483Y0064012D01*
X0259242Y0064003D01*
X0259000Y0064000D01*
X0254000Y0064000D01*
X0253758Y0063997D01*
X0253517Y0063988D01*
X0253276Y0063974D01*
X0253035Y0063953D01*
X0252795Y0063927D01*
X0252555Y0063895D01*
X0252316Y0063857D01*
X0252079Y0063814D01*
X0251842Y0063764D01*
X0251607Y0063709D01*
X0251373Y0063649D01*
X0251141Y0063582D01*
X0250910Y0063511D01*
X0250681Y0063433D01*
X0250454Y0063350D01*
X0250229Y0063262D01*
X0250006Y0063168D01*
X0249786Y0063069D01*
X0249568Y0062964D01*
X0249353Y0062855D01*
X0249140Y0062740D01*
X0248930Y0062620D01*
X0248724Y0062495D01*
X0248520Y0062365D01*
X0248319Y0062230D01*
X0248122Y0062090D01*
X0247928Y0061946D01*
X0247738Y0061797D01*
X0247552Y0061643D01*
X0247369Y0061485D01*
X0247190Y0061323D01*
X0247015Y0061156D01*
X0246844Y0060985D01*
X0246677Y0060810D01*
X0246515Y0060631D01*
X0246357Y0060448D01*
X0246203Y0060262D01*
X0246054Y0060072D01*
X0245910Y0059878D01*
X0245770Y0059681D01*
X0245635Y0059480D01*
X0245505Y0059276D01*
X0245380Y0059070D01*
X0245260Y0058860D01*
X0245145Y0058647D01*
X0245036Y0058432D01*
X0244931Y0058214D01*
X0244832Y0057994D01*
X0244738Y0057771D01*
X0244650Y0057546D01*
X0244567Y0057319D01*
X0244489Y0057090D01*
X0244418Y0056859D01*
X0244351Y0056627D01*
X0244291Y0056393D01*
X0244236Y0056158D01*
X0244186Y0055921D01*
X0244143Y0055684D01*
X0244105Y0055445D01*
X0244073Y0055205D01*
X0244047Y0054965D01*
X0244026Y0054724D01*
X0244012Y0054483D01*
X0244003Y0054242D01*
X0244000Y0054000D01*
X0244000Y0034000D01*
X0234000Y0034000D02*
X0234000Y0054000D01*
X0224000Y0054000D02*
X0224000Y0034000D01*
X0214000Y0034000D02*
X0214000Y0054000D01*
X0204000Y0054000D02*
X0204000Y0034000D01*
X0194000Y0034000D02*
X0194000Y0054000D01*
X0184000Y0054000D02*
X0184000Y0034000D01*
X0169000Y0034000D02*
X0169000Y0054000D01*
X0159000Y0054000D02*
X0159000Y0034000D01*
X0149000Y0034000D02*
X0149000Y0054000D01*
X0139000Y0054000D02*
X0139000Y0034000D01*
X0129000Y0034000D02*
X0129000Y0054000D01*
X0119000Y0054000D02*
X0119000Y0034000D01*
X0104000Y0076500D02*
X0039000Y0076500D01*
X0039000Y0059500D01*
X0039003Y0059258D01*
X0039012Y0059017D01*
X0039026Y0058776D01*
X0039047Y0058535D01*
X0039073Y0058295D01*
X0039105Y0058055D01*
X0039143Y0057816D01*
X0039186Y0057579D01*
X0039236Y0057342D01*
X0039291Y0057107D01*
X0039351Y0056873D01*
X0039418Y0056641D01*
X0039489Y0056410D01*
X0039567Y0056181D01*
X0039650Y0055954D01*
X0039738Y0055729D01*
X0039832Y0055506D01*
X0039931Y0055286D01*
X0040036Y0055068D01*
X0040145Y0054853D01*
X0040260Y0054640D01*
X0040380Y0054430D01*
X0040505Y0054224D01*
X0040635Y0054020D01*
X0040770Y0053819D01*
X0040910Y0053622D01*
X0041054Y0053428D01*
X0041203Y0053238D01*
X0041357Y0053052D01*
X0041515Y0052869D01*
X0041677Y0052690D01*
X0041844Y0052515D01*
X0042015Y0052344D01*
X0042190Y0052177D01*
X0042369Y0052015D01*
X0042552Y0051857D01*
X0042738Y0051703D01*
X0042928Y0051554D01*
X0043122Y0051410D01*
X0043319Y0051270D01*
X0043520Y0051135D01*
X0043724Y0051005D01*
X0043930Y0050880D01*
X0044140Y0050760D01*
X0044353Y0050645D01*
X0044568Y0050536D01*
X0044786Y0050431D01*
X0045006Y0050332D01*
X0045229Y0050238D01*
X0045454Y0050150D01*
X0045681Y0050067D01*
X0045910Y0049989D01*
X0046141Y0049918D01*
X0046373Y0049851D01*
X0046607Y0049791D01*
X0046842Y0049736D01*
X0047079Y0049686D01*
X0047316Y0049643D01*
X0047555Y0049605D01*
X0047795Y0049573D01*
X0048035Y0049547D01*
X0048276Y0049526D01*
X0048517Y0049512D01*
X0048758Y0049503D01*
X0049000Y0049500D01*
X0051157Y0049500D01*
X0039000Y0076500D02*
X0039000Y0084000D01*
X0039000Y0094000D02*
X0099000Y0094000D01*
X0114000Y0086500D02*
X0113997Y0086258D01*
X0113988Y0086017D01*
X0113974Y0085776D01*
X0113953Y0085535D01*
X0113927Y0085295D01*
X0113895Y0085055D01*
X0113857Y0084816D01*
X0113814Y0084579D01*
X0113764Y0084342D01*
X0113709Y0084107D01*
X0113649Y0083873D01*
X0113582Y0083641D01*
X0113511Y0083410D01*
X0113433Y0083181D01*
X0113350Y0082954D01*
X0113262Y0082729D01*
X0113168Y0082506D01*
X0113069Y0082286D01*
X0112964Y0082068D01*
X0112855Y0081853D01*
X0112740Y0081640D01*
X0112620Y0081430D01*
X0112495Y0081224D01*
X0112365Y0081020D01*
X0112230Y0080819D01*
X0112090Y0080622D01*
X0111946Y0080428D01*
X0111797Y0080238D01*
X0111643Y0080052D01*
X0111485Y0079869D01*
X0111323Y0079690D01*
X0111156Y0079515D01*
X0110985Y0079344D01*
X0110810Y0079177D01*
X0110631Y0079015D01*
X0110448Y0078857D01*
X0110262Y0078703D01*
X0110072Y0078554D01*
X0109878Y0078410D01*
X0109681Y0078270D01*
X0109480Y0078135D01*
X0109276Y0078005D01*
X0109070Y0077880D01*
X0108860Y0077760D01*
X0108647Y0077645D01*
X0108432Y0077536D01*
X0108214Y0077431D01*
X0107994Y0077332D01*
X0107771Y0077238D01*
X0107546Y0077150D01*
X0107319Y0077067D01*
X0107090Y0076989D01*
X0106859Y0076918D01*
X0106627Y0076851D01*
X0106393Y0076791D01*
X0106158Y0076736D01*
X0105921Y0076686D01*
X0105684Y0076643D01*
X0105445Y0076605D01*
X0105205Y0076573D01*
X0104965Y0076547D01*
X0104724Y0076526D01*
X0104483Y0076512D01*
X0104242Y0076503D01*
X0104000Y0076500D01*
X0114000Y0086500D02*
X0114000Y0104000D01*
X0159000Y0104000D01*
X0159242Y0104003D01*
X0159483Y0104012D01*
X0159724Y0104026D01*
X0159965Y0104047D01*
X0160205Y0104073D01*
X0160445Y0104105D01*
X0160684Y0104143D01*
X0160921Y0104186D01*
X0161158Y0104236D01*
X0161393Y0104291D01*
X0161627Y0104351D01*
X0161859Y0104418D01*
X0162090Y0104489D01*
X0162319Y0104567D01*
X0162546Y0104650D01*
X0162771Y0104738D01*
X0162994Y0104832D01*
X0163214Y0104931D01*
X0163432Y0105036D01*
X0163647Y0105145D01*
X0163860Y0105260D01*
X0164070Y0105380D01*
X0164276Y0105505D01*
X0164480Y0105635D01*
X0164681Y0105770D01*
X0164878Y0105910D01*
X0165072Y0106054D01*
X0165262Y0106203D01*
X0165448Y0106357D01*
X0165631Y0106515D01*
X0165810Y0106677D01*
X0165985Y0106844D01*
X0166156Y0107015D01*
X0166323Y0107190D01*
X0166485Y0107369D01*
X0166643Y0107552D01*
X0166797Y0107738D01*
X0166946Y0107928D01*
X0167090Y0108122D01*
X0167230Y0108319D01*
X0167365Y0108520D01*
X0167495Y0108724D01*
X0167620Y0108930D01*
X0167740Y0109140D01*
X0167855Y0109353D01*
X0167964Y0109568D01*
X0168069Y0109786D01*
X0168168Y0110006D01*
X0168262Y0110229D01*
X0168350Y0110454D01*
X0168433Y0110681D01*
X0168511Y0110910D01*
X0168582Y0111141D01*
X0168649Y0111373D01*
X0168709Y0111607D01*
X0168764Y0111842D01*
X0168814Y0112079D01*
X0168857Y0112316D01*
X0168895Y0112555D01*
X0168927Y0112795D01*
X0168953Y0113035D01*
X0168974Y0113276D01*
X0168988Y0113517D01*
X0168997Y0113758D01*
X0169000Y0114000D01*
X0129000Y0094000D02*
X0214000Y0094000D01*
X0214242Y0093997D01*
X0214483Y0093988D01*
X0214724Y0093974D01*
X0214965Y0093953D01*
X0215205Y0093927D01*
X0215445Y0093895D01*
X0215684Y0093857D01*
X0215921Y0093814D01*
X0216158Y0093764D01*
X0216393Y0093709D01*
X0216627Y0093649D01*
X0216859Y0093582D01*
X0217090Y0093511D01*
X0217319Y0093433D01*
X0217546Y0093350D01*
X0217771Y0093262D01*
X0217994Y0093168D01*
X0218214Y0093069D01*
X0218432Y0092964D01*
X0218647Y0092855D01*
X0218860Y0092740D01*
X0219070Y0092620D01*
X0219276Y0092495D01*
X0219480Y0092365D01*
X0219681Y0092230D01*
X0219878Y0092090D01*
X0220072Y0091946D01*
X0220262Y0091797D01*
X0220448Y0091643D01*
X0220631Y0091485D01*
X0220810Y0091323D01*
X0220985Y0091156D01*
X0221156Y0090985D01*
X0221323Y0090810D01*
X0221485Y0090631D01*
X0221643Y0090448D01*
X0221797Y0090262D01*
X0221946Y0090072D01*
X0222090Y0089878D01*
X0222230Y0089681D01*
X0222365Y0089480D01*
X0222495Y0089276D01*
X0222620Y0089070D01*
X0222740Y0088860D01*
X0222855Y0088647D01*
X0222964Y0088432D01*
X0223069Y0088214D01*
X0223168Y0087994D01*
X0223262Y0087771D01*
X0223350Y0087546D01*
X0223433Y0087319D01*
X0223511Y0087090D01*
X0223582Y0086859D01*
X0223649Y0086627D01*
X0223709Y0086393D01*
X0223764Y0086158D01*
X0223814Y0085921D01*
X0223857Y0085684D01*
X0223895Y0085445D01*
X0223927Y0085205D01*
X0223953Y0084965D01*
X0223974Y0084724D01*
X0223988Y0084483D01*
X0223997Y0084242D01*
X0224000Y0084000D01*
X0224000Y0054000D01*
X0269000Y0097000D02*
X0269000Y0126047D01*
X0268998Y0126239D01*
X0268991Y0126431D01*
X0268979Y0126623D01*
X0268963Y0126815D01*
X0268942Y0127006D01*
X0268917Y0127196D01*
X0268886Y0127386D01*
X0268852Y0127575D01*
X0268813Y0127763D01*
X0268769Y0127950D01*
X0268721Y0128136D01*
X0268668Y0128321D01*
X0268611Y0128505D01*
X0268549Y0128687D01*
X0268483Y0128867D01*
X0268413Y0129046D01*
X0268338Y0129223D01*
X0268259Y0129398D01*
X0268176Y0129572D01*
X0268089Y0129743D01*
X0267998Y0129912D01*
X0267902Y0130079D01*
X0267803Y0130243D01*
X0267699Y0130405D01*
X0267592Y0130565D01*
X0267481Y0130722D01*
X0267366Y0130876D01*
X0267248Y0131027D01*
X0267126Y0131175D01*
X0267000Y0131321D01*
X0266871Y0131463D01*
X0266738Y0131602D01*
X0266602Y0131738D01*
X0266463Y0131871D01*
X0266321Y0132000D01*
X0266175Y0132126D01*
X0266027Y0132248D01*
X0265876Y0132366D01*
X0265722Y0132481D01*
X0265565Y0132592D01*
X0265405Y0132699D01*
X0265243Y0132803D01*
X0265079Y0132902D01*
X0264912Y0132998D01*
X0264743Y0133089D01*
X0264572Y0133176D01*
X0264398Y0133259D01*
X0264223Y0133338D01*
X0264046Y0133413D01*
X0263867Y0133483D01*
X0263687Y0133549D01*
X0263505Y0133611D01*
X0263321Y0133668D01*
X0263136Y0133721D01*
X0262950Y0133769D01*
X0262763Y0133813D01*
X0262575Y0133852D01*
X0262386Y0133886D01*
X0262196Y0133917D01*
X0262006Y0133942D01*
X0261815Y0133963D01*
X0261623Y0133979D01*
X0261431Y0133991D01*
X0261239Y0133998D01*
X0261047Y0134000D01*
X0149000Y0156500D02*
X0149000Y0224000D01*
X0139000Y0224000D02*
X0139000Y0186500D01*
X0138996Y0186198D01*
X0138985Y0185896D01*
X0138967Y0185595D01*
X0138942Y0185294D01*
X0138909Y0184993D01*
X0138869Y0184694D01*
X0138822Y0184396D01*
X0138767Y0184098D01*
X0138706Y0183803D01*
X0138637Y0183509D01*
X0138561Y0183216D01*
X0138478Y0182926D01*
X0138388Y0182637D01*
X0138291Y0182351D01*
X0138188Y0182067D01*
X0138077Y0181786D01*
X0137960Y0181508D01*
X0137836Y0181232D01*
X0137705Y0180960D01*
X0137568Y0180691D01*
X0137425Y0180425D01*
X0137275Y0180163D01*
X0137118Y0179904D01*
X0136956Y0179650D01*
X0136787Y0179399D01*
X0136613Y0179153D01*
X0136432Y0178910D01*
X0136246Y0178673D01*
X0136054Y0178439D01*
X0135856Y0178211D01*
X0135653Y0177987D01*
X0135445Y0177769D01*
X0135231Y0177555D01*
X0135013Y0177347D01*
X0134789Y0177144D01*
X0134561Y0176946D01*
X0134327Y0176754D01*
X0134090Y0176568D01*
X0133847Y0176387D01*
X0133601Y0176213D01*
X0133350Y0176044D01*
X0133096Y0175882D01*
X0132837Y0175725D01*
X0132575Y0175575D01*
X0132309Y0175432D01*
X0132040Y0175295D01*
X0131768Y0175164D01*
X0131492Y0175040D01*
X0131214Y0174923D01*
X0130933Y0174812D01*
X0130649Y0174709D01*
X0130363Y0174612D01*
X0130074Y0174522D01*
X0129784Y0174439D01*
X0129491Y0174363D01*
X0129197Y0174294D01*
X0128902Y0174233D01*
X0128604Y0174178D01*
X0128306Y0174131D01*
X0128007Y0174091D01*
X0127706Y0174058D01*
X0127405Y0174033D01*
X0127104Y0174015D01*
X0126802Y0174004D01*
X0126500Y0174000D01*
X0039000Y0174000D01*
X0039000Y0194000D02*
X0066500Y0194000D01*
X0039000Y0204000D02*
X0116500Y0204000D01*
X0116802Y0204004D01*
X0117104Y0204015D01*
X0117405Y0204033D01*
X0117706Y0204058D01*
X0118007Y0204091D01*
X0118306Y0204131D01*
X0118604Y0204178D01*
X0118902Y0204233D01*
X0119197Y0204294D01*
X0119491Y0204363D01*
X0119784Y0204439D01*
X0120074Y0204522D01*
X0120363Y0204612D01*
X0120649Y0204709D01*
X0120933Y0204812D01*
X0121214Y0204923D01*
X0121492Y0205040D01*
X0121768Y0205164D01*
X0122040Y0205295D01*
X0122309Y0205432D01*
X0122575Y0205575D01*
X0122837Y0205725D01*
X0123096Y0205882D01*
X0123350Y0206044D01*
X0123601Y0206213D01*
X0123847Y0206387D01*
X0124090Y0206568D01*
X0124327Y0206754D01*
X0124561Y0206946D01*
X0124789Y0207144D01*
X0125013Y0207347D01*
X0125231Y0207555D01*
X0125445Y0207769D01*
X0125653Y0207987D01*
X0125856Y0208211D01*
X0126054Y0208439D01*
X0126246Y0208673D01*
X0126432Y0208910D01*
X0126613Y0209153D01*
X0126787Y0209399D01*
X0126956Y0209650D01*
X0127118Y0209904D01*
X0127275Y0210163D01*
X0127425Y0210425D01*
X0127568Y0210691D01*
X0127705Y0210960D01*
X0127836Y0211232D01*
X0127960Y0211508D01*
X0128077Y0211786D01*
X0128188Y0212067D01*
X0128291Y0212351D01*
X0128388Y0212637D01*
X0128478Y0212926D01*
X0128561Y0213216D01*
X0128637Y0213509D01*
X0128706Y0213803D01*
X0128767Y0214098D01*
X0128822Y0214396D01*
X0128869Y0214694D01*
X0128909Y0214993D01*
X0128942Y0215294D01*
X0128967Y0215595D01*
X0128985Y0215896D01*
X0128996Y0216198D01*
X0129000Y0216500D01*
X0129000Y0224000D01*
X0099000Y0224000D02*
X0099000Y0221500D01*
X0098998Y0221319D01*
X0098991Y0221138D01*
X0098980Y0220957D01*
X0098965Y0220776D01*
X0098945Y0220596D01*
X0098921Y0220416D01*
X0098893Y0220237D01*
X0098860Y0220059D01*
X0098823Y0219882D01*
X0098782Y0219705D01*
X0098737Y0219530D01*
X0098687Y0219355D01*
X0098633Y0219182D01*
X0098575Y0219011D01*
X0098513Y0218840D01*
X0098446Y0218672D01*
X0098376Y0218505D01*
X0098302Y0218339D01*
X0098223Y0218176D01*
X0098141Y0218015D01*
X0098055Y0217855D01*
X0097965Y0217698D01*
X0097871Y0217543D01*
X0097774Y0217390D01*
X0097672Y0217240D01*
X0097568Y0217092D01*
X0097459Y0216946D01*
X0097348Y0216804D01*
X0097232Y0216664D01*
X0097114Y0216527D01*
X0096992Y0216392D01*
X0096867Y0216261D01*
X0096739Y0216133D01*
X0096608Y0216008D01*
X0096473Y0215886D01*
X0096336Y0215768D01*
X0096196Y0215652D01*
X0096054Y0215541D01*
X0095908Y0215432D01*
X0095760Y0215328D01*
X0095610Y0215226D01*
X0095457Y0215129D01*
X0095302Y0215035D01*
X0095145Y0214945D01*
X0094985Y0214859D01*
X0094824Y0214777D01*
X0094661Y0214698D01*
X0094495Y0214624D01*
X0094328Y0214554D01*
X0094160Y0214487D01*
X0093989Y0214425D01*
X0093818Y0214367D01*
X0093645Y0214313D01*
X0093470Y0214263D01*
X0093295Y0214218D01*
X0093118Y0214177D01*
X0092941Y0214140D01*
X0092763Y0214107D01*
X0092584Y0214079D01*
X0092404Y0214055D01*
X0092224Y0214035D01*
X0092043Y0214020D01*
X0091862Y0214009D01*
X0091681Y0214002D01*
X0091500Y0214000D01*
X0085000Y0214000D01*
X0084758Y0214003D01*
X0084517Y0214012D01*
X0084276Y0214026D01*
X0084035Y0214047D01*
X0083795Y0214073D01*
X0083555Y0214105D01*
X0083316Y0214143D01*
X0083079Y0214186D01*
X0082842Y0214236D01*
X0082607Y0214291D01*
X0082373Y0214351D01*
X0082141Y0214418D01*
X0081910Y0214489D01*
X0081681Y0214567D01*
X0081454Y0214650D01*
X0081229Y0214738D01*
X0081006Y0214832D01*
X0080786Y0214931D01*
X0080568Y0215036D01*
X0080353Y0215145D01*
X0080140Y0215260D01*
X0079930Y0215380D01*
X0079724Y0215505D01*
X0079520Y0215635D01*
X0079319Y0215770D01*
X0079122Y0215910D01*
X0078928Y0216054D01*
X0078738Y0216203D01*
X0078552Y0216357D01*
X0078369Y0216515D01*
X0078190Y0216677D01*
X0078015Y0216844D01*
X0077844Y0217015D01*
X0077677Y0217190D01*
X0077515Y0217369D01*
X0077357Y0217552D01*
X0077203Y0217738D01*
X0077054Y0217928D01*
X0076910Y0218122D01*
X0076770Y0218319D01*
X0076635Y0218520D01*
X0076505Y0218724D01*
X0076380Y0218930D01*
X0076260Y0219140D01*
X0076145Y0219353D01*
X0076036Y0219568D01*
X0075931Y0219786D01*
X0075832Y0220006D01*
X0075738Y0220229D01*
X0075650Y0220454D01*
X0075567Y0220681D01*
X0075489Y0220910D01*
X0075418Y0221141D01*
X0075351Y0221373D01*
X0075291Y0221607D01*
X0075236Y0221842D01*
X0075186Y0222079D01*
X0075143Y0222316D01*
X0075105Y0222555D01*
X0075073Y0222795D01*
X0075047Y0223035D01*
X0075026Y0223276D01*
X0075012Y0223517D01*
X0075003Y0223758D01*
X0075000Y0224000D01*
X0075000Y0225000D01*
X0149000Y0156500D02*
X0148996Y0156198D01*
X0148985Y0155896D01*
X0148967Y0155595D01*
X0148942Y0155294D01*
X0148909Y0154993D01*
X0148869Y0154694D01*
X0148822Y0154396D01*
X0148767Y0154098D01*
X0148706Y0153803D01*
X0148637Y0153509D01*
X0148561Y0153216D01*
X0148478Y0152926D01*
X0148388Y0152637D01*
X0148291Y0152351D01*
X0148188Y0152067D01*
X0148077Y0151786D01*
X0147960Y0151508D01*
X0147836Y0151232D01*
X0147705Y0150960D01*
X0147568Y0150691D01*
X0147425Y0150425D01*
X0147275Y0150163D01*
X0147118Y0149904D01*
X0146956Y0149650D01*
X0146787Y0149399D01*
X0146613Y0149153D01*
X0146432Y0148910D01*
X0146246Y0148673D01*
X0146054Y0148439D01*
X0145856Y0148211D01*
X0145653Y0147987D01*
X0145445Y0147769D01*
X0145231Y0147555D01*
X0145013Y0147347D01*
X0144789Y0147144D01*
X0144561Y0146946D01*
X0144327Y0146754D01*
X0144090Y0146568D01*
X0143847Y0146387D01*
X0143601Y0146213D01*
X0143350Y0146044D01*
X0143096Y0145882D01*
X0142837Y0145725D01*
X0142575Y0145575D01*
X0142309Y0145432D01*
X0142040Y0145295D01*
X0141768Y0145164D01*
X0141492Y0145040D01*
X0141214Y0144923D01*
X0140933Y0144812D01*
X0140649Y0144709D01*
X0140363Y0144612D01*
X0140074Y0144522D01*
X0139784Y0144439D01*
X0139491Y0144363D01*
X0139197Y0144294D01*
X0138902Y0144233D01*
X0138604Y0144178D01*
X0138306Y0144131D01*
X0138007Y0144091D01*
X0137706Y0144058D01*
X0137405Y0144033D01*
X0137104Y0144015D01*
X0136802Y0144004D01*
X0136500Y0144000D01*
X0074000Y0144000D01*
X0039000Y0144000D01*
X0039000Y0134000D02*
X0064000Y0134000D01*
X0064242Y0133997D01*
X0064483Y0133988D01*
X0064724Y0133974D01*
X0064965Y0133953D01*
X0065205Y0133927D01*
X0065445Y0133895D01*
X0065684Y0133857D01*
X0065921Y0133814D01*
X0066158Y0133764D01*
X0066393Y0133709D01*
X0066627Y0133649D01*
X0066859Y0133582D01*
X0067090Y0133511D01*
X0067319Y0133433D01*
X0067546Y0133350D01*
X0067771Y0133262D01*
X0067994Y0133168D01*
X0068214Y0133069D01*
X0068432Y0132964D01*
X0068647Y0132855D01*
X0068860Y0132740D01*
X0069070Y0132620D01*
X0069276Y0132495D01*
X0069480Y0132365D01*
X0069681Y0132230D01*
X0069878Y0132090D01*
X0070072Y0131946D01*
X0070262Y0131797D01*
X0070448Y0131643D01*
X0070631Y0131485D01*
X0070810Y0131323D01*
X0070985Y0131156D01*
X0071156Y0130985D01*
X0071323Y0130810D01*
X0071485Y0130631D01*
X0071643Y0130448D01*
X0071797Y0130262D01*
X0071946Y0130072D01*
X0072090Y0129878D01*
X0072230Y0129681D01*
X0072365Y0129480D01*
X0072495Y0129276D01*
X0072620Y0129070D01*
X0072740Y0128860D01*
X0072855Y0128647D01*
X0072964Y0128432D01*
X0073069Y0128214D01*
X0073168Y0127994D01*
X0073262Y0127771D01*
X0073350Y0127546D01*
X0073433Y0127319D01*
X0073511Y0127090D01*
X0073582Y0126859D01*
X0073649Y0126627D01*
X0073709Y0126393D01*
X0073764Y0126158D01*
X0073814Y0125921D01*
X0073857Y0125684D01*
X0073895Y0125445D01*
X0073927Y0125205D01*
X0073953Y0124965D01*
X0073974Y0124724D01*
X0073988Y0124483D01*
X0073997Y0124242D01*
X0074000Y0124000D01*
X0074000Y0114000D01*
X0104000Y0114000D01*
X0104242Y0113997D01*
X0104483Y0113988D01*
X0104724Y0113974D01*
X0104965Y0113953D01*
X0105205Y0113927D01*
X0105445Y0113895D01*
X0105684Y0113857D01*
X0105921Y0113814D01*
X0106158Y0113764D01*
X0106393Y0113709D01*
X0106627Y0113649D01*
X0106859Y0113582D01*
X0107090Y0113511D01*
X0107319Y0113433D01*
X0107546Y0113350D01*
X0107771Y0113262D01*
X0107994Y0113168D01*
X0108214Y0113069D01*
X0108432Y0112964D01*
X0108647Y0112855D01*
X0108860Y0112740D01*
X0109070Y0112620D01*
X0109276Y0112495D01*
X0109480Y0112365D01*
X0109681Y0112230D01*
X0109878Y0112090D01*
X0110072Y0111946D01*
X0110262Y0111797D01*
X0110448Y0111643D01*
X0110631Y0111485D01*
X0110810Y0111323D01*
X0110985Y0111156D01*
X0111156Y0110985D01*
X0111323Y0110810D01*
X0111485Y0110631D01*
X0111643Y0110448D01*
X0111797Y0110262D01*
X0111946Y0110072D01*
X0112090Y0109878D01*
X0112230Y0109681D01*
X0112365Y0109480D01*
X0112495Y0109276D01*
X0112620Y0109070D01*
X0112740Y0108860D01*
X0112855Y0108647D01*
X0112964Y0108432D01*
X0113069Y0108214D01*
X0113168Y0107994D01*
X0113262Y0107771D01*
X0113350Y0107546D01*
X0113433Y0107319D01*
X0113511Y0107090D01*
X0113582Y0106859D01*
X0113649Y0106627D01*
X0113709Y0106393D01*
X0113764Y0106158D01*
X0113814Y0105921D01*
X0113857Y0105684D01*
X0113895Y0105445D01*
X0113927Y0105205D01*
X0113953Y0104965D01*
X0113974Y0104724D01*
X0113988Y0104483D01*
X0113997Y0104242D01*
X0114000Y0104000D01*
X0179000Y0224000D02*
X0189000Y0224000D01*
D20*
X0224000Y0181500D03*
X0159000Y0179000D03*
X0099000Y0191500D03*
X0066500Y0194000D03*
X0116500Y0126500D03*
X0136500Y0071500D03*
M02*
