G75*
%MOIN*%
%OFA0B0*%
%FSLAX25Y25*%
%IPPOS*%
%LPD*%
%AMOC8*
5,1,8,0,0,1.08239X$1,22.5*
%
%ADD10C,0.08200*%
%ADD11C,0.03520*%
%ADD12C,0.03543*%
%ADD13C,0.07874*%
%ADD14C,0.03937*%
%ADD15R,0.08200X0.08200*%
%ADD16C,0.08280*%
%ADD17C,0.00500*%
D10*
X0099000Y0034000D03*
X0109000Y0034000D03*
X0119000Y0034000D03*
X0129000Y0034000D03*
X0139000Y0034000D03*
X0149000Y0034000D03*
X0159000Y0034000D03*
X0169000Y0034000D03*
X0184000Y0034000D03*
X0194000Y0034000D03*
X0204000Y0034000D03*
X0214000Y0034000D03*
X0224000Y0034000D03*
X0234000Y0034000D03*
X0244000Y0034000D03*
X0254000Y0034000D03*
X0264000Y0034000D03*
X0274000Y0034000D03*
X0234000Y0054000D03*
X0224000Y0054000D03*
X0214000Y0054000D03*
X0204000Y0054000D03*
X0194000Y0054000D03*
X0184000Y0054000D03*
X0169000Y0054000D03*
X0159000Y0054000D03*
X0149000Y0054000D03*
X0139000Y0054000D03*
X0129000Y0054000D03*
X0119000Y0054000D03*
X0129000Y0094000D03*
X0099000Y0094000D03*
X0074000Y0114000D03*
X0039000Y0104000D03*
X0039000Y0094000D03*
X0039000Y0084000D03*
X0039000Y0134000D03*
X0039000Y0144000D03*
X0039000Y0154000D03*
X0039000Y0164000D03*
X0039000Y0174000D03*
X0039000Y0184000D03*
X0039000Y0194000D03*
X0039000Y0204000D03*
X0039000Y0214000D03*
X0055000Y0225000D03*
X0065000Y0225000D03*
X0075000Y0225000D03*
X0099000Y0224000D03*
X0109000Y0224000D03*
X0119000Y0224000D03*
X0129000Y0224000D03*
X0139000Y0224000D03*
X0149000Y0224000D03*
X0169000Y0224000D03*
X0179000Y0224000D03*
X0189000Y0224000D03*
X0199000Y0224000D03*
X0209000Y0224000D03*
X0219000Y0224000D03*
X0229000Y0224000D03*
X0239000Y0224000D03*
X0199000Y0201500D03*
X0189000Y0201500D03*
X0179000Y0201500D03*
X0074000Y0144000D03*
D11*
X0051157Y0049500D03*
D12*
X0070843Y0049500D03*
D13*
X0151677Y0137000D03*
X0186323Y0137000D03*
D14*
X0178843Y0164559D03*
X0169000Y0164559D03*
X0159157Y0164559D03*
D15*
X0085000Y0225000D03*
D16*
X0213213Y0154472D02*
X0220693Y0154472D01*
X0207110Y0137740D02*
X0207110Y0130260D01*
X0261047Y0130260D02*
X0261047Y0137740D01*
D17*
X0268626Y0098692D02*
X0269020Y0098730D01*
X0269404Y0098683D01*
X0269767Y0098553D01*
X0270092Y0098344D01*
X0270363Y0098069D01*
X0270566Y0097740D01*
X0270690Y0097374D01*
X0270730Y0096990D01*
X0270696Y0096609D01*
X0270578Y0096244D01*
X0270382Y0095915D01*
X0270118Y0095638D01*
X0269798Y0095427D01*
X0269440Y0095292D01*
X0269060Y0095240D01*
X0268660Y0095275D01*
X0268277Y0095398D01*
X0267931Y0095604D01*
X0267640Y0095881D01*
X0267418Y0096216D01*
X0267275Y0096592D01*
X0267220Y0096990D01*
X0267272Y0097383D01*
X0267409Y0097755D01*
X0267625Y0098087D01*
X0267910Y0098362D01*
X0268249Y0098568D01*
X0268626Y0098692D01*
X0267823Y0098278D02*
X0270158Y0098278D01*
X0270542Y0097780D02*
X0267425Y0097780D01*
X0267258Y0097281D02*
X0270700Y0097281D01*
X0270712Y0096783D02*
X0267249Y0096783D01*
X0267392Y0096284D02*
X0270591Y0096284D01*
X0270259Y0095786D02*
X0267740Y0095786D01*
X0268623Y0095287D02*
X0269405Y0095287D01*
X0269020Y0087710D02*
X0269404Y0087663D01*
X0269767Y0087533D01*
X0270092Y0087324D01*
X0270363Y0087049D01*
X0270566Y0086720D01*
X0270690Y0086354D01*
X0270730Y0085970D01*
X0270696Y0085589D01*
X0270578Y0085224D01*
X0270382Y0084895D01*
X0270118Y0084618D01*
X0269798Y0084407D01*
X0269440Y0084272D01*
X0269060Y0084220D01*
X0268660Y0084255D01*
X0268277Y0084378D01*
X0267931Y0084584D01*
X0267640Y0084861D01*
X0267418Y0085196D01*
X0267275Y0085572D01*
X0267220Y0085970D01*
X0267272Y0086363D01*
X0267409Y0086735D01*
X0267625Y0087067D01*
X0267910Y0087342D01*
X0268249Y0087548D01*
X0268626Y0087672D01*
X0269020Y0087710D01*
X0270106Y0087311D02*
X0267878Y0087311D01*
X0267459Y0086812D02*
X0270509Y0086812D01*
X0270695Y0086314D02*
X0267265Y0086314D01*
X0267242Y0085815D02*
X0270717Y0085815D01*
X0270608Y0085317D02*
X0267372Y0085317D01*
X0267685Y0084818D02*
X0270309Y0084818D01*
X0269567Y0084320D02*
X0268459Y0084320D01*
X0245730Y0085970D02*
X0245690Y0086354D01*
X0245566Y0086720D01*
X0245363Y0087049D01*
X0245092Y0087324D01*
X0244767Y0087533D01*
X0244404Y0087663D01*
X0244020Y0087710D01*
X0243626Y0087672D01*
X0243249Y0087548D01*
X0242910Y0087342D01*
X0242625Y0087067D01*
X0242409Y0086735D01*
X0242272Y0086363D01*
X0242220Y0085970D01*
X0242275Y0085572D01*
X0242418Y0085196D01*
X0242640Y0084861D01*
X0242931Y0084584D01*
X0243277Y0084378D01*
X0243660Y0084255D01*
X0244060Y0084220D01*
X0244440Y0084272D01*
X0244798Y0084407D01*
X0245118Y0084618D01*
X0245382Y0084895D01*
X0245578Y0085224D01*
X0245696Y0085589D01*
X0245730Y0085970D01*
X0245717Y0085815D02*
X0242242Y0085815D01*
X0242265Y0086314D02*
X0245695Y0086314D01*
X0245509Y0086812D02*
X0242459Y0086812D01*
X0242878Y0087311D02*
X0245106Y0087311D01*
X0245608Y0085317D02*
X0242372Y0085317D01*
X0242685Y0084818D02*
X0245309Y0084818D01*
X0244567Y0084320D02*
X0243459Y0084320D01*
X0244060Y0095240D02*
X0243660Y0095275D01*
X0243277Y0095398D01*
X0242931Y0095604D01*
X0242640Y0095881D01*
X0242418Y0096216D01*
X0242275Y0096592D01*
X0242220Y0096990D01*
X0242272Y0097383D01*
X0242409Y0097755D01*
X0242625Y0098087D01*
X0242910Y0098362D01*
X0243249Y0098568D01*
X0243626Y0098692D01*
X0244020Y0098730D01*
X0244404Y0098683D01*
X0244767Y0098553D01*
X0245092Y0098344D01*
X0245363Y0098069D01*
X0245566Y0097740D01*
X0245690Y0097374D01*
X0245730Y0096990D01*
X0245696Y0096609D01*
X0245578Y0096244D01*
X0245382Y0095915D01*
X0245118Y0095638D01*
X0244798Y0095427D01*
X0244440Y0095292D01*
X0244060Y0095240D01*
X0244405Y0095287D02*
X0243623Y0095287D01*
X0242740Y0095786D02*
X0245259Y0095786D01*
X0245591Y0096284D02*
X0242392Y0096284D01*
X0242249Y0096783D02*
X0245712Y0096783D01*
X0245700Y0097281D02*
X0242258Y0097281D01*
X0242425Y0097780D02*
X0245542Y0097780D01*
X0245158Y0098278D02*
X0242823Y0098278D01*
M02*
