G75*
%MOIN*%
%OFA0B0*%
%FSLAX25Y25*%
%IPPOS*%
%LPD*%
%AMOC8*
5,1,8,0,0,1.08239X$1,22.5*
%
%ADD10C,0.08200*%
%ADD11R,0.07874X0.07874*%
%ADD12C,0.07700*%
%ADD13C,0.12800*%
%ADD14C,0.08400*%
%ADD15R,0.08200X0.08200*%
%ADD16C,0.08280*%
%ADD17C,0.00500*%
D10*
X0099000Y0034000D03*
X0109000Y0034000D03*
X0119000Y0034000D03*
X0129000Y0034000D03*
X0139000Y0034000D03*
X0149000Y0034000D03*
X0159000Y0034000D03*
X0169000Y0034000D03*
X0184000Y0034000D03*
X0194000Y0034000D03*
X0204000Y0034000D03*
X0214000Y0034000D03*
X0224000Y0034000D03*
X0234000Y0034000D03*
X0244000Y0034000D03*
X0254000Y0034000D03*
X0264000Y0034000D03*
X0274000Y0034000D03*
X0234000Y0054000D03*
X0224000Y0054000D03*
X0214000Y0054000D03*
X0204000Y0054000D03*
X0194000Y0054000D03*
X0184000Y0054000D03*
X0169000Y0054000D03*
X0159000Y0054000D03*
X0149000Y0054000D03*
X0139000Y0054000D03*
X0129000Y0054000D03*
X0119000Y0054000D03*
X0129000Y0094000D03*
X0099000Y0094000D03*
X0074000Y0114000D03*
X0039000Y0104000D03*
X0039000Y0094000D03*
X0039000Y0084000D03*
X0039000Y0134000D03*
X0039000Y0144000D03*
X0039000Y0154000D03*
X0039000Y0164000D03*
X0039000Y0174000D03*
X0039000Y0184000D03*
X0039000Y0194000D03*
X0039000Y0204000D03*
X0039000Y0214000D03*
X0055000Y0225000D03*
X0065000Y0225000D03*
X0075000Y0225000D03*
X0099000Y0224000D03*
X0109000Y0224000D03*
X0119000Y0224000D03*
X0129000Y0224000D03*
X0139000Y0224000D03*
X0149000Y0224000D03*
X0169000Y0224000D03*
X0179000Y0224000D03*
X0189000Y0224000D03*
X0199000Y0224000D03*
X0209000Y0224000D03*
X0219000Y0224000D03*
X0229000Y0224000D03*
X0239000Y0224000D03*
X0199000Y0201500D03*
X0189000Y0201500D03*
X0179000Y0201500D03*
X0074000Y0144000D03*
D11*
X0070843Y0049500D03*
D12*
X0051157Y0049500D03*
D13*
X0151677Y0137000D03*
X0186323Y0137000D03*
D14*
X0178843Y0164559D03*
X0169000Y0164559D03*
X0159157Y0164559D03*
D15*
X0085000Y0225000D03*
D16*
X0213213Y0154472D02*
X0220693Y0154472D01*
X0207110Y0137740D02*
X0207110Y0130260D01*
X0261047Y0130260D02*
X0261047Y0137740D01*
D17*
X0268420Y0100682D02*
X0269080Y0100730D01*
X0269800Y0100652D01*
X0270490Y0100434D01*
X0271124Y0100086D01*
X0271678Y0099621D01*
X0272131Y0099057D01*
X0272465Y0098415D01*
X0272667Y0097721D01*
X0272730Y0097000D01*
X0272669Y0096275D01*
X0272467Y0095577D01*
X0272133Y0094931D01*
X0271679Y0094362D01*
X0271123Y0093893D01*
X0270486Y0093542D01*
X0269793Y0093322D01*
X0269070Y0093241D01*
X0268410Y0093290D01*
X0267769Y0093454D01*
X0267166Y0093726D01*
X0266620Y0094099D01*
X0266147Y0094561D01*
X0265761Y0095099D01*
X0265474Y0095695D01*
X0265295Y0096332D01*
X0265230Y0096990D01*
X0265297Y0097648D01*
X0265478Y0098285D01*
X0265766Y0098880D01*
X0266153Y0099417D01*
X0266628Y0099878D01*
X0267175Y0100249D01*
X0267779Y0100520D01*
X0268420Y0100682D01*
X0267226Y0100272D02*
X0270785Y0100272D01*
X0271496Y0099774D02*
X0266521Y0099774D01*
X0266051Y0099275D02*
X0271956Y0099275D01*
X0272277Y0098777D02*
X0265716Y0098777D01*
X0265476Y0098278D02*
X0272505Y0098278D01*
X0272650Y0097780D02*
X0265334Y0097780D01*
X0265260Y0097281D02*
X0272706Y0097281D01*
X0272712Y0096783D02*
X0265251Y0096783D01*
X0265309Y0096284D02*
X0272669Y0096284D01*
X0272527Y0095786D02*
X0265449Y0095786D01*
X0265670Y0095287D02*
X0272317Y0095287D01*
X0272019Y0094789D02*
X0265984Y0094789D01*
X0266425Y0094290D02*
X0271593Y0094290D01*
X0270938Y0093792D02*
X0267071Y0093792D01*
X0268399Y0093293D02*
X0269539Y0093293D01*
X0269080Y0089710D02*
X0269800Y0089632D01*
X0270490Y0089414D01*
X0271124Y0089066D01*
X0271678Y0088601D01*
X0272131Y0088037D01*
X0272465Y0087395D01*
X0272667Y0086701D01*
X0272730Y0085980D01*
X0272669Y0085255D01*
X0272467Y0084556D01*
X0272133Y0083910D01*
X0271679Y0083342D01*
X0271123Y0082873D01*
X0270486Y0082522D01*
X0269793Y0082301D01*
X0269070Y0082220D01*
X0268410Y0082270D01*
X0267769Y0082434D01*
X0267166Y0082706D01*
X0266620Y0083079D01*
X0266147Y0083541D01*
X0265761Y0084079D01*
X0265474Y0084675D01*
X0265295Y0085312D01*
X0265230Y0085970D01*
X0265297Y0086628D01*
X0265478Y0087265D01*
X0265766Y0087860D01*
X0266153Y0088397D01*
X0266628Y0088858D01*
X0267175Y0089229D01*
X0267779Y0089500D01*
X0268420Y0089662D01*
X0269080Y0089710D01*
X0270689Y0089305D02*
X0267344Y0089305D01*
X0266575Y0088806D02*
X0271434Y0088806D01*
X0271913Y0088308D02*
X0266089Y0088308D01*
X0265741Y0087809D02*
X0272249Y0087809D01*
X0272490Y0087311D02*
X0265500Y0087311D01*
X0265349Y0086812D02*
X0272635Y0086812D01*
X0272701Y0086314D02*
X0265265Y0086314D01*
X0265245Y0085815D02*
X0272716Y0085815D01*
X0272674Y0085317D02*
X0265295Y0085317D01*
X0265434Y0084818D02*
X0272543Y0084818D01*
X0272345Y0084320D02*
X0265645Y0084320D01*
X0265946Y0083821D02*
X0272061Y0083821D01*
X0271656Y0083323D02*
X0266370Y0083323D01*
X0266993Y0082824D02*
X0271034Y0082824D01*
X0269870Y0082326D02*
X0268192Y0082326D01*
X0247669Y0085255D02*
X0247467Y0084556D01*
X0247133Y0083910D01*
X0246679Y0083342D01*
X0246123Y0082873D01*
X0245486Y0082522D01*
X0244793Y0082301D01*
X0244070Y0082220D01*
X0243410Y0082270D01*
X0242769Y0082434D01*
X0242166Y0082706D01*
X0241620Y0083079D01*
X0241147Y0083541D01*
X0240761Y0084079D01*
X0240474Y0084675D01*
X0240295Y0085312D01*
X0240230Y0085970D01*
X0240297Y0086628D01*
X0240478Y0087265D01*
X0240766Y0087860D01*
X0241153Y0088397D01*
X0241628Y0088858D01*
X0242175Y0089229D01*
X0242779Y0089500D01*
X0243420Y0089662D01*
X0244080Y0089710D01*
X0244800Y0089632D01*
X0245490Y0089414D01*
X0246124Y0089066D01*
X0246678Y0088601D01*
X0247131Y0088037D01*
X0247465Y0087395D01*
X0247667Y0086701D01*
X0247730Y0085980D01*
X0247669Y0085255D01*
X0247674Y0085317D02*
X0240295Y0085317D01*
X0240245Y0085815D02*
X0247716Y0085815D01*
X0247701Y0086314D02*
X0240265Y0086314D01*
X0240349Y0086812D02*
X0247635Y0086812D01*
X0247490Y0087311D02*
X0240500Y0087311D01*
X0240741Y0087809D02*
X0247249Y0087809D01*
X0246913Y0088308D02*
X0241089Y0088308D01*
X0241575Y0088806D02*
X0246434Y0088806D01*
X0245689Y0089305D02*
X0242344Y0089305D01*
X0243399Y0093293D02*
X0244539Y0093293D01*
X0244793Y0093322D02*
X0244070Y0093241D01*
X0243410Y0093290D01*
X0242769Y0093454D01*
X0242166Y0093726D01*
X0241620Y0094099D01*
X0241147Y0094561D01*
X0240761Y0095099D01*
X0240474Y0095695D01*
X0240295Y0096332D01*
X0240230Y0096990D01*
X0240297Y0097648D01*
X0240478Y0098285D01*
X0240766Y0098880D01*
X0241153Y0099417D01*
X0241628Y0099878D01*
X0242175Y0100249D01*
X0242779Y0100520D01*
X0243420Y0100682D01*
X0244080Y0100730D01*
X0244800Y0100652D01*
X0245490Y0100434D01*
X0246124Y0100086D01*
X0246678Y0099621D01*
X0247131Y0099057D01*
X0247465Y0098415D01*
X0247667Y0097721D01*
X0247730Y0097000D01*
X0247669Y0096275D01*
X0247467Y0095577D01*
X0247133Y0094931D01*
X0246679Y0094362D01*
X0246123Y0093893D01*
X0245486Y0093542D01*
X0244793Y0093322D01*
X0245938Y0093792D02*
X0242071Y0093792D01*
X0241425Y0094290D02*
X0246593Y0094290D01*
X0247019Y0094789D02*
X0240984Y0094789D01*
X0240670Y0095287D02*
X0247317Y0095287D01*
X0247527Y0095786D02*
X0240449Y0095786D01*
X0240309Y0096284D02*
X0247669Y0096284D01*
X0247712Y0096783D02*
X0240251Y0096783D01*
X0240260Y0097281D02*
X0247706Y0097281D01*
X0247650Y0097780D02*
X0240334Y0097780D01*
X0240476Y0098278D02*
X0247505Y0098278D01*
X0247277Y0098777D02*
X0240716Y0098777D01*
X0241051Y0099275D02*
X0246956Y0099275D01*
X0246496Y0099774D02*
X0241521Y0099774D01*
X0242226Y0100272D02*
X0245785Y0100272D01*
X0247543Y0084818D02*
X0240434Y0084818D01*
X0240645Y0084320D02*
X0247345Y0084320D01*
X0247061Y0083821D02*
X0240946Y0083821D01*
X0241370Y0083323D02*
X0246656Y0083323D01*
X0246034Y0082824D02*
X0241993Y0082824D01*
X0243192Y0082326D02*
X0244870Y0082326D01*
M02*
