%
M48
M72
T01C0.02000
T02C0.03543
T03C0.03937
T04C0.04000
T05C0.07874
%
T01
X136500Y71500
X116500Y126500
X159000Y179000
X99000Y191500
X66500Y194000
X224000Y181500
T02
X51157Y49500
X70843Y49500
X99000Y94000
X129000Y94000
X74000Y114000
X74000Y144000
T03
X159157Y164559
X169000Y164559
X178843Y164559
X216953Y154472
X207110Y134000
X261047Y134000
T04
X269000Y97000
X269000Y86000
X244000Y86000
X244000Y97000
X234000Y54000
X224000Y54000
X214000Y54000
X204000Y54000
X194000Y54000
X184000Y54000
X169000Y54000
X159000Y54000
X149000Y54000
X139000Y54000
X129000Y54000
X119000Y54000
X119000Y34000
X109000Y34000
X99000Y34000
X129000Y34000
X139000Y34000
X149000Y34000
X159000Y34000
X169000Y34000
X184000Y34000
X194000Y34000
X204000Y34000
X214000Y34000
X224000Y34000
X234000Y34000
X244000Y34000
X254000Y34000
X264000Y34000
X274000Y34000
X39000Y84000
X39000Y94000
X39000Y104000
X39000Y134000
X39000Y144000
X39000Y154000
X39000Y164000
X39000Y174000
X39000Y184000
X39000Y194000
X39000Y204000
X39000Y214000
X55000Y225000
X65000Y225000
X75000Y225000
X85000Y225000
X99000Y224000
X109000Y224000
X119000Y224000
X129000Y224000
X139000Y224000
X149000Y224000
X169000Y224000
X179000Y224000
X189000Y224000
X199000Y224000
X209000Y224000
X219000Y224000
X229000Y224000
X239000Y224000
X199000Y201500
X189000Y201500
X179000Y201500
T05
X186323Y137000
X151677Y137000
M30
